<svg width="226" height="48" viewBox="0 0 226 48" fill="none" xmlns="http://www.w3.org/2000/svg">
<path d="M6.85879 36.6841L0 11.3159H4.50989L9.77143 30.7648L15.4088 11.3159H19.6368L25.3681 30.8588L30.7236 11.3159H35.2335L28.3747 36.6841H23.1132L17.5698 17.7049L12.0264 36.6841H6.85879Z" fill="#481173"/>
<path d="M38.334 11.3159H42.656V36.6841H38.334V11.3159Z" fill="#481173"/>
<path d="M51.77 32.6441H62.1991V36.5903H47.542V11.2222H51.77V32.6441Z" fill="#481173"/>
<path d="M75.4469 11.3159C79.0172 11.3159 81.9298 12.5373 84.1848 14.9802C86.5337 17.4231 87.7551 20.4297 87.7551 24C87.7551 27.5703 86.5337 30.5769 84.1848 33.0198C81.8359 35.4626 78.9232 36.6841 75.4469 36.6841H65.3936V11.3159H75.4469ZM75.4469 32.7379C77.8897 32.7379 79.8628 31.8923 81.3661 30.295C82.8694 28.6978 83.715 26.5368 83.715 24.0939C83.715 21.5571 82.9633 19.4901 81.3661 17.8928C79.8628 16.2956 77.8897 15.45 75.4469 15.45H69.6216V32.8319H75.4469V32.7379Z" fill="#481173"/>
<path d="M110.492 29.4494C110.492 31.5165 109.741 33.2077 108.237 34.617C106.734 36.0264 104.949 36.6841 102.788 36.6841H91.7012V11.3159H101.942C104.009 11.3159 105.795 11.9736 107.298 13.289C108.801 14.6044 109.459 16.2956 109.459 18.2687C109.459 20.5236 108.613 22.2148 106.828 23.4362C109.083 24.6577 110.492 26.8187 110.492 29.4494ZM95.9292 15.2621V21.933H101.942C103.822 21.933 105.231 20.4297 105.231 18.6445C105.231 16.7654 103.822 15.356 101.942 15.356H95.9292V15.2621ZM102.788 32.7379C104.761 32.7379 106.264 31.2346 106.264 29.1676C106.264 27.1945 104.761 25.5972 102.788 25.5972H96.0231V32.7379H102.788Z" fill="#481173"/>
<path d="M118.666 32.7379H130.035V36.684H114.438V11.3159H129.847V15.2621H118.666V21.839H128.908V25.7851H118.666V32.7379Z" fill="#481173"/>
<path d="M148.45 36.684L143.001 27.4764H138.021V36.684H133.793V11.3159H144.034C146.383 11.3159 148.262 12.0676 149.859 13.7588C151.457 15.2621 152.302 17.2351 152.302 19.4901C152.302 22.6846 150.235 25.6912 147.229 26.8187L153.054 36.684H148.45ZM138.021 15.2621V23.7181H144.034C146.289 23.7181 148.074 21.839 148.074 19.4901C148.074 17.1412 146.289 15.2621 144.034 15.2621H138.021Z" fill="#481173"/>
<path d="M171 36.6841L165.55 27.4764H160.571V36.6841H156.343V11.3159H166.584C168.933 11.3159 170.812 12.0676 172.409 13.7588C174.007 15.356 174.852 17.2351 174.852 19.4901C174.852 22.6846 172.785 25.6912 169.778 26.8187L175.604 36.6841H171ZM160.571 15.2621V23.7181H166.584C168.839 23.7181 170.624 21.839 170.624 19.4901C170.624 17.1412 168.839 15.2621 166.584 15.2621H160.571Z" fill="#481173"/>
<path d="M178.705 11.3159H182.933V36.6841H178.705V11.3159Z" fill="#481173"/>
<path d="M192.14 32.7379H203.509V36.684H187.912V11.3159H203.321V15.2621H192.14V21.839H202.381V25.7851H192.14V32.7379Z" fill="#481173"/>
<path d="M206.421 30.8588L210.085 28.7918C211.119 31.6105 213.186 33.0198 216.474 33.0198C219.669 33.0198 221.266 31.7044 221.266 29.7314C221.266 28.6978 220.796 27.9462 219.951 27.3825C219.105 26.8187 217.602 26.255 215.347 25.5973C212.904 24.8456 211.682 24.3759 209.991 23.2484C208.3 22.1209 207.548 20.4297 207.548 18.1748C207.548 15.9198 208.394 14.1347 209.991 12.8193C211.588 11.5039 213.562 10.8462 215.817 10.8462C219.951 10.8462 223.145 12.9132 224.742 16.3896L221.172 18.3627C220.138 16.0138 218.259 14.7923 215.817 14.7923C213.374 14.7923 211.776 16.0138 211.776 17.9868C211.776 19.866 212.998 20.7116 216.944 21.933C217.884 22.2149 218.635 22.4967 219.105 22.6847C219.575 22.8726 220.232 23.0605 220.984 23.4363C221.83 23.7182 222.487 24.094 222.863 24.4698C224.273 25.5033 225.682 27.2885 225.494 29.6374C225.494 31.8923 224.648 33.7715 222.957 35.0868C221.266 36.4022 219.105 37.0599 216.38 37.0599C211.401 37.1539 207.83 34.805 206.421 30.8588Z" fill="#481173"/>
</svg>
