<svg width="144" height="48" viewBox="0 0 144 48" fill="none" xmlns="http://www.w3.org/2000/svg">
<path d="M143.668 40.3327C143.668 41.3256 142.873 42.1199 141.881 42.1199H109.877C108.884 42.1199 108.09 41.3256 108.09 40.3327V8.09771C108.09 7.10484 108.884 6.31055 109.877 6.31055H141.864C142.857 6.31055 143.651 7.10484 143.651 8.09771L143.668 40.3327Z" fill="#F47624"/>
<path d="M112.806 16.7354H120.352C121.99 16.7354 123.231 17.1159 124.042 17.8937C124.853 18.6714 125.267 19.7636 125.267 21.1867C125.267 22.6429 124.82 23.7847 123.926 24.6121C123.033 25.4395 121.676 25.8532 119.839 25.8532H117.357V31.1981H112.806V16.7354ZM117.357 22.9242H118.482C119.359 22.9242 119.988 22.7753 120.336 22.4774C120.683 22.1961 120.865 21.7824 120.865 21.3356C120.882 20.9054 120.716 20.4751 120.402 20.1773C120.087 19.8629 119.508 19.6974 118.664 19.6974H117.357V22.9242ZM126.26 16.7354H131.191L133.226 22.6925L135.229 16.7354H139.845L135.03 27.9051C134.732 28.6001 134.385 29.2785 134.004 29.9239C133.673 30.4038 133.226 30.7844 132.697 31.0161C132.118 31.2974 131.323 31.4463 130.314 31.4463C129.784 31.4463 128.858 31.3636 127.55 31.2146V28.236C128.328 28.3188 128.874 28.3519 129.238 28.3519C130.281 28.3519 130.926 27.9713 131.158 27.1935L126.26 16.7354Z" fill="white"/>
<path d="M93.2297 38.7769V27.6733H81.5138V30.8836C81.5138 33.8126 81.1167 36.4437 80.3059 38.7603H78.8662V45.2305H82.3412V42.0864H91.2605V45.2305H94.7355V38.7603H93.2297V38.7769ZM88.9107 38.7769H84.4593C85.1213 35.8645 85.4357 33.3989 85.4357 31.4131V31.2311H88.9107V38.7769Z" fill="#0987C9"/>
<path d="M74.0016 24.1323C73.8857 24.9266 73.472 25.6382 72.8432 26.1346C71.4863 27.144 69.6329 27.144 68.276 26.1346C67.6472 25.6547 67.2335 24.9432 67.1177 24.1489H68.7559C69.0207 24.9763 69.6164 25.3734 70.51 25.3734C71.4697 25.3734 72.082 24.9597 72.3468 24.1489L74.0016 24.1323Z" fill="#0987C9"/>
<path d="M77.1617 27.6733V42.103H73.1075V34.1766L67.9115 42.103H63.8076V27.6733H67.8949V35.6494L73.124 27.6733H77.1617Z" fill="#0987C9"/>
<path d="M49.6768 27.6733H61.2436V30.7512H54.0123V33.0514H60.7141V35.9969H54.0123V38.8265H61.4588V42.103H49.6768V27.6733Z" fill="#0987C9"/>
<path d="M46.2674 28.8317C45.4897 28.0705 44.3148 27.6733 42.7428 27.6733H35.561V42.103H39.8965V36.7581H42.2629C44.0004 36.7581 45.3077 36.3444 46.1516 35.5335C46.9955 34.7227 47.4258 33.5809 47.4258 32.1081C47.4258 30.685 47.0452 29.5929 46.2674 28.8317ZM42.7262 33.3823C42.3953 33.6802 41.7995 33.8291 40.9556 33.8291H39.8965V30.6023H41.1376C41.9485 30.6023 42.5111 30.7678 42.7924 31.0822C43.0903 31.3966 43.2557 31.8103 43.2392 32.2405C43.2392 32.6708 43.0572 33.101 42.7262 33.3823Z" fill="#0987C9"/>
<path d="M20.4861 27.6733H33.6415V31.2311H29.2233V42.103H24.9043V31.2311H20.4861V27.6733Z" fill="#0987C9"/>
<path d="M80.1248 6.29346H84.4437V11.324H89.1433V6.29346H93.4788V20.6735H89.1433V14.8486H84.4437V20.6735H80.1248V6.29346Z" fill="#0987C9"/>
<path d="M74.068 2.76904C73.9687 3.56334 73.5385 4.27489 72.9097 4.75477C72.2643 5.26775 71.4535 5.54907 70.6261 5.51597C69.7987 5.53252 68.9878 5.26775 68.3425 4.75477C67.7137 4.27489 67.3 3.56334 67.2007 2.76904H68.8389C69.1037 3.57988 69.6828 3.99358 70.593 3.99358C71.5527 3.99358 72.165 3.57988 72.4298 2.76904H74.068V2.76904Z" fill="#0987C9"/>
<path d="M77.2287 6.29346V20.6735H73.1745V12.7802L67.995 20.6735H63.9077V6.29346H67.9785V14.2529L73.2075 6.29346H77.2287Z" fill="#0987C9"/>
<path d="M57.3045 6.29346H52.5884L47.3428 20.6735H51.7445L52.4395 18.3071H57.3211L58.0161 20.6735H62.5336L57.3045 6.29346ZM53.3496 15.1961L54.872 10.0332L56.3944 15.1961H53.3496Z" fill="#0987C9"/>
<path d="M45.8866 20.6735H41.5842V9.83468H38.2085V14.2529C38.2085 16.0732 38.1092 17.4136 37.9272 18.2575C37.7782 19.0518 37.3149 19.7302 36.6199 20.1439C35.9249 20.5411 34.8162 20.7396 33.2938 20.7396C32.7477 20.7396 32.2016 20.69 31.6721 20.5907V17.6618H32.3175C32.8967 17.6618 33.3103 17.5294 33.542 17.2646C33.7737 16.9999 33.9061 16.52 33.9061 15.8084V6.29346H45.8866V20.6735Z" fill="#0987C9"/>
<path d="M16.8787 6.29346H21.1811V11.324H25.8972V6.29346H30.2162V20.6735H25.8972V14.8486H21.1811V20.6735H16.8787V6.29346Z" fill="#0987C9"/>
<path d="M12.659 7.98155C11.4014 6.70737 9.61425 6.06201 7.29756 6.06201C5.03052 6.06201 3.25991 6.70737 2.00228 8.03119C0.711553 9.32192 0 11.6055 0 13.9387C0 15.6266 0.413694 16.5698 1.05906 17.6785C1.62168 18.721 2.49871 19.5815 3.55777 20.1276C4.58373 20.6406 5.891 20.9053 7.46304 20.9053C9.03507 20.9053 10.3093 20.6075 11.3352 20.0118C12.3612 19.4326 13.1886 18.5556 13.7181 17.4965C14.2642 16.4209 14.5455 15.0474 14.5455 13.3596C14.5289 11.076 13.9167 9.27228 12.659 7.98155ZM9.46532 16.6526C8.95234 17.2648 8.24078 17.5792 7.31411 17.5792C6.38743 17.5792 5.69243 17.2648 5.17945 16.636C4.66647 16.0072 4.4017 14.9647 4.4017 13.5085C4.4017 12.0523 4.66647 10.9932 5.19599 10.3644C5.70898 9.73561 6.48672 9.38811 7.29756 9.42121C8.20769 9.42121 8.91924 9.73561 9.44877 10.3644C9.9783 10.9932 10.2431 11.9696 10.2431 13.3265C10.2265 14.9151 9.9783 16.0403 9.46532 16.6526Z" fill="#0987C9"/>
<path fill-rule="evenodd" clip-rule="evenodd" d="M100.776 21.8154C102.066 21.8154 103.125 22.8745 103.125 24.1652C103.125 25.4559 102.066 26.515 100.776 26.515C99.4848 26.515 98.4258 25.4559 98.4258 24.1652C98.4258 22.8745 99.4683 21.8154 100.776 21.8154Z" fill="#0987C9"/>
<path fill-rule="evenodd" clip-rule="evenodd" d="M100.776 19.3005C101.239 19.3005 101.703 19.3998 102.116 19.5984V7.03865C102.116 6.36019 101.57 6.31055 100.892 6.31055H100.644C99.9653 6.31055 99.4192 6.36019 99.4192 7.03865V19.5984C99.8494 19.3998 100.313 19.3005 100.776 19.3005Z" fill="#0987C9"/>
<path fill-rule="evenodd" clip-rule="evenodd" d="M100.776 29.1133C100.312 29.1133 99.849 29.014 99.4353 28.8154V41.3421C99.4353 42.0205 99.9814 42.1033 100.66 42.1033H100.908C101.587 42.1033 102.133 42.004 102.133 41.3421V28.8154C101.702 29.014 101.239 29.1133 100.776 29.1133Z" fill="#0987C9"/>
</svg>
