<svg width="180" height="48" viewBox="0 0 180 48" fill="none" xmlns="http://www.w3.org/2000/svg">
<path d="M84.5082 35.528H88.079L93.0564 17.0183V35.528H97.06V11.0649H91.5415L86.5641 29.0334L81.5866 11.0649H75.96V35.528H79.4225V17.0183L84.5082 35.528ZM113.832 23.4047C113.832 19.075 111.668 17.4513 107.231 17.4513C104.418 17.4513 102.254 18.3173 100.955 19.075V22.5388C102.037 21.6728 104.526 20.8069 106.69 20.8069C108.746 20.8069 109.612 21.5646 109.612 23.4047V24.3789H108.963C102.578 24.3789 99.6569 26.5438 99.6569 30.1158C99.6569 33.6878 101.821 35.7445 105.067 35.7445C107.556 35.7445 108.638 34.9868 109.395 34.1208H109.612C109.612 34.5538 109.828 35.2033 109.936 35.528H114.048C113.94 34.1208 113.832 32.6054 113.832 31.1982V23.4047ZM109.612 31.3065C109.071 32.0642 108.097 32.7136 106.582 32.7136C104.851 32.7136 103.985 31.6312 103.985 30.1158C103.985 28.0592 105.392 27.3015 109.071 27.3015H109.72L109.612 31.3065ZM121.082 17.776H117.186V40.6154H121.406V33.4714C122.488 35.095 124.003 35.8527 125.843 35.8527C129.954 35.8527 132.768 32.6054 132.768 26.652C132.768 20.6986 130.063 17.4513 126.059 17.4513C124.111 17.4513 122.488 18.3173 121.298 20.0492L121.082 17.776ZM124.652 32.6054C122.488 32.6054 121.298 30.7653 121.298 26.7603C121.298 22.647 122.488 20.8069 124.869 20.8069C127.141 20.8069 128.331 22.647 128.331 26.652C128.331 30.7653 127.141 32.6054 124.652 32.6054ZM145.861 35.528H150.622L143.913 26.0026L149.864 17.776H145.644L139.693 26.0026V17.776H135.473V35.528H139.693V26.8685L145.861 35.528ZM164.688 34.3373V30.8735C163.39 31.7395 161.226 32.4972 159.17 32.4972C156.14 32.4972 154.95 31.09 154.733 28.0592H164.796V25.7861C164.796 19.6162 162.091 17.3431 157.871 17.3431C152.786 17.3431 150.297 21.2398 150.297 26.652C150.297 32.8219 153.327 35.8527 158.629 35.8527C161.55 35.8527 163.498 35.2033 164.688 34.3373ZM157.871 20.8069C159.927 20.8069 160.576 22.5388 160.576 24.7036V25.0284H154.733C154.842 22.214 155.924 20.8069 157.871 20.8069ZM179.837 21.1316V17.776H165.77V21.1316H170.748V35.528H174.968V21.1316H179.837Z" fill="black"/>
<path d="M50.9646 39.8578C59.9457 39.8578 67.1954 32.6055 67.1954 23.6213C67.1954 14.6371 59.9457 7.38477 50.9646 7.38477C41.9836 7.38477 34.7338 14.6371 34.7338 23.6213C34.6256 32.6055 41.9836 39.8578 50.9646 39.8578Z" fill="#FED42B"/>
<path d="M16.2308 39.8578C25.1948 39.8578 32.4616 32.5885 32.4616 23.6213C32.4616 14.6541 25.1948 7.38477 16.2308 7.38477C7.26677 7.38477 0 14.6541 0 23.6213C0 32.5885 7.26677 39.8578 16.2308 39.8578Z" fill="#FC3F1D"/>
<path d="M18.6112 16.4772H16.9881C14.1748 16.4772 12.7681 17.8844 12.7681 20.0493C12.7681 22.4306 13.742 23.6213 15.7979 25.0285L17.421 26.2192L12.7681 33.4715H8.98096L13.4174 26.8686C10.8204 25.0285 9.41378 23.2966 9.41378 20.2658C9.41378 16.4772 12.0107 13.8794 16.9881 13.8794H21.9656V33.3632H18.7194L18.6112 16.4772Z" fill="white"/>
<path d="M66.8712 20.482C64.5989 23.9458 62.3266 26.4354 61.1364 26.1107C59.0805 25.5695 60.92 18.9666 62.1102 14.7451V14.6369L55.5097 12.3638L47.6107 25.2448L48.6928 18.2089L42.9579 16.2605L34.9507 26.6519C35.3835 28.8168 36.2491 30.8734 37.4394 32.7136L43.0661 25.2448L41.984 32.93L47.9353 34.9867L55.1851 23.4046C54.8605 25.5695 54.3194 30.5487 59.0805 32.0641C61.461 32.8218 63.7333 31.9559 65.7892 30.224C66.6548 28.1673 67.1959 26.0025 67.1959 23.6211C67.1959 22.5387 67.0877 21.4562 66.8712 20.482Z" fill="black"/>
</svg>
