<svg width="133" height="48" viewBox="0 0 133 48" fill="none" xmlns="http://www.w3.org/2000/svg">
<path d="M55.519 31.0959H44.0537L58.691 11.6817C59.01 11.2554 58.9214 10.6337 58.4961 10.314C58.3366 10.1897 58.1239 10.1186 57.9113 10.1186H36.735C34.8744 10.1186 33.3504 11.6462 33.3504 13.5112C33.3504 15.3763 34.8744 16.9038 36.735 16.9038H46.2511L31.5606 36.3358C31.2239 36.7621 31.3125 37.366 31.7378 37.7035C31.915 37.8456 32.1277 37.9167 32.3403 37.8989H55.5013C57.362 37.8101 58.7973 36.2115 58.7087 34.3287C58.6201 32.588 57.2379 31.2025 55.5013 31.1137L55.519 31.0959ZM129.521 10.1186C127.66 10.1186 126.136 11.6462 126.136 13.5112V24.8969L107.848 10.3495C107.441 10.0121 106.82 10.0653 106.484 10.4916C106.342 10.6693 106.271 10.8824 106.271 11.1133V34.5063C106.271 36.3713 107.795 37.8989 109.656 37.8989C111.516 37.8989 113.04 36.3891 113.04 34.5063V23.1207L131.328 37.6858C131.754 38.0232 132.374 37.9522 132.71 37.5259C132.852 37.3483 132.923 37.1351 132.923 36.922V13.5112C132.905 11.6284 131.399 10.1186 129.521 10.1186ZM81.1254 31.7354C73.3815 31.7354 67.6045 27.65 67.6045 23.991C67.6045 20.332 73.3992 16.2466 81.1254 16.2466C88.8694 16.2466 94.6463 20.332 94.6463 23.991C94.6463 27.65 88.8871 31.7354 81.1254 31.7354ZM81.1254 9.46143C69.9259 9.46143 60.8352 15.9624 60.8352 23.991C60.8352 32.0196 69.9259 38.5206 81.1254 38.5206C92.3249 38.5206 101.416 32.0196 101.416 23.991C101.416 15.9624 92.3249 9.46143 81.1254 9.46143ZM14.5133 31.7531C10.2426 31.7531 6.76931 28.2895 6.76931 24.0088C6.76931 19.728 10.2249 16.2466 14.4955 16.2466C18.7662 16.2466 22.2395 19.7103 22.2395 23.991V24.0088C22.2395 28.2717 18.784 31.7354 14.5133 31.7531ZM14.5133 9.46143C6.5035 9.46143 0.0177207 15.9624 0 23.991C0 32.0196 6.48578 38.5206 14.4955 38.5383C22.5053 38.5383 28.9911 32.0373 29.0088 24.0088V23.991C28.9911 15.9624 22.5053 9.46143 14.5133 9.46143Z" fill="#005BFF"/>
</svg>
