<svg width="188" height="48" viewBox="0 0 188 48" fill="none" xmlns="http://www.w3.org/2000/svg">
<path fill-rule="evenodd" clip-rule="evenodd" d="M129.033 22.1937C129.033 23.3291 129.962 24.1549 131.097 24.1549C132.233 24.1549 133.162 23.2259 133.162 22.1937V17.6517H139.871V22.1937C139.871 23.3291 140.8 24.1549 141.936 24.1549C143.071 24.1549 144 23.2259 144 22.1937V9.08398C144 7.94849 143.071 7.12269 141.936 7.12269C140.8 7.12269 139.871 8.05172 139.871 9.08398V13.6259H133.162V9.08398C133.162 7.94849 132.233 7.12269 131.097 7.12269C129.962 7.12269 129.033 8.05172 129.033 9.08398V22.1937ZM80.5166 11.2517V22.1937C80.5166 23.3291 81.4456 24.1549 82.5811 24.1549C83.7166 24.1549 84.6456 23.2259 84.6456 22.1937V11.2517H87.7424C88.8779 11.2517 89.8069 10.3227 89.8069 9.29043C89.8069 8.15494 88.8779 7.22591 87.7424 7.22591H77.5231C76.3876 7.22591 75.4585 8.15494 75.4585 9.1872C75.4585 10.3227 76.3876 11.1485 77.5231 11.1485H80.5166V11.2517ZM66.2714 16.2066L61.5231 8.05172C60.9037 7.12269 59.7682 6.81301 58.8392 7.22591C57.8069 7.84527 57.4973 8.98075 58.1166 10.013L63.794 19.613C63.0715 20.0259 62.3489 20.2324 61.5231 20.3356C60.3876 20.4388 59.665 21.2646 59.665 22.2969C59.665 23.5356 60.6973 24.2582 61.7295 24.2582C64.0005 24.2582 66.065 23.1227 67.5102 21.4711C68.8521 20.0259 69.8844 18.0646 70.8134 16.3098L74.1166 10.013C74.6327 9.08398 74.3231 7.74204 73.2908 7.22591C72.3618 6.81301 71.1231 7.12269 70.6069 8.15494L66.2714 16.2066ZM147.097 15.5872C147.097 20.542 150.71 24.1549 155.665 24.1549C160.62 24.1549 164.233 20.542 164.233 15.5872C164.233 10.6324 160.517 7.01946 155.665 7.01946C150.813 7.01946 147.097 10.7356 147.097 15.5872ZM160.207 15.5872C160.207 18.1678 158.349 20.1291 155.768 20.1291C153.084 20.1291 151.33 18.1678 151.33 15.5872C151.33 13.0066 153.188 10.942 155.768 10.942C158.349 11.0453 160.207 13.0066 160.207 15.5872ZM178.271 11.2517C179.407 11.2517 180.233 10.3227 180.233 9.29043C180.233 8.25817 179.304 7.32914 178.271 7.32914H175.175C170.117 7.32914 166.607 10.942 166.607 15.6904C166.607 20.4388 170.117 24.0517 175.175 24.0517H178.271C179.407 24.0517 180.233 23.1227 180.233 22.0904C180.233 21.0582 179.304 20.1291 178.271 20.1291H175.071C172.388 20.1291 170.633 18.2711 170.633 15.6904C170.633 13.1098 172.388 11.2517 175.071 11.2517H178.271ZM103.639 23.5356C104.362 24.3614 105.704 24.3614 106.426 23.5356C107.149 22.813 107.252 21.4711 106.53 20.7485L101.368 15.3808L106.323 10.2195C107.046 9.39365 107.046 8.15494 106.22 7.43236C105.497 6.60656 104.155 6.70978 103.433 7.43236L98.2715 12.6969C97.8586 13.1098 97.5489 13.213 97.136 13.213C96.6198 13.213 96.2069 12.9033 96.2069 12.284V9.08398C96.2069 7.94849 95.2779 7.12269 94.1424 7.12269C93.0069 7.12269 92.0779 8.05172 92.0779 9.08398V22.1937C92.0779 23.3291 93.0069 24.1549 94.1424 24.1549C95.2779 24.1549 96.2069 23.2259 96.2069 22.1937V18.4775C96.2069 17.9614 96.6198 17.6517 97.136 17.6517C97.4456 17.6517 97.7553 17.7549 98.2715 18.1678L103.639 23.5356ZM108.697 15.5872C108.697 20.542 112.31 24.1549 117.265 24.1549C122.22 24.1549 125.833 20.542 125.833 15.5872C125.833 10.6324 122.117 7.01946 117.265 7.01946C112.31 7.01946 108.697 10.7356 108.697 15.5872ZM121.704 15.5872C121.704 18.1678 119.846 20.1291 117.265 20.1291C114.581 20.1291 112.826 18.1678 112.826 15.5872C112.826 13.0066 114.684 10.942 117.265 10.942C119.846 10.942 121.704 13.0066 121.704 15.5872ZM185.291 14.0388C186.426 14.0388 187.355 13.1098 187.355 11.9743C187.355 10.8388 186.426 9.90978 185.291 9.90978C184.155 9.90978 183.226 10.8388 183.226 11.9743C183.226 13.1098 184.155 14.0388 185.291 14.0388ZM185.291 21.2646C186.426 21.2646 187.355 20.3356 187.355 19.2001C187.355 18.0646 186.426 17.1356 185.291 17.1356C184.155 17.1356 183.226 18.0646 183.226 19.2001C183.226 20.3356 184.155 21.2646 185.291 21.2646Z" fill="#13A538"/>
<path d="M61.213 32.9287C63.1743 32.9287 64.3098 34.3739 64.3098 36.2319C64.3098 38.09 63.2775 39.5352 61.213 39.5352C59.2517 39.5352 58.1162 38.09 58.1162 36.2319C58.1162 34.3739 59.1485 32.9287 61.213 32.9287ZM61.213 38.8126C62.6582 38.8126 63.484 37.7803 63.484 36.2319C63.484 34.6835 62.6582 33.6513 61.213 33.6513C59.7678 33.6513 58.942 34.6835 58.942 36.2319C58.942 37.7803 59.7678 38.8126 61.213 38.8126Z" fill="black"/>
<path d="M70.8128 33.0322C71.0193 33.0322 71.1225 33.2387 71.1225 33.4451V38.9161C71.1225 39.1225 71.0193 39.329 70.8128 39.329C70.6064 39.329 70.5032 39.1225 70.5032 38.9161V36.4387H66.6838V38.9161C66.6838 39.1225 66.5806 39.329 66.3741 39.329C66.1677 39.329 66.0645 39.1225 66.0645 38.9161V33.4451C66.0645 33.2387 66.1677 33.0322 66.3741 33.0322C66.5806 33.0322 66.6838 33.2387 66.6838 33.4451V35.7161H70.5032V33.4451C70.5032 33.2387 70.6064 33.0322 70.8128 33.0322Z" fill="black"/>
<path d="M73.6003 37.9871C73.91 37.058 74.1165 35.2 74.2197 33.3419C74.2197 33.1355 74.3229 33.0322 74.5294 33.0322H77.6261C77.9358 33.0322 78.039 33.2387 78.039 33.4451V38.9161C78.039 39.1225 77.9358 39.329 77.7294 39.329C77.5229 39.329 77.4197 39.1225 77.4197 38.9161V33.7548H74.9423C74.839 35.2 74.7358 37.2645 74.2197 38.4C73.91 39.1225 73.4971 39.4322 72.981 39.4322C72.6713 39.4322 72.4648 39.329 72.4648 39.0193C72.4648 38.7096 72.6713 38.7096 72.8777 38.7096C73.1874 38.7096 73.3939 38.4 73.6003 37.9871Z" fill="black"/>
<path d="M80.3091 33.8579C80.2059 33.6515 80.3091 33.445 80.5155 33.3418C81.0317 33.1354 81.7543 32.8257 82.5801 32.8257C84.2317 32.8257 84.9543 33.6515 84.9543 35.0967V38.8128C84.9543 39.0192 84.851 39.2257 84.6446 39.2257C84.4381 39.2257 84.3349 39.0192 84.3349 38.8128V37.8837C84.0252 38.6063 83.3027 39.4321 81.8575 39.4321C80.6188 39.4321 79.793 38.8128 79.793 37.5741C79.793 35.9225 81.2381 35.5096 82.6833 35.5096C83.4059 35.5096 83.922 35.6128 84.3349 35.6128V35.3031C84.3349 34.2708 83.8188 33.6515 82.5801 33.6515C81.9607 33.6515 81.4446 33.8579 80.9285 33.9612C80.6188 34.0644 80.3091 34.0644 80.3091 33.8579ZM84.2317 36.4386V36.2321C83.6123 36.1289 83.3027 36.1289 82.5801 36.1289C81.3414 36.1289 80.4123 36.5418 80.4123 37.5741C80.4123 38.2967 80.9285 38.8128 81.8575 38.8128C83.4059 38.8128 84.2317 37.4708 84.2317 36.4386Z" fill="black"/>
<path d="M87.4325 39.1224C87.3293 39.2256 87.2261 39.3289 87.0196 39.3289C86.8132 39.3289 86.71 39.1224 86.71 38.916V33.445C86.71 33.2385 86.8132 33.0321 87.0196 33.0321C87.2261 33.0321 87.3293 33.2385 87.3293 33.445V38.1934L91.1487 33.2385C91.2519 33.1353 91.3551 33.0321 91.4583 33.0321C91.6648 33.0321 91.768 33.2385 91.768 33.445V38.916C91.768 39.1224 91.6648 39.3289 91.4583 39.3289C91.2519 39.3289 91.1487 39.1224 91.1487 38.916V34.2708L87.4325 39.1224ZM87.639 31.0708C87.5358 30.8643 87.5358 30.6579 87.7422 30.5547C87.9487 30.4514 88.1551 30.5547 88.2583 30.7611C88.4648 31.174 88.8777 31.4837 89.3938 31.4837C89.91 31.4837 90.3229 31.174 90.5293 30.7611C90.6325 30.5547 90.839 30.4514 91.0454 30.5547C91.2519 30.6579 91.2519 30.8643 91.1487 31.0708C90.9422 31.4837 90.4261 32.103 89.3938 32.103C88.4648 32.103 87.8454 31.4837 87.639 31.0708Z" fill="black"/>
<path d="M98.6839 33.0322C98.8904 33.0322 98.9936 33.2387 98.9936 33.4451V38.9161C98.9936 39.1225 98.8904 39.329 98.6839 39.329C98.4775 39.329 98.3743 39.1225 98.3743 38.9161V36.4387H94.5549V38.9161C94.5549 39.1225 94.4517 39.329 94.2452 39.329C94.0388 39.329 93.9355 39.1225 93.9355 38.9161V33.4451C93.9355 33.2387 94.0388 33.0322 94.2452 33.0322C94.4517 33.0322 94.5549 33.2387 94.5549 33.4451V35.7161H98.3743V33.4451C98.3743 33.2387 98.4775 33.0322 98.6839 33.0322Z" fill="black"/>
<path d="M101.161 35.9225C101.161 35.716 101.264 35.6128 101.471 35.6128H104.877C105.084 35.6128 105.187 35.716 105.187 35.9225C105.187 36.1289 105.084 36.2321 104.877 36.2321H101.471C101.264 36.2321 101.161 36.1289 101.161 35.9225Z" fill="black"/>
<path d="M107.974 38.9161C107.974 39.1225 107.871 39.329 107.664 39.329C107.458 39.329 107.354 39.1225 107.354 38.9161V33.4451C107.354 33.2387 107.458 33.0322 107.664 33.0322H110.761C110.967 33.0322 111.071 33.1355 111.071 33.3419C111.071 33.5484 110.967 33.6516 110.761 33.6516H107.974V38.9161Z" fill="black"/>
<path d="M113.239 39.1226C113.136 39.2258 113.033 39.329 112.826 39.329C112.62 39.329 112.517 39.1225 112.517 38.9161V33.4451C112.517 33.2387 112.62 33.0322 112.826 33.0322C113.033 33.0322 113.136 33.2387 113.136 33.4451V38.1935L116.955 33.2387C117.059 33.1355 117.162 33.0322 117.265 33.0322C117.471 33.0322 117.575 33.2387 117.575 33.4451V38.9161C117.575 39.1225 117.471 39.329 117.265 39.329C117.059 39.329 116.955 39.1225 116.955 38.9161V34.2709L113.239 39.1226Z" fill="black"/>
<path d="M120.671 33.7548V38.9161C120.671 39.1225 120.568 39.329 120.361 39.329C120.155 39.329 120.052 39.1225 120.052 38.9161V33.4451C120.052 33.2387 120.155 33.0322 120.361 33.0322H124.697C124.903 33.0322 125.11 33.2387 125.11 33.4451V38.9161C125.11 39.1225 125.007 39.329 124.8 39.329C124.594 39.329 124.49 39.1225 124.49 38.9161V33.7548H120.671Z" fill="black"/>
<path d="M131.097 38.4C131.304 38.2967 131.51 38.2967 131.613 38.5032C131.717 38.7096 131.613 38.9161 131.407 39.0193C130.891 39.329 130.168 39.5354 129.446 39.5354C127.484 39.5354 126.452 38.2967 126.452 36.3355C126.452 34.4774 127.484 33.0322 129.342 33.0322C130.994 33.0322 131.82 34.2709 131.82 35.5096C131.82 35.7161 131.82 35.9225 131.82 36.0258C131.717 36.4387 131.613 36.6451 131.097 36.6451H127.175C127.278 38.0903 128.104 38.9161 129.446 38.9161C130.065 38.8129 130.581 38.6064 131.097 38.4ZM127.278 35.9225H131.201C131.201 35.7161 131.201 35.6129 131.201 35.4064C131.201 34.3742 130.581 33.5484 129.342 33.5484C128.104 33.5484 127.381 34.3742 127.278 35.9225Z" fill="black"/>
<path d="M139.148 36.0255C139.148 37.8835 138.219 39.5352 136.155 39.5352C135.432 39.5352 134.813 39.4319 134.4 39.1223V41.4965C134.4 41.7029 134.297 41.9094 133.987 41.9094C133.677 41.9094 133.574 41.7029 133.574 41.4965V33.4448C133.574 33.2384 133.677 33.0319 133.987 33.0319C134.297 33.0319 134.4 33.2384 134.4 33.4448V34.4771C134.813 33.4448 135.639 32.9287 136.774 32.9287C138.323 32.9287 139.148 34.1674 139.148 36.0255ZM134.297 37.0577V38.2964C134.813 38.6061 135.432 38.7094 136.052 38.7094C137.703 38.7094 138.323 37.3674 138.323 35.9223C138.323 34.5803 137.806 33.5481 136.465 33.5481C134.71 33.5481 134.297 35.5094 134.297 37.0577Z" fill="black"/>
<path d="M141.006 33.0322C141.213 33.0322 141.316 33.1355 141.419 33.3419L143.587 36.4387L145.858 33.3419C145.961 33.1355 146.168 33.0322 146.374 33.0322C146.581 33.0322 146.684 33.2387 146.684 33.4451V38.9161C146.684 39.1225 146.581 39.329 146.271 39.329C145.961 39.329 145.858 39.1225 145.858 38.9161V34.2709L143.793 37.058C143.587 37.3677 143.277 37.3677 143.071 37.058L141.11 34.3742V38.9161C141.11 39.1225 141.006 39.329 140.8 39.329C140.593 39.329 140.49 39.1225 140.49 38.9161V33.4451C140.697 33.2387 140.8 33.0322 141.006 33.0322Z" fill="black"/>
<path d="M149.058 33.8579C148.954 33.6515 149.058 33.445 149.264 33.3418C149.78 33.1354 150.503 32.8257 151.329 32.8257C152.98 32.8257 153.703 33.6515 153.703 35.0967V38.8128C153.703 39.0192 153.599 39.2257 153.29 39.2257C152.98 39.2257 152.877 39.0192 152.877 38.8128V37.8837C152.567 38.6063 151.845 39.4321 150.399 39.4321C149.161 39.4321 148.335 38.8128 148.335 37.5741C148.335 35.9225 149.78 35.5096 151.225 35.5096C151.948 35.5096 152.464 35.6128 152.877 35.6128V35.3031C152.877 34.2708 152.361 33.6515 151.122 33.6515C150.503 33.6515 149.987 33.8579 149.47 33.9612C149.367 34.0644 149.058 34.0644 149.058 33.8579ZM152.877 36.4386V36.2321C152.361 36.1289 151.948 36.1289 151.329 36.1289C150.09 36.1289 149.161 36.5418 149.161 37.5741C149.161 38.2967 149.677 38.8128 150.606 38.8128C152.154 38.8128 152.877 37.4708 152.877 36.4386Z" fill="black"/>
<path d="M160.929 36.0255C160.929 37.8835 160 39.5352 157.935 39.5352C157.213 39.5352 156.593 39.4319 156.18 39.1223V41.4965C156.18 41.7029 156.077 41.9094 155.767 41.9094C155.458 41.9094 155.354 41.7029 155.354 41.4965V33.4448C155.354 33.2384 155.458 33.0319 155.767 33.0319C156.077 33.0319 156.18 33.2384 156.18 33.4448V34.4771C156.593 33.4448 157.419 32.9287 158.555 32.9287C160.206 32.9287 160.929 34.1674 160.929 36.0255ZM156.18 37.0577V38.2964C156.696 38.6061 157.316 38.7094 157.935 38.7094C159.587 38.7094 160.206 37.3674 160.206 35.9223C160.206 34.5803 159.69 33.5481 158.348 33.5481C156.49 33.5481 156.18 35.5094 156.18 37.0577Z" fill="black"/>
<path d="M163.097 33.0322C163.304 33.0322 163.51 33.2386 163.51 33.4451V35.9225L166.297 33.1354C166.504 32.9289 166.71 32.9289 166.813 33.0322C166.917 33.1354 166.917 33.3418 166.71 33.5483L164.129 36.1289L167.02 38.7096C167.226 38.916 167.226 39.1225 167.123 39.2257C167.02 39.4322 166.71 39.3289 166.504 39.2257L163.407 36.4386V38.916C163.407 39.1225 163.304 39.3289 162.994 39.3289C162.684 39.3289 162.581 39.1225 162.581 38.916V33.4451C162.788 33.2386 162.891 33.0322 163.097 33.0322Z" fill="black"/>
<path d="M173.007 38.4C173.213 38.2967 173.42 38.2967 173.523 38.5032C173.626 38.7096 173.523 38.9161 173.42 39.0193C172.904 39.329 172.181 39.5354 171.458 39.5354C169.497 39.5354 168.465 38.2967 168.465 36.3355C168.465 34.4774 169.497 33.0322 171.355 33.0322C173.007 33.0322 173.833 34.2709 173.833 35.5096C173.833 35.7161 173.833 35.9225 173.833 36.0258C173.729 36.4387 173.626 36.6451 173.11 36.6451H169.187C169.291 38.0903 170.116 38.9161 171.458 38.9161C171.975 38.8129 172.491 38.6064 173.007 38.4ZM169.187 35.9225H173.11C173.11 35.7161 173.11 35.6129 173.11 35.4064C173.11 34.3742 172.491 33.5484 171.252 33.5484C170.013 33.5484 169.291 34.3742 169.187 35.9225Z" fill="black"/>
<path d="M177.961 38.9159C177.961 39.1224 177.857 39.3288 177.548 39.3288C177.238 39.3288 177.135 39.1224 177.135 38.9159V33.7546H175.07C174.864 33.7546 174.761 33.6514 174.761 33.4449C174.761 33.2385 174.864 33.1353 175.07 33.1353H179.922C180.128 33.1353 180.232 33.2385 180.232 33.4449C180.232 33.6514 180.128 33.7546 179.922 33.7546H177.858L177.961 38.9159Z" fill="black"/>
<path fill-rule="evenodd" clip-rule="evenodd" d="M43.871 5.16129C43.871 2.27097 41.4968 0 38.7097 0H5.16129C2.37419 0 0 2.37419 0 5.16129V26.0129C0 38.1936 9.80645 48 21.8839 48C33.9613 48 43.871 38.1936 43.871 26.0129C43.871 17.7548 43.871 13.5226 43.871 5.16129Z" fill="#FEC800"/>
<path fill-rule="evenodd" clip-rule="evenodd" d="M20.4386 31.8965C20.4386 30.7611 19.5096 29.832 18.3741 29.832C17.2386 29.832 16.3096 30.7611 16.3096 31.8965C16.3096 33.032 17.2386 33.9611 18.3741 33.9611C19.5096 33.9611 20.4386 33.032 20.4386 31.8965ZM27.7676 31.8965C27.7676 30.7611 26.8386 29.832 25.7031 29.832C24.5676 29.832 23.6386 30.7611 23.6386 31.8965C23.6386 33.032 24.5676 33.9611 25.7031 33.9611C26.8386 33.9611 27.7676 33.032 27.7676 31.8965Z" fill="black"/>
</svg>
