<svg width="134" height="272" viewBox="0 0 134 272" fill="none" xmlns="http://www.w3.org/2000/svg">
<path d="M109.146 21.2769L108.82 20.8747C108.379 20.1661 107.366 20.7218 107.654 21.488C107.769 21.7944 108.095 22.1966 108.21 22.5031L108.114 22.7138L108.172 22.867C108.076 23.0777 108.134 23.231 108.191 23.3842C108.609 38.4401 114.768 53.4373 123.603 65.3308C128.509 71.8808 134.313 77.5687 140.863 82.4519C148.37 88.0244 156.623 92.7924 164.57 97.6753C171.942 102.424 178.971 107.652 185.254 113.685C191.058 119.373 196.308 125.444 201.52 131.879C211.791 144.806 220.953 158.5 231.625 171.102C236.933 177.326 242.431 183.129 248.637 188.491C251.95 191.268 255.417 193.988 259.017 196.132C256.318 195.922 253.409 195.616 250.653 195.253C250.29 195.215 249.926 195.176 249.563 195.138C248.988 195.004 248.414 194.87 247.993 194.679C246.481 194.373 244.816 194.124 243.208 194.028C242.481 193.952 241.754 193.875 241.026 193.799C240.758 193.55 240.337 193.359 239.878 193.531C239.725 193.589 239.419 193.704 239.266 193.761C238.902 193.723 238.328 193.589 237.964 193.551C237.696 193.302 237.428 193.053 236.911 193.072C236.605 193.187 236.242 193.149 235.936 193.264L235.725 193.168C230.077 190.219 223.951 188.324 217.597 187.215C211.394 184.649 205.439 181.815 199.485 178.982C186.887 172.874 174.823 165.865 163.295 157.957C160.059 155.85 156.918 153.533 153.777 151.216C152.283 150.029 150.636 148.899 149.142 147.712C148.28 146.812 147.361 145.758 146.498 144.858C146.23 144.609 145.962 144.36 145.847 144.054C145.502 143.134 145.003 142.273 144.658 141.353C143.929 139.878 143.411 138.499 142.682 137.024C142.011 135.703 141.282 134.228 140.305 133.022C140.19 132.715 139.884 132.83 139.731 132.888C137.179 127.027 134.322 121.281 131.005 115.707C123.969 103.488 115.365 92.2071 105.403 81.9612C94.9048 71.2174 83.3173 61.7571 71.0418 53.2548C64.8754 48.927 58.6134 44.81 52.103 40.9611C46.2243 37.3995 40.1927 33.8954 34.314 30.3337C32.0353 28.9167 29.8142 27.653 27.6885 26.1785C27.1521 25.6805 26.8264 25.2784 26.29 24.7804C26.0218 24.5315 25.7158 24.6465 25.6203 24.8572C18.0751 19.6486 10.9117 13.597 5.90882 5.85938C5.85125 5.70618 5.79368 5.55294 5.58307 5.4572C4.85432 3.98241 3.97253 2.5651 3.24378 1.09031C3.01348 0.477394 2.28622 0.400911 1.67411 0.6309L1.2726 0.956628C0.966543 1.07162 0.87109 1.28236 0.775629 1.49306C0.145329 2.6042 0.146828 4.00253 1.21952 4.99838C1.48771 5.24735 1.64073 5.18986 1.85133 5.2856C1.23922 5.51559 0.704363 6.41596 1.29829 7.06712C3.31034 9.6335 5.47543 12.1424 7.33445 14.7662C9.19346 17.3901 10.804 20.2822 12.2615 23.2318C15.1766 29.131 17.537 35.4133 19.84 41.5425C22.2005 47.8249 24.3503 54.0116 26.8638 60.2365C29.7031 66.8635 33.0969 73.1074 36.9498 79.1788C44.8086 91.2641 54.484 102.142 64.7519 112.273C69.9624 117.31 75.3258 122.289 80.7848 127.058C86.8376 132.477 93.1389 137.629 100.224 141.611C103.708 143.45 107.289 145.077 111.155 146.072C114.658 147.029 118.352 147.565 122.046 148.1C129.376 149.018 136.897 149.515 143.674 152.214C144.095 152.406 144.67 152.54 145.148 152.884C145.321 153.344 145.647 153.746 145.762 154.053L145.915 153.995C145.953 153.631 145.895 153.478 145.78 153.172C146.623 153.555 147.676 154.033 148.576 154.569L148.786 154.665C151.582 156.063 154.186 157.882 156.753 160.065C157.021 160.314 157.442 160.506 157.748 160.391C160.353 162.21 163.052 163.818 165.657 165.637C178.219 173.508 191.468 180.42 205.291 186.068C202.592 185.858 199.951 185.801 197.253 185.591C182.594 185.153 167.841 186.325 153.296 184.795C145.813 183.935 138.559 182.289 131.438 180.068C124.106 177.752 116.87 175.225 109.462 173.637C95.2219 170.594 80.7373 172.015 66.3285 172.707C52.0727 173.342 36.7821 172.618 24.1824 165.111C23.1097 164.116 21.6734 163.082 20.2371 162.047C19.2795 161.358 17.5008 162.201 18.325 163.465C17.8659 163.638 17.7325 164.212 18.0583 164.615C18.8628 165.362 19.8204 166.051 20.6249 166.798C29.6715 180.185 41.0894 191.983 54.1314 201.596C68.1886 212.052 84.1185 220.055 101.117 224.859C116.966 229.396 133.636 231.001 149.938 229.772C166.241 228.543 182.235 224.632 197.154 218.327C204.537 215.203 211.786 211.255 218.555 206.963C222.648 204.376 226.663 201.119 231.292 199.03C232.726 198.666 234.008 198.359 235.443 197.995C236.725 197.688 237.949 197.228 239.078 196.979C239.288 197.075 239.499 197.171 239.71 197.266C240.131 197.458 240.59 197.285 240.781 196.864L240.934 196.806C247.403 198.223 253.911 199.275 260.514 200.116C259.538 200.308 258.352 200.404 257.376 200.596C247.714 202.302 238.494 206.116 229.984 210.888C211.242 221.427 195.739 236.869 179.181 250.434C174.516 254.286 169.641 258.041 164.592 261.337C162.068 262.985 159.544 264.633 156.962 266.127C155.088 267.181 153.061 268.293 151.186 269.346C150.823 269.308 150.517 269.423 150.211 269.538C149.636 269.404 149.062 269.27 148.545 269.29C147.723 269.424 147.456 270.573 148.145 271.014C148.892 271.607 150.136 271.664 151.074 271.837C151.954 271.856 152.835 271.875 153.715 271.894C154.289 272.028 155.265 271.836 156.183 271.491C156.336 271.433 156.642 271.318 156.795 271.261C157.101 271.146 157.312 271.242 157.676 271.28C160.316 271.337 163.11 271.336 165.847 271.182C171.319 270.875 176.83 270.203 182.168 269.072C192.843 266.809 203.249 262.899 212.926 257.515C223.464 251.632 232.373 243.738 240.63 235.04C249.442 225.959 257.929 216.475 268.427 209.558C269.135 209.117 269.842 208.677 270.55 208.236C272.903 207.527 275.294 206.453 277.647 205.744C281.224 204.575 284.859 203.559 288.647 202.486C292.281 201.47 295.878 200.818 299.475 200.165C300.566 200.28 301.599 200.242 302.843 200.299C303.207 200.337 303.455 200.069 303.608 200.011C304.278 199.935 305.005 200.011 305.828 199.877C307.225 199.877 308.622 199.876 309.866 199.933C310.593 200.01 310.879 199.378 310.86 198.861C312.869 198.63 314.878 198.4 316.982 197.959C317.805 197.825 318.628 197.69 319.451 197.556C320.79 197.403 322.187 197.402 323.526 197.249C323.89 197.287 323.928 196.923 323.87 196.77C324.999 196.521 326.128 196.271 327.256 196.022C328.385 195.773 331.179 195.772 331.331 194.317C331.52 192.497 328.861 193.321 328.038 193.455C327.732 193.57 327.216 193.589 326.91 193.704C327.675 193.417 328.344 193.34 329.052 192.9C329.817 192.612 329.414 191.539 328.744 191.616C326.831 191.636 325.032 191.962 323.176 192.135C321.225 192.518 319.369 192.691 317.417 193.074C313.61 193.631 309.898 193.976 306.033 194.379C298.455 195.128 290.763 195.57 283.262 195.591C281.865 195.591 280.468 195.591 279.071 195.592C276.238 194.558 273.576 192.585 272.271 189.578C272.214 189.425 272.003 189.329 271.85 189.387C270.427 183.277 269.158 177.109 267.64 171.21C265.832 163.146 263.872 155.139 261.242 147.209C256.402 131.542 249.057 116.64 237.18 105.016C224.978 92.9888 209.718 84.9085 194.344 77.9201C179.18 71.0274 163.693 65.1308 149.16 57.127C135.469 49.5061 122.427 39.893 113.744 26.5436C112.594 24.8774 111.655 23.3069 110.658 21.5831C110.523 20.7595 109.643 20.7405 109.146 21.2769ZM143.018 147.215C133.155 139.555 123.693 131.569 114.575 123.105C96.1862 106.233 79.1928 87.9622 62.2949 69.481C50.7998 57.0134 39.4956 44.1244 28.0005 31.6568C30.5671 33.8399 33.2867 35.9656 35.8533 38.1487C36.0639 38.2444 36.1215 38.3977 36.3321 38.4934C36.6003 38.7424 36.7154 39.0488 36.9836 39.2978C40.8153 43.4537 44.647 47.6095 48.6317 51.7079C56.6012 59.9046 64.6661 67.8907 72.9794 75.6085C81.3504 83.4795 90.0653 90.8715 98.7802 98.2636C102.956 101.941 107.284 105.56 111.212 109.505C114.928 113.354 118.339 117.319 121.711 121.647C128.304 130.361 134.399 139.612 142.941 146.545C142.845 146.755 142.903 146.908 143.018 147.215ZM142.385 145.529C135.259 139.114 129.682 131.242 124.163 123.524C121.211 119.387 118.049 115.154 114.543 111.401C110.712 107.245 106.785 103.3 102.609 99.6228C94.2 92.1158 85.3897 84.9344 77.1339 77.3699C68.6099 69.5563 60.392 61.6278 52.518 53.2203C49.8741 50.3668 47.0772 47.5707 44.4334 44.7172C46.4636 46.4024 48.6469 48.0301 50.6196 49.5621C60.636 57.1646 70.8054 64.7096 80.6308 72.7336C98.194 86.9431 114.974 102.321 128.198 120.784C133.622 128.713 138.281 136.93 142.385 145.529ZM44.5046 39.7943C51.0151 43.6431 57.3725 47.5494 63.6344 51.6665C76.1583 59.9006 87.9368 68.9393 98.8365 79.3575C109.2 89.2777 118.416 100.328 126.122 112.471C129.975 118.542 133.216 124.844 136.303 131.203C134.808 128.617 133.16 126.089 131.569 123.714C125.531 114.617 118.384 106.286 110.836 98.2802C102.867 90.0835 94.4002 82.4232 85.5322 75.0886C75.7068 67.0647 65.5373 59.5197 55.5588 51.5532C50.062 47.1487 44.4122 42.8016 38.9154 38.3971C38.1684 37.8035 37.4215 37.2098 36.617 36.4629C35.7549 35.5628 35.1034 34.7584 34.2413 33.8583C37.7836 35.8497 41.1729 37.8986 44.5046 39.7943ZM15.4175 21.8711C28.6368 36.1389 41.7606 50.6175 54.8269 64.9428C71.8976 83.8837 89.2167 102.556 107.778 119.888C118.448 129.693 129.365 139.23 140.876 148.02C137.927 146.68 134.768 145.244 131.915 143.693C125.578 140.304 119.641 136.589 113.896 132.452C102.253 124.237 91.6408 114.585 81.6789 104.339C71.7171 94.0934 62.7689 83.2918 53.7056 72.1837C44.968 61.4778 36.2304 50.7719 27.8944 39.7403C23.5824 33.8414 19.2704 27.9425 15.4175 21.8711ZM129.144 147.007C121.756 145.936 114.178 145.286 107.133 142.338C99.513 139.255 92.9632 134.372 86.8149 129.163C81.1454 124.299 75.5713 119.224 70.1503 114.092C59.787 104.172 49.863 93.5616 41.6982 81.5914C37.5392 75.635 33.9924 69.4486 30.8471 62.9365C28.0275 56.8266 25.667 50.5442 23.4596 44.2043C21.5021 38.9945 19.6976 33.7273 17.5871 28.575C19.4461 31.1988 21.3627 33.9759 23.3748 36.5423C31.7109 47.5739 40.4485 58.2798 49.186 68.9857C58.2494 80.0938 67.6188 91.0869 77.4851 101.544C87.2939 111.847 97.8102 121.71 109.205 130.193C119.164 137.642 129.868 144.287 141.126 149.15C137.47 148.25 133.202 147.581 129.144 147.007ZM206.385 188.979C209.542 189.017 212.566 189.629 215.4 190.663C218.75 191.677 221.966 193.267 225.316 194.281C214.448 195.567 203.407 196.393 192.5 196.644C178.493 197.011 164.408 196.707 150.361 196.04C136.162 195.43 121.904 194.667 107.685 193.539C93.0065 192.585 78.4614 191.055 64.239 187.132C57.4437 185.313 50.8771 182.709 44.6546 179.627C41.0168 177.846 37.7805 175.74 34.4867 173.48C45.2288 179.761 58.5861 179.988 70.6798 179.641C78.1236 179.467 85.625 179.446 93.1082 180.306C100.591 181.167 107.999 182.755 115.311 184.554C129.15 187.923 142.818 192.23 157.019 194.238C163.679 195.233 170.416 195.499 177.075 195.096C180.328 194.923 183.618 194.386 186.909 193.849C190.142 193.158 193.414 192.104 196.685 191.05C199.745 189.9 203.074 188.999 206.385 188.979ZM59.3846 175.141C73.8707 175.119 88.278 173.028 102.728 174.768C117.694 176.489 131.671 183.478 146.619 186.08C161.204 188.644 175.861 187.683 190.5 187.603C193.658 187.641 196.815 187.679 199.973 187.716C197.256 188.387 194.655 189.365 191.996 190.189C188.877 191.186 185.644 191.876 182.296 192.26C175.809 193.123 169.035 193.22 162.548 192.685C148.481 191.501 135.044 187.806 121.511 184.323C114.352 182.466 107.097 180.821 99.8626 179.692C92.6279 178.563 85.3174 178.163 78.0267 178.279C63.5982 178.454 47.9272 179.971 34.8109 172.484C33.9685 172.101 33.2216 171.507 32.3216 170.971C40.8214 174.073 50.1227 175.124 59.3846 175.141ZM157.264 226.495C141.249 228.491 124.772 227.862 109.115 224.302C92.1562 220.532 75.8445 213.372 61.4055 203.759C58.1116 201.499 54.7602 199.086 51.7148 196.558C52.8254 197.19 53.9936 197.975 55.1042 198.607C69.3886 206.879 85.4489 211.512 101.126 215.588C116.382 219.474 131.924 222.727 147.578 223.49C161.471 224.215 175.497 222.967 188.735 218.692C189.653 218.347 190.418 218.06 191.336 217.715C180.28 222.219 168.802 225.133 157.264 226.495ZM154.867 221.975C139.195 222.093 123.672 219.357 108.379 215.836C100.55 214.056 92.7593 211.912 84.9686 209.769C76.9097 207.376 69.0417 204.562 61.6131 201.058C53.9163 197.305 46.5438 192.556 40.1652 186.734C37.9046 184.436 35.5865 181.985 33.4215 179.476C32.1185 177.867 30.9685 176.201 29.8186 174.535C38.1304 180.854 47.1302 186.216 56.3588 190.792C70.4311 197.57 85.2671 202.662 100.446 205.877C115.413 208.996 130.839 210.544 146.11 210.752C161.17 210.864 176.287 209.73 191.153 207.467C199.074 206.239 207.091 204.801 214.992 203.056C213.883 203.823 212.927 204.532 211.971 205.241C206.636 209.169 200.707 212.445 194.491 214.956C181.789 219.728 168.32 221.991 154.867 221.975ZM214.096 206.715C211.821 208.095 209.545 209.474 207.212 210.701C209.946 209.149 212.566 207.29 214.975 205.336C216.734 203.975 218.646 202.558 220.578 201.657C221.248 201.58 221.86 201.35 222.53 201.273C219.699 203.036 216.927 204.952 214.096 206.715ZM232.054 195.946C220.269 198.975 208.369 201.698 196.335 203.597C181.679 205.956 166.735 207.549 151.848 207.897C136.749 208.149 121.707 207.156 106.912 204.496C91.7534 201.799 76.6886 197.492 62.6359 191.231C55.5331 188.129 48.7741 184.549 42.2061 180.547C36.9593 177.272 31.7503 173.634 26.8475 169.881C26.6747 169.421 26.349 169.019 26.1763 168.559C26.655 168.904 27.2293 169.038 27.7081 169.382C36.6911 177.023 47.1454 182.538 58.3057 186.213C72.1463 190.98 86.8066 192.816 101.294 194.192C115.782 195.568 130.097 196.485 144.565 197.344C158.879 198.26 173.175 198.659 187.45 198.541C201.573 198.481 215.713 197.54 229.872 195.717C230.236 195.755 230.695 195.583 231.058 195.621C231.633 195.755 232.149 195.736 232.876 195.812C232.513 195.774 232.36 195.831 232.054 195.946ZM177.526 170.271C183.558 173.775 189.628 176.915 195.85 179.998C190.106 177.26 184.305 174.368 178.752 171.209C178.273 170.864 177.794 170.52 177.163 170.232L177.526 170.271ZM163.16 264.498C167.654 261.585 171.938 258.577 176.106 255.262C184.5 248.786 192.357 241.812 200.425 234.934C216.064 221.713 233.063 208.857 253.208 203.91C256.9 203.048 260.497 202.396 264.209 202.05C263.903 202.165 263.75 202.223 263.444 202.338C253.573 205.347 244.488 209.984 235.749 215.541C216.702 227.594 200.281 243.381 181.445 255.529C174.274 260.147 166.719 264.21 158.666 267.41C160.177 266.318 161.592 265.437 163.16 264.498ZM244.297 228.067C235.638 237.091 227.132 246.057 216.576 252.821C207.129 258.819 196.954 263.341 186.145 266.179C180.922 267.616 175.374 268.652 169.959 269.113C167.95 269.343 165.883 269.42 163.816 269.497C171.545 267.293 179.081 264.111 186.081 260.432C196.275 255.028 205.913 248.609 215.435 241.884C224.805 235.216 233.964 228.452 243.659 222.186C249.014 218.776 254.579 215.461 260.259 212.452C254.542 217.223 249.42 222.645 244.297 228.067ZM271.904 204.405C271.35 204.788 270.891 204.96 270.336 205.343C262.188 208.755 254.385 213.085 247.003 217.608C237.25 223.72 228.149 230.637 218.99 237.401C209.525 244.279 200.002 251.005 189.981 256.868C180.362 262.406 170.128 266.776 159.319 269.613C158.956 269.575 158.439 269.594 158.076 269.556C157.654 269.364 157.348 269.479 157.042 269.594C156.162 269.575 155.282 269.556 154.401 269.537C173.015 263.768 188.981 252.348 204.258 240.488C221.448 227.21 238.655 213.05 259.333 205.805C264.135 204.176 269.204 202.796 274.294 201.933C275.021 202.009 275.538 201.99 276.265 202.067C274.85 202.948 273.377 203.676 271.904 204.405ZM265.256 196.935C261.102 195.174 257.387 192.723 253.92 190.004C247.523 185.063 241.872 179.318 236.469 173.304C225.816 161.219 216.712 147.678 206.863 134.942C196.955 122.053 186.092 109.873 172.801 100.528C158.132 90.3019 141.552 82.8923 129.654 69.3521C123.868 62.7831 119.286 55.2369 115.929 47.2307C118.844 53.1299 122.62 58.5309 127.103 63.4911C138.234 75.9205 152.902 84.748 167.244 93.1732C181.854 101.847 196.771 110.407 208.381 123.181C219.55 135.246 227.201 150.032 236.057 163.841C244.089 176.386 253.517 188.931 266.194 197.108C265.62 196.974 265.467 197.031 265.256 196.935ZM270.342 193.276C270.611 193.525 270.783 193.984 271.051 194.233C270.783 193.984 270.305 193.64 270.036 193.391C266.991 190.863 264.194 188.067 261.703 185.156C256.3 179.142 251.854 172.42 247.655 165.429C239.469 151.543 232.851 136.718 224.417 123.101C220.276 116.263 215.581 109.809 210.025 103.853C204.201 97.6478 197.44 92.6689 190.088 88.4372C175.056 79.5715 158.382 73.7709 144.23 63.5259C139.442 60.0789 135.209 56.2488 131.224 52.1504C134.844 54.8122 138.616 57.4166 142.331 59.8676C149.167 64.1187 156.443 67.68 163.719 71.2413C171.626 75.0899 179.629 78.7277 187.383 82.6337C202.892 90.4458 217.828 99.5222 228.846 113.043C238.445 124.649 244.718 138.555 250.627 152.422C256.841 166.174 262.196 180.424 270.342 193.276ZM230.326 101.646C236.685 106.95 242.356 113.213 246.918 120.242C251.269 127.175 254.702 134.454 257.428 142.172C260.154 149.891 262.267 157.84 264.228 165.847C265.573 171.287 266.861 176.573 268.053 182.07C264.505 174.486 261.875 166.556 259.245 158.626C256.787 151.156 254.387 143.84 251.165 136.657C247.885 129.321 243.839 122.273 238.685 115.991C227.725 102.623 213.17 92.704 198.312 84.2979C190.595 80.028 182.63 76.0262 174.818 71.9669C178.552 73.5369 182.132 75.1643 185.865 76.7342C201.487 83.4545 217.283 90.6343 230.326 101.646ZM122.946 41.272C128.692 46.8067 135.185 51.5366 141.81 55.6919C142.078 55.9409 142.442 55.9791 142.71 56.2281C143.189 56.5728 143.878 57.0132 144.357 57.3579C159.198 66.645 175.203 73.9207 190.769 81.886C206.183 89.9088 221.597 99.3299 233.571 112.142C239.338 118.194 244.206 125.108 247.907 132.635C251.436 139.703 254.046 147.115 256.504 154.585C260.132 165.637 263.723 177.053 269.341 187.357C269.706 188.794 270.071 190.23 270.436 191.667C267.829 187.051 265.374 182.377 263.073 177.647C259.813 170.828 256.954 163.684 253.942 156.597C248.243 142.826 242.335 128.959 233.538 116.701C228.785 110.094 223.287 104.291 216.985 99.1393C210.205 93.6432 202.89 89.0475 195.385 84.8732C187.668 80.6032 179.665 76.9654 171.758 73.1169C164.329 69.613 156.996 65.8985 149.911 61.9157C139.016 55.6925 128.541 48.2625 120.168 38.9932C119.459 38.0355 118.808 37.2312 118.252 36.216C119.612 37.978 121.279 39.625 122.946 41.272ZM113.676 34.2632C115.67 37.7107 117.912 40.89 120.308 44.0118C125.309 50.3511 130.807 56.154 136.898 61.2096C143.468 66.61 150.361 71.0143 157.81 75.0353C165.679 79.2478 173.835 82.8281 181.704 87.0406C189.516 91.0998 196.984 95.6381 203.574 101.556C209.473 107.033 214.57 113.161 219.017 119.884C228.121 133.425 234.644 148.46 242.734 162.557C246.78 169.605 251.073 176.385 256.228 182.667C260.137 187.493 264.505 192.147 269.408 195.9C269.37 196.264 269.542 196.724 270.059 196.705C270.27 196.8 270.423 196.743 270.633 196.839C270.844 196.934 270.901 197.087 271.112 197.183C270.385 197.107 269.715 197.183 268.988 197.107C256.714 190.003 247.229 178.703 239.333 166.982C230.344 153.748 223.018 139.364 212.92 126.896C207.708 120.461 201.751 114.831 195.354 109.89C188.747 104.853 181.642 100.353 174.442 96.0642C159.832 87.3899 144.572 79.3096 132.178 67.7042C121.72 57.9947 113.382 45.5648 111.032 31.4096C110.975 31.2564 111.07 31.0457 111.013 30.8924C111.99 32.099 112.756 33.2098 113.676 34.2632Z" fill="#C3D64B"/>
</svg>
