<svg width="286" height="529" viewBox="0 0 286 529" fill="none" xmlns="http://www.w3.org/2000/svg">
<path d="M538.118 526.647C499.282 513.704 461.034 498.703 424.257 481.054C422.786 479.877 421.021 478.7 419.55 477.818C417.784 476.641 416.019 475.465 414.254 474.288C413.371 473.7 412.488 473.406 411.606 472.817C410.723 472.229 409.546 471.935 408.369 471.347H408.075C406.898 470.758 405.427 470.464 404.25 469.876C400.72 467.228 398.072 463.699 396.601 459.581C396.012 457.816 395.424 456.051 394.836 454.286C394.836 453.992 394.541 453.698 394.541 453.403C393.07 447.226 392.776 441.049 392.188 434.872C390.128 418.988 387.186 403.398 383.067 388.102C378.948 372.806 373.652 357.805 367.474 343.097C361.295 328.389 353.94 314.27 345.702 300.739C338.052 288.091 329.814 276.031 320.399 264.559C319.811 263.676 318.928 262.5 318.34 261.617C317.163 259.852 315.986 258.382 314.515 256.911C314.221 256.617 313.633 256.617 313.338 256.911C312.75 256.911 311.867 257.499 312.161 258.088C311.867 258.382 311.867 258.676 312.161 258.97C314.221 262.794 315.692 266.912 317.163 271.03C317.163 271.03 317.163 271.03 317.163 271.324C318.34 275.737 318.928 280.149 319.517 284.855C320.399 290.738 320.694 296.621 320.988 302.504C320.988 303.093 320.988 303.387 320.988 303.975C320.988 304.269 320.988 304.269 321.282 304.563C321.282 307.211 321.576 309.564 321.576 312.211C322.753 330.449 324.813 348.392 329.226 366.041C333.639 383.69 340.112 400.75 348.938 416.34C356.882 430.165 366.591 443.108 377.771 454.286C378.654 455.168 379.242 455.757 380.125 456.639C380.713 457.227 381.008 457.816 381.596 458.404C382.184 458.992 382.773 459.875 383.361 460.463C349.232 441.343 316.28 419.87 285.976 395.162C280.975 391.338 276.267 387.22 271.56 383.101V382.807C265.676 371.63 259.791 360.746 253.613 349.862C253.907 349.862 253.907 349.568 253.907 349.274C251.848 343.979 249.494 338.685 248.023 333.096C246.552 327.507 245.375 321.918 245.081 316.329C244.198 306.034 244.786 296.033 246.552 286.032C246.846 286.032 246.846 286.032 247.14 286.032C247.729 285.738 247.729 285.149 247.729 284.561V284.267C249.788 281.62 252.436 278.972 254.79 276.619C257.732 273.972 260.968 271.324 264.499 268.971C270.972 263.971 277.444 259.264 283.034 253.087C293.332 241.321 300.099 226.025 301.864 210.435C303.041 201.611 302.452 192.786 300.687 184.256C301.276 183.373 300.099 182.491 299.216 183.079H298.922C284.211 188.962 271.266 198.669 261.557 211.023C250.965 224.26 244.492 240.438 242.727 256.911C241.55 266.618 242.139 276.619 244.198 286.326V286.62C242.727 295.445 242.139 304.269 242.727 313.388C243.315 323.095 245.375 332.508 248.905 341.332C248.317 340.155 247.434 338.979 246.846 337.802C245.963 335.155 244.492 332.508 243.021 329.86C242.433 328.389 241.844 326.919 241.256 325.154C240.962 324.271 240.667 323.095 240.373 322.212C240.373 321.918 240.373 321.918 240.373 321.624C240.373 321.33 240.079 321.036 240.079 320.742C239.491 318.977 238.902 317.212 238.608 315.447C238.314 314.564 238.314 313.976 238.02 313.094C238.02 312.799 238.314 312.799 238.02 312.505C237.431 310.152 236.548 307.799 235.96 305.446C235.372 302.21 234.489 299.269 233.901 296.033C231.253 283.09 229.193 269.854 226.251 256.911C223.015 243.086 218.307 229.849 213.894 216.318C209.481 203.081 205.068 189.55 202.125 175.725C199.478 161.9 198.006 147.781 200.066 133.956C200.36 132.191 200.654 130.426 200.949 128.661C201.243 127.779 200.36 127.191 199.478 127.191C198.595 127.485 197.712 127.485 196.83 127.779C196.241 127.779 195.947 128.367 195.947 128.661C193.593 131.603 191.534 134.838 189.768 138.074C182.413 148.369 176.823 159.547 172.998 171.607C167.997 187.491 166.526 204.258 168.879 221.025C171.233 237.203 177.411 252.204 186.826 265.441C195.359 277.501 205.95 288.091 216.248 298.68C223.309 306.034 230.076 313.976 235.96 322.212C237.137 323.977 238.02 325.742 239.196 327.801C248.611 344.274 258.026 360.746 267.441 377.218C268.029 378.101 268.618 379.277 269.206 380.16C238.608 353.686 210.952 324.565 187.121 292.209C167.114 265.147 149.461 236.026 135.339 205.14C132.691 196.022 130.926 186.903 130.043 177.49C129.16 169.254 129.16 161.018 129.749 152.782H130.043C133.868 149.252 137.693 145.428 141.223 141.31C144.754 137.192 147.99 133.074 151.226 128.661C157.405 119.837 162.995 110.718 167.408 101.011C172.116 91.3042 175.646 81.3031 178.588 70.7137C181.53 60.4184 183.296 49.829 184.473 39.2396C185.355 28.6502 185.649 17.7666 184.767 7.17719C184.767 5.70644 184.473 4.52984 184.473 3.05909C184.473 2.76494 184.178 2.47079 184.178 2.47079V2.17664C184.178 1.58834 183.296 1.58834 183.002 1.88249V1.58834C183.002 1.00003 182.119 0.705884 181.825 1.29418C180.942 3.94154 180.354 6.58889 179.471 9.23625C178.588 11.8836 177.706 14.2368 176.529 16.59C174.175 21.5906 171.233 26.297 167.997 31.0034C161.524 40.4162 153.58 48.6524 146.519 57.4769C139.458 66.3014 132.985 75.4201 128.866 85.7154C124.747 95.7165 122.688 106.306 122.393 117.189C122.099 128.073 123.57 138.662 127.101 148.958C127.395 150.134 127.984 151.017 128.278 152.193C127.689 159.253 127.689 166.018 127.984 173.078C128.572 180.726 129.455 188.08 131.22 195.433C127.101 186.315 123.57 176.902 120.04 167.783C120.04 167.489 120.04 167.489 119.746 167.195C119.746 166.901 119.746 166.607 119.746 166.313C119.746 165.724 119.451 165.136 119.451 164.548C119.157 163.371 118.863 162.194 118.569 161.018C118.274 159.841 117.98 158.665 117.686 157.488C117.392 156.311 116.803 155.429 116.215 154.252C116.215 153.958 115.921 153.958 115.627 153.958C115.332 152.782 115.038 151.899 114.744 150.723C114.155 148.369 113.567 146.016 112.979 143.663C112.096 138.957 111.508 133.956 111.508 129.25C111.213 119.249 111.802 108.953 112.684 98.9521C113.567 88.3627 114.155 77.7733 113.273 67.1839C112.39 57.1828 110.036 47.4758 106.8 38.063C105.035 32.7683 102.975 27.7677 100.622 22.473C99.4448 19.8257 98.2679 17.1783 97.091 14.8251C96.2084 13.0602 95.62 11.2953 94.7373 9.82455C94.7373 9.5304 94.4431 9.5304 94.4431 9.23625C94.1489 8.64794 93.8547 8.35379 93.5605 7.76549C93.2663 7.47134 92.9721 7.76549 92.9721 8.05964C92.9721 8.3538 92.9721 8.64795 93.2663 8.9421C92.9721 8.9421 92.9721 9.23625 92.6778 9.23625C91.7952 10.4128 90.9126 11.8836 90.3241 13.0602C90.0299 13.6485 89.7357 14.2368 89.4415 14.8251C84.7341 22.473 80.6151 30.4151 77.0845 38.9454C72.9655 49.2407 70.0234 59.8301 69.7292 71.0078C69.1407 82.1856 71.4944 93.3633 75.6134 103.953C80.0266 114.836 86.2051 124.543 92.6778 133.956C96.2084 138.662 99.739 143.369 103.27 148.075C105.329 150.428 107.094 153.076 109.154 155.429C110.919 157.488 112.39 159.547 114.155 161.606C114.155 161.9 114.155 161.9 114.45 162.194C114.744 162.489 115.038 162.783 115.332 163.077C115.332 163.665 115.627 163.959 115.627 164.548C115.921 165.136 116.215 165.136 116.509 165.136L116.803 165.43C122.393 181.02 128.572 196.316 135.633 211.318C136.222 212.788 136.81 214.553 137.398 216.024C137.987 217.789 138.869 219.26 139.752 221.025C140.046 221.319 140.34 221.319 140.635 221.025C146.813 233.673 153.874 245.733 161.23 257.793C158.876 254.852 156.816 252.204 154.463 249.263C150.638 243.38 147.107 237.203 143.577 231.026C135.927 217.789 128.572 204.552 119.451 192.198C110.625 180.432 100.327 169.548 87.6762 161.9C75.3192 154.252 61.4912 149.252 47.3689 146.31C32.9524 143.075 18.5359 141.31 3.82522 140.133C2.94258 140.133 2.05994 140.133 1.47151 139.839C1.1773 140.427 0.883081 140.721 0.588867 141.31C2.94258 143.075 5.29629 144.545 7.65 146.604C7.94422 146.899 7.94422 146.899 8.23843 147.193C11.1806 149.546 14.1227 151.899 16.7706 154.547C22.3607 159.841 27.9508 165.724 32.9524 171.313C43.5441 183.079 53.5474 195.139 65.3159 205.435C71.4944 210.729 77.9671 215.436 85.3225 219.554C92.9721 223.966 100.916 227.496 108.86 231.026C116.803 234.555 124.747 238.379 132.397 242.498C140.046 246.616 146.813 251.91 153.286 257.499C166.231 268.971 176.823 282.502 186.826 296.327C188.003 298.092 189.474 299.563 190.651 301.328C190.945 301.622 191.24 301.622 191.534 301.622C214.482 331.625 240.962 359.275 269.795 383.984C264.499 381.631 259.203 378.689 254.496 375.159C248.611 370.747 243.021 366.041 237.725 361.04C234.489 358.099 231.253 354.863 228.016 351.627C228.016 351.333 227.722 351.333 227.722 351.039C227.134 350.157 226.545 348.98 225.957 348.098C224.486 346.333 222.72 344.568 221.249 343.097C221.249 343.097 221.249 343.097 220.955 342.803C220.955 342.509 220.661 342.215 220.367 342.215C218.601 340.744 216.836 339.273 215.071 337.802C212.717 334.861 210.069 331.919 207.127 329.272C206.833 328.684 206.244 327.801 205.656 327.213C205.362 326.919 205.068 327.213 205.068 327.507C202.125 324.565 198.889 321.918 195.653 319.565C185.355 311.917 174.175 305.74 162.112 301.622C149.755 297.21 136.81 295.15 123.57 294.856C110.036 294.856 96.7968 296.915 83.8514 301.033C70.906 305.152 58.8432 311.623 47.9573 319.565C46.7805 320.447 45.3094 321.624 44.1325 322.506C43.2499 323.389 44.1325 324.86 45.0152 324.565C44.721 325.154 45.0152 325.742 45.6036 325.742C46.4862 325.448 47.3689 325.154 48.2515 325.154C57.0779 331.331 66.4928 336.332 76.4961 339.861C87.6762 344.274 99.1506 346.627 111.213 346.921C124.159 347.215 136.81 345.45 149.461 343.685C161.23 341.92 173.292 340.45 185.355 340.45C196.535 340.45 208.01 342.215 218.601 346.627C219.484 346.921 220.367 347.509 221.544 347.803C223.309 349.568 225.074 351.039 226.839 352.804C227.134 353.392 227.134 353.686 227.722 353.981C227.722 353.981 228.016 353.981 228.311 353.981C230.076 355.745 231.841 357.51 233.606 358.981C244.198 368.982 255.378 378.983 269.206 384.278C270.677 384.866 272.148 385.16 273.619 385.749C308.631 415.458 346.879 441.343 387.186 463.404C385.127 462.816 383.067 462.228 381.008 461.345C371.887 458.404 362.766 455.757 353.94 453.109C341.877 449.579 329.52 446.344 317.457 443.402C310.985 441.049 304.512 438.99 298.039 436.931C283.917 432.519 269.795 428.695 255.378 426.047C241.55 423.4 227.722 421.635 213.6 421.635C200.066 421.341 186.532 422.518 173.292 425.165C160.347 427.812 147.402 431.93 135.633 438.108C135.339 438.108 135.045 438.402 134.75 438.402C132.691 438.99 130.337 439.578 128.278 440.461C127.395 440.755 127.689 442.52 128.866 442.226H129.16C140.635 449.579 153.58 454.874 166.526 458.698C179.765 462.522 193.299 464.875 207.127 465.464C221.544 466.052 235.666 464.581 249.788 461.934C262.734 459.581 275.679 456.639 288.624 454.286C294.214 453.698 299.805 453.403 305.395 453.109C312.456 452.815 319.223 452.521 326.284 452.521C327.461 452.521 328.637 452.521 329.814 452.227C340.994 453.698 351.88 455.757 362.766 458.404C364.532 458.698 366.297 459.286 368.062 459.875C370.416 460.463 372.77 461.345 375.123 461.934C378.065 462.816 381.302 463.699 384.244 464.875C392.188 467.523 400.131 470.758 407.487 474.288C411.312 476.641 414.842 478.406 418.961 480.465C420.726 481.348 422.492 482.23 424.551 482.818C424.845 482.818 425.14 482.818 425.434 482.818C426.022 483.113 426.611 483.407 427.199 483.701C427.493 483.995 428.082 484.289 428.376 484.583C429.259 485.172 429.847 486.054 431.024 486.054C431.318 486.054 431.612 486.054 431.907 485.76C461.328 499.585 491.632 511.939 522.525 522.529C528.115 524.588 533.999 526.353 539.589 528.118C538.706 529.294 539.589 526.941 538.118 526.647ZM255.378 267.5C260.674 261.911 266.264 256.617 271.266 250.734C281.269 238.968 290.095 226.025 295.391 211.318C295.391 211.023 295.391 211.023 295.686 210.729C295.686 211.023 295.686 211.023 295.391 211.318C293.626 218.083 290.978 224.849 287.742 231.32C284.505 237.791 280.681 243.674 276.267 249.263C271.56 255.146 266.264 260.147 260.968 264.853C258.026 267.5 255.084 270.442 252.436 273.383C251.848 273.972 251.553 274.56 250.965 275.148C250.965 274.854 251.259 274.56 251.259 274.56C251.553 273.383 252.142 272.207 252.73 271.03C253.319 269.559 254.201 268.677 255.378 267.5ZM253.907 267.206C254.79 264.853 255.967 262.5 257.143 260.147C260.38 253.969 263.91 248.086 267.735 242.203C275.091 230.732 283.329 219.26 289.801 207.199C293.038 201.022 295.98 194.551 298.039 187.786C297.745 194.845 296.568 201.905 294.509 208.67C292.155 216.024 288.919 223.084 284.8 229.849C276.562 243.086 265.97 254.558 255.084 265.735C254.496 266.324 254.201 266.618 253.907 267.206ZM281.563 249.263C276.562 255.44 270.089 260.441 263.91 265.441C261.262 267.5 258.32 269.559 255.672 271.913C257.438 270.148 259.203 268.677 260.674 266.912C265.97 261.911 271.266 256.911 275.973 251.322C285.094 240.438 292.155 227.496 296.274 213.671C297.451 209.847 298.333 206.023 299.216 201.905C299.216 201.022 299.51 200.434 299.51 199.552C299.51 209.553 297.451 219.848 293.626 229.261C290.684 236.615 286.565 243.38 281.563 249.263ZM297.745 186.315C295.685 192.786 293.038 198.963 289.801 204.846C286.565 211.023 282.74 216.906 278.915 222.789C271.266 234.261 263.028 245.439 256.261 257.499C254.496 260.735 252.73 264.265 251.259 267.794C250.965 268.677 250.377 269.854 250.082 270.736C249.788 271.324 249.494 271.913 249.2 272.501C248.905 272.795 248.611 273.089 248.611 273.383C250.965 264.853 254.201 256.323 258.026 248.086C263.322 237.203 269.5 226.613 276.267 216.612C283.034 206.317 290.39 196.61 297.451 186.903C297.451 186.609 297.745 186.609 297.745 186.315ZM249.494 234.85C255.084 220.142 264.499 207.199 276.856 197.198C282.446 192.492 288.919 188.668 295.391 185.727C292.449 189.256 289.801 193.08 287.153 196.904C283.623 201.905 279.798 206.905 276.267 212.2C269.5 222.495 263.028 232.791 257.438 243.968C252.142 254.852 247.729 266.03 245.081 277.796C244.786 278.678 244.786 279.266 244.492 280.149C242.433 264.853 244.198 248.969 249.494 234.85ZM191.828 178.667C192.122 191.021 193.887 203.081 196.241 215.142C198.889 226.908 202.125 238.674 206.244 250.145C210.363 261.617 215.071 272.795 219.778 283.973C224.191 293.974 228.899 303.681 233.606 313.388C232.724 312.211 231.841 311.035 230.958 309.858C230.664 309.564 230.664 309.564 230.37 309.27C225.957 301.622 221.544 293.68 217.425 285.738C209.187 270.442 201.831 254.558 197.124 237.791C192.416 221.613 190.063 204.552 190.063 187.786C190.063 178.961 190.651 170.137 191.828 161.606C191.828 166.901 191.534 172.784 191.828 178.667ZM231.547 304.563C228.899 298.974 226.251 293.386 223.603 287.797C218.601 276.619 213.894 265.441 209.481 254.264C205.068 242.792 201.537 231.32 198.595 219.554C195.653 207.788 193.593 195.728 193.005 183.667C192.122 171.313 193.005 159.253 195.064 147.193C195.064 146.604 195.359 146.016 195.359 145.134C195.653 143.369 196.241 141.604 196.535 140.133C196.535 140.133 196.535 140.133 196.535 140.427C194.77 150.723 194.182 161.312 194.77 171.901C195.359 183.667 197.418 195.433 200.066 207.199C202.714 218.671 206.539 230.143 210.363 241.321C214.482 252.499 218.601 263.676 222.72 275.148C225.957 283.384 228.899 291.915 231.547 300.445C232.429 303.975 233.312 307.505 234.195 311.329C233.312 308.387 232.429 306.328 231.547 304.563ZM208.892 211.318C213.306 224.849 218.307 238.379 221.838 252.204C225.074 263.971 227.134 276.031 229.193 288.091C228.016 284.855 226.839 281.914 225.663 278.678C221.544 267.5 217.13 256.323 213.011 245.145C208.892 233.967 205.068 222.789 202.125 211.023C199.183 199.552 196.83 188.08 195.653 176.314C194.77 166.901 194.77 157.194 195.653 147.781C195.653 155.135 196.241 162.783 197.712 169.842C200.36 183.962 204.479 197.787 208.892 211.318ZM197.124 130.426C196.535 132.485 195.653 134.25 195.064 136.309C194.476 138.368 193.887 140.427 193.299 142.192C192.122 146.31 191.24 150.723 190.651 154.841C189.18 163.371 188.297 171.901 188.003 180.432C187.415 197.493 189.18 214.553 193.299 231.026C197.418 248.086 204.185 264.265 212.129 279.855C215.659 286.62 219.19 293.386 223.015 300.151C220.955 297.798 218.896 295.445 216.542 293.091C206.833 282.208 198.595 269.854 191.828 256.911C185.061 243.968 180.059 230.143 177.706 215.73C175.352 201.611 175.058 186.903 177.706 172.784C179.471 163.077 182.413 153.664 186.532 144.84C188.886 141.016 191.24 137.486 193.887 133.956C194.77 133.074 195.947 131.603 197.124 130.426ZM195.653 129.544C195.653 129.544 195.653 129.838 195.653 129.544C195.653 129.838 195.653 129.544 195.653 129.544ZM192.416 269.559C187.709 263.676 183.59 257.793 180.354 251.028C176.529 243.674 173.587 235.732 171.821 227.496C168.291 211.318 168.585 194.257 172.704 178.079C174.764 169.548 178 161.606 181.825 153.664C180.354 158.076 178.883 162.489 177.706 166.901C174.469 181.02 173.587 195.433 175.352 209.847C177.117 224.26 181.236 238.674 187.415 251.91C193.593 265.441 201.537 277.796 210.658 289.267C215.659 295.445 221.544 301.328 226.545 307.505C225.074 305.74 223.309 303.975 221.838 302.21C212.129 291.327 201.537 281.325 192.416 269.559ZM177.706 66.8897C175.058 77.185 171.527 87.1861 167.408 96.8931C162.995 106.6 157.993 116.013 151.815 124.837C148.873 129.25 145.636 133.368 142.4 137.486C139.164 141.604 135.339 145.428 131.808 149.546C131.22 150.134 130.631 150.723 130.043 151.311C130.043 151.017 130.043 150.723 130.043 150.723C138.869 136.898 147.402 123.072 155.345 108.659C159.464 101.305 163.583 93.6574 167.114 86.0095C170.939 78.3616 174.469 70.7137 177.411 62.7716C178.294 60.7126 179.177 58.3594 179.765 56.0062C179.471 59.536 178.588 63.0658 177.706 66.8897ZM182.413 40.7103C182.413 41.5928 182.119 42.7694 182.119 43.6518C181.825 45.1226 181.53 46.5933 181.236 47.77C180.059 51.8881 178.588 55.712 177.117 59.8301C174.175 67.7722 171.233 75.4201 167.702 83.068C160.641 98.3638 152.403 112.777 143.577 127.191C139.164 134.25 134.75 141.604 130.631 148.664C130.631 147.781 130.926 147.193 130.926 146.31C131.514 143.663 132.397 141.016 133.574 138.368C135.339 134.25 137.398 130.132 139.458 126.014C144.165 117.484 149.167 109.247 153.58 100.717C158.288 91.8925 162.701 83.068 167.114 74.2435C171.527 65.419 175.646 56.5945 179.765 47.4758C180.648 45.1226 181.825 42.7694 182.707 40.122C182.413 40.4162 182.413 40.4162 182.413 40.7103ZM183.002 18.9432V19.2374C183.002 23.6496 183.002 28.0619 182.707 32.18C181.825 36.2981 180.354 40.7103 178.883 44.5343C175.646 53.9471 171.233 62.7716 167.114 71.5961C162.701 80.4207 158.288 89.2452 153.874 97.7755C149.461 106.306 144.46 114.836 139.752 123.367C137.398 127.779 135.045 132.485 132.985 137.192C132.397 138.368 131.808 139.839 131.514 141.31C131.808 138.957 132.397 136.309 132.985 133.956C136.222 118.954 141.812 105.129 149.167 91.8925C156.522 78.3616 165.054 65.419 171.821 51.2998C176.823 41.0045 181.236 30.1209 183.002 18.9432ZM126.218 139.545C124.747 133.368 124.159 126.896 124.159 120.425C124.159 109.836 125.924 98.9521 129.749 88.951C133.574 78.3616 139.458 69.2429 146.519 60.4184C153.58 51.5939 161.23 43.3577 167.997 34.239C169.762 31.8858 171.233 29.5326 172.704 27.1794C167.702 37.7688 161.818 48.0641 155.934 58.3594C145.636 76.0084 135.633 94.2457 130.337 114.248C127.689 122.778 126.512 131.309 126.218 139.545ZM127.101 143.075C127.101 139.545 127.101 136.015 127.395 132.485C127.984 127.485 128.866 122.484 130.043 117.484C132.397 107.482 136.222 97.7755 140.635 88.3627C149.461 70.1254 160.641 53.0647 170.056 35.1215C174.764 26.297 179.177 16.8842 182.413 6.88304C181.825 13.0602 181.236 18.9432 179.471 24.8262C177.411 32.18 174.764 39.5337 171.527 46.5933C165.054 60.7126 156.522 73.6552 148.873 87.1861C141.517 100.423 135.339 114.248 131.514 128.955C130.043 134.838 128.866 141.016 128.278 147.193C127.984 146.016 127.395 144.545 127.101 143.075ZM98.2679 21.5906C100.327 26.297 102.093 30.7092 103.858 35.4156C107.389 44.8284 110.036 54.5354 110.919 64.5365C112.979 83.9505 109.154 103.364 109.154 123.072C108.86 121.896 108.86 121.013 108.565 119.837C108.271 115.719 107.977 111.895 107.683 107.777C107.389 99.8346 107.389 91.5984 107.094 83.6563C106.506 67.7722 105.917 51.5939 101.504 36.0039C100.327 31.8858 98.8563 27.4736 97.6795 23.3555C97.0911 21.0023 96.5026 18.9432 95.9142 16.59C96.7968 18.3549 97.6795 19.8257 98.2679 21.5906ZM95.62 21.8847C96.7968 25.7087 97.9737 29.5326 99.4448 33.3566C101.798 41.0045 103.858 48.9466 104.741 56.8886C106.8 73.0669 106.212 88.951 106.8 105.129C106.8 106.894 107.094 108.953 107.094 110.718C106.8 108.953 106.506 107.188 106.212 105.423C104.446 95.7165 102.975 86.0095 101.798 76.3025C100.327 66.5956 99.1506 56.8886 97.9737 46.8875C97.3853 41.2986 96.7968 36.0039 96.2084 30.4151C95.9142 27.1794 95.62 23.9438 95.3258 20.7081C95.3258 21.2964 95.62 21.5906 95.62 21.8847ZM94.4431 17.7666C94.7373 21.2964 95.0316 25.1204 95.3258 28.6502C95.9142 33.6507 96.2084 38.3571 96.7968 43.3577C97.9737 53.3588 98.8563 63.0658 100.033 73.0669C102.387 92.775 105.329 112.189 108.86 131.603C108.86 132.191 109.154 133.074 109.154 133.662C99.739 99.5404 94.7373 64.5365 94.1489 29.2385C94.1489 25.4145 94.4431 21.5906 94.4431 17.7666ZM97.091 136.898C90.3241 127.779 83.8514 118.072 79.144 107.482C74.4366 97.4814 71.4944 86.5978 71.2002 75.4201C70.906 64.5365 73.2597 53.653 77.0845 43.6518C78.2614 40.7103 79.4382 37.7688 80.9093 34.8273C77.6729 46.8875 76.7903 59.536 77.6729 71.8903C79.4382 93.0691 86.7936 113.365 96.5026 132.191C99.1506 137.486 102.093 142.781 105.329 147.781C105.623 148.369 106.212 149.252 106.506 149.84C103.564 145.134 100.327 141.016 97.091 136.898ZM107.977 148.369C105.329 143.957 102.387 139.251 100.033 134.544C95.0316 125.132 90.3241 115.719 86.7936 105.718C79.7324 86.5978 76.4961 65.7131 79.7324 45.4167C80.6151 40.4162 81.4977 35.4156 83.263 30.7092C85.6167 25.4145 88.2646 20.414 91.501 15.7076C90.0299 19.2374 88.8531 23.0613 87.9704 26.8853C86.7936 31.5917 86.2051 36.5922 85.9109 41.5928C85.0283 51.5939 85.6167 61.3009 86.7936 71.302C89.1473 91.3042 93.8547 111.012 100.916 130.132C103.564 137.486 106.506 144.545 110.036 151.311C109.154 150.134 108.565 149.252 107.977 148.369ZM94.4431 104.541C89.4415 85.4212 85.9109 65.419 86.7936 45.4167C87.0878 39.8279 87.6762 34.5332 88.8531 29.2385C90.0299 23.6496 91.7952 18.3549 93.2663 13.0602C90.9126 59.8301 97.9737 106.6 112.096 151.311C112.096 151.605 112.39 151.899 112.39 151.899C104.741 136.603 98.5621 120.719 94.4431 104.541ZM41.1904 146.899C55.3127 149.84 69.1407 153.958 81.7919 161.018C94.7373 168.077 105.329 178.373 114.45 189.845C123.865 201.611 131.22 214.847 138.869 227.79C140.635 230.732 142.106 233.673 143.871 236.615C135.339 226.613 126.512 216.612 117.098 207.494C106.212 196.904 95.0316 186.903 82.6746 177.784C70.906 168.96 58.2548 161.312 45.3094 154.841C35.0119 149.84 24.4202 145.722 13.5343 142.486C22.6549 143.663 32.0698 144.84 41.1904 146.899ZM115.921 231.32C100.327 223.966 84.4398 217.495 70.6118 206.611C58.2548 196.904 47.9573 184.844 37.3656 173.078C33.5408 168.666 29.7161 164.548 25.5971 160.43C27.0681 161.606 28.5392 162.489 30.0103 163.665C38.5425 170.137 47.0747 176.902 55.6069 183.373C72.6713 196.61 90.0299 209.553 107.094 222.789C111.802 226.319 116.509 230.143 121.217 233.673C119.451 232.791 117.686 232.202 115.921 231.32ZM127.984 237.203C126.512 236.026 125.336 235.144 123.865 233.967C119.451 230.732 115.332 227.496 110.919 224.26C102.387 217.789 93.8547 211.023 85.0283 204.552C67.9639 191.609 50.6052 178.373 33.5408 165.43C29.1276 161.9 24.4202 158.665 20.007 155.135C15.0054 150.428 10.0037 146.016 4.41365 142.192C15.2996 148.369 26.4797 154.547 37.0714 161.018C48.5457 167.783 59.4317 174.843 70.3176 182.785C80.9093 190.433 90.6183 198.963 100.033 207.788C109.154 216.612 117.98 226.025 127.689 234.555C130.631 237.203 133.574 239.85 136.81 242.203C133.868 240.438 130.926 238.674 127.984 237.203ZM147.99 248.381C142.694 244.851 137.693 241.027 132.691 236.909C122.982 228.672 113.861 219.26 104.741 210.435C95.3258 201.316 85.9109 192.492 75.3192 184.55C64.7275 176.608 53.5474 169.254 42.073 162.489C30.5987 155.723 19.1243 149.252 7.35579 143.075C6.76736 142.781 5.88472 142.486 5.29629 141.898C17.0648 145.134 28.5392 149.252 39.7193 154.252C52.959 160.43 65.6102 168.077 77.3787 176.608C89.4415 185.432 100.916 195.139 111.508 205.435C122.688 216.318 133.279 227.79 143.283 239.85C146.519 243.674 149.461 247.498 152.697 251.322C152.697 251.616 152.992 251.616 152.992 251.91C151.521 250.734 149.755 249.557 147.99 248.381ZM49.4284 324.271C56.7837 322.212 63.8449 319.859 71.2002 317.8C80.0266 315.447 89.1473 313.682 98.2679 312.211C115.627 309.858 133.574 309.564 150.932 312.799C167.408 315.741 183.296 321.33 197.418 329.86C201.537 332.213 205.362 335.155 208.892 338.096L209.187 338.391C206.539 337.508 203.891 336.626 200.949 336.037C195.359 334.567 190.063 333.096 184.473 331.919C173.587 329.566 162.112 327.801 150.932 326.919C139.752 326.036 128.572 325.448 117.392 326.036C106.506 326.33 95.3258 327.507 84.4398 328.095C72.6713 328.684 61.1969 328.095 50.0168 324.271C49.7226 324.271 49.4284 324.271 49.4284 324.271ZM208.01 334.272C208.01 334.567 208.304 334.567 208.304 334.861C208.01 334.567 208.01 334.272 208.01 334.272C207.421 333.684 206.833 333.096 206.244 332.508C206.539 333.096 207.421 333.684 208.01 334.272ZM53.8416 326.919C62.0796 329.566 70.906 329.86 79.4382 329.86C90.3241 329.566 101.21 328.095 112.096 327.801C134.75 326.919 157.405 328.684 179.471 333.39C185.649 334.567 191.828 336.037 198.006 337.802C198.301 337.802 198.301 337.802 198.595 338.096C194.182 337.508 189.768 336.626 185.649 336.332C174.469 334.861 162.995 334.272 151.815 334.272C140.34 334.272 129.16 334.861 117.686 335.743C106.506 336.626 95.0316 337.214 83.8514 336.037C74.4366 335.155 65.0217 332.802 56.4895 328.978C55.6069 327.801 54.7242 327.507 53.8416 326.919ZM117.392 296.915C130.337 296.621 143.283 298.092 155.64 301.916C165.937 305.152 175.94 309.858 185.355 315.741C176.529 311.035 166.82 308.093 157.111 305.74C144.46 302.798 131.22 301.033 117.98 301.033C105.623 301.033 93.2663 302.504 81.2035 305.446C74.4366 307.211 67.6697 309.858 61.1969 312.799C66.787 309.564 72.6713 306.916 78.8498 304.563C90.9126 300.151 104.152 297.504 117.392 296.915ZM46.4863 322.506C47.6631 321.624 49.1342 320.447 50.311 319.565C53.8416 317.506 57.0779 315.447 60.6085 313.976C65.9044 311.623 71.2002 309.27 76.7903 307.799C88.5588 304.269 100.622 302.504 112.979 302.21C125.924 301.916 138.869 303.681 151.226 306.328C162.995 308.976 175.058 312.211 185.649 318.388C190.651 321.33 195.064 324.86 199.478 328.684C186.238 320.447 171.527 314.564 156.522 311.329C139.458 307.505 121.805 307.211 104.152 308.976C95.0316 309.858 85.9109 311.623 76.7903 313.682C67.6697 315.741 58.8432 318.388 50.311 321.624C49.1342 321.918 47.9573 322.506 47.0747 323.095C46.7805 322.801 46.7805 322.506 46.4863 322.506ZM154.757 340.45C142.106 342.215 129.16 344.274 116.509 344.568C104.446 344.862 92.3836 343.097 80.6151 339.273C75.025 337.508 69.4349 335.155 64.1391 332.508C79.144 337.508 96.2084 337.508 111.802 336.626C123.57 336.037 135.045 335.155 146.813 335.155C158.288 335.155 169.468 336.037 180.942 337.508C183.002 337.802 185.355 338.096 187.415 338.391C176.529 337.802 165.643 338.979 154.757 340.45ZM410.429 473.994C410.429 473.994 410.723 474.288 410.429 473.994C410.429 474.288 410.429 473.994 410.429 473.994ZM397.189 465.758C397.189 465.464 397.189 465.169 397.189 465.169C397.484 465.464 397.778 466.052 398.072 466.346C397.778 466.052 397.484 466.052 397.189 465.758ZM363.355 339.861C369.827 354.569 375.418 369.865 379.831 385.161C384.244 400.75 387.48 416.34 389.54 432.225C389.834 433.695 389.834 435.166 390.128 436.637C389.54 434.284 388.951 431.93 388.363 429.871C385.127 418.105 381.89 406.045 378.36 394.279C374.829 382.513 371.299 370.747 367.18 359.275C363.061 347.509 358.942 336.037 354.234 324.565C351.586 317.8 348.644 311.329 345.408 304.563C351.88 316.035 357.765 327.801 363.355 339.861ZM340.7 297.21C340.994 297.504 340.994 297.798 341.289 297.798C344.819 305.446 348.35 313.094 351.586 320.742C356.294 331.919 360.707 343.685 364.532 355.157C368.651 366.629 372.181 378.395 375.712 390.161C379.242 401.927 382.479 413.987 385.715 425.753C387.48 432.813 389.246 439.872 391.305 446.638C391.893 450.168 392.482 453.403 393.365 456.933C393.659 458.11 394.247 459.286 394.541 460.463C394.541 460.757 394.836 461.345 394.836 461.64C395.13 462.816 395.424 463.699 395.718 464.581C388.657 459.286 383.067 451.933 378.948 443.991C371.593 429.283 369.239 412.516 367.474 396.338C366.591 388.102 365.414 379.866 363.943 371.63C362.472 363.688 360.707 355.745 358.647 348.098C354.528 332.508 348.938 317.506 342.171 302.798C339.818 297.504 337.17 292.209 334.522 287.208C336.581 290.444 338.641 293.68 340.7 297.21ZM318.046 265.147C320.694 269.265 323.636 273.677 325.99 277.796C330.109 284.855 333.933 291.915 337.464 299.269C344.525 313.976 350.409 328.978 354.823 344.568C359.53 360.452 362.472 376.63 364.532 393.103C366.591 409.575 368.356 426.636 375.417 441.932C375.712 442.52 376.006 443.402 376.594 443.991C376.3 443.402 376.006 443.108 375.712 442.52C372.181 436.343 368.651 430.166 365.414 423.988C359.236 411.34 353.94 398.103 349.821 384.572C345.996 371.335 343.348 357.805 340.7 344.274C338.052 330.743 335.699 317.506 332.168 304.269C328.932 292.209 324.813 280.149 318.634 268.971C318.34 268.383 318.34 267.794 318.046 267.206C317.752 266.324 317.457 265.735 317.163 264.853C316.869 264.265 316.869 263.971 316.575 263.382C317.163 263.971 317.457 264.559 318.046 265.147ZM319.811 273.383C323.93 282.208 327.166 291.327 329.814 300.445C333.345 313.682 335.993 326.919 338.347 340.45C340.7 353.981 343.348 367.511 346.879 380.748C350.704 394.279 355.705 407.516 361.589 420.164C362.178 421.635 363.061 423.106 363.649 424.577C358.647 414.87 354.234 404.869 350.409 394.867C345.702 382.807 341.877 370.453 338.347 358.099C334.816 344.862 331.58 331.625 328.637 318.388C326.284 307.505 324.224 296.621 322.165 285.443C321.871 281.325 320.988 277.207 319.811 273.383ZM353.646 418.694C344.525 403.398 337.464 386.631 332.756 369.571C328.049 352.216 325.107 334.567 323.93 316.623C323.342 309.564 323.047 302.504 322.459 295.15C322.459 294.268 322.459 293.091 322.459 292.209C323.636 299.563 325.107 306.622 326.578 313.976C329.226 327.507 332.168 341.038 335.699 354.275C338.935 366.923 342.76 379.277 347.173 391.338C351.586 403.104 356.294 414.576 362.178 425.753C365.414 432.225 368.945 438.402 372.77 444.579C365.414 436.343 359.236 427.812 353.646 418.694ZM387.186 461.64C386.892 461.64 386.892 461.345 386.598 461.345C386.598 461.345 386.598 461.345 386.892 461.345C386.892 461.345 386.892 461.64 387.186 461.64ZM385.715 460.757C385.715 461.051 385.715 461.051 385.715 460.757V460.757ZM148.579 438.99C155.051 438.108 161.23 437.519 167.702 436.931C180.648 435.754 193.299 435.166 206.244 435.166C218.896 435.166 231.841 435.754 244.492 436.931C257.143 438.108 269.795 439.578 282.446 441.932C294.214 443.991 305.689 446.344 317.163 449.285C314.515 449.285 312.161 449.285 309.514 449.579C292.449 448.403 275.385 447.815 258.32 447.52C238.02 447.226 217.719 447.52 197.124 447.226C176.823 446.932 156.816 445.755 136.81 443.108C135.339 442.814 134.162 442.814 132.691 442.52C132.397 442.52 132.397 442.226 132.103 442.226C132.691 441.932 133.279 441.637 133.868 441.343C138.575 440.167 143.577 439.578 148.579 438.99ZM299.51 450.462C295.98 450.462 292.449 450.462 288.919 450.462C275.679 450.462 262.439 450.756 249.2 451.344C235.96 451.933 222.426 453.109 209.187 453.698C196.241 454.58 183.002 454.874 170.056 453.109C158.288 451.638 146.813 448.991 135.927 443.991C153.58 446.638 171.527 447.815 189.474 448.109C209.481 448.697 229.782 448.403 250.082 448.697C267.147 448.697 284.211 448.991 300.981 450.168C300.393 450.168 299.805 450.168 299.51 450.462ZM132.103 443.402C132.691 443.402 132.985 443.696 133.574 443.696C143.283 448.991 153.874 451.933 164.466 453.403C177.117 455.462 189.768 455.462 202.714 455.168C216.248 454.58 229.782 453.698 243.021 452.815C256.555 452.227 270.089 451.933 283.623 451.933C285.094 451.933 286.565 451.933 287.742 451.933C283.917 452.521 279.798 453.403 275.973 453.992C266.264 454.874 256.555 456.051 246.846 456.639C233.901 457.816 220.661 458.404 207.716 458.404C195.359 458.404 183.002 457.521 170.939 455.168C158.582 453.109 146.813 449.579 135.339 444.579C134.456 444.579 133.279 443.991 132.103 443.402ZM318.046 447.226C320.105 447.815 322.165 448.697 323.93 449.285C322.753 449.285 321.576 449.285 320.399 449.285C309.514 446.05 298.333 443.696 287.153 441.637C274.502 439.284 261.851 437.519 248.905 436.343C235.96 435.166 223.309 434.284 210.363 434.284C197.712 433.989 184.767 434.578 172.116 435.46C164.76 436.048 157.405 436.637 150.344 437.519C160.347 435.46 170.35 434.284 180.648 433.401C198.889 431.93 217.425 431.93 235.666 433.401C253.907 434.872 272.443 437.519 290.39 441.343C299.51 442.814 308.925 444.873 318.046 447.226ZM167.114 428.989C180.059 426.047 193.593 424.577 206.833 424.577C220.661 424.577 234.195 425.753 248.023 428.106C262.439 430.46 276.562 434.284 290.684 438.402C291.861 438.696 293.038 438.99 294.214 439.578C277.15 436.049 259.791 433.107 242.139 431.636C223.897 429.871 205.362 429.283 187.121 430.46C178 431.048 168.585 431.93 159.464 433.401C154.757 433.989 150.344 434.872 145.931 435.754C152.697 432.813 160.053 430.46 167.114 428.989ZM211.54 463.699C197.712 463.699 184.178 461.934 170.939 458.698C164.172 456.933 157.699 454.874 151.226 452.227C149.167 451.344 146.813 450.462 144.754 449.579C151.815 452.227 158.876 454.286 166.231 455.757C178.294 458.404 190.651 459.581 203.008 459.875C215.954 460.169 228.605 459.875 241.55 458.992C248.611 458.404 255.378 457.816 262.439 457.227C259.791 457.816 257.143 458.404 254.496 458.698C240.079 461.345 225.957 463.699 211.54 463.699Z" fill="#C3D64B"/>
</svg>
