<svg width="119" height="269" viewBox="0 0 119 269" fill="none" xmlns="http://www.w3.org/2000/svg">
<path d="M107.352 233.404C107.288 233.209 107.483 233.146 107.419 232.951C107.939 232.566 107.622 231.593 106.975 231.589C105.617 231.386 104.064 231.246 102.706 231.043C101.479 230.582 100.253 230.12 98.8313 229.723C98.8988 229.27 98.5773 228.944 98.0611 228.682C77.8642 218.903 56.6862 210.736 34.8447 205.154C14.1666 199.84 -7.04394 196.852 -28.1438 196.844C-47.7546 196.78 -67.5763 199.37 -86.4455 204.879C-96.301 207.664 -105.839 211.421 -114.928 215.894C-124.796 220.621 -134.537 225.737 -144.532 230.074C-146.608 230.967 -148.685 231.86 -150.825 232.558C-165.35 236.866 -180.447 239.422 -195.392 238.482C-195.845 238.414 -196.103 238.283 -196.556 238.216C-196.75 238.279 -196.75 238.279 -196.945 238.343C-198.497 238.203 -200.05 238.063 -201.666 237.729C-201.924 237.598 -202.377 237.53 -202.571 237.594C-203.993 237.196 -205.672 236.667 -207.157 236.074C-202.551 234.356 -197.945 232.638 -193.144 230.857C-192.691 230.925 -192.497 230.861 -192.171 230.54C-192.171 230.54 -191.976 230.476 -192.04 230.281C-191.262 230.028 -190.483 229.774 -189.574 229.262C-185.361 228.318 -181.402 226.596 -177.507 224.679C-150.322 214.303 -122.753 204.448 -95.6912 193.035C-95.3697 193.361 -94.917 193.429 -94.5279 193.302C-91.7363 191.961 -88.9448 190.619 -86.2167 189.083C-80.3756 186.532 -74.3398 183.916 -68.6257 180.976C-60.3349 179.994 -52.1711 178.623 -44.0708 177.057C-34.545 175.242 -25.2773 173.295 -16.069 170.507C1.04904 165.568 17.7942 158.167 31.8439 147.123C45.9572 136.273 56.0805 121.772 63.8178 105.895C71.8806 89.6969 77.4262 72.3815 84.0042 55.5907C90.451 39.0581 98.3828 23.1179 109.665 9.5304C110.904 8.04936 112.144 6.56832 113.577 5.02381C113.577 5.02381 113.577 5.0238 113.772 4.96033C113.966 4.89686 113.903 4.70221 114.097 4.63874L114.228 4.38061C115.527 3.74164 116.889 3.29734 118.187 2.65837C119.68 1.95593 118.724 -0.316405 117.231 0.386034C101.399 6.62756 86.1388 14.621 71.8432 23.5918C57.353 32.6262 43.8911 42.8327 31.2627 54.2747C18.6344 65.7168 6.97084 78.1364 -3.27541 91.6011C-7.77904 97.593 -12.2827 103.585 -16.5282 109.708C-13.9027 103.898 -11.7298 98.0204 -9.62053 91.9481C-4.41272 76.8966 0.215432 61.388 7.16624 47.06C9.13229 43.1881 11.0984 39.3163 13.5805 35.7068C15.7371 32.4188 18.2828 29.004 20.6974 25.8473C20.8919 25.7838 21.2811 25.6568 21.4757 25.5934C22.4485 25.276 21.873 24.1716 21.1622 23.9727L21.3568 23.9092C22.0716 23.4607 21.3015 22.4197 20.7177 22.6101C18.1208 23.8881 15.5873 25.3606 13.2484 26.7698C6.82353 29.5118 0.84311 33.6164 -4.42654 37.9199C-7.93694 40.3572 -11.2528 42.7311 -14.5051 45.2997C-25.3025 53.7755 -35.1393 63.8761 -42.5264 75.5467C-49.7825 86.9592 -55.1051 99.6792 -59.5224 112.535C-64.1342 125.453 -68.1665 138.829 -73.231 151.681C-78.1645 164.274 -84.2613 176.6 -92.6766 187.099C-93.459 188 -94.2413 188.901 -95.0236 189.803C-118.126 199.493 -141.546 208.21 -164.903 217.121C-165.486 217.312 -166.07 217.502 -166.654 217.693C-162.754 215.128 -158.982 212.175 -155.467 209.09C-144.729 199.772 -135.984 188.305 -128.53 176.181C-120.614 162.831 -114.569 148.367 -109.623 133.832C-104.677 119.297 -100.7 104.431 -96.7234 89.5659C-92.7466 74.7005 -88.9007 60.0932 -84.2131 45.4267C-83.5537 43.4886 -83.0254 41.8087 -82.3659 39.8707C-81.9687 38.4489 -83.9697 37.5941 -84.5616 39.0794C-84.8237 39.5956 -84.8913 40.0484 -85.0899 40.7593C-85.2845 40.8228 -85.4791 40.8862 -85.6101 41.1444C-86.9249 44.373 -88.4342 47.6652 -90.2017 50.8261C-92.0326 53.7924 -94.058 56.8222 -96.147 59.6573C-100.325 65.3276 -105.019 70.7355 -109.197 76.4058C-113.57 82.1395 -117.426 88.1356 -120.056 94.5929C-122.816 101.308 -124.608 108.354 -127.111 115.201C-129.418 121.984 -132.437 128.568 -136.488 134.628C-140.408 140.429 -144.908 145.773 -149.602 151.181C-158.795 161.934 -168.052 172.491 -173.637 185.728C-179.091 198.706 -181.511 213.063 -190.062 224.467C-190.975 225.627 -191.757 226.528 -192.671 227.688C-192.865 227.751 -192.802 227.946 -192.996 228.009C-192.996 228.009 -192.996 228.009 -193.191 228.073C-198.77 230.108 -204.286 232.338 -209.865 234.373C-210.254 234.5 -210.643 234.627 -211.032 234.754C-211.29 234.623 -211.29 234.623 -211.548 234.492C-212.001 234.424 -212.326 234.746 -212.394 235.199C-225.109 239.777 -238.014 243.772 -251.419 244.914C-255.175 245.278 -258.8 245.384 -262.489 245.295C-263.136 245.291 -263.271 246.196 -262.56 246.395C-248.457 247.394 -234.587 244.377 -221.293 240.255C-217.596 239.049 -213.899 237.843 -210.202 236.637C-210.202 236.637 -210.008 236.574 -209.944 236.768C-208.718 237.23 -207.233 237.822 -205.811 238.22C-189.235 247.457 -171.416 254.566 -153.196 259.606C-133.36 264.98 -112.602 267.9 -92.0221 268.293C-71.4425 268.687 -50.8466 266.491 -30.8816 261.701C-8.32377 256.28 13.2222 247.097 35.3355 240.314C50.1863 235.685 65.8708 232.291 81.4714 231.94C86.0653 232.164 90.9174 232.52 95.5113 232.744C96.8693 232.947 98.0326 233.214 99.3905 233.417C101.717 233.95 104.044 234.483 106.371 235.016C107.018 235.021 107.411 234.246 107.352 233.404ZM-90.1594 188.216C-89.9648 188.152 -90.0283 187.958 -89.8338 187.894L-89.7703 188.089C-89.9648 188.152 -89.9648 188.152 -90.1594 188.216ZM-52.5472 145.794C-56.0144 151.664 -59.7398 157.402 -63.207 163.271C-65.1014 166.042 -66.7378 168.945 -68.6322 171.717C-69.6767 173.134 -70.4631 174.683 -71.5076 176.101C-71.7021 176.164 -71.7022 176.164 -71.8967 176.228C-72.7426 176.934 -73.6519 177.446 -74.3032 178.09C-71.8886 174.933 -70.0536 171.319 -68.1551 167.9C-61.8002 155.705 -56.2196 143.116 -50.3809 130.658C-44.7367 118.264 -38.9615 105.612 -32.6066 93.4165C-26.645 81.9956 -19.9726 70.7735 -12.399 60.3343C-6.58877 52.4087 -0.262401 44.7453 6.77059 37.9283C3.83171 42.1175 0.892775 46.3068 -1.72454 50.8218C-7.74157 60.7533 -12.9209 71.2729 -17.9056 81.729C-28.6574 103.543 -39.9889 124.899 -52.5472 145.794ZM47.031 99.311C38.0116 113.237 27.5748 126.118 15.0141 137.107C3.16811 147.648 -9.89652 156.433 -24.1799 163.461C-35.3461 168.827 -46.8933 173.024 -58.8215 176.054C-42.7829 167.807 -27.3199 158.455 -13.1391 147.153C10.6676 128.403 29.0036 104.761 46.6964 80.4679C61.776 60.0423 76.4705 39.0962 94.8333 21.476C87.0733 30.6839 80.3416 41.0638 74.257 51.448C65.0308 67.3798 56.8369 83.8362 47.031 99.311ZM103.939 14.4136C96.2385 24.4635 90.4714 35.821 85.415 47.3773C78.3209 63.9057 72.6483 80.8318 65.4907 97.1656C58.2696 113.305 49.2421 128.526 35.899 140.416C22.7505 152.243 6.64838 160.296 -10.0846 165.755C-25.4556 170.769 -41.267 173.773 -57.269 176.194C-47.7391 173.731 -38.3998 170.684 -29.3779 166.664C-15.0986 160.283 -1.64889 152.019 10.6457 142.193C23.2658 132.046 34.2146 120.075 43.488 106.928C54.0681 91.8465 62.7147 75.4578 71.8774 59.3314C80.909 43.4631 90.8459 27.7303 103.55 14.5405C103.613 14.7352 103.808 14.6717 103.939 14.4136ZM104.162 9.81815C95.4456 16.7536 87.5626 24.9247 80.3269 33.1001C70.4185 44.301 61.6059 56.2212 52.5987 68.2049C34.8423 92.3036 17.7926 117.248 -4.79133 137.107C-23.6662 153.817 -45.4312 166.948 -68.0892 178.001C-68.2837 178.064 -68.6729 178.191 -68.8675 178.255L-69.062 178.318C-69.6457 178.509 -70.2929 178.504 -70.6821 178.631L-70.4875 178.568C-64.5788 175.563 -58.924 171.78 -53.5274 167.866C-46.8957 163.118 -40.8437 157.914 -34.9187 152.32C-22.9376 140.873 -12.1117 127.865 -2.19107 114.722C8.83754 100.356 19.223 85.3385 30.5097 71.1036C40.883 58.0281 51.8993 45.6043 64.5236 34.8096C76.175 24.3323 89.4343 15.4842 104.162 9.81815ZM-5.84962 99.548C4.33313 85.8886 15.8062 72.8851 28.113 61.1171C39.7685 49.9924 52.4521 40.0398 65.6479 30.997C54.1316 40.5688 43.9017 51.4438 34.3783 63.1652C22.8336 77.2689 12.3846 92.092 1.61406 106.589C-8.56873 120.249 -18.946 133.972 -30.7366 146.002C-41.2247 156.746 -52.8085 166.77 -65.8016 174.455C-61.5723 170.921 -57.8592 167.126 -53.9515 163.267C-47.8914 156.767 -42.1528 149.941 -36.9303 142.854C-26.2274 128.809 -16.4891 113.787 -5.84962 99.548ZM14.117 32.732C11.7659 36.0834 9.54177 39.8241 7.70678 43.4378C3.97333 50.4706 0.950592 57.7023 -1.81412 65.0652C-7.47454 80.0491 -11.9082 95.4942 -18.6009 109.953C-20.5034 114.02 -22.4694 117.892 -24.6936 121.632C-27.1123 125.437 -29.5944 129.046 -32.0132 132.85C-32.6009 133.688 -33.1887 134.526 -33.7765 135.364C-43.8323 149.412 -54.9203 162.936 -68.0013 174.311C-66.1069 171.539 -64.2759 168.573 -62.3815 165.801C-59.1129 160.643 -55.8443 155.485 -52.7702 150.39C-46.4276 140.137 -40.5376 129.816 -34.7111 119.301C-28.8846 108.785 -23.3161 98.1389 -17.8112 87.2977C-12.5684 76.9727 -7.58361 66.5166 -1.76118 56.6487C1.575 51.0376 4.91118 45.4266 8.827 40.2726C10.0742 37.4967 12.0956 35.1143 14.117 32.732ZM-3.14434 39.8706C1.60105 36.5996 6.60451 33.4598 11.608 30.32C12.3228 29.8715 13.101 29.6176 13.8158 29.169C13.4902 29.4906 13.3591 29.7488 13.0335 30.0704C12.12 31.2298 11.1431 32.1946 10.2297 33.354C7.56107 35.7322 4.95596 38.3049 2.35086 40.8777C-2.01353 45.3166 -6.25094 50.1448 -9.9722 55.2353C-17.8673 65.3487 -24.6667 76.1815 -30.7554 87.2131C-37.2372 99.0191 -43.2029 111.087 -48.9106 123.287C-54.7493 135.745 -60.3935 148.139 -66.4903 160.465C-69.1117 165.628 -71.475 170.921 -74.8706 175.69C-77.6149 179.816 -81.3281 183.612 -85.8072 185.719C-86.0018 185.783 -86.0018 185.783 -86.1964 185.846C-82.2171 180.887 -78.2377 175.927 -74.9016 170.316C-71.4343 164.447 -68.2251 158.447 -65.4686 152.379C-59.6298 139.921 -54.8234 126.939 -49.5643 114.024C-44.4998 101.173 -39.0461 88.1948 -32.4332 76.1307C-26.6067 65.6153 -19.3587 55.4977 -10.761 46.878C-8.21943 44.1106 -5.68188 41.9906 -3.14434 39.8706ZM-59.5036 119.851C-55.0863 106.996 -50.4744 94.0766 -43.798 82.2072C-36.9905 70.0796 -27.928 59.5854 -17.5156 50.5891C-17.19 50.2675 -16.6698 49.8824 -16.3441 49.5608C-21.6895 55.6119 -26.3918 62.3147 -30.5779 69.2798C-37.838 81.3397 -43.3552 94.1232 -48.3562 107.169C-53.4207 120.02 -58.1636 133.197 -63.8754 146.044C-66.763 152.37 -69.7141 158.502 -73.1179 164.566C-76.5216 170.629 -80.4415 176.431 -84.3614 182.232C-85.2113 183.586 -86.3193 184.809 -87.2327 185.969C-87.8164 186.159 -88.4002 186.35 -88.9839 186.54C-82.5223 177.971 -77.4782 168.357 -73.5339 158.671C-67.9532 146.082 -63.8575 132.901 -59.5036 119.851ZM-188.061 225.322C-187.735 225.001 -187.667 224.548 -187.342 224.226C-187.473 224.484 -187.604 224.742 -187.54 224.937C-187.54 224.937 -187.54 224.937 -187.477 225.132C-187.671 225.195 -187.866 225.259 -188.061 225.322ZM-97.6556 83.409C-101.501 98.0162 -105.347 112.624 -110.035 127.29C-114.591 141.698 -120.053 155.971 -127.194 169.715C-133.942 182.685 -142.302 194.673 -152.786 204.77C-159.819 211.587 -167.623 217.363 -176.259 221.903C-179.698 223.24 -183.137 224.577 -186.576 225.915C-177.546 220.6 -169.734 213.529 -162.824 205.675C-154.218 195.761 -147.157 184.412 -140.743 173.058C-133.605 159.962 -126.79 146.539 -120.621 133.113C-113.996 119.106 -107.951 104.643 -102.1 90.2429C-99.4702 83.7856 -96.8407 77.3282 -94.2111 70.8709C-95.403 75.1363 -96.4637 79.1436 -97.6556 83.409ZM-93.4475 62.6533C-96.2757 69.8215 -99.1038 76.9897 -101.932 84.158C-107.652 98.2998 -113.63 112.31 -119.866 126.19C-126.102 140.069 -132.659 153.623 -139.67 167.109C-145.826 178.593 -152.498 189.815 -160.524 200.187C-167.832 209.462 -176.167 217.566 -185.916 223.976C-181.122 212.936 -172.266 204.448 -164.185 195.566C-155.646 186.104 -149.105 175.14 -143.274 163.977C-137.376 152.362 -131.736 140.615 -126.033 129.063C-120.198 117.253 -114.558 105.506 -108.723 93.6958C-105.51 87.0481 -102.233 80.595 -99.02 73.9472C-97.5106 70.6551 -95.8067 67.2995 -94.2974 64.0074C-93.3799 62.2005 -92.5935 60.6518 -91.676 58.8449C-92.3314 60.1355 -92.7921 61.3626 -93.4475 62.6533ZM-174.198 192.587C-171.696 185.74 -168.808 179.414 -164.693 173.549C-160.774 167.748 -156.143 162.145 -151.449 156.737C-142.255 145.985 -132.867 135.169 -127.54 121.802C-124.78 115.086 -122.988 108.041 -120.743 101.063C-118.241 94.2163 -115.159 87.8267 -110.85 81.8983C-106.147 75.1956 -100.671 68.8863 -95.5796 62.0566C-97.0214 64.896 -98.2686 67.6719 -99.7104 70.5112C-102.53 76.3846 -105.35 82.258 -108.17 88.1314C-113.811 99.8781 -119.645 111.688 -125.222 123.63C-130.862 135.377 -136.697 147.187 -142.531 158.997C-148.235 170.549 -154.518 181.644 -162.802 191.884C-169.129 199.548 -176.745 206.555 -182.365 215.065C-179.148 207.77 -176.768 199.886 -174.198 192.587ZM-94.8877 209.356C-76.1414 202.81 -56.3792 199.378 -36.5697 198.731C-15.5293 197.897 5.29615 200.364 25.7838 205.095C44.85 209.428 63.5148 215.831 81.3298 223.587C67.5088 218.835 53.6203 214.536 39.5331 210.947C18.855 205.633 -2.15691 201.934 -23.5107 201.147C-44.1538 200.559 -64.5552 202.692 -84.3972 208.519C-100.09 213.207 -115.211 219.648 -130.522 225.504C-118.642 219.69 -107.277 213.613 -94.8877 209.356ZM-146.621 232.909C-128.593 227.459 -111.522 219.736 -93.6853 213.702C-83.6312 210.207 -73.1285 207.427 -62.5028 205.683C-52.4609 204.13 -42.165 203.356 -31.8732 203.229C-10.7734 203.238 10.048 206.352 30.4046 211.341C35.7687 212.606 41.3909 214.003 46.6874 215.721C40.7396 214.646 34.8552 213.766 28.9709 212.885C11.8976 210.702 -5.57289 209.94 -22.7935 210.605C-40.2088 211.333 -57.5686 213.55 -74.8055 216.804C-92.0425 220.058 -109.025 224.091 -126.203 228.187C-133.203 229.824 -140.009 231.399 -147.01 233.036C-146.815 232.973 -146.815 232.973 -146.621 232.909ZM-155.249 236.155C-147.601 234.521 -140.212 232.757 -132.628 230.929C-115.645 226.896 -98.6619 222.864 -81.425 219.609C-64.3826 216.419 -47.1498 213.812 -29.798 212.89C-12.4463 211.967 4.70264 212.403 21.907 214.328C32.8379 215.501 43.9593 217.257 54.6875 219.787C49.5139 219.106 44.4038 218.619 39.3572 218.327C20.4652 217.168 1.55699 218.598 -17.2284 221.065C-37.0501 223.655 -56.6218 227.671 -76.3206 231.297C-95.3721 234.928 -114.293 238.3 -133.527 240.052C-146.737 241.131 -160.201 241.432 -173.594 240.632C-167.376 239.896 -161.281 238.122 -155.249 236.155ZM43.9088 235.579C21.5415 241.584 0.0590318 250.961 -22.3124 257.613C-42.349 263.503 -63.0801 266.605 -84.0529 266.986C-104.573 267.434 -125.335 265.162 -145.37 260.499C-163.789 256.17 -181.612 249.708 -198.581 241.245C-194.059 242.57 -189.6 243.7 -185.205 244.635C-170.673 249.586 -155.486 253.246 -140.227 255.806C-120.958 258.781 -101.483 259.75 -82.1894 258.84C-61.8597 257.808 -41.7083 254.249 -22.0014 249.328C-1.51626 244.152 18.9095 238.135 39.9027 234.517C46.4464 233.459 52.7955 232.465 59.5298 231.991C54.4116 232.799 49.2257 234.06 43.9088 235.579ZM-175.183 246.319C-167.683 247.533 -160.052 248.49 -152.547 249.057C-131.845 250.487 -111.122 248.68 -90.7757 245.058C-69.9771 241.503 -49.4284 236.523 -28.6339 233.616C-7.45021 230.582 13.7847 229.685 35.2061 230.019C40.8364 230.121 46.4667 230.222 51.966 230.582C50.7351 230.768 49.5042 230.954 48.0787 231.204C27.3476 234.306 7.37453 240.39 -12.9161 245.502C-32.7541 250.682 -52.846 255.082 -73.3744 256.826C-92.8664 258.447 -112.604 257.994 -132.135 255.535C-146.556 253.563 -161.1 250.555 -175.183 246.319ZM77.0248 228.868C76.3776 228.864 75.7303 228.859 75.0831 228.855C64.5373 228.204 53.8604 227.81 43.4416 227.548C22.4093 227.087 1.11084 227.789 -19.8107 230.307C-40.7322 232.825 -61.1498 237.547 -81.8215 241.491C-102.298 245.371 -122.898 248.215 -143.994 247.559C-154.218 247.233 -164.439 246.26 -174.46 244.576C-179.697 243.7 -184.74 242.76 -189.715 241.368C-187.257 241.643 -184.668 241.66 -182.337 241.546C-181.496 241.487 -180.654 241.427 -179.618 241.305C-166.745 242.489 -153.801 242.574 -140.916 241.817C-121.881 240.776 -103.028 237.856 -84.4966 234.61C-64.7343 231.178 -45.1625 227.163 -25.4044 224.378C-6.48794 221.653 12.5514 219.965 31.7055 220.608C49.1126 221.175 66.5074 223.684 82.9132 229.101C80.908 228.893 78.9664 228.881 77.0248 228.868Z" fill="#C3D64B"/>
</svg>
