<svg width="262" height="371" viewBox="0 0 262 371" fill="none" xmlns="http://www.w3.org/2000/svg">
<path d="M259.639 188.714C259.382 188.814 258.868 189.012 258.611 189.112C258.333 188.776 257.877 188.362 257.106 188.66C255.15 189.711 253.016 190.684 251.138 191.557C250.446 191.677 250.011 191.697 249.318 191.817C243.282 191.492 237.246 191.166 231.268 190.228C223.192 189.214 215.352 187.666 207.334 186.039C191.733 182.764 176.111 179.055 160.195 176.493C145.428 174.225 130.545 173.184 115.767 174.317C101.681 175.331 87.6783 178.084 74.0954 182.299C60.5126 186.515 47.4486 192.45 35.2394 199.827C33.7971 200.679 32.2762 201.71 30.8339 202.563C30.577 202.662 30.4196 203.018 30.3409 203.196C20.5549 206.535 10.9681 210.388 1.40225 214.676C-15.4167 222.357 -32.0155 230.987 -47.9798 240.111C-45.4519 238.248 -43.1023 236.306 -40.7527 234.364C-38.9748 233.234 -37.2965 231.847 -35.7965 230.381C-27.641 223.98 -19.1291 217.737 -10.4178 212.008C4.87012 201.521 21.0914 192.299 37.8107 184.36C54.3518 176.343 71.3909 169.611 88.3303 162.621C105.27 155.631 122.11 148.385 138.452 139.854C154.022 131.621 168.917 122.025 182.878 111.166C210.287 89.6448 233.883 63.2471 251.989 33.3594C252.168 33.4382 252.603 33.4176 252.76 33.0614C255.54 29.1812 258.042 24.9654 260.544 20.7495C261.116 19.9379 260.025 19.0303 259.354 19.5851C259.055 18.8145 258.163 18.4206 257.67 19.0542C233.717 45.2944 202.182 62.6505 171.019 78.6812C139.857 94.712 107.803 110.349 81.17 133.49C66.6003 146.209 53.7976 161.199 45.1165 178.436C28.8116 185.918 12.9837 194.251 -1.91086 203.847C-10.5434 209.398 -19.155 215.384 -27.41 221.528C-26.9957 221.073 -26.5814 220.617 -26.0883 219.984C-12.6988 209.936 0.591079 199.631 12.7694 187.983C19.4407 181.565 25.6558 174.733 31.2364 167.408C37.2314 159.627 42.2353 151.195 46.6046 142.27C51.231 133.246 55.3225 123.985 60.0276 114.783C64.4179 106.293 69.2644 98.2175 75.0024 90.5358C85.828 76.1622 98.9345 63.8607 111.228 50.9872C121.036 40.8466 130.545 29.9355 137.993 17.901C138.072 17.7229 138.15 17.5448 138.329 17.6236C138.329 17.6236 138.329 17.6236 138.407 17.4455C141.565 14.1577 144.166 10.1988 145.876 5.84589C146.369 5.21233 146.862 4.57875 147.355 3.94517C147.513 3.589 147.314 3.07527 146.878 3.09581C147.036 2.73964 147.114 2.56155 147.093 2.12661C147.387 0.979312 145.882 0.527205 145.132 1.2601C144.797 1.53749 144.639 1.89367 144.304 2.17108C143.868 2.19161 143.433 2.21215 143.197 2.74641C142.961 3.28068 142.725 3.81494 142.489 4.3492C140.26 6.98281 137.852 9.53764 135.524 11.9144C133.945 13.5583 132.188 15.1233 130.431 16.6884C128.496 18.1747 126.561 19.6611 124.625 21.1474C124.368 21.2467 124.468 21.5035 124.389 21.6816C123.797 22.0583 123.204 22.4351 122.69 22.6337C113.601 27.7707 103.936 31.8014 94.4277 35.476C84.4843 39.1711 74.5409 42.8663 64.8964 47.332C55.6871 51.7772 46.8763 57.2498 39.0984 64.243C23.8782 77.9521 12.7061 96.0039 4.44446 114.703C-4.84007 135.717 -10.6583 158.05 -17.1898 180.068C-20.5631 191.561 -24.0359 202.798 -28.3794 214.076C-29.46 217.004 -30.8763 220.21 -32.5705 223.079C-36.3623 225.874 -39.9759 228.747 -43.4898 231.877C-38.1871 224.216 -34.3317 215.49 -31.7034 206.647C-28.351 194.719 -27.1173 182.28 -26.9323 169.804C-26.847 157.07 -27.8105 144.299 -28.774 131.528C-29.345 125.103 -30.0942 118.6 -30.6651 112.175C-31.3146 105.928 -32.2212 99.7805 -32.8708 93.5337C-33.4208 87.5437 -33.7138 81.4545 -33.2149 75.5022C-32.7319 71.0329 -31.5567 66.4437 -30.0249 62.0121C-29.0598 60.31 -28.1943 58.351 -27.0509 56.7277C-26.4792 55.916 -26.0071 54.8475 -25.4354 54.0358C-24.9424 53.4023 -24.528 52.9468 -24.035 52.3132C-23.9563 52.1351 -23.8776 51.957 -24.0559 51.8782C-23.9982 51.2652 -24.7114 50.9501 -25.1257 51.4056C-25.6187 52.0392 -25.9544 52.3166 -26.1904 52.8509L-26.3687 52.7721C-26.9404 53.5837 -27.5121 54.3954 -28.1625 55.3851C-31.792 59.7414 -35.5001 64.2757 -38.773 68.7895C-43.2102 74.4917 -47.3695 80.5295 -51.0726 86.9817C-57.8494 98.4614 -62.901 111.342 -64.2711 124.572C-65.6413 137.802 -62.5802 150.648 -58.6485 163.453C-54.7167 176.259 -50.528 188.965 -48.7517 202.308C-47.1537 215.572 -48.1255 229.829 -54.5247 241.902C-54.7608 242.436 -54.9181 242.792 -55.3325 243.248C-56.0038 243.802 -56.4968 244.436 -57.1681 244.991C-57.5038 245.268 -57.8395 245.545 -58.0755 246.08C-58.8255 246.813 -59.4968 247.367 -60.4251 248.022L-60.6821 248.121L-60.7608 248.299C-64.7887 251.628 -68.6383 255.035 -72.5666 258.621C-76.6941 261.693 -80.465 264.922 -83.958 268.488C-84.7867 269.399 -85.6941 270.488 -86.5228 271.399C-87.6084 272.409 -88.7727 273.597 -90.0367 274.529C-110.507 293.368 -130.243 312.957 -149.245 333.297C-149.323 333.475 -149.502 333.396 -149.58 333.574C-144.031 321.978 -139.729 309.83 -136.933 297.231C-135.653 294.816 -134.116 292.302 -132.836 289.888C-131.142 287.018 -129.448 284.148 -127.754 281.278C-127.182 280.467 -126.532 279.477 -126.138 278.586C-125.645 277.953 -124.974 277.398 -124.481 276.764C-124.402 276.586 -124.145 276.487 -124.066 276.309C-122.902 275.121 -121.816 274.11 -120.652 272.922C-119.981 272.367 -119.488 271.734 -118.916 270.922C-118.502 270.466 -118.087 270.011 -117.673 269.555C-116.252 268.268 -114.93 266.723 -113.509 265.435C-104.372 255.85 -96.6831 245.199 -90.6195 233.404C-84.6346 221.787 -79.9973 209.362 -77.3004 196.506C-75.952 190.077 -74.9601 183.492 -74.5818 176.847C-74.2034 170.203 -74.3391 163.758 -74.653 157.234C-75.1134 147.665 -76.0301 137.682 -74.5711 128.109C-74.1199 126.606 -73.4118 125.003 -72.9606 123.5C-71.8013 120.393 -70.899 117.387 -69.7397 114.28C-69.425 113.568 -70.3164 113.174 -70.7517 113.195C-71.1083 113.037 -71.7218 112.979 -72.1362 113.434C-72.2149 113.612 -72.3722 113.969 -72.4509 114.147C-72.8653 114.602 -73.2796 115.058 -73.5156 115.592C-74.3443 116.503 -74.9947 117.493 -75.6451 118.482C-76.2955 119.472 -77.1242 120.383 -77.7746 121.373C-78.425 122.363 -79.154 123.53 -79.8044 124.52C-80.2188 124.976 -80.6331 125.431 -81.0474 125.887C-81.2257 125.808 -81.5614 126.085 -81.2048 126.243C-86.0773 131.965 -89.9377 138.774 -92.7494 145.62C-97.4285 157.175 -99.3545 169.734 -100.767 182.094C-102.315 195.245 -103.25 208.454 -106.204 221.41C-109.079 234.188 -113.103 246.671 -118.374 258.603C-121.286 265.192 -124.554 271.624 -128.099 277.72C-128.435 277.997 -128.849 278.453 -129.363 278.651C-128.991 277.326 -128.875 276.1 -128.681 274.696C-128.55 271.987 -128.854 269.298 -129.414 266.709C-129.535 266.017 -129.655 265.326 -129.697 264.456C-129.718 264.021 -129.661 263.408 -129.681 262.973C-129.781 262.716 -129.881 262.459 -130.138 262.558C-130.379 261.175 -130.52 260.048 -130.405 258.822C-125.222 243.232 -121.465 227.013 -119.114 210.598C-116.862 193.926 -115.759 176.96 -116.476 160.254C-117.014 143.626 -119.372 127.259 -122.501 111.19C-125.53 95.3777 -129.252 79.6853 -132.103 63.9518C-134.11 53.0609 -135.426 42.0502 -135.791 30.8204C-135.713 30.6423 -135.534 30.721 -135.634 30.4642C-135.319 29.7518 -135.618 28.9813 -135.66 28.1114C-135.702 27.2415 -135.744 26.3716 -135.864 25.6798C-135.948 23.94 -135.853 22.279 -135.759 20.6179C-135.606 18.3439 -135.276 16.1486 -134.767 14.0321C-134.688 13.854 -134.61 13.6759 -134.452 13.3198C-134.374 13.1417 -134.473 12.8848 -134.394 12.7067C-134.258 11.9156 -134.022 11.3813 -133.886 10.5902C-133.849 9.54224 -134.562 9.22713 -135.254 9.34698C-135.254 9.34698 -135.432 9.26821 -135.354 9.09013C-135.532 9.01136 -135.967 9.0319 -136.224 9.13121L-136.481 9.23053C-136.838 9.07298 -137.173 9.35038 -137.153 9.78533C-137.21 10.3984 -137.189 10.8333 -137.247 11.4463C-138.406 14.5526 -139.309 17.5595 -140.211 20.5665C-147.082 33.7072 -152.071 47.8925 -155.576 62.095C-159.805 79.3833 -161.993 97.3599 -161.571 115.213C-161.206 133.68 -157.794 152.002 -153.532 169.849C-148.993 188.031 -143.682 205.916 -140.171 224.495C-136.879 242.126 -135.13 260.353 -137.418 278.072C-137.592 279.912 -138.022 281.85 -138.195 283.689C-138.552 283.531 -138.987 283.552 -138.966 283.987C-139.396 285.925 -139.748 287.686 -140.178 289.624C-140.53 291.384 -140.781 293.402 -141.133 295.162C-141.915 298.861 -142.697 302.56 -143.735 306.358C-145.734 313.776 -148.09 321.036 -150.802 328.139C-152.354 332.136 -154.264 335.975 -155.995 339.893C-156.073 340.071 -156.073 340.071 -156.073 340.071C-161.717 346.091 -167.182 352.191 -172.726 358.468C-176.041 362.112 -179.177 365.835 -182.392 369.736C-182.885 370.369 -182.151 371.119 -181.658 370.486C-172.542 360.465 -163.506 350.622 -154.212 340.68C-153.955 340.581 -153.698 340.482 -153.541 340.126C-153.462 339.948 -153.304 339.591 -153.226 339.413C-151.154 337.136 -149.161 335.037 -146.911 332.838L-146.654 332.739C-146.554 332.995 -146.376 333.074 -146.119 332.975C-131.482 330.715 -116.641 330.886 -101.937 331.849C-87.2323 332.812 -72.4281 334.031 -57.7285 333.076C-50.5072 332.648 -43.4065 331.528 -36.4263 329.717C-29.4461 327.905 -22.5864 325.402 -15.905 322.82C-2.46361 317.477 10.5584 310.673 24.0785 305.152C29.2968 302.988 34.6933 300.902 40.1894 299.073C40.3676 299.152 40.546 299.231 40.8029 299.132C43.1157 298.238 45.6068 297.423 48.1188 297.043C48.2184 297.3 48.3967 297.378 48.6537 297.279C51.2444 296.721 53.9347 296.42 56.4676 296.474C56.8242 296.632 57.4377 296.69 57.7943 296.848L57.873 296.67L57.9517 296.492C58.13 296.57 58.387 296.471 58.5653 296.55C58.7435 296.629 58.7435 296.629 59.0005 296.529C59.6141 296.588 59.9707 296.745 60.5843 296.803C60.7625 296.882 61.0195 296.783 61.2765 296.683C61.4548 296.762 61.7117 296.663 61.89 296.742C62.6819 296.879 63.2955 296.937 64.0873 297.074C64.7009 297.132 65.5923 297.526 66.185 297.149C66.2637 296.971 66.442 297.05 66.5207 296.872C67.4699 296.653 67.7428 295.07 66.5943 294.776C63.7626 293.95 61.1091 293.204 58.1986 292.557C58.0203 292.478 57.6637 292.32 57.4068 292.419C57.4068 292.419 57.2285 292.341 57.1498 292.519C56.7932 292.361 56.5362 292.461 56.1796 292.303C55.2095 292.087 54.2393 291.871 53.3688 291.913C44.4382 289.457 34.7995 288.604 25.5592 288.778C11.1744 289.021 -2.90654 291.952 -16.8879 295.141C-31.2049 298.606 -45.4223 302.329 -60.1377 304.767C-74.8531 307.205 -89.6892 308.951 -104.184 312.338C-116.839 315.9 -129.551 320.074 -140.99 327.153C-127.196 312.814 -113.203 298.988 -98.6751 285.399C-95.0824 282.091 -91.4898 278.782 -88.1542 275.573C-87.9759 275.652 -87.7976 275.731 -87.5406 275.632C-87.2836 275.532 -87.2049 275.354 -86.948 275.255C-77.6189 278.738 -68.0539 281.687 -58.3524 283.845C-48.4726 286.081 -38.1994 287.428 -28.0099 287.034C-18.177 286.483 -8.70571 283.856 0.367128 280.202C9.51866 276.37 18.0148 271.61 26.988 267.699C36.1186 263.432 45.4694 260.113 55.5383 259.028C65.6073 257.942 75.9382 258.675 85.8967 260.734C105.714 264.594 124.493 272.252 144.016 277.26C162.213 281.894 181.71 284.549 199.94 278.98C202.174 278.264 204.23 277.47 206.186 276.419C207.036 275.943 206.616 274.48 205.667 274.699C205.567 274.442 205.389 274.364 205.211 274.285C204.419 274.148 203.648 274.446 202.956 274.566C202.264 274.686 201.393 274.727 200.701 274.847C199.395 274.908 198.168 274.792 196.941 274.675C187.329 268.938 177.895 263.281 168.204 257.722C158.058 251.749 147.732 245.697 137.25 240.001C118.702 229.891 97.627 221.644 76.1674 225.359C66.7329 226.938 57.7597 230.849 49.1221 234.482C39.9706 238.314 30.6199 241.633 20.6296 242.54C10.461 243.369 0.187817 242.023 -10.0435 241.546C-19.4043 241.029 -28.9016 241.303 -38.1368 243.395C-45.2166 244.95 -51.9976 247.275 -58.5585 250.549C-57.8871 249.994 -57.3154 249.183 -56.6441 248.628C-56.4658 248.707 -56.3871 248.529 -56.3085 248.35C-55.8941 247.895 -55.4798 247.439 -55.2437 246.905C-55.165 246.727 -54.8294 246.45 -54.7507 246.272C-38.5085 237.484 -22.1876 228.518 -5.46828 220.58C5.79681 215.34 17.2611 210.614 29.1029 206.481C36.5234 206.567 43.7656 206.574 51.1075 206.837C58.8059 207.259 66.6826 207.759 74.2236 208.537C89.741 210.071 105.101 211.962 120.697 213.319C136.036 214.774 151.611 215.696 167.024 215.056C182.001 214.436 196.817 212.255 211.212 208.611C222.938 205.704 234.266 201.769 245.374 196.886C246.066 196.766 246.659 196.389 247.351 196.269C249.328 195.653 251.285 194.602 253.162 193.728C253.419 193.629 253.676 193.53 254.033 193.687L254.211 193.766C254.646 193.745 254.725 193.567 254.625 193.31L254.882 193.211C256.424 192.615 258.045 191.841 259.586 191.245C262.057 189.995 261.003 188.04 259.639 188.714ZM190.551 101.998C176.889 113.628 162.293 123.994 146.665 132.84C130.7 141.964 113.96 149.467 97.1989 156.535C88.8183 160.069 80.1808 163.703 71.6219 167.158C79.7037 162.854 87.6858 158.292 95.4896 153.652C110.09 145.203 124.413 136.419 138.636 127.378C152.267 118.713 165.62 109.713 178.695 100.377C191.512 91.141 204.131 81.3909 215.837 70.812C224.543 63.1647 232.615 55.0241 240.23 46.4692C226.394 67.1751 209.485 85.672 190.551 101.998ZM245.213 37.6025C244.899 38.3149 244.406 38.9485 243.991 39.404C236.061 48.6713 227.675 57.5241 218.654 65.8838C207.126 76.5415 194.864 86.4491 182.224 95.7643C169.249 105.357 155.975 114.179 142.523 122.922C128.478 132.042 114.412 140.727 99.9896 149.254C87.8591 156.453 75.5502 163.573 63.1417 170.436C59.4653 172.004 55.789 173.573 52.2909 175.22C52.6266 174.943 53.0409 174.487 53.3766 174.21C66.6506 165.388 79.9246 156.566 93.0203 147.665C107.558 137.912 122.096 128.158 136.634 118.405C150.323 109.127 164.11 100.107 177.521 90.4934C190.774 81.2365 203.749 71.644 216.446 61.7158C225.687 54.3048 234.829 46.6369 243.514 38.5546C244.028 38.356 244.621 37.9793 245.213 37.6025ZM236.754 41.3148C236.497 41.4141 236.419 41.5922 236.162 41.6916C236.24 41.5135 236.497 41.4141 236.754 41.3148ZM234.562 42.9005C234.483 43.0786 234.483 43.0785 234.583 43.3354C233.99 43.7121 233.141 44.1881 232.548 44.5649C233.219 44.0101 233.891 43.4553 234.562 42.9005ZM235.139 44.0067C230.203 48.4245 225.268 52.8424 220.055 56.9246C207.457 67.1097 194.403 76.8803 181.072 86.3153C167.74 95.7503 154.387 104.75 140.956 113.928C126.418 123.682 112.058 133.514 97.6199 143.525C83.6746 152.901 69.8289 162.535 55.8836 171.912C64.8835 163.117 74.1615 154.658 83.7172 146.535C95.6227 136.469 108.084 127.076 120.566 118.117C133.305 109.058 146.065 100.435 159.182 91.9692C172.12 83.4246 185.336 75.2157 198.553 67.0067C210.919 59.2738 223.029 51.6403 235.139 44.0067ZM121.884 107.418C143.774 94.5271 166.719 83.5923 189.008 71.7293C180.454 77.1026 171.9 82.4759 163.346 87.8492C150.308 96.1369 137.37 104.681 124.452 113.661C111.792 122.541 99.4095 131.757 87.4045 141.565C75.3994 151.374 63.5936 161.696 52.7789 172.668C51.3576 173.956 50.1146 175.323 48.8716 176.689C48.7929 176.867 48.7142 177.045 48.7142 177.045C48.4572 177.145 48.4572 177.145 48.2002 177.244C64.4449 146.747 92.446 124.849 121.884 107.418ZM112.897 45.7645C100.781 58.7167 87.6745 71.0183 76.4714 84.7993C70.7912 91.868 65.5671 99.351 60.9776 107.327C55.9946 116.194 51.9818 125.276 47.5337 134.379C43.1644 143.304 38.795 152.229 33.1775 160.603C28.0531 168.342 21.8589 175.61 15.4655 182.363C3.50736 194.959 -10.0186 205.798 -23.7228 216.559C-23.2298 215.925 -22.6581 215.114 -22.1651 214.48C-10.6372 203.822 -0.0426199 191.901 8.74808 178.757C19.1752 163.356 26.4718 146.359 34.4815 129.677C38.6148 121.286 42.8269 112.717 47.773 104.899C52.4831 97.6144 57.8277 90.8231 63.8067 84.5251C75.0149 72.6619 88.1474 62.7132 100.824 52.3501C109.137 45.5931 117.528 38.6581 125.285 31.2299C121.676 36.0211 117.376 40.9322 112.897 45.7645ZM133.981 19.7468C133.824 20.103 133.488 20.3804 133.331 20.7366C132.838 21.3702 132.345 22.0037 131.673 22.5585C128.852 25.5689 126.109 28.4011 123.187 31.1545C117.266 36.8396 111.145 42.0109 104.768 47.2815C92.0916 57.6446 79.1373 67.6721 67.3943 79.299C61.6513 85.0627 56.1862 91.1622 51.5339 97.8335C46.0528 105.416 41.5629 113.649 37.4296 122.04C28.9846 138.742 22.0446 155.897 12.252 171.791C7.56282 179.51 2.16049 186.915 -3.51974 193.983C-8.62827 200.24 -13.8364 206.24 -19.679 211.747C-17.6283 209.035 -15.6771 206.066 -13.8046 203.274C-2.92632 186.37 5.17799 168.027 13.4606 149.763C22.0579 130.786 31.1692 111.611 43.5316 94.7237C49.8413 86.2304 56.7068 78.4083 64.7626 71.7507C72.8971 64.915 82.0436 59.165 91.0117 53.3362C106.163 43.6409 122.185 33.9046 133.981 19.7468ZM123.566 24.5105C126.114 23.0824 128.564 21.3975 130.934 19.8906C120.754 31.3566 107.994 39.9799 94.9559 48.2676C86.0664 53.9183 77.2556 59.3909 68.9219 65.7129C60.5882 72.0349 53.1669 79.1857 46.6579 87.1653C33.5614 103.303 24.0726 121.885 15.3757 140.605C6.91484 158.79 -0.832876 177.291 -10.7201 194.846C-14.3445 201.12 -18.3255 207.237 -22.5844 213.018C-14.5647 200.171 -8.70534 185.945 -3.63788 171.582C2.74627 153.756 7.98198 135.635 15.2576 118.203C22.0611 101.84 30.6266 85.8293 42.8208 72.6989C48.5429 66.5002 55.1774 61.1302 62.4673 56.6885C69.2433 52.4453 76.4963 49.0515 83.7494 45.6577C97.3273 39.5242 111.618 33.7058 123.566 24.5105ZM-19.4883 193.952C-12.3851 171.123 -6.78698 147.841 1.9208 125.721C9.44836 106.271 19.5298 87.312 34.1523 72.0617C41.3743 64.3972 49.7867 57.8971 59.0538 52.8389C68.5778 47.6814 78.8568 43.7089 88.8789 39.8357C98.0513 36.4385 107.302 32.8632 116.076 28.4385C113.963 29.8461 111.671 31.1749 109.458 32.3255C102.404 36.2331 95.0513 39.37 87.7982 42.7638C72.9355 49.3939 58.0937 56.4589 46.0728 67.7502C33.3018 79.7743 24.1805 95.1137 16.9208 111.063C9.26766 127.902 3.93234 145.766 -2.29444 163.235C-8.81504 181.852 -16.0278 200.589 -27.462 216.823C-27.6193 217.179 -27.955 217.456 -28.1123 217.812C-27.0895 215.497 -26.3236 213.281 -25.479 210.887C-23.1185 205.545 -21.2142 199.788 -19.4883 193.952ZM-76.9441 151.326C-76.6301 157.85 -76.1379 164.453 -76.2592 170.998C-76.3806 177.543 -77.0159 184.286 -78.1861 190.793C-80.3481 203.886 -84.4505 216.547 -90.1575 228.5C-95.8645 240.452 -103.354 251.617 -112.213 261.538C-114.285 263.816 -116.278 265.915 -118.528 268.114C-119.299 268.411 -119.792 269.045 -120.285 269.679C-120.62 269.956 -120.699 270.134 -121.035 270.412C-119.734 268.432 -118.354 266.274 -117.054 264.295C-109.642 253.308 -102.152 242.144 -96.3667 230.013C-93.5919 224.215 -91.352 218.181 -89.5473 212.167C-87.8213 206.331 -86.8085 200.18 -85.7957 194.029C-84.0271 181.827 -83.129 169.666 -81.7169 157.306C-80.7092 149.237 -79.4444 141.069 -77.2095 133.116C-77.5301 139.147 -77.2371 145.237 -76.9441 151.326ZM-79.3649 133.654C-80.9126 139.569 -81.8467 145.541 -82.7809 151.514C-84.5495 163.717 -85.348 176.135 -86.76 188.495C-88.3504 200.776 -90.8113 213.098 -95.4904 224.654C-100.348 236.13 -106.988 246.819 -113.985 257.35C-113.906 257.171 -113.828 256.993 -113.749 256.815C-111.168 252.421 -108.944 247.87 -106.899 243.24C-102.807 233.979 -99.4287 224.403 -97.0206 214.612C-94.3554 204.721 -92.7391 194.793 -91.4794 184.707C-90.141 174.443 -89.5158 163.864 -87.7421 153.579C-86.7083 147.863 -85.318 142.305 -83.1358 136.884C-81.6618 133.065 -79.7316 129.661 -77.4447 126.414C-78.111 128.887 -78.7773 131.359 -79.3649 133.654ZM-106.168 227.599C-102.936 214.978 -101.466 202.005 -100.253 189.132C-98.9409 176.515 -97.5498 163.72 -93.6048 151.415C-90.4835 141.938 -85.7784 132.736 -78.892 125.349C-78.4777 124.893 -77.9637 124.695 -77.5494 124.239C-76.8781 123.685 -76.3064 122.873 -75.635 122.318C-75.7924 122.674 -76.0284 123.209 -76.1858 123.565C-78.9079 126.832 -80.9955 130.592 -82.6478 134.332C-84.6936 138.962 -86.2044 143.829 -87.28 148.675C-89.5886 158.723 -90.3134 169.045 -91.4736 179.388C-92.555 189.553 -94.507 199.759 -96.9151 209.55C-99.3233 219.342 -102.345 229.075 -106.159 238.671C-108.341 244.092 -110.801 249.178 -113.696 254.284C-115.055 256.877 -116.513 259.213 -118.05 261.726L-118.128 261.904C-113.171 250.685 -109.185 239.25 -106.168 227.599ZM-142.014 57.4445C-141.297 74.1506 -138.504 90.4971 -136.225 107.042C-133.945 123.587 -132.715 140.095 -132.176 156.722C-131.559 173.171 -131.813 189.662 -132.245 206.073C-132.455 208.96 -132.408 211.748 -132.618 214.635C-132.639 214.2 -132.66 213.765 -132.602 213.152C-134.362 191.09 -137.605 169.01 -140.414 146.91C-143.201 125.245 -145.475 103.381 -145.75 81.3357C-145.9 61.9 -144.131 42.461 -139.629 23.5906C-142.153 34.608 -142.458 46.3927 -142.014 57.4445ZM-149.196 178.363C-153.993 160.28 -158.097 142.077 -159.432 123.395C-160.647 105.405 -159.25 87.2911 -155.556 69.7666C-153.992 62.3691 -152.151 55.3072 -149.874 48.2248C-151.516 55.8004 -152.723 63.3554 -153.574 71.068C-155.096 86.572 -155.035 102.35 -154.282 118.008C-153.449 133.488 -151.925 148.848 -149.787 164.267C-148.215 175.178 -146.465 186.168 -144.457 197.059C-145.978 190.853 -147.498 184.648 -149.196 178.363ZM-134.708 240.105C-136.233 231.982 -137.659 224.115 -139.184 215.991C-142.014 200.693 -144.745 185.651 -147.061 170.154C-149.456 154.835 -151.415 139.495 -152.426 123.936C-153.436 108.378 -153.833 92.877 -152.924 77.3148C-152.068 64.2836 -149.984 51.3688 -146.396 38.906C-145.079 35.4436 -143.684 31.8031 -142.189 28.4194C-143.05 32.2963 -143.81 36.43 -144.493 40.3856C-146.167 50.927 -147.148 61.3486 -147.517 71.8284C-148.133 93.4799 -146.473 115.286 -144.042 136.793C-141.412 158.815 -138.168 180.894 -136.151 202.857C-134.81 216.221 -134.083 229.526 -134.048 242.951C-134.027 243.386 -134.184 243.742 -134.163 244.177C-134.226 242.873 -134.467 241.489 -134.708 240.105ZM-131.67 228.889C-131.408 223.471 -131.066 217.875 -130.982 212.378C-130.371 196.046 -130.118 179.555 -130.478 163.007C-130.917 146.636 -131.869 130.464 -134.049 114.176C-136.071 97.5317 -139.4 80.9488 -140.73 64.1845C-141.777 49.6737 -141.361 34.745 -137.856 20.5425C-137.836 20.9775 -137.993 21.3337 -137.972 21.7686C-138.087 22.9947 -138.124 24.0427 -138.062 25.3475C-138.14 25.5256 -138.041 25.7825 -138.119 25.9605C-138.052 36.4198 -137.015 47.0949 -135.385 57.3933C-133.048 73.3254 -129.505 88.939 -126.297 104.83C-122.99 120.978 -120.375 137.246 -119.501 153.596C-118.428 170.459 -119.017 187.227 -120.912 204.056C-122.807 220.886 -126.364 237.619 -131.348 253.722C-131.505 254.079 -131.663 254.435 -131.721 255.048C-131.368 246.051 -131.43 237.509 -131.67 228.889ZM-133.076 274.031C-133.055 274.466 -133.112 275.079 -133.092 275.514C-133.128 276.562 -133.343 277.531 -133.637 278.679C-133.543 277.018 -133.27 275.435 -133.076 274.031ZM30.4979 300.751C16.7995 306.193 3.67786 312.741 -9.92094 318.44C-23.3414 324.217 -37.4174 329.066 -51.9964 330.713C-66.8324 332.459 -81.7152 331.418 -96.4198 330.455C-99.9229 330.185 -103.505 330.092 -107.008 329.821C-106.316 329.702 -105.524 329.839 -104.831 329.719C-91.9307 329.459 -79.1873 329.555 -66.2289 328.682C-53.5274 327.908 -40.8677 326.265 -28.7271 322.902C-15.1232 319.121 -2.25856 312.672 10.648 307.094C19.1073 303.381 27.8444 300.005 36.8227 298.012C34.6882 298.984 32.6324 299.779 30.4979 300.751ZM26.6701 297.357C12.0174 301.1 -1.99574 307.254 -16.3286 312.203C-23.6236 314.727 -31.1177 316.737 -38.8321 317.799C-46.5464 318.86 -54.2029 319.309 -61.8804 319.322C-76.8788 319.507 -92.1183 318.308 -106.975 319.619C-112.277 320.044 -117.479 320.725 -122.482 321.92C-111.134 318.42 -99.4232 316.996 -87.7706 316.184C-74.9904 315.233 -62.1893 314.716 -49.4719 312.459C-36.0623 310.083 -22.815 306.144 -9.62554 302.819C3.38565 299.415 16.4178 296.446 29.8115 295.553C32.5019 295.251 35.2917 295.207 38.0029 295.34C34.2638 295.604 30.4669 296.481 26.6701 297.357ZM-108.191 316.102C-93.974 312.379 -79.4946 310.476 -65.2931 308.236C-57.9354 307.017 -50.756 305.719 -43.5975 303.986C-36.5177 302.432 -29.5375 300.62 -22.379 298.887C-8.49722 295.442 5.48412 292.254 19.8271 291.141C28.6112 290.552 37.2588 290.755 45.7909 292.183C45.7122 292.361 45.8905 292.44 46.0688 292.519C46.2471 292.597 46.525 292.933 46.9603 292.912C43.2789 292.563 39.4402 292.57 35.6014 292.577C22.1867 293.035 8.87673 295.669 -4.13446 299.073C-17.5809 302.497 -30.7285 306.692 -44.196 309.682C-50.7618 311.038 -57.4273 312.137 -64.1137 312.801C-70.6218 313.544 -76.9725 313.931 -83.3233 314.318C-95.8465 315.171 -108.705 316.3 -120.825 320.098C-122.288 320.516 -123.83 321.112 -125.372 321.708C-125.629 321.807 -125.786 322.163 -125.608 322.242C-126.814 322.561 -128.02 322.879 -129.227 323.198C-122.21 320.338 -115.172 317.913 -108.191 316.102ZM-142.306 330.615C-132.683 325.715 -121.906 323.026 -111.066 321.643C-96.4868 319.996 -81.5253 320.859 -66.8626 320.952C-59.1851 320.939 -51.5076 320.925 -43.872 320.042C-36.315 319.336 -28.7999 317.761 -21.4841 315.672C-6.85234 311.494 6.98251 305.261 21.5146 300.827C22.2856 300.529 22.9778 300.409 23.6701 300.289C21.1003 301.282 18.5305 302.275 15.9608 303.268C2.61896 308.868 -10.1461 315.573 -23.8077 319.967C-36.0061 323.943 -48.9018 326.121 -61.682 327.072C-74.5408 328.202 -87.3629 328.284 -100.264 328.544C-108.455 328.756 -116.646 328.969 -124.917 329.359C-130.14 329.605 -135.185 329.931 -140.466 330.79C-140.723 330.889 -140.901 330.811 -140.98 330.989C-141.672 331.108 -142.542 331.15 -143.235 331.269C-143.235 331.269 -142.721 331.071 -142.306 330.615ZM198.33 276.353C198.152 276.275 198.073 276.453 197.895 276.374C197.895 276.374 197.895 276.374 197.717 276.295C197.895 276.374 198.152 276.275 198.33 276.353ZM-34.5249 66.4094C-34.4463 66.2313 -34.1106 65.9539 -34.0319 65.7758C-37.7509 73.7109 -40.0436 82.2763 -41.3661 91.0574C-43.4654 105.455 -42.9321 120.165 -41.4496 134.655C-40.0458 149.323 -38.128 163.793 -37.773 178.424C-37.4808 191.749 -38.4944 205.137 -42.4185 217.877C-41.8359 213.665 -41.6099 209.295 -41.3839 204.925C-41.0785 193.14 -42.3358 181.516 -43.7714 169.814C-45.3066 157.854 -47.4554 145.837 -48.5554 133.857C-49.5557 122.134 -49.7851 110.113 -47.6389 98.5027C-45.4928 86.8928 -41.4063 75.7144 -34.5249 66.4094ZM-54.4171 169.793C-58.5062 157.344 -62.8732 144.559 -62.7301 131.213C-62.5083 117.688 -58.4269 104.592 -52.2846 92.6189C-51.6552 91.1942 -50.9261 90.0263 -50.1184 88.6804C-51.0416 91.2524 -52.0436 94.0025 -52.6102 96.732C-55.4905 107.592 -55.8956 119.12 -55.2728 130.25C-54.5503 141.638 -52.9574 152.984 -51.1074 164.231C-49.2574 175.478 -47.4075 186.725 -46.6851 198.113C-46.5227 199.674 -46.4389 201.414 -46.4549 202.897C-47.6912 191.708 -50.9257 180.701 -54.4171 169.793ZM178.57 279.117C168.973 279.134 159.57 277.746 150.225 275.746C130.822 271.431 112.222 263.851 92.8978 259.357C83.1963 257.2 73.1801 255.754 63.2476 256.048C53.3151 256.343 43.6445 258.456 34.5717 262.11C16.5047 269.24 -0.125892 280.836 -19.6084 283.935C-40.0401 287.253 -60.8117 281.694 -80.1201 275.717C-81.8034 275.186 -83.3084 274.734 -84.8135 274.282C-84.6352 274.361 -84.5565 274.183 -84.3782 274.262C-84.0425 273.984 -83.7856 273.885 -83.4499 273.608C-65.7093 277.827 -46.8981 275.283 -29.2982 271.14C-10.4921 266.677 7.85283 259.883 26.8373 255.5C36.3295 253.308 46.0209 251.63 55.8538 251.079C65.608 250.706 75.2258 251.124 84.8068 252.59C104.226 255.423 123.078 260.985 141.615 267.259C150.488 270.328 159.282 273.575 168.134 276.209C172.828 277.644 177.5 278.644 182.33 279.288C180.924 279.093 179.697 278.976 178.57 279.117ZM193.5 275.709C194.214 276.024 194.848 276.518 195.561 276.833C179.126 279.788 162.387 272.818 147.038 267.527C128.679 261.331 110.241 255.313 91.0579 251.946C81.7339 250.381 72.1739 249.35 62.7553 249.445C53.1585 249.462 43.7818 250.428 34.3683 252.442C15.2633 256.133 -2.90333 263.006 -21.7672 268.081C-39.8602 272.859 -58.6295 276.273 -77.4139 273.933C-79.4329 273.68 -81.1949 273.327 -83.2139 273.073L-83.1352 272.895C-68.891 264.289 -52.4186 260.286 -35.8415 258.457C-15.4467 256.187 5.17339 256.784 25.3272 253.13C44.0965 249.716 62.4623 243.356 81.7138 242.709C101.322 242.22 119.959 248.751 138.024 256.095C156.011 263.616 174.061 272.442 193.322 275.631L193.5 275.709ZM172.168 267.561C162.76 264.256 153.667 260.239 144.496 256.399C126.509 248.878 107.83 241.477 88.1592 240.661C68.8449 240.003 50.2798 245.849 31.5314 249.698C21.4257 251.832 11.278 253.095 1.00987 253.667C-9.33698 254.417 -19.7048 254.732 -30.1303 255.659C-45.6008 256.913 -61.7794 259.769 -75.929 266.714C-63.8771 259.693 -49.838 255.892 -36.1504 253.851C-17.0036 251.029 2.44707 250.896 21.4734 247.383C30.9865 245.626 40.3582 242.743 49.8294 240.116C59.0438 237.589 68.4573 235.575 78.2115 235.202C97.1064 234.398 115.796 238.398 133.306 245.07C151.964 252.036 169.62 261.753 186.683 271.846C181.911 270.589 176.961 269.253 172.168 267.561ZM-42.6209 246.31C-33.8419 243.803 -24.8218 242.68 -15.5606 242.94C-5.42882 243.16 4.5874 244.605 14.6982 244.389C19.5858 244.42 24.6307 244.095 29.3768 242.999C34.0443 242.082 38.5124 240.65 42.881 238.962C51.8752 235.486 60.3922 231.16 69.6852 228.455C90.584 222.151 111.733 228.302 130.595 237.7C140.879 242.882 150.847 248.776 160.816 254.67C169.615 259.835 178.592 265.079 187.47 270.065C187.213 270.165 186.956 270.264 186.977 270.699C185.986 270.048 184.817 269.319 183.747 268.846C178.991 266.106 174.413 263.445 169.578 260.883C160.344 255.739 150.873 251.129 140.988 246.974C123.358 239.611 104.448 234.662 85.2336 234.26C75.7154 234.099 66.26 235.243 56.9461 237.513C47.4539 239.705 38.0035 242.767 28.4326 245.136C8.93426 249.718 -10.9517 249.872 -30.733 252.2C-44.4415 253.806 -58.5224 256.738 -70.9728 262.731C-70.6371 262.453 -70.2228 261.998 -69.8871 261.721C-67.7158 259.7 -65.4658 257.501 -63.2945 255.481C-56.5185 251.238 -49.6798 248.299 -42.6209 246.31ZM-46.5259 228.62C-44.7472 220.254 -44.3739 211.692 -44.6142 203.072C-44.98 191.842 -46.6517 180.674 -48.5803 169.605C-50.4303 158.358 -52.5372 147.21 -53.6949 135.843C-54.6743 124.555 -54.9615 113.147 -52.7944 101.972C-51.4668 95.1087 -49.2478 88.6393 -46.3156 82.4851C-44.2071 79.1596 -41.9203 75.913 -39.6335 72.6663C-40.4412 74.0123 -41.1494 75.615 -41.7788 77.0397C-44.3176 82.3036 -46.0645 87.7044 -47.4548 93.2628C-50.1359 104.636 -50.6983 116.52 -50.1332 128.264C-49.4685 140.264 -47.8547 152.046 -46.1411 164.084C-44.5272 175.865 -42.992 187.825 -42.9409 199.767C-42.9157 209.356 -43.9394 218.908 -46.1115 228.165C-46.1115 228.165 -46.4472 228.442 -46.5259 228.62ZM-44.1503 229.031C-43.6782 227.963 -43.2848 227.073 -42.8127 226.004C-37.6615 213.38 -35.5204 199.853 -35.2986 186.328C-34.9614 171.578 -36.8005 156.93 -38.2043 142.261C-39.6081 127.593 -40.9332 112.747 -39.6258 98.2118C-39.0115 91.0335 -37.7048 83.7353 -35.6851 76.7522C-35.3912 75.6049 -34.8405 74.3583 -34.5467 73.211C-35.3653 77.9577 -35.4707 83.0196 -35.3192 87.9821C-35.0262 94.0713 -34.1196 100.219 -33.3914 106.288C-32.6422 112.791 -31.893 119.295 -31.3221 125.72C-30.1016 138.392 -29.3164 151.084 -29.0451 163.975C-28.7948 176.431 -29.415 188.928 -32.2324 201.092C-34.8189 210.805 -38.6325 220.401 -44.1503 229.031ZM69.9102 185.984C83.2939 181.255 97.1965 178.245 111.262 176.797C125.762 175.328 140.524 175.677 154.935 177.787C170.83 179.914 186.452 183.624 202.053 186.898C214.922 189.604 228.127 192.032 241.169 192.899C238.043 193.221 234.918 193.543 231.692 193.608C224.114 193.878 216.615 193.971 209.095 193.628C193.976 193.121 178.637 191.665 163.555 190.11C149.008 188.791 134.718 187.373 120.212 186.924C106.32 186.533 92.2923 186.934 78.5051 188.718C66.0238 190.44 53.8622 193.368 42.1409 198.193C51.0722 193.412 60.3811 189.224 69.9102 185.984ZM216.09 204.807C201.972 208.786 187.435 211.303 172.735 212.258C157.343 213.333 141.868 212.668 126.628 211.469C111.211 210.192 95.8507 208.301 80.5116 206.845C65.1725 205.389 49.6552 203.854 34.2425 204.495C34.6777 204.474 35.0134 204.197 35.4487 204.176C42.5913 203.926 49.8125 203.498 56.9551 203.248C64.7113 203.057 72.4884 203.3 80.4438 203.622C96.1763 204.188 111.93 205.188 127.583 205.932C142.367 206.716 157.486 207.223 172.306 206.96C186.512 206.638 200.777 205.704 214.978 203.464C219.824 202.625 224.926 201.687 229.673 200.591C225.126 202.201 220.657 203.632 216.09 204.807ZM40.2525 202.467C44.642 201.214 49.2099 200.039 53.699 199.043C63.8834 196.731 73.9314 195.211 84.4566 194.54C96.0306 193.906 107.568 194.321 119.126 195.171C141.55 196.99 163.9 200.905 186.382 202.111C193.031 202.494 199.838 202.522 206.645 202.549C196.676 203.892 186.586 204.542 176.653 204.837C161.933 205.357 147.171 205.007 132.566 204.301C116.912 203.558 101.337 202.636 85.7825 202.15C70.5849 201.821 55.3086 201.67 40.2525 202.467ZM239.653 195.848C238.704 196.067 237.754 196.286 236.726 196.683C222.31 199.892 207.175 200.868 192.491 200.34C170.031 199.569 147.78 195.911 125.513 193.736C114.113 192.53 102.476 191.859 91.0593 192.136C80.5132 192.372 70.1873 193.557 59.9032 195.611C52.6451 197.087 45.4866 198.82 38.349 200.988C43.389 198.745 48.7854 196.659 54.2029 195.008C60.8265 193.039 67.471 191.505 74.3148 190.485C88.081 188.266 102.109 187.865 116.001 188.256C130.328 188.626 144.697 189.866 158.987 191.284C174.069 192.84 189.073 194.573 204.113 195.258C217.234 195.947 230.57 195.666 243.686 194.437C242.579 195.012 241.116 195.43 239.653 195.848Z" fill="#C3D64B"/>
</svg>
