<svg width="178" height="628" viewBox="0 0 178 628" fill="none" xmlns="http://www.w3.org/2000/svg">
<path d="M487.478 472.91C464.799 478.053 444.652 492.733 432.785 512.721C432.41 513.33 431.848 514.244 431.474 514.853C436.339 496.013 440.713 477.291 442.335 457.925C443.386 445.974 443.394 434.012 441.622 422.214C441.329 420.984 439.983 420.785 439.117 421.511C430.127 430.673 424.662 442.635 421.645 455.054C418.241 469.125 418.573 483.606 420.626 497.677C421.882 506.218 423.687 514.888 425.68 523.253C425.739 523.499 425.798 523.745 426.102 523.933C425.845 525.034 425.587 526.135 425.272 526.991C425.014 528.092 424.452 529.006 424.195 530.107C424.008 530.412 424.125 530.904 424.184 531.15C423.669 533.352 423.213 535.801 422.453 538.062C422.511 538.308 422.266 538.367 422.078 538.672C422.137 538.918 422.137 538.918 422.196 539.164C421.295 543.018 420.64 546.814 420.044 550.856C419.121 556.796 418.69 562.619 419.359 568.7C419.699 571.219 420.039 573.738 420.871 576.14C419.243 573.667 417.615 571.195 416.174 568.419L416.115 568.173C415.763 566.696 414.674 565.396 413.585 564.095C405.583 550.141 398.448 535.461 392.11 520.851C391.817 519.621 391.278 518.449 390.739 517.277C390.68 517.031 390.621 516.785 390.317 516.598C382.97 498.848 375.869 481.039 368.956 462.926C377.837 441.31 382.994 418.241 386.067 395.149C386.207 393.556 386.406 392.208 386.546 390.615C386.85 390.802 387.342 390.685 387.588 390.627C398.722 387.194 408.79 380.375 418.003 373.24C422.58 369.55 427.099 365.613 431.371 361.735C435.211 358.221 439.355 354.893 442.586 351.004C445.816 347.114 448.321 342.357 447.827 337.015C447.593 336.031 446.679 335.468 445.696 335.703C445.45 335.761 444.958 335.878 444.712 335.937C444.408 335.749 443.858 335.621 443.483 336.23C443.483 336.23 443.483 336.23 443.237 336.288C423.919 342.451 406.125 355.01 394.233 371.623C391.307 375.7 388.685 379.965 386.86 384.3C389.055 362.977 389.108 341.384 386.888 320.072C385.386 306.13 383.087 292.118 379.804 278.34C379.511 277.109 377.86 276.723 377.111 277.941C370.171 290.255 365.913 304.009 364.652 318.35C363.322 333.487 365.364 348.601 370.789 362.648C373.765 370.779 377.913 378.371 382.985 385.483C383.289 385.671 383.594 385.858 383.898 386.046C382.462 399.648 380.229 413.18 377.142 426.396C374.382 437.713 371.071 448.902 367.761 460.091C365.851 455.346 363.882 450.355 362.218 445.551C352.258 420.104 342.298 394.656 332.338 369.209C329.479 361.57 326.433 354.236 323.573 346.597C322.798 338.981 322.328 331.553 322.349 324.008C322.37 316.463 322.696 309.105 323.514 301.63C324.064 301.759 324.86 301.83 325.235 301.22C342.653 283.81 354.25 260.507 357.522 236.068C358.585 228.534 358.243 220.556 353.897 214.311C353.475 213.631 352.129 213.432 351.567 214.346C350.947 215.014 350.631 215.869 350.069 216.783C345.866 219.864 342.085 223.625 338.609 227.573C334.758 232.131 331.211 236.876 328.578 242.183C322.633 253.219 319.312 265.451 318.929 278.022C318.766 281.701 318.849 285.321 319.178 288.883C319.342 290.664 319.507 292.445 319.976 294.413C320.327 295.889 320.492 297.67 321.089 299.088C320.213 306.317 319.829 313.428 319.749 320.727C319.739 327.23 319.975 333.674 320.703 340C315.758 326.878 310.626 314.061 305.189 301.056C305.13 300.81 305.13 300.81 305.072 300.564C305.259 300.259 305.142 299.767 304.779 299.334L304.72 299.088C304.017 296.135 303.618 293.37 303.219 290.605C302.421 285.075 301.928 279.733 301.926 274.273C301.864 263.108 303.149 252.141 305.23 241.245C309.767 218.844 318.519 197.779 328.431 177.217C333.205 166.72 338.53 156.351 343.363 146.1C345.75 140.851 348.383 135.544 350.77 130.295C352.28 126.815 355.592 121.086 352.687 117.618C349.056 113.283 343.168 119.106 340.323 121.344C336.366 124.366 332.773 127.822 329.238 131.525C322.413 138.871 316.62 147.271 312.231 156.116C302.823 175.518 299.82 197.814 303.819 218.961C304.218 221.726 304.804 224.187 305.695 226.835C305.753 227.081 305.812 227.327 306.116 227.514C305.286 230.572 304.397 233.384 303.812 236.383C299.754 254.25 298.261 273.066 301.31 291.32C300.771 290.148 300.291 289.223 299.998 287.992C299.153 281.174 297.079 274.648 294.758 268.18C292.204 260.729 289.099 253.149 285.865 246.119C279.222 231.321 271.653 217.004 265.748 202.031C262.045 193.033 259.326 183.801 257.099 174.451C265.455 161.54 271.68 147.317 275.704 132.578C277.809 125.057 279.119 117.465 280.065 109.439C280.765 101.472 281.22 93.5638 280.386 85.7023C279.376 77.1027 276.47 68.175 270.286 61.8483C269.618 61.2273 268.518 60.9695 267.956 61.8834C259.189 73.0721 254.439 86.9438 251.832 101.085C249.552 113.328 248.865 125.712 249.524 138.295C248.458 134.909 247.145 131.582 245.587 128.313C239.904 115.367 232.126 103.44 222.861 92.9068C217.532 86.8964 211.828 81.4952 205.445 76.5158C204.473 75.7074 203.115 76.5509 203.162 77.8397C203.338 78.5778 203.514 79.3159 203.503 80.3586L203.561 80.6047C208.346 108.325 222.849 133.21 239.588 155.483C244.18 161.669 248.772 167.855 254.042 173.619C253.726 174.475 253.902 175.213 254.511 175.588C256.152 182.477 258.04 189.307 260.664 195.962C266.137 211.298 273.764 225.862 280.653 240.601C286.827 253.43 292.264 266.435 296.53 279.979C288.211 261.42 278.909 243.096 268.249 225.616C247.467 191.826 219.356 161.083 184.493 142.348C184.68 142.043 184.868 141.739 184.563 141.551C179.198 133.209 173.891 125.114 169.205 116.35C168.186 114.253 166.862 111.968 165.843 109.871C166.089 109.812 166.03 109.566 166.217 109.262C166.463 109.203 166.896 108.84 166.779 108.348C169.124 78.9287 166.505 49.3925 159.705 20.852C158.005 13.7169 156.001 6.3943 151.035 0.817367C150.367 0.196405 149.021 -0.00279278 148.763 1.09851C141.579 18.9303 142.955 38.8828 146.309 57.3239C148.502 69.8016 151.866 81.7403 156.272 93.6908C153.437 89.4261 150.111 85.2785 146.538 81.1896C139.089 72.8242 130.586 65.4898 120.842 59.491C118.406 57.9913 116.029 56.7377 113.652 55.484C111.274 54.2303 108.651 53.0353 106.123 54.4177C103.594 55.8002 103.196 58.4949 104.579 61.0256C105.903 63.3102 107.531 65.7823 109.288 67.7038C115.812 76.5495 123.449 84.6103 132.139 91.6401C141.497 99.2908 152.095 105.606 163.08 110.269C163.677 111.687 164.275 113.104 165.06 114.217C169.98 123.965 175.639 133.537 182.596 142.02C179.305 140.204 176.073 138.634 172.595 137.123C160.943 131.838 148.905 128.206 136.669 125.921C136.61 125.675 136.551 125.429 136.247 125.242C129.665 121.61 122.463 118.645 115.882 115.013C113.809 113.947 111.982 112.822 109.909 111.756C96.38 93.1392 90.0495 66.567 67.3544 56.3737C62.108 53.9835 56.3585 52.7533 50.4689 53.1164C49.4268 53.1046 48.9237 54.2645 49.3454 54.9441C54.8993 68.4411 63.6611 80.1338 74.3426 90.0692C83.7475 99.0088 94.8264 106.249 105.917 112.447C106.338 113.127 106.701 113.56 107.369 114.181C107.732 114.615 108.224 114.498 108.411 114.193C108.657 114.135 108.962 114.322 109.207 114.263C110.121 114.826 110.976 115.142 111.889 115.705C118.108 118.903 124.326 122.102 130.919 124.691C100.322 119.5 68.4266 120.859 37.4922 124.069C31.6612 124.678 26.1348 125.474 20.3624 126.33C19.6248 126.505 19.8593 127.49 20.4096 127.618C43.5348 126.529 66.554 123.905 90.0309 124.292C103.883 124.632 117.911 125.71 131.494 128.194C128.789 128.839 126.33 129.424 123.567 129.823C118.591 130.748 113.615 131.674 108.522 132.107C98.6982 133.407 88.6988 133.97 78.8166 135.024C60.7734 136.722 42.6016 138.972 25.7893 145.837C16.7978 149.539 8.34526 154.413 1.09925 161.079C0.23299 161.806 0.397427 163.586 1.68541 163.54C25.6426 164.852 50.1013 159.545 71.4321 148.743C77.4732 145.744 83.3969 142.253 88.7118 138.387C89.3908 137.965 89.4608 137.168 89.0391 136.489C94.6241 135.938 100.455 135.329 106.04 134.778C111.567 133.982 116.847 133.244 122.315 132.201C126.799 131.393 131.225 130.338 135.475 128.546C143.121 130.104 150.885 132.155 158.52 134.756C190.466 145.605 217.215 166.273 239.071 191.486C230.57 189.611 221.448 188.405 212.936 187.573C203.627 186.67 194.435 186.26 185.173 186.647C181.309 186.787 177.445 186.928 173.453 187.619C173.09 187.185 172.785 186.998 172.293 187.115C168.462 178.668 162.477 170.994 155.801 164.784C148.457 157.953 140.177 152.646 130.961 148.861C125.773 146.717 120.211 145.182 114.766 144.14C113.665 143.882 112.67 145.159 113.151 146.084C122.71 163.307 137.21 177.273 154.893 186.06C157.271 187.314 159.835 188.263 162.458 189.458C153.244 191.133 144.322 194.039 135.635 197.928C121.34 204.454 108.053 214.12 98.9006 226.96C97.7184 228.542 96.5363 230.124 95.6586 231.893C94.7223 233.416 93.5988 235.243 93.8218 237.27C93.9862 239.051 95.0756 240.352 96.7853 240.984C98.6822 241.312 100.532 240.352 102.44 239.637C111.432 235.935 120.119 232.045 128.63 227.418C144.353 219.252 159.244 208.684 170.492 194.824C170.926 194.461 171.054 193.91 171.487 193.547C172.354 192.821 173.22 192.094 173.899 191.673C174.145 191.614 174.391 191.555 174.332 191.309C174.578 191.251 174.765 190.946 174.765 190.946C175.011 190.888 175.198 190.583 175.14 190.337C177.165 190.114 179.191 189.892 181.216 189.669C199.131 188.521 216.953 190.256 234.517 193.091C236.66 193.361 238.861 193.876 241.004 194.146C241.25 194.087 241.25 194.087 241.496 194.029C248.032 201.832 254.381 209.939 260.05 218.469C274.95 240.659 286.889 264.595 297.656 289.07C295.173 286.282 292.444 283.552 289.961 280.763C283.836 274.683 277.523 268.907 270.777 263.494C257.589 252.855 242.974 243.857 227.481 236.628C218.698 232.48 209.845 229.129 200.371 226.446C199.821 226.317 199.318 227.477 200.114 227.548C200.173 227.794 199.985 228.098 200.348 228.532C200.524 229.27 200.7 230.008 200.876 230.746C201.474 232.164 202.13 233.827 202.727 235.245C203.922 238.08 205.668 241.045 207.296 243.517C208.561 245.555 210.131 247.781 211.888 249.703L211.947 249.949C212.005 250.195 212.251 250.136 212.556 250.324C214.734 252.925 217.159 255.467 220.075 257.893C224.994 262.181 230.229 265.614 236.084 268.379C242.49 271.273 249.094 272.819 256.132 274.003C264.516 275.385 273.216 275.913 281.343 278.397C282.198 278.713 282.935 278.537 283.31 277.928C284.282 278.736 285.008 279.603 285.98 280.412C291.801 286.305 296.885 292.374 302.273 298.631C310.697 318.724 318.443 339.239 326.376 359.449C327.032 361.113 327.747 363.023 328.403 364.686C327.372 363.632 326.341 362.577 325.311 361.523C321.246 357.551 316.375 354.552 311.561 351.798C311.444 351.306 311.022 350.627 310.039 350.861L309.793 350.92C308.88 350.357 307.72 349.853 306.807 349.291C300.284 345.905 293.515 342.578 286.746 339.25C280.282 336.11 273.63 333.275 266.604 331.048C259.028 328.693 251.264 326.643 243.232 326.737C242.74 326.854 242.611 327.404 242.916 327.592C242.904 328.635 243.631 329.502 244.357 330.369C245.142 331.482 246.114 332.29 246.84 333.157C248.597 335.079 250.541 336.695 252.485 338.312C256.315 341.3 260.332 343.983 264.782 346.303C273.682 350.943 283.402 353.567 293.448 354.294C298.963 354.54 304.42 354.54 309.887 353.497C313.541 355.747 317.195 357.996 320.72 360.796C323.695 363.468 326.67 366.139 328.966 369.232C330.114 370.779 331.262 372.325 332.223 374.176C332.223 374.176 332.223 374.176 332.281 374.422C343.847 404.428 355.471 434.679 367.282 464.625C367.095 464.93 367.095 464.93 366.908 465.234C366.65 466.336 366.697 467.624 366.745 468.913C359.225 461.344 349.962 456.271 340.699 451.198C321.563 440.677 303.176 428.937 283.666 419.025C278.057 416.201 272.506 413.624 267.014 411.292C261.521 408.96 255.842 406.933 249.847 405.762L249.601 405.82C249.238 405.387 248.313 405.867 248.43 406.359C250.247 413.986 254.218 420.84 258.81 427.026C263.648 433.154 269.352 438.555 275.676 443.289C289.179 453.072 305.491 458.286 321.779 460.125C326.557 460.547 331.334 460.969 336.24 460.84C338.57 460.805 340.9 460.77 343.231 460.735C345.561 460.7 347.891 460.665 350.349 460.079C354.612 462.703 358.383 465.445 362.026 468.737C366.336 472.651 370.084 477.478 373.153 482.726C374.536 485.257 375.977 488.034 376.926 490.928C377.641 492.838 378.051 494.56 378.766 496.47C378.462 496.282 378.028 496.645 378.087 496.891C379.821 500.898 382.234 504.483 384.401 508.127C390.553 523.042 397.009 538.144 404.39 552.766C403.722 552.145 403.359 551.711 402.692 551.09C399.963 548.36 397.046 545.935 393.884 543.568C391.694 542.01 389.691 540.147 387.314 538.894C387.197 538.401 387.138 538.155 386.588 538.027C386.038 537.898 385.674 537.464 385.124 537.335C383.449 533.574 381.281 529.931 379.419 526.474C376.349 521.226 373.28 515.977 369.778 511.091C362.714 501.074 354.972 491.478 346.422 482.855C341.631 478.016 336.595 473.236 331.126 468.819C330.154 468.01 328.854 469.1 329.393 470.272C340.008 491.923 351.231 513.949 369.877 530.048C367.136 528.36 364.209 526.978 361.281 525.595C350.73 520.569 339.675 516.703 328.422 514.183C316.01 511.161 303.398 509.485 290.787 507.809C276.584 505.993 262.497 504.669 248.551 501.751L248.492 501.505C248.504 500.463 247.157 500.264 246.9 501.365C246.503 504.06 247.885 506.59 249.7 508.758C251.457 510.679 253.46 512.542 255.404 514.159C259.597 517.58 263.977 520.697 268.732 523.204C278.3 528.465 288.499 532.015 299.143 534.159C311.193 536.748 323.57 537.44 335.829 537.639C347.597 537.956 359.868 537.112 371.554 539.268C377.549 540.44 383.533 542.654 388.709 545.841C390.9 547.399 392.902 549.262 395.151 551.067C396.908 552.988 398.665 554.91 400.047 557.44C400.469 558.12 401.64 557.581 401.405 556.597C405.469 560.569 409.288 564.599 412.86 568.688C413.165 568.875 413.223 569.121 413.469 569.063C424.305 587.282 436.874 604.047 452.908 617.908C456.854 621.387 460.989 624.563 465.615 627.621C467.442 628.745 469.431 626.191 467.604 625.067C451.607 613.538 438.336 599.279 427.29 583.45C425.251 579.256 424.079 574.335 423.516 569.789C423.022 564.447 423.267 558.929 423.874 553.844C424.669 548.454 425.768 543.253 427.113 537.992C428.295 536.41 429.477 534.829 430.964 533.435C433.071 531.373 435.237 529.557 437.707 527.928C442.588 524.425 447.892 521.602 452.774 518.099C463.087 511.221 472.007 502.856 479.533 493.003C483.642 487.344 487.445 481.498 490.336 475.089C489.305 474.035 488.462 472.676 487.478 472.91ZM385.22 382.871C385.162 382.625 385.162 382.625 384.857 382.437C378.574 357.154 375.241 331.167 376.51 304.865C376.684 300.143 377.163 295.609 377.642 291.075C377.759 291.567 377.689 292.364 377.806 292.856C378.018 295.925 378.042 299.3 378.254 302.369C378.49 308.813 379.03 315.444 379.512 321.83C380.289 334.905 381.311 347.921 382.825 360.821C383.483 367.944 384.328 374.763 385.478 381.769C385.29 382.074 385.103 382.378 385.22 382.871ZM441.192 349.516C438.207 353.347 434.25 356.37 430.598 359.58C422.24 367.031 413.577 374.295 404.071 380.2C399.072 383.211 393.956 385.729 388.723 387.756C389.097 387.147 389.472 386.538 389.659 386.233C406.553 377.528 421.888 365.555 434.975 351.777C438.51 348.075 441.741 344.185 444.725 340.354C444.971 340.295 445.463 340.178 445.709 340.12C445.429 343.306 443.369 346.657 441.192 349.516ZM440.85 341.537C435.63 347.981 430.292 353.933 424.345 359.509C417.158 366.422 409.244 372.467 400.968 378.079C398.743 379.649 396.215 381.031 393.99 382.601C395.102 381.816 396.215 381.031 397.514 379.942C400.605 377.645 403.636 375.103 406.423 372.619C412.24 367.593 417.754 362.38 422.659 356.791C425.515 353.511 428.371 350.23 431.168 346.704C431.355 346.399 431.543 346.095 431.18 345.661C434.446 344.103 437.466 342.603 440.85 341.537ZM406.397 363.785C412.659 357.353 419.952 351.976 427.726 347.524C418.959 358.713 408.857 368.659 397.724 377.552C395.992 379.004 394.2 380.211 392.222 381.722C396.646 375.208 400.942 369.245 406.397 363.785ZM385.711 377.294C384.853 366.058 383.749 354.881 382.645 343.704C381.681 330.933 380.659 317.917 380.187 305.029C380.104 301.409 380.021 297.788 379.633 293.981C379.469 292.2 379.55 290.36 379.444 288.826C379.514 288.029 379.397 287.537 379.467 286.74C384.134 308.509 386.4 331.109 386.523 353.44C386.619 361.477 386.165 369.385 385.711 377.294ZM369.343 343.493C367.044 329.48 367.813 315.257 371.579 301.619C372.48 297.765 373.989 294.285 375.44 290.559C374.284 300.975 374.17 311.402 374.36 322.017C374.645 335.209 376.031 348.659 378.587 361.571C379.748 367.534 381.213 373.685 382.866 379.531C376.06 368.413 371.349 356.275 369.343 343.493ZM325.269 298.092C332.605 277.624 339.636 256.969 347.463 236.384C348.598 233.513 349.675 230.397 350.81 227.527C351.313 226.367 351.757 224.961 352.202 223.555C351.723 228.089 350.94 232.436 349.911 236.841C348.624 242.347 347.338 247.854 345.747 253.173C342.624 264.057 338.095 274.496 332.958 284.56C330.641 289.012 328.265 293.218 325.644 297.483C325.702 297.729 325.456 297.787 325.269 298.092ZM355.683 235.986C355.006 241.867 353.532 247.678 351.754 253.302C348.198 264.549 342.931 275.164 336.143 284.841C334.212 287.641 332.035 290.5 329.799 293.113C333.919 286.411 337.371 279.089 340.331 271.883C344.86 261.445 348.475 250.443 351.047 239.43C352.462 233.373 353.268 226.941 354.625 220.638C356.535 225.383 356.291 230.901 355.683 235.986ZM351.359 222.196C350.914 223.602 350.224 225.066 349.779 226.472C348.831 229.038 347.884 231.604 346.936 234.17C345.041 239.301 343.204 244.679 341.308 249.81C337.576 260.32 333.598 270.887 330.112 281.338C328.591 285.861 326.883 290.688 325.362 295.21C327.886 277.448 332.857 260.144 340.147 243.847C343.354 236.583 347.052 229.202 351.359 222.196ZM322.902 290.336C322.444 287.325 322.232 284.255 322.267 281.127C322.089 274.929 322.895 268.497 324.31 262.44C327.012 250.876 332.524 240.203 339.98 231.147C342.59 227.925 345.563 225.136 348.537 222.348C340.356 235.997 333.944 250.525 329.545 265.873C326.937 274.555 324.937 283.611 323.429 292.55C322.949 291.625 322.832 291.133 322.902 290.336ZM351.834 122.761C351.378 125.21 350.067 127.342 349.061 129.662C346.861 134.606 344.415 139.609 341.969 144.612C337.136 154.863 332.245 164.869 327.412 175.12C320.192 190.62 313.335 206.554 308.433 223.062C308.375 222.816 308.258 222.324 308.199 222.078C309.555 215.775 310.607 209.284 312.268 203.168C314.186 195.951 316.409 188.922 318.632 181.892C323.382 168.02 329.291 154.652 336.055 141.601C339.999 134.161 344.306 127.155 348.859 120.09C349.046 119.786 349.046 119.785 348.987 119.539C351.821 118.344 352.161 120.863 351.834 122.761ZM337.796 128.186C339.47 126.487 341.448 124.976 343.181 123.523C343.86 123.101 344.293 122.738 344.913 122.07C337.739 133.399 331.478 145.291 326.072 157.499C320.221 171.113 315.225 185.044 311.693 199.665C310.793 203.52 309.705 207.679 309.109 211.721C308.595 213.924 308.139 216.372 307.683 218.821C305.361 206.894 305.498 194.381 307.836 182.384C309.522 179.642 311.207 176.901 312.892 174.159C315.139 170.504 317.082 166.661 319.025 162.818C322.91 155.132 326.49 147.259 329.462 139.011C329.591 138.461 329.474 137.969 328.923 137.84C331.475 134.372 334.635 131.279 337.796 128.186ZM326.5 140.757C323.786 147.904 320.767 154.863 317.256 161.939C315.314 165.782 313.371 169.625 311.37 173.222C310.433 174.745 309.743 176.21 308.807 177.733C310.023 173.023 311.298 168.559 313.065 163.978C316.528 155.613 320.905 147.81 326.5 140.757ZM278.003 107.33C276.614 122.221 272.895 137.148 266.857 151.066C264.213 157.416 261.018 163.637 257.214 169.484C266.199 143.943 270.969 117.066 271.758 89.838C271.862 85.9131 272.025 82.2343 271.883 78.368C271.8 74.7477 271.963 71.0688 271.634 67.5071C279.541 78.8836 279.37 94.5245 278.003 107.33ZM267.946 68.3858C268.32 67.7766 268.941 67.1088 269.503 66.1949C269.34 69.8738 269.914 73.3769 269.939 76.7511C269.963 80.1253 270.046 83.7456 270.071 87.1198C269.932 94.1729 269.735 100.98 269.046 107.904C267.668 121.753 265.495 135.531 262.22 149.051C260.805 155.108 259.144 161.224 257.178 167.152C256.944 166.168 256.955 165.125 256.721 164.141C257.68 160.533 258.335 156.737 258.989 152.941C259.784 147.551 260.579 142.162 261.069 136.585C261.862 125.736 261.859 114.817 261.059 103.827C260.507 98.2382 260.014 92.8957 259.216 87.3657C261.065 80.9453 263.955 74.5367 267.946 68.3858ZM254.574 108.232C255.369 102.843 256.222 97.6992 257.625 92.6848C260.418 112.04 260.388 131.547 257.478 150.961C256.952 154.206 256.368 157.205 255.783 160.204C255.267 156.947 254.505 153.749 253.802 150.796C252.486 136.55 252.704 122.197 254.574 108.232ZM232.432 109.087C234.002 111.313 235.384 113.844 236.954 116.07C236.591 115.636 236.286 115.449 235.923 115.015C234.225 113.34 232.773 111.606 231.074 109.93C228.228 106.708 225.323 103.24 222.418 99.7725C218.729 95.1914 215.531 90.4932 212.333 85.795C220.039 93.0591 226.821 100.804 232.432 109.087ZM207.109 81.3194C207.777 81.9404 208.69 82.5027 209.417 83.3697C213.212 89.4856 217.253 95.5429 221.728 101.237C224.387 104.764 227.292 108.232 230.138 111.453C231.59 113.188 232.984 114.675 234.682 116.351C236.076 117.839 237.529 119.573 239.414 120.944C243.14 127.856 246.128 134.944 248.624 142.15C235.107 127.95 223.628 112.484 213.635 95.6248C211.773 92.1686 209.968 88.9583 208.106 85.502C207.813 84.2719 207.461 82.7956 207.109 81.3194ZM237.45 132.332C241.14 136.913 245.017 141.189 249.14 145.407C249.198 145.653 249.444 145.594 249.749 145.782C249.807 146.028 249.925 146.52 249.983 146.766C250.335 148.242 250.628 149.472 250.98 150.949C251.473 156.291 252.271 161.821 253.256 167.047C243.216 148.898 232.251 131.23 220.42 114.289C218.066 110.95 216.016 107.798 213.72 104.705C213.181 103.533 212.946 102.549 212.408 101.377C211.095 98.05 209.97 94.418 209.149 90.9735C217.081 105.724 226.862 119.514 237.45 132.332ZM231.797 139.139C225.588 129.438 219.871 119.619 215.513 108.958C225.469 123.486 234.993 138.377 243.779 153.444C245.642 156.9 247.751 160.298 249.555 163.508C247.681 161.095 245.806 158.681 243.932 156.268C239.821 151.007 235.838 145.196 231.797 139.139ZM161.327 40.7459C163.685 55.0044 164.754 69.3098 165.086 83.7908C165.252 91.0314 164.868 98.143 164.483 105.255L164.179 105.067C164.425 105.009 164.671 104.95 164.612 104.704C165.311 91.2774 164.721 77.8976 163.336 64.4476C162.255 51.185 160.132 37.9106 157.271 24.812C156.45 21.3674 155.571 17.6769 154.751 14.2323C154.34 12.5101 153.871 10.5418 153.461 8.81948C153.402 8.57344 153.402 8.57344 153.344 8.32741C155.265 12.0297 156.449 15.9078 157.387 19.8444C158.723 26.546 160.177 33.7397 161.327 40.7459ZM150.252 5.16402C150.486 6.14817 150.779 7.37836 151.014 8.36252C151.424 10.0848 152.08 11.7485 152.432 13.2247C153.194 16.4232 153.956 19.6217 154.776 23.0663C156.3 29.4633 157.579 35.9188 158.611 42.433C160.98 55.6488 162.307 68.8528 162.896 82.2326C163.367 89.6606 163.345 97.2057 163.57 104.692L163.629 104.938C162.609 102.841 161.894 100.931 160.875 98.8342C160.968 95.9521 160.815 93.1285 160.662 90.3049C160.509 87.4813 160.297 84.4117 160.144 81.5881C159.78 75.6949 159.169 69.8603 158.5 63.7797C157.22 51.8644 155.261 40.3709 152.998 28.6899C152.236 25.4914 151.72 22.2344 151.017 19.2819C150.606 17.5596 150.255 16.0834 149.844 14.3611C149.493 12.8849 149.387 11.3501 148.543 9.99101C149.421 8.2219 149.866 6.81598 150.252 5.16402ZM146.641 32.5444C146.464 26.3466 146.778 20.0317 148.193 13.9745C148.545 15.4507 148.897 16.9269 149.248 18.4032C149.893 21.1096 150.597 24.0621 151.241 26.7685C152.344 32.4859 153.446 38.2034 154.548 43.9209C156.507 55.4144 157.974 67.025 158.949 78.7528C159.219 82.0685 159.49 85.3841 159.76 88.6998C159.924 90.4806 159.902 92.5661 160.066 94.3469C159.41 92.6832 158.754 91.0196 158.039 89.1098C151.184 71.2427 147.104 51.9345 146.641 32.5444ZM108.617 56.1635C109.846 55.8706 111.31 56.5618 112.528 57.3117C114.906 58.5653 117.037 59.8776 119.473 61.3773C128.362 67.0597 136.443 73.7146 143.716 81.3418C147.593 85.6183 151.529 90.1407 154.785 95.085C155.933 96.6315 156.835 98.2366 157.983 99.7832C152.338 94.628 146.751 89.7189 141.106 84.5637C134.184 78.4127 127.321 72.5077 120.458 66.6027C116.511 63.1229 112.564 59.6432 108.243 56.7727L107.938 56.5852C108.125 56.2806 108.371 56.222 108.617 56.1635ZM107.446 56.7024C107.505 56.9484 107.259 57.007 107.564 57.1944C110.902 60.2993 114.673 63.0409 118.011 66.1457C121.594 69.1919 124.874 72.0507 128.458 75.0969C135.321 81.0019 142.243 87.153 148.673 93.4212C151.343 95.905 154.014 98.3889 156.438 100.931C142.303 92.8587 129.479 82.6538 118.328 70.7501C114.51 66.7197 110.879 62.3847 107.494 57.9911C107.189 57.8037 106.943 57.8623 106.756 58.1669C106.826 57.3702 107.013 57.0656 107.446 56.7024ZM116.115 71.2773C114.358 69.3558 112.789 67.1298 111.278 65.1497C110.493 64.0367 109.708 62.9236 108.982 62.0566C108.197 60.9436 107.471 60.0766 106.932 58.905C118.833 75.0499 133.824 88.8986 150.993 99.8885C154.038 101.763 157.387 103.825 160.619 105.395C143.604 97.2288 128.156 85.8289 116.115 71.2773ZM53.4438 55.7877C57.2149 58.5293 60.9274 61.0249 64.4526 63.8251C68.6455 67.2462 72.5924 70.726 76.598 74.4517C84.3632 81.9619 91.754 90.0812 97.7281 98.7981C99.2978 101.024 100.563 103.063 102.133 105.289C100.434 103.613 98.736 101.938 97.0377 100.263C93.278 96.4782 89.5769 92.9399 85.8172 89.1556C78.3565 81.8329 71.1416 74.4517 63.6808 67.129C60.5887 63.9656 57.4966 60.8022 54.1586 57.6974C53.9828 56.9593 53.6196 56.5258 53.4438 55.7877ZM78.3404 66.4966C86.7732 74.6276 92.2328 85.5471 97.5165 95.7285C97.5751 95.9745 97.9382 96.408 97.9968 96.654C95.3378 93.1275 92.6789 89.6009 89.8326 86.3789C82.6878 78.201 74.9811 70.9369 66.5955 64.0946C62.7071 60.8609 58.5729 57.6858 54.3101 55.0613C63.5018 55.4715 71.9103 60.2284 78.3404 66.4966ZM96.699 103.203C84.4022 95.2128 73.3461 85.8866 64.3385 74.2524C60.9533 69.8588 58.0599 65.3481 55.5996 60.4741C61.1162 66.18 66.8787 71.8272 72.3367 77.287C79.5516 84.6682 87.071 92.2369 94.2859 99.6181C95.9842 101.294 97.6825 102.969 99.1349 104.703C98.2214 104.141 97.3666 103.824 96.699 103.203ZM49.4404 141.502C61.5468 138.878 73.7591 137.789 86.2172 136.641C85.7841 137.004 85.1051 137.426 84.672 137.789C82.6463 138.012 80.6207 138.234 78.5951 138.457C75.8319 138.855 73.0687 139.253 70.3055 139.652C65.0249 140.39 59.557 141.432 54.3937 142.662C43.7625 144.935 33.3072 147.946 22.969 151.449C20.3231 152.339 17.6771 153.23 15.0897 154.366C25.462 147.735 37.2754 143.881 49.4404 141.502ZM5.70083 160.763C5.88809 160.458 6.13396 160.4 6.32122 160.095C6.32122 160.095 6.32122 160.095 6.56709 160.037C26.3413 151.426 47.1347 144.912 68.6315 141.35C71.6406 140.894 74.6497 140.437 77.413 140.038C78.1506 139.863 78.701 139.992 79.4386 139.816C60.5421 146.658 41.1653 152.574 21.7412 157.202C18.5449 157.963 15.5944 158.666 12.398 159.427C10.1266 159.709 7.85508 159.99 5.70083 160.763ZM22.1988 160.213C18.8852 160.482 15.5716 160.751 12.1994 160.775C14.904 160.13 17.6086 159.486 20.3132 158.842C25.7224 157.553 31.1316 156.264 36.4823 154.73C47.488 151.848 58.4351 148.72 69.2649 145.1C71.665 144.268 74.311 143.377 76.7111 142.546C59.806 152.293 41.2254 158.28 22.1988 160.213ZM161.998 175.528C164.54 178.562 166.648 181.96 168.757 185.358C156.494 174.239 143.365 163.846 129.921 154.309C126.758 151.943 123.409 149.881 120.001 147.572C136.501 152.482 151.292 162.218 161.998 175.528ZM164.728 183.717C151.319 176.512 139.093 167.724 128.048 157.356C125.319 154.626 122.531 151.65 119.802 148.92C134.043 158.527 147.968 168.99 160.781 180.238C162.058 181.233 163.393 182.475 164.728 183.717ZM157.738 183.823C153.347 181.749 149.447 179.558 145.43 176.875C137.7 171.696 130.415 165.112 124.547 157.93C121.888 154.403 119.229 150.876 117.062 147.233C122.626 154.227 129.302 160.437 136.106 166.096C143.274 172.188 150.875 177.918 159.037 182.733C162.082 184.608 165.069 186.236 168.055 187.865C166.65 187.42 165.49 186.916 164.085 186.471C161.825 185.709 159.811 184.889 157.738 183.823ZM141.525 197.565C138.739 200.049 136.199 202.474 133.413 204.958C129.948 207.864 126.424 210.523 122.9 213.183C116.473 217.834 109.87 221.747 102.963 225.472C111.414 215.139 122.172 206.856 134.313 201.103C136.596 199.78 139.183 198.643 141.525 197.565ZM99.7912 229.608C100.353 228.694 100.973 228.026 101.594 227.359C109.297 223.703 116.579 219.369 123.439 214.354C127.209 211.636 130.732 208.977 134.197 206.071C137.663 203.166 141.128 200.26 143.984 196.98L144.171 196.675C146.817 195.785 149.709 194.836 152.601 193.887C151.734 194.613 151.114 195.281 150.248 196.007C148.269 197.519 146.595 199.217 144.617 200.729C140.906 203.693 136.949 206.715 133.238 209.68C125.512 215.42 117.481 220.974 109.333 226.035C105.505 228.507 101.618 230.733 97.5441 233.264C97.9887 231.858 98.9836 230.581 99.7912 229.608ZM96.6079 234.787C104.99 230.71 112.834 225.461 120.432 220.271C128.521 214.963 136.493 209.164 143.915 203.236C146.081 201.42 148.305 199.85 150.225 198.093C151.337 197.308 152.391 196.277 153.257 195.55C154.123 194.824 155.235 194.039 156.043 193.067C159.731 192.188 163.173 191.368 166.92 190.735C167.224 190.923 167.775 191.052 168.021 190.993C159.182 197.519 150.344 204.044 140.896 210.195C131.695 216.287 122.13 221.946 112.565 227.605C107.075 230.733 101.525 233.615 96.0933 236.989C95.8474 237.048 95.906 237.294 95.906 237.294C95.976 236.497 96.292 235.642 96.6079 234.787ZM109.382 232.783C107.286 233.803 105.132 234.576 103.282 235.536C102.111 236.075 101.187 236.556 99.9572 236.849C99.2782 237.27 98.3534 237.751 97.3112 237.739C96.8195 237.856 96.2691 237.727 96.1519 237.235L96.4564 237.423C106.56 232.936 116.066 227.031 125.385 221.431C134.95 215.772 144.397 209.621 153.599 203.529C156.748 201.479 159.838 199.182 162.988 197.132C154.548 206.423 144.41 214.038 133.733 220.482C125.96 224.934 117.823 228.952 109.382 232.783ZM245.188 248.79C251.278 252.539 257.485 256.78 263.2 261.139C259.851 259.077 256.256 257.073 252.66 255.07C242.238 249.493 231.687 244.466 221.322 239.135C215.104 235.937 208.944 232.984 202.726 229.785C202.48 229.844 202.48 229.844 202.234 229.903C201.812 229.223 201.578 228.239 201.156 227.559C216.602 233.5 231.486 240.354 245.188 248.79ZM204.753 235.023C204.155 233.605 203.312 232.246 202.773 231.074C213.442 236.593 224.11 242.111 234.533 247.688C244.346 252.89 254.347 257.788 263.541 263.658C265.731 265.216 267.921 266.774 270.111 268.332C255.894 262.099 240.285 259.838 225.624 255.011C223.06 254.061 220.554 253.358 218.176 252.105C217.322 251.788 216.713 251.414 215.858 251.097C213.738 248.742 211.676 246.633 209.744 243.974C208.303 241.197 206.311 238.291 204.753 235.023ZM239.538 266.516C232.09 263.61 225.391 259.486 219.442 254.143C220.847 254.589 222.311 255.28 223.716 255.725C227.99 257.307 232.452 258.584 236.913 259.861C245.836 262.415 254.888 264.419 263.741 267.77C267.769 269.41 271.798 271.051 275.697 273.242C263.461 270.957 250.955 270.816 239.538 266.516ZM281.899 339.625C288.305 342.519 294.582 345.963 300.8 349.162C301.713 349.724 302.568 350.041 303.482 350.603C302.931 350.474 302.077 350.158 301.526 350.029C287.626 342.941 272.917 336.825 258.197 331.751C255.082 330.673 252.272 329.783 249.216 328.951C253.806 329.678 258.209 330.709 262.67 331.986C269.146 334.083 275.739 336.672 281.899 339.625ZM280.134 349.666C270.777 347.475 261.69 343.139 254.089 337.41C251.899 335.852 249.955 334.235 247.952 332.372C246.98 331.564 245.949 330.509 245.223 329.642C244.556 329.021 244.134 328.342 243.525 327.967C243.771 327.908 243.829 328.154 244.075 328.096C244.134 328.342 244.134 328.342 244.38 328.283C260.692 333.497 276.934 339.508 292.24 347.041C292.545 347.229 292.79 347.17 292.849 347.416C289.184 346.209 285.764 344.944 282.345 343.679C274.405 340.89 266.653 337.797 259.147 334.645C254.814 332.817 250.422 330.744 246.089 328.916C245.539 328.787 245.41 329.338 245.715 329.525C260.962 336.813 276.713 342.94 292.838 348.459C295.648 349.349 298.271 350.545 301.082 351.435L301.386 351.622C299.115 351.904 297.03 351.88 294.946 351.857C289.677 351.552 284.841 350.884 280.134 349.666ZM249.695 408.398C260.318 418.087 271.69 426.558 284.057 433.752C296.482 441.192 309.598 447.167 323.217 451.983C326.637 453.248 330.243 454.209 333.604 455.228C323.253 454.314 313.042 451.807 303.088 448.198C289.656 443.078 276.985 435.697 266.116 426.066C260.167 420.723 254.896 414.959 250.058 408.831C250.058 408.831 249.754 408.644 249.695 408.398ZM253.173 409.909C255.305 411.221 257.623 412.229 259.755 413.541C262.741 415.17 265.786 417.044 268.772 418.673C274.745 421.93 281.022 425.375 286.994 428.632C299.185 435.088 311.189 441.848 323.626 448.245C326.612 449.874 329.54 451.256 332.526 452.885C323.603 450.331 314.809 447.226 306.389 443.512C293.332 437.782 280.777 430.893 268.914 422.539C263.562 418.614 258.151 414.443 253.173 409.909ZM278.081 419.575C287.532 424.344 296.854 429.663 305.988 435.287C313.237 439.54 320.545 444.039 327.794 448.292C308.952 439.001 290.051 429.464 271.524 419.318C268.233 417.501 264.942 415.685 261.652 413.869C258.115 412.112 254.707 409.804 251.229 408.292C250.925 408.105 250.62 407.917 250.561 407.671C259.719 411.21 269.181 414.936 278.081 419.575ZM249.707 407.355C249.461 407.414 249.461 407.414 249.519 407.66C249.461 407.414 249.461 407.414 249.402 407.168C249.402 407.168 249.402 407.168 249.707 407.355ZM324.811 457.583C316.603 456.939 308.465 455.497 300.584 452.955C285.677 448.186 272.033 439.996 261.984 428.35C257.99 423.582 254.674 418.392 251.792 412.838C255.178 417.232 259.3 421.45 263.306 425.175C268.647 430.143 274.666 434.689 280.815 438.684C293.112 446.675 306.907 452.228 321.403 455.275C327.949 456.575 334.377 457.384 341.239 457.829C339.951 457.876 338.663 457.923 337.129 458.028C332.961 457.981 329.038 457.876 324.811 457.583ZM375.871 525.76C377.136 527.798 378.155 529.895 379.42 531.934C379.42 531.934 379.42 531.934 379.362 531.688C377.605 529.767 376.035 527.541 374.278 525.619C370.952 521.472 367.379 517.383 363.994 512.989C357.282 504.448 350.629 496.153 344.35 487.248C342.476 484.835 340.848 482.363 339.033 480.195C338.611 479.516 337.885 478.649 337.463 477.969C352.326 492.368 365.21 508.279 375.871 525.76ZM360.143 517.546C352.272 508.502 345.946 498.308 340.112 487.998C337.769 483.616 335.367 478.988 333.27 474.548C334.231 476.399 335.683 478.133 336.89 479.926C338.459 482.152 340.029 484.378 341.599 486.604C344.738 491.056 348.123 495.45 351.262 499.902C357.728 508.502 364.499 517.289 371.152 525.584C373.026 527.997 374.9 530.411 377.02 532.766C377.079 533.012 377.325 532.953 377.383 533.199C371.118 528.712 365.414 523.311 360.143 517.546ZM321.549 514.781C337.697 518.214 353.143 524.154 367.278 532.227C366.973 532.039 366.423 531.91 366.119 531.723C362.09 530.083 357.875 528.747 353.659 527.411C345.286 524.986 336.785 523.111 328.096 521.541C310.719 518.401 293.026 516.116 275.719 512.179C270.766 511.019 266.058 509.801 261.234 508.09C258.974 507.328 256.714 506.567 254.395 505.559C252.076 504.552 249.758 503.544 247.497 502.782C247.497 502.782 247.497 502.782 247.439 502.536C272.147 508.09 297.146 509.415 321.549 514.781ZM248.517 504.88C248.154 504.446 248.095 504.2 247.978 503.708C251.573 505.712 255.543 507.106 259.454 508.254C263.424 509.648 267.639 510.984 271.796 512.074C280.415 514.44 288.916 516.315 297.605 517.885C314.982 521.025 332.488 523.615 349.479 528.407C353.086 529.368 356.505 530.633 360.17 531.84C356.868 531.067 353.625 530.539 350.323 529.766C341.329 528.009 332.149 526.556 322.84 525.653C305.018 523.919 286.624 524.141 269.527 517.815C261.833 514.967 254.83 510.656 248.517 504.88ZM275.406 523.954C269.914 521.622 264.55 518.74 259.807 515.19C259.198 514.815 258.531 514.194 257.922 513.819C260.358 515.319 263.285 516.701 265.908 517.896C273.719 521.236 281.729 523.228 290.113 524.61C299.293 526.063 308.79 526.661 318.04 527.317C327.349 528.219 336.716 529.368 345.955 531.067C351.096 531.922 356.354 533.269 361.307 534.429C362.408 534.687 363.813 535.132 364.914 535.39C357.993 534.699 351.003 534.804 343.954 534.663C320.841 534.71 296.883 533.397 275.406 523.954ZM427.685 530.576C427.497 530.88 427.251 530.939 427.31 531.185C427.497 530.88 427.439 530.634 427.685 530.576ZM478.955 478.581C463.374 490.613 449.245 504.379 436.697 519.328C434.087 522.55 431.723 525.714 429.113 528.936C437.573 512.1 449.934 497.455 465.317 486.77C469.519 483.689 474.331 480.982 478.955 478.581ZM463.49 485.645C452.427 493.741 442.875 503.817 435.514 515.45C433.079 519.41 430.704 523.616 428.82 527.705C435.079 510.354 447.627 495.404 463.49 485.645ZM435.459 486.863C433.518 496.166 431.331 505.527 429.085 514.642C429.445 504.156 429.746 493.424 430.657 483.067C431.953 471.058 433.8 459.178 436.138 447.181C437.366 441.428 438.652 435.922 439.939 430.415C441.63 449.512 439.095 468.317 435.459 486.863ZM439.493 426.361C439.247 426.42 439.06 426.725 438.872 427.029C432.79 450.579 429.273 475.077 428.027 499.294C427.817 501.684 427.853 504.015 427.643 506.406C425.658 486.078 427.233 465.423 432.414 445.728C434.017 439.366 435.923 433.192 438.381 427.146C438.755 426.537 439.188 426.174 439.563 425.565C439.434 426.115 439.434 426.115 439.493 426.361ZM429.708 440.913C431.651 437.07 433.593 433.227 436.145 429.759C427.756 451.258 424.308 474.96 425.404 498.099C425.698 504.789 426.543 511.607 427.576 518.122C421.597 493.026 418.404 465.446 429.708 440.913ZM464.888 503.512C460.487 507.941 455.418 511.749 450.29 515.31C445.35 518.567 440.351 521.578 435.715 525.022C433.924 526.229 432.192 527.682 430.213 529.193C442.211 514.115 455.789 500.22 470.703 487.567C475.222 483.63 480.045 479.881 484.926 476.378C484.926 476.378 485.172 476.32 485.114 476.073C479.789 486.442 473.129 495.569 464.888 503.512Z" fill="#C3D64B"/>
</svg>
