<svg width="206" height="366" viewBox="0 0 206 366" fill="none" xmlns="http://www.w3.org/2000/svg">
<path d="M538.118 525.673C499.282 512.731 461.034 497.729 424.257 480.08C422.786 478.903 421.021 477.727 419.55 476.844C417.784 475.668 416.019 474.491 414.254 473.315C413.371 472.726 412.488 472.432 411.606 471.844C410.723 471.255 409.546 470.961 408.369 470.373H408.075C406.898 469.785 405.427 469.491 404.25 468.902C400.72 466.255 398.072 462.725 396.601 458.607C396.012 456.842 395.424 455.077 394.836 453.312C394.836 453.018 394.541 452.724 394.541 452.43C393.07 446.253 392.776 440.076 392.188 433.898C390.128 418.014 387.186 402.424 383.067 387.129C378.948 371.833 373.652 356.831 367.474 342.123C361.295 327.416 353.94 313.297 345.702 299.766C338.052 287.117 329.814 275.057 320.399 263.585C319.811 262.703 318.928 261.526 318.34 260.644C317.163 258.879 315.986 257.408 314.515 255.937C314.221 255.643 313.633 255.643 313.338 255.937C312.75 255.937 311.867 256.526 312.161 257.114C311.867 257.408 311.867 257.702 312.161 257.996C314.221 261.82 315.692 265.939 317.163 270.057C317.163 270.057 317.163 270.057 317.163 270.351C318.34 274.763 318.928 279.175 319.517 283.882C320.399 289.765 320.694 295.648 320.988 301.531C320.988 302.119 320.988 302.413 320.988 303.001C320.988 303.296 320.988 303.296 321.282 303.59C321.282 306.237 321.576 308.59 321.576 311.238C322.753 329.475 324.813 347.418 329.226 365.067C333.639 382.716 340.112 399.777 348.938 415.367C356.882 429.192 366.591 442.135 377.771 453.312C378.654 454.195 379.242 454.783 380.125 455.666C380.713 456.254 381.008 456.842 381.596 457.43C382.184 458.019 382.773 458.901 383.361 459.489C349.232 440.37 316.28 418.897 285.976 394.188C280.975 390.364 276.267 386.246 271.56 382.128V381.834C265.676 370.656 259.791 359.772 253.613 348.889C253.907 348.889 253.907 348.595 253.907 348.301C251.848 343.006 249.494 337.711 248.023 332.122C246.552 326.534 245.375 320.945 245.081 315.356C244.198 305.061 244.786 295.059 246.552 285.058C246.846 285.058 246.846 285.058 247.14 285.058C247.729 284.764 247.729 284.176 247.729 283.588V283.293C249.788 280.646 252.436 277.999 254.79 275.645C257.732 272.998 260.968 270.351 264.499 267.998C270.972 262.997 277.444 258.291 283.034 252.113C293.332 240.347 300.099 225.052 301.864 209.462C303.041 200.637 302.452 191.813 300.687 183.282C301.276 182.4 300.099 181.517 299.216 182.106H298.922C284.211 187.989 271.266 197.696 261.557 210.05C250.965 223.287 244.492 239.465 242.727 255.937C241.55 265.644 242.139 275.645 244.198 285.352V285.647C242.727 294.471 242.139 303.296 242.727 312.414C243.315 322.121 245.375 331.534 248.905 340.359C248.317 339.182 247.434 338.005 246.846 336.829C245.963 334.181 244.492 331.534 243.021 328.887C242.433 327.416 241.844 325.945 241.256 324.18C240.962 323.298 240.667 322.121 240.373 321.239C240.373 320.945 240.373 320.945 240.373 320.65C240.373 320.356 240.079 320.062 240.079 319.768C239.491 318.003 238.902 316.238 238.608 314.473C238.314 313.591 238.314 313.003 238.02 312.12C238.02 311.826 238.314 311.826 238.02 311.532C237.431 309.179 236.548 306.825 235.96 304.472C235.372 301.237 234.489 298.295 233.901 295.059C231.253 282.117 229.193 268.88 226.251 255.937C223.015 242.112 218.307 228.876 213.894 215.345C209.481 202.108 205.068 188.577 202.125 174.752C199.478 160.927 198.006 146.808 200.066 132.983C200.36 131.218 200.654 129.453 200.949 127.688C201.243 126.805 200.36 126.217 199.478 126.217C198.595 126.511 197.712 126.511 196.83 126.805C196.241 126.805 195.947 127.394 195.947 127.688C193.593 130.629 191.534 133.865 189.768 137.101C182.413 147.396 176.823 158.574 172.998 170.634C167.997 186.518 166.526 203.284 168.879 220.051C171.233 236.229 177.411 251.231 186.826 264.468C195.359 276.528 205.95 287.117 216.248 297.707C223.309 305.061 230.076 313.003 235.96 321.239C237.137 323.004 238.02 324.769 239.196 326.828C248.611 343.3 258.026 359.772 267.441 376.245C268.029 377.127 268.618 378.304 269.206 379.186C238.608 352.713 210.952 323.592 187.121 291.235C167.114 264.174 149.461 235.053 135.339 204.167C132.691 195.048 130.926 185.93 130.043 176.517C129.16 168.281 129.16 160.044 129.749 151.808H130.043C133.868 148.278 137.693 144.454 141.223 140.336C144.754 136.218 147.99 132.1 151.226 127.688C157.405 118.863 162.995 109.745 167.408 100.038C172.116 90.3307 175.646 80.3296 178.588 69.7402C181.53 59.4449 183.296 48.8555 184.473 38.2661C185.355 27.6767 185.649 16.7931 184.767 6.20368C184.767 4.73293 184.473 3.55633 184.473 2.08558C184.473 1.79143 184.178 1.49728 184.178 1.49728V1.20313C184.178 0.614824 183.296 0.614824 183.002 0.908975V0.614824C183.002 0.0265235 182.119 -0.267627 181.825 0.320674C180.942 2.96803 180.354 5.61538 179.471 8.26274C178.588 10.9101 177.706 13.2633 176.529 15.6165C174.175 20.6171 171.233 25.3235 167.997 30.0299C161.524 39.4427 153.58 47.6789 146.519 56.5034C139.458 65.3279 132.985 74.4466 128.866 84.7418C124.747 94.743 122.688 105.332 122.393 116.216C122.099 127.1 123.57 137.689 127.101 147.984C127.395 149.161 127.984 150.043 128.278 151.22C127.689 158.279 127.689 165.045 127.984 172.105C128.572 179.752 129.455 187.106 131.22 194.46C127.101 185.341 123.57 175.928 120.04 166.81C120.04 166.516 120.04 166.516 119.746 166.222C119.746 165.927 119.746 165.633 119.746 165.339C119.746 164.751 119.451 164.162 119.451 163.574C119.157 162.398 118.863 161.221 118.569 160.044C118.274 158.868 117.98 157.691 117.686 156.515C117.392 155.338 116.803 154.455 116.215 153.279C116.215 152.985 115.921 152.985 115.627 152.985C115.332 151.808 115.038 150.926 114.744 149.749C114.155 147.396 113.567 145.043 112.979 142.689C112.096 137.983 111.508 132.983 111.508 128.276C111.213 118.275 111.802 107.98 112.684 97.9786C113.567 87.3892 114.155 76.7998 113.273 66.2104C112.39 56.2093 110.036 46.5023 106.8 37.0895C105.035 31.7948 102.975 26.7942 100.622 21.4995C99.4448 18.8522 98.2679 16.2048 97.091 13.8516C96.2084 12.0867 95.62 10.3218 94.7373 8.85104C94.7373 8.55689 94.4431 8.55689 94.4431 8.26274C94.1489 7.67443 93.8547 7.38028 93.5605 6.79198C93.2663 6.49783 92.9721 6.79198 92.9721 7.08613C92.9721 7.38028 92.9721 7.67443 93.2663 7.96859C92.9721 7.96859 92.9721 8.26274 92.6778 8.26274C91.7952 9.43934 90.9126 10.9101 90.3241 12.0867C90.0299 12.675 89.7357 13.2633 89.4415 13.8516C84.7341 21.4995 80.6151 29.4416 77.0845 37.9719C72.9655 48.2672 70.0234 58.8566 69.7292 70.0343C69.1407 81.212 71.4944 92.3898 75.6134 102.979C80.0266 113.863 86.2051 123.57 92.6778 132.983C96.2084 137.689 99.739 142.395 103.27 147.102C105.329 149.455 107.094 152.102 109.154 154.456C110.919 156.515 112.39 158.574 114.155 160.633C114.155 160.927 114.155 160.927 114.45 161.221C114.744 161.515 115.038 161.809 115.332 162.103C115.332 162.692 115.627 162.986 115.627 163.574C115.921 164.162 116.215 164.162 116.509 164.162L116.803 164.457C122.393 180.047 128.572 195.342 135.633 210.344C136.222 211.815 136.81 213.58 137.398 215.05C137.987 216.815 138.869 218.286 139.752 220.051C140.046 220.345 140.34 220.345 140.635 220.051C146.813 232.7 153.874 244.76 161.23 256.82C158.876 253.878 156.816 251.231 154.463 248.289C150.638 242.406 147.107 236.229 143.577 230.052C135.927 216.815 128.572 203.579 119.451 191.224C110.625 179.458 100.327 168.575 87.6762 160.927C75.3192 153.279 61.4912 148.278 47.3689 145.337C32.9524 142.101 18.5359 140.336 3.82522 139.16C2.94258 139.16 2.05994 139.16 1.47151 138.866C1.1773 139.454 0.883081 139.748 0.588867 140.336C2.94258 142.101 5.29629 143.572 7.65 145.631C7.94422 145.925 7.94422 145.925 8.23843 146.219C11.1806 148.572 14.1227 150.926 16.7706 153.573C22.3607 158.868 27.9508 164.751 32.9524 170.34C43.5441 182.106 53.5474 194.166 65.3159 204.461C71.4944 209.756 77.9671 214.462 85.3225 218.58C92.9721 222.993 100.916 226.522 108.86 230.052C116.803 233.582 124.747 237.406 132.397 241.524C140.046 245.642 146.813 250.937 153.286 256.526C166.231 267.998 176.823 281.528 186.826 295.354C188.003 297.118 189.474 298.589 190.651 300.354C190.945 300.648 191.24 300.648 191.534 300.648C214.482 330.652 240.962 358.302 269.795 383.01C264.499 380.657 259.203 377.716 254.496 374.186C248.611 369.774 243.021 365.067 237.725 360.067C234.489 357.125 231.253 353.889 228.016 350.654C228.016 350.36 227.722 350.36 227.722 350.066C227.134 349.183 226.545 348.006 225.957 347.124C224.486 345.359 222.72 343.594 221.249 342.123C221.249 342.123 221.249 342.123 220.955 341.829C220.955 341.535 220.661 341.241 220.367 341.241C218.601 339.77 216.836 338.299 215.071 336.829C212.717 333.887 210.069 330.946 207.127 328.298C206.833 327.71 206.244 326.828 205.656 326.239C205.362 325.945 205.068 326.239 205.068 326.534C202.125 323.592 198.889 320.945 195.653 318.591C185.355 310.944 174.175 304.766 162.112 300.648C149.755 296.236 136.81 294.177 123.57 293.883C110.036 293.883 96.7968 295.942 83.8514 300.06C70.906 304.178 58.8432 310.649 47.9573 318.591C46.7805 319.474 45.3094 320.65 44.1325 321.533C43.2499 322.415 44.1325 323.886 45.0152 323.592C44.721 324.18 45.0152 324.769 45.6036 324.769C46.4862 324.474 47.3689 324.18 48.2515 324.18C57.0779 330.357 66.4928 335.358 76.4961 338.888C87.6762 343.3 99.1506 345.653 111.213 345.947C124.159 346.242 136.81 344.477 149.461 342.712C161.23 340.947 173.292 339.476 185.355 339.476C196.535 339.476 208.01 341.241 218.601 345.653C219.484 345.947 220.367 346.536 221.544 346.83C223.309 348.595 225.074 350.066 226.839 351.83C227.134 352.419 227.134 352.713 227.722 353.007C227.722 353.007 228.016 353.007 228.311 353.007C230.076 354.772 231.841 356.537 233.606 358.008C244.198 368.009 255.378 378.01 269.206 383.305C270.677 383.893 272.148 384.187 273.619 384.775C308.631 414.484 346.879 440.37 387.186 462.431C385.127 461.843 383.067 461.254 381.008 460.372C371.887 457.43 362.766 454.783 353.94 452.136C341.877 448.606 329.52 445.37 317.457 442.429C310.985 440.076 304.512 438.017 298.039 435.957C283.917 431.545 269.795 427.721 255.378 425.074C241.55 422.427 227.722 420.662 213.6 420.662C200.066 420.367 186.532 421.544 173.292 424.191C160.347 426.839 147.402 430.957 135.633 437.134C135.339 437.134 135.045 437.428 134.75 437.428C132.691 438.017 130.337 438.605 128.278 439.487C127.395 439.781 127.689 441.546 128.866 441.252H129.16C140.635 448.606 153.58 453.901 166.526 457.725C179.765 461.549 193.299 463.902 207.127 464.49C221.544 465.078 235.666 463.608 249.788 460.96C262.734 458.607 275.679 455.666 288.624 453.312C294.214 452.724 299.805 452.43 305.395 452.136C312.456 451.842 319.223 451.547 326.284 451.547C327.461 451.547 328.637 451.547 329.814 451.253C340.994 452.724 351.88 454.783 362.766 457.43C364.532 457.725 366.297 458.313 368.062 458.901C370.416 459.49 372.77 460.372 375.123 460.96C378.065 461.843 381.302 462.725 384.244 463.902C392.188 466.549 400.131 469.785 407.487 473.315C411.312 475.668 414.842 477.433 418.961 479.492C420.726 480.374 422.492 481.257 424.551 481.845C424.845 481.845 425.14 481.845 425.434 481.845C426.022 482.139 426.611 482.433 427.199 482.727C427.493 483.022 428.082 483.316 428.376 483.61C429.259 484.198 429.847 485.081 431.024 485.081C431.318 485.081 431.612 485.081 431.907 484.786C461.328 498.612 491.632 510.966 522.525 521.555C528.115 523.614 533.999 525.379 539.589 527.144C538.706 528.321 539.589 525.967 538.118 525.673ZM255.378 266.527C260.674 260.938 266.264 255.643 271.266 249.76C281.269 237.994 290.095 225.052 295.391 210.344C295.391 210.05 295.391 210.05 295.686 209.756C295.686 210.05 295.686 210.05 295.391 210.344C293.626 217.11 290.978 223.875 287.742 230.346C284.505 236.818 280.681 242.701 276.267 248.289C271.56 254.173 266.264 259.173 260.968 263.879C258.026 266.527 255.084 269.468 252.436 272.41C251.848 272.998 251.553 273.586 250.965 274.175C250.965 273.881 251.259 273.586 251.259 273.586C251.553 272.41 252.142 271.233 252.73 270.057C253.319 268.586 254.201 267.703 255.378 266.527ZM253.907 266.233C254.79 263.879 255.967 261.526 257.143 259.173C260.38 252.996 263.91 247.113 267.735 241.23C275.091 229.758 283.329 218.286 289.801 206.226C293.038 200.049 295.98 193.577 298.039 186.812C297.745 193.872 296.568 200.931 294.509 207.697C292.155 215.05 288.919 222.11 284.8 228.876C276.562 242.112 265.97 253.584 255.084 264.762C254.496 265.35 254.201 265.644 253.907 266.233ZM281.563 248.289C276.562 254.467 270.089 259.467 263.91 264.468C261.262 266.527 258.32 268.586 255.672 270.939C257.438 269.174 259.203 267.703 260.674 265.939C265.97 260.938 271.266 255.937 275.973 250.349C285.094 239.465 292.155 226.522 296.274 212.697C297.451 208.873 298.333 205.049 299.216 200.931C299.216 200.049 299.51 199.461 299.51 198.578C299.51 208.579 297.451 218.874 293.626 228.287C290.684 235.641 286.565 242.406 281.563 248.289ZM297.745 185.341C295.685 191.813 293.038 197.99 289.801 203.873C286.565 210.05 282.74 215.933 278.915 221.816C271.266 233.288 263.028 244.466 256.261 256.526C254.496 259.761 252.73 263.291 251.259 266.821C250.965 267.703 250.377 268.88 250.082 269.762C249.788 270.351 249.494 270.939 249.2 271.527C248.905 271.822 248.611 272.116 248.611 272.41C250.965 263.879 254.201 255.349 258.026 247.113C263.322 236.229 269.5 225.64 276.267 215.639C283.034 205.344 290.39 195.637 297.451 185.93C297.451 185.635 297.745 185.635 297.745 185.341ZM249.494 233.876C255.084 219.169 264.499 206.226 276.856 196.225C282.446 191.518 288.919 187.694 295.391 184.753C292.449 188.283 289.801 192.107 287.153 195.931C283.623 200.931 279.798 205.932 276.267 211.227C269.5 221.522 263.028 231.817 257.438 242.995C252.142 253.878 247.729 265.056 245.081 276.822C244.786 277.705 244.786 278.293 244.492 279.175C242.433 263.879 244.198 247.995 249.494 233.876ZM191.828 177.693C192.122 190.048 193.887 202.108 196.241 214.168C198.889 225.934 202.125 237.7 206.244 249.172C210.363 260.644 215.071 271.822 219.778 282.999C224.191 293 228.899 302.707 233.606 312.414C232.724 311.238 231.841 310.061 230.958 308.884C230.664 308.59 230.664 308.59 230.37 308.296C225.957 300.648 221.544 292.706 217.425 284.764C209.187 269.468 201.831 253.584 197.124 236.818C192.416 220.639 190.063 203.579 190.063 186.812C190.063 177.988 190.651 169.163 191.828 160.633C191.828 165.927 191.534 171.81 191.828 177.693ZM231.547 303.59C228.899 298.001 226.251 292.412 223.603 286.823C218.601 275.645 213.894 264.468 209.481 253.29C205.068 241.818 201.537 230.346 198.595 218.58C195.653 206.814 193.593 194.754 193.005 182.694C192.122 170.34 193.005 158.279 195.064 146.219C195.064 145.631 195.359 145.043 195.359 144.16C195.653 142.395 196.241 140.63 196.535 139.16C196.535 139.16 196.535 139.16 196.535 139.454C194.77 149.749 194.182 160.339 194.77 170.928C195.359 182.694 197.418 194.46 200.066 206.226C202.714 217.698 206.539 229.17 210.363 240.347C214.482 251.525 218.601 262.703 222.72 274.175C225.957 282.411 228.899 290.941 231.547 299.472C232.429 303.001 233.312 306.531 234.195 310.355C233.312 307.414 232.429 305.355 231.547 303.59ZM208.892 210.344C213.306 223.875 218.307 237.406 221.838 251.231C225.074 262.997 227.134 275.057 229.193 287.117C228.016 283.882 226.839 280.94 225.663 277.705C221.544 266.527 217.13 255.349 213.011 244.171C208.892 232.994 205.068 221.816 202.125 210.05C199.183 198.578 196.83 187.106 195.653 175.34C194.77 165.927 194.77 156.22 195.653 146.808C195.653 154.161 196.241 161.809 197.712 168.869C200.36 182.988 204.479 196.813 208.892 210.344ZM197.124 129.453C196.535 131.512 195.653 133.277 195.064 135.336C194.476 137.395 193.887 139.454 193.299 141.219C192.122 145.337 191.24 149.749 190.651 153.867C189.18 162.398 188.297 170.928 188.003 179.458C187.415 196.519 189.18 213.58 193.299 230.052C197.418 247.113 204.185 263.291 212.129 278.881C215.659 285.647 219.19 292.412 223.015 299.177C220.955 296.824 218.896 294.471 216.542 292.118C206.833 281.234 198.595 268.88 191.828 255.937C185.061 242.995 180.059 229.17 177.706 214.756C175.352 200.637 175.058 185.93 177.706 171.81C179.471 162.103 182.413 152.691 186.532 143.866C188.886 140.042 191.24 136.512 193.887 132.983C194.77 132.1 195.947 130.629 197.124 129.453ZM195.653 128.57C195.653 128.57 195.653 128.864 195.653 128.57C195.653 128.864 195.653 128.57 195.653 128.57ZM192.416 268.586C187.709 262.703 183.59 256.82 180.354 250.054C176.529 242.701 173.587 234.759 171.821 226.522C168.291 210.344 168.585 193.283 172.704 177.105C174.764 168.575 178 160.633 181.825 152.691C180.354 157.103 178.883 161.515 177.706 165.927C174.469 180.047 173.587 194.46 175.352 208.873C177.117 223.287 181.236 237.7 187.415 250.937C193.593 264.468 201.537 276.822 210.658 288.294C215.659 294.471 221.544 300.354 226.545 306.531C225.074 304.766 223.309 303.001 221.838 301.237C212.129 290.353 201.537 280.352 192.416 268.586ZM177.706 65.9162C175.058 76.2115 171.527 86.2126 167.408 95.9196C162.995 105.627 157.993 115.039 151.815 123.864C148.873 128.276 145.636 132.394 142.4 136.512C139.164 140.63 135.339 144.454 131.808 148.572C131.22 149.161 130.631 149.749 130.043 150.337C130.043 150.043 130.043 149.749 130.043 149.749C138.869 135.924 147.402 122.099 155.345 107.686C159.464 100.332 163.583 92.6839 167.114 85.036C170.939 77.3881 174.469 69.7402 177.411 61.7981C178.294 59.7391 179.177 57.3859 179.765 55.0327C179.471 58.5625 178.588 62.0923 177.706 65.9162ZM182.413 39.7368C182.413 40.6193 182.119 41.7959 182.119 42.6783C181.825 44.1491 181.53 45.6198 181.236 46.7964C180.059 50.9145 178.588 54.7385 177.117 58.8566C174.175 66.7987 171.233 74.4466 167.702 82.0945C160.641 97.3903 152.403 111.804 143.577 126.217C139.164 133.277 134.75 140.63 130.631 147.69C130.631 146.808 130.926 146.219 130.926 145.337C131.514 142.689 132.397 140.042 133.574 137.395C135.339 133.277 137.398 129.159 139.458 125.04C144.165 116.51 149.167 108.274 153.58 99.7435C158.288 90.919 162.701 82.0945 167.114 73.27C171.527 64.4455 175.646 55.621 179.765 46.5023C180.648 44.1491 181.825 41.7959 182.707 39.1485C182.413 39.4427 182.413 39.4427 182.413 39.7368ZM183.002 17.9697V18.2638C183.002 22.6761 183.002 27.0884 182.707 31.2065C181.825 35.3246 180.354 39.7368 178.883 43.5608C175.646 52.9736 171.233 61.7981 167.114 70.6226C162.701 79.4471 158.288 88.2717 153.874 96.802C149.461 105.332 144.46 113.863 139.752 122.393C137.398 126.805 135.045 131.512 132.985 136.218C132.397 137.395 131.808 138.866 131.514 140.336C131.808 137.983 132.397 135.336 132.985 132.983C136.222 117.981 141.812 104.156 149.167 90.919C156.522 77.3881 165.054 64.4455 171.821 50.3262C176.823 40.031 181.236 29.1474 183.002 17.9697ZM126.218 138.571C124.747 132.394 124.159 125.923 124.159 119.452C124.159 108.862 125.924 97.9786 129.749 87.9775C133.574 77.3881 139.458 68.2694 146.519 59.4449C153.58 50.6204 161.23 42.3842 167.997 33.2655C169.762 30.9123 171.233 28.5591 172.704 26.2059C167.702 36.7953 161.818 47.0906 155.934 57.3859C145.636 75.0349 135.633 93.2722 130.337 113.274C127.689 121.805 126.512 130.335 126.218 138.571ZM127.101 142.101C127.101 138.571 127.101 135.042 127.395 131.512C127.984 126.511 128.866 121.511 130.043 116.51C132.397 106.509 136.222 96.802 140.635 87.3892C149.461 69.1519 160.641 52.0911 170.056 34.148C174.764 25.3235 179.177 15.9106 182.413 5.90953C181.825 12.0867 181.236 17.9697 179.471 23.8527C177.411 31.2065 174.764 38.5602 171.527 45.6198C165.054 59.7391 156.522 72.6817 148.873 86.2126C141.517 99.4494 135.339 113.274 131.514 127.982C130.043 133.865 128.866 140.042 128.278 146.219C127.984 145.043 127.395 143.572 127.101 142.101ZM98.2679 20.6171C100.327 25.3235 102.093 29.7357 103.858 34.4421C107.389 43.8549 110.036 53.5619 110.919 63.563C112.979 82.9769 109.154 102.391 109.154 122.099C108.86 120.922 108.86 120.04 108.565 118.863C108.271 114.745 107.977 110.921 107.683 106.803C107.389 98.8611 107.389 90.6249 107.094 82.6828C106.506 66.7987 105.917 50.6204 101.504 35.0304C100.327 30.9123 98.8563 26.5001 97.6795 22.382C97.0911 20.0288 96.5026 17.9697 95.9142 15.6165C96.7968 17.3814 97.6795 18.8521 98.2679 20.6171ZM95.62 20.9112C96.7968 24.7352 97.9737 28.5591 99.4448 32.3831C101.798 40.031 103.858 47.973 104.741 55.9151C106.8 72.0934 106.212 87.9775 106.8 104.156C106.8 105.921 107.094 107.98 107.094 109.745C106.8 107.98 106.506 106.215 106.212 104.45C104.446 94.743 102.975 85.036 101.798 75.329C100.327 65.6221 99.1506 55.9151 97.9737 45.914C97.3853 40.3251 96.7968 35.0304 96.2084 29.4416C95.9142 26.2059 95.62 22.9703 95.3258 19.7346C95.3258 20.3229 95.62 20.6171 95.62 20.9112ZM94.4431 16.7931C94.7373 20.3229 95.0316 24.1469 95.3258 27.6767C95.9142 32.6772 96.2084 37.3836 96.7968 42.3842C97.9737 52.3853 98.8563 62.0923 100.033 72.0934C102.387 91.8015 105.329 111.215 108.86 130.629C108.86 131.218 109.154 132.1 109.154 132.688C99.739 98.5669 94.7373 63.563 94.1489 28.265C94.1489 24.441 94.4431 20.6171 94.4431 16.7931ZM97.091 135.924C90.3241 126.805 83.8514 117.098 79.144 106.509C74.4366 96.5079 71.4944 85.6243 71.2002 74.4466C70.906 63.563 73.2597 52.6795 77.0845 42.6783C78.2614 39.7368 79.4382 36.7953 80.9093 33.8538C77.6729 45.914 76.7903 58.5625 77.6729 70.9168C79.4382 92.0956 86.7936 112.392 96.5026 131.218C99.1506 136.512 102.093 141.807 105.329 146.808C105.623 147.396 106.212 148.278 106.506 148.867C103.564 144.16 100.327 140.042 97.091 135.924ZM107.977 147.396C105.329 142.984 102.387 138.277 100.033 133.571C95.0316 124.158 90.3241 114.745 86.7936 104.744C79.7324 85.6243 76.4961 64.7396 79.7324 44.4432C80.6151 39.4427 81.4977 34.4421 83.263 29.7357C85.6167 24.441 88.2646 19.4405 91.501 14.734C90.0299 18.2638 88.8531 22.0878 87.9704 25.9118C86.7936 30.6182 86.2051 35.6187 85.9109 40.6193C85.0283 50.6204 85.6167 60.3274 86.7936 70.3285C89.1473 90.3307 93.8547 110.039 100.916 129.159C103.564 136.512 106.506 143.572 110.036 150.337C109.154 149.161 108.565 148.278 107.977 147.396ZM94.4431 103.567C89.4415 84.4477 85.9109 64.4455 86.7936 44.4432C87.0878 38.8544 87.6762 33.5597 88.8531 28.265C90.0299 22.6761 91.7952 17.3814 93.2663 12.0867C90.9126 58.8566 97.9737 105.627 112.096 150.337C112.096 150.632 112.39 150.926 112.39 150.926C104.741 135.63 98.5621 119.746 94.4431 103.567ZM41.1904 145.925C55.3127 148.867 69.1407 152.985 81.7919 160.044C94.7373 167.104 105.329 177.399 114.45 188.871C123.865 200.637 131.22 213.874 138.869 226.816C140.635 229.758 142.106 232.7 143.871 235.641C135.339 225.64 126.512 215.639 117.098 206.52C106.212 195.931 95.0316 185.93 82.6746 176.811C70.906 167.986 58.2548 160.339 45.3094 153.867C35.0119 148.867 24.4202 144.749 13.5343 141.513C22.6549 142.689 32.0698 143.866 41.1904 145.925ZM115.921 230.346C100.327 222.993 84.4398 216.521 70.6118 205.638C58.2548 195.931 47.9573 183.871 37.3656 172.105C33.5408 167.692 29.7161 163.574 25.5971 159.456C27.0681 160.633 28.5392 161.515 30.0103 162.692C38.5425 169.163 47.0747 175.928 55.6069 182.4C72.6713 195.637 90.0299 208.579 107.094 221.816C111.802 225.346 116.509 229.17 121.217 232.7C119.451 231.817 117.686 231.229 115.921 230.346ZM127.984 236.229C126.512 235.053 125.336 234.17 123.865 232.994C119.451 229.758 115.332 226.522 110.919 223.287C102.387 216.815 93.8547 210.05 85.0283 203.579C67.9639 190.636 50.6052 177.399 33.5408 164.457C29.1276 160.927 24.4202 157.691 20.007 154.161C15.0054 149.455 10.0037 145.043 4.41365 141.219C15.2996 147.396 26.4797 153.573 37.0714 160.044C48.5457 166.81 59.4317 173.869 70.3176 181.811C80.9093 189.459 90.6183 197.99 100.033 206.814C109.154 215.639 117.98 225.052 127.689 233.582C130.631 236.229 133.574 238.877 136.81 241.23C133.868 239.465 130.926 237.7 127.984 236.229ZM147.99 247.407C142.694 243.877 137.693 240.053 132.691 235.935C122.982 227.699 113.861 218.286 104.741 209.462C95.3258 200.343 85.9109 191.518 75.3192 183.576C64.7275 175.634 53.5474 168.281 42.073 161.515C30.5987 154.75 19.1243 148.278 7.35579 142.101C6.76736 141.807 5.88472 141.513 5.29629 140.925C17.0648 144.16 28.5392 148.278 39.7193 153.279C52.959 159.456 65.6102 167.104 77.3787 175.634C89.4415 184.459 100.916 194.166 111.508 204.461C122.688 215.345 133.279 226.816 143.283 238.877C146.519 242.701 149.461 246.525 152.697 250.349C152.697 250.643 152.992 250.643 152.992 250.937C151.521 249.76 149.755 248.584 147.99 247.407ZM49.4284 323.298C56.7837 321.239 63.8449 318.886 71.2002 316.827C80.0266 314.473 89.1473 312.708 98.2679 311.238C115.627 308.884 133.574 308.59 150.932 311.826C167.408 314.767 183.296 320.356 197.418 328.887C201.537 331.24 205.362 334.181 208.892 337.123L209.187 337.417C206.539 336.535 203.891 335.652 200.949 335.064C195.359 333.593 190.063 332.122 184.473 330.946C173.587 328.593 162.112 326.828 150.932 325.945C139.752 325.063 128.572 324.474 117.392 325.063C106.506 325.357 95.3258 326.533 84.4398 327.122C72.6713 327.71 61.1969 327.122 50.0168 323.298C49.7226 323.298 49.4284 323.298 49.4284 323.298ZM208.01 333.299C208.01 333.593 208.304 333.593 208.304 333.887C208.01 333.593 208.01 333.299 208.01 333.299C207.421 332.711 206.833 332.122 206.244 331.534C206.539 332.122 207.421 332.711 208.01 333.299ZM53.8416 325.945C62.0796 328.593 70.906 328.887 79.4382 328.887C90.3241 328.593 101.21 327.122 112.096 326.828C134.75 325.945 157.405 327.71 179.471 332.417C185.649 333.593 191.828 335.064 198.006 336.829C198.301 336.829 198.301 336.829 198.595 337.123C194.182 336.535 189.768 335.652 185.649 335.358C174.469 333.887 162.995 333.299 151.815 333.299C140.34 333.299 129.16 333.887 117.686 334.77C106.506 335.652 95.0316 336.24 83.8514 335.064C74.4366 334.181 65.0217 331.828 56.4895 328.004C55.6069 326.828 54.7242 326.534 53.8416 325.945ZM117.392 295.942C130.337 295.648 143.283 297.118 155.64 300.942C165.937 304.178 175.94 308.884 185.355 314.767C176.529 310.061 166.82 307.12 157.111 304.766C144.46 301.825 131.22 300.06 117.98 300.06C105.623 300.06 93.2663 301.531 81.2035 304.472C74.4366 306.237 67.6697 308.884 61.1969 311.826C66.787 308.59 72.6713 305.943 78.8498 303.59C90.9126 299.177 104.152 296.53 117.392 295.942ZM46.4863 321.533C47.6631 320.65 49.1342 319.474 50.311 318.591C53.8416 316.532 57.0779 314.473 60.6085 313.003C65.9044 310.649 71.2002 308.296 76.7903 306.825C88.5588 303.296 100.622 301.531 112.979 301.237C125.924 300.942 138.869 302.707 151.226 305.355C162.995 308.002 175.058 311.238 185.649 317.415C190.651 320.356 195.064 323.886 199.478 327.71C186.238 319.474 171.527 313.591 156.522 310.355C139.458 306.531 121.805 306.237 104.152 308.002C95.0316 308.884 85.9109 310.649 76.7903 312.708C67.6697 314.767 58.8432 317.415 50.311 320.65C49.1342 320.945 47.9573 321.533 47.0747 322.121C46.7805 321.827 46.7805 321.533 46.4863 321.533ZM154.757 339.476C142.106 341.241 129.16 343.3 116.509 343.594C104.446 343.888 92.3836 342.123 80.6151 338.299C75.025 336.535 69.4349 334.181 64.1391 331.534C79.144 336.535 96.2084 336.535 111.802 335.652C123.57 335.064 135.045 334.181 146.813 334.181C158.288 334.181 169.468 335.064 180.942 336.535C183.002 336.829 185.355 337.123 187.415 337.417C176.529 336.829 165.643 338.005 154.757 339.476ZM410.429 473.02C410.429 473.02 410.723 473.315 410.429 473.02C410.429 473.315 410.429 473.02 410.429 473.02ZM397.189 464.784C397.189 464.49 397.189 464.196 397.189 464.196C397.484 464.49 397.778 465.078 398.072 465.372C397.778 465.078 397.484 465.078 397.189 464.784ZM363.355 338.888C369.827 353.595 375.418 368.891 379.831 384.187C384.244 399.777 387.48 415.367 389.54 431.251C389.834 432.722 389.834 434.193 390.128 435.663C389.54 433.31 388.951 430.957 388.363 428.898C385.127 417.132 381.89 405.072 378.36 393.306C374.829 381.54 371.299 369.774 367.18 358.302C363.061 346.536 358.942 335.064 354.234 323.592C351.586 316.827 348.644 310.355 345.408 303.59C351.88 315.062 357.765 326.828 363.355 338.888ZM340.7 296.236C340.994 296.53 340.994 296.824 341.289 296.824C344.819 304.472 348.35 312.12 351.586 319.768C356.294 330.946 360.707 342.712 364.532 354.184C368.651 365.656 372.181 377.422 375.712 389.188C379.242 400.954 382.479 413.014 385.715 424.78C387.48 431.839 389.246 438.899 391.305 445.664C391.893 449.194 392.482 452.43 393.365 455.96C393.659 457.136 394.247 458.313 394.541 459.489C394.541 459.784 394.836 460.372 394.836 460.666C395.13 461.843 395.424 462.725 395.718 463.608C388.657 458.313 383.067 450.959 378.948 443.017C371.593 428.31 369.239 411.543 367.474 395.365C366.591 387.128 365.414 378.892 363.943 370.656C362.472 362.714 360.707 354.772 358.647 347.124C354.528 331.534 348.938 316.532 342.171 301.825C339.818 296.53 337.17 291.235 334.522 286.235C336.581 289.471 338.641 292.706 340.7 296.236ZM318.046 264.174C320.694 268.292 323.636 272.704 325.99 276.822C330.109 283.882 333.933 290.941 337.464 298.295C344.525 313.003 350.409 328.004 354.823 343.594C359.53 359.478 362.472 375.657 364.532 392.129C366.591 408.601 368.356 425.662 375.417 440.958C375.712 441.546 376.006 442.429 376.594 443.017C376.3 442.429 376.006 442.135 375.712 441.546C372.181 435.369 368.651 429.192 365.414 423.015C359.236 410.366 353.94 397.13 349.821 383.599C345.996 370.362 343.348 356.831 340.7 343.3C338.052 329.769 335.699 316.532 332.168 303.296C328.932 291.235 324.813 279.175 318.634 267.998C318.34 267.409 318.34 266.821 318.046 266.233C317.752 265.35 317.457 264.762 317.163 263.879C316.869 263.291 316.869 262.997 316.575 262.409C317.163 262.997 317.457 263.585 318.046 264.174ZM319.811 272.41C323.93 281.234 327.166 290.353 329.814 299.472C333.345 312.708 335.993 325.945 338.347 339.476C340.7 353.007 343.348 366.538 346.879 379.775C350.704 393.306 355.705 406.542 361.589 419.191C362.178 420.662 363.061 422.132 363.649 423.603C358.647 413.896 354.234 403.895 350.409 393.894C345.702 381.834 341.877 369.479 338.347 357.125C334.816 343.888 331.58 330.652 328.637 317.415C326.284 306.531 324.224 295.648 322.165 284.47C321.871 280.352 320.988 276.234 319.811 272.41ZM353.646 417.72C344.525 402.424 337.464 385.658 332.756 368.597C328.049 351.242 325.107 333.593 323.93 315.65C323.342 308.59 323.047 301.531 322.459 294.177C322.459 293.294 322.459 292.118 322.459 291.235C323.636 298.589 325.107 305.649 326.578 313.003C329.226 326.534 332.168 340.064 335.699 353.301C338.935 365.95 342.76 378.304 347.173 390.364C351.586 402.13 356.294 413.602 362.178 424.78C365.414 431.251 368.945 437.428 372.77 443.605C365.414 435.369 359.236 426.839 353.646 417.72ZM387.186 460.666C386.892 460.666 386.892 460.372 386.598 460.372C386.598 460.372 386.598 460.372 386.892 460.372C386.892 460.372 386.892 460.666 387.186 460.666ZM385.715 459.784C385.715 460.078 385.715 460.078 385.715 459.784V459.784ZM148.579 438.016C155.051 437.134 161.23 436.546 167.702 435.957C180.648 434.781 193.299 434.193 206.244 434.193C218.896 434.193 231.841 434.781 244.492 435.957C257.143 437.134 269.795 438.605 282.446 440.958C294.214 443.017 305.689 445.37 317.163 448.312C314.515 448.312 312.161 448.312 309.514 448.606C292.449 447.429 275.385 446.841 258.32 446.547C238.02 446.253 217.719 446.547 197.124 446.253C176.823 445.959 156.816 444.782 136.81 442.135C135.339 441.84 134.162 441.84 132.691 441.546C132.397 441.546 132.397 441.252 132.103 441.252C132.691 440.958 133.279 440.664 133.868 440.37C138.575 439.193 143.577 438.605 148.579 438.016ZM299.51 449.488C295.98 449.488 292.449 449.488 288.919 449.488C275.679 449.488 262.439 449.783 249.2 450.371C235.96 450.959 222.426 452.136 209.187 452.724C196.241 453.606 183.002 453.901 170.056 452.136C158.288 450.665 146.813 448.018 135.927 443.017C153.58 445.664 171.527 446.841 189.474 447.135C209.481 447.723 229.782 447.429 250.082 447.723C267.147 447.723 284.211 448.018 300.981 449.194C300.393 449.194 299.805 449.194 299.51 449.488ZM132.103 442.429C132.691 442.429 132.985 442.723 133.574 442.723C143.283 448.018 153.874 450.959 164.466 452.43C177.117 454.489 189.768 454.489 202.714 454.195C216.248 453.606 229.782 452.724 243.021 451.842C256.555 451.253 270.089 450.959 283.623 450.959C285.094 450.959 286.565 450.959 287.742 450.959C283.917 451.547 279.798 452.43 275.973 453.018C266.264 453.901 256.555 455.077 246.846 455.666C233.901 456.842 220.661 457.43 207.716 457.43C195.359 457.43 183.002 456.548 170.939 454.195C158.582 452.136 146.813 448.606 135.339 443.605C134.456 443.605 133.279 443.017 132.103 442.429ZM318.046 446.253C320.105 446.841 322.165 447.723 323.93 448.312C322.753 448.312 321.576 448.312 320.399 448.312C309.514 445.076 298.333 442.723 287.153 440.664C274.502 438.311 261.851 436.546 248.905 435.369C235.96 434.193 223.309 433.31 210.363 433.31C197.712 433.016 184.767 433.604 172.116 434.487C164.76 435.075 157.405 435.663 150.344 436.546C160.347 434.487 170.35 433.31 180.648 432.428C198.889 430.957 217.425 430.957 235.666 432.428C253.907 433.898 272.443 436.546 290.39 440.37C299.51 441.84 308.925 443.9 318.046 446.253ZM167.114 428.015C180.059 425.074 193.593 423.603 206.833 423.603C220.661 423.603 234.195 424.78 248.023 427.133C262.439 429.486 276.562 433.31 290.684 437.428C291.861 437.722 293.038 438.017 294.214 438.605C277.15 435.075 259.791 432.133 242.139 430.663C223.897 428.898 205.362 428.31 187.121 429.486C178 430.074 168.585 430.957 159.464 432.428C154.757 433.016 150.344 433.898 145.931 434.781C152.697 431.839 160.053 429.486 167.114 428.015ZM211.54 462.725C197.712 462.725 184.178 460.96 170.939 457.725C164.172 455.96 157.699 453.901 151.226 451.253C149.167 450.371 146.813 449.488 144.754 448.606C151.815 451.253 158.876 453.312 166.231 454.783C178.294 457.43 190.651 458.607 203.008 458.901C215.954 459.195 228.605 458.901 241.55 458.019C248.611 457.43 255.378 456.842 262.439 456.254C259.791 456.842 257.143 457.43 254.496 457.725C240.079 460.372 225.957 462.725 211.54 462.725Z" fill="#C3D64B"/>
</svg>
