<svg width="382" height="371" viewBox="0 0 382 371" fill="none" xmlns="http://www.w3.org/2000/svg">
<path d="M379.639 188.714C379.382 188.814 378.868 189.012 378.611 189.112C378.333 188.776 377.877 188.362 377.106 188.66C375.15 189.711 373.016 190.684 371.138 191.557C370.446 191.677 370.011 191.697 369.318 191.817C363.282 191.492 357.246 191.166 351.268 190.228C343.192 189.214 335.352 187.666 327.334 186.039C311.733 182.764 296.111 179.055 280.195 176.493C265.428 174.225 250.545 173.184 235.767 174.317C221.681 175.331 207.678 178.084 194.095 182.299C180.513 186.515 167.449 192.45 155.239 199.827C153.797 200.679 152.276 201.71 150.834 202.563C150.577 202.662 150.42 203.018 150.341 203.196C140.555 206.535 130.968 210.388 121.402 214.676C104.583 222.357 87.9845 230.987 72.0202 240.111C74.5481 238.248 76.8977 236.306 79.2473 234.364C81.0252 233.234 82.7035 231.847 84.2035 230.381C92.359 223.98 100.871 217.737 109.582 212.008C124.87 201.521 141.091 192.299 157.811 184.36C174.352 176.343 191.391 169.611 208.33 162.621C225.27 155.631 242.11 148.385 258.452 139.854C274.022 131.621 288.917 122.025 302.878 111.166C330.287 89.6448 353.883 63.2471 371.989 33.3594C372.168 33.4382 372.603 33.4176 372.76 33.0614C375.54 29.1812 378.042 24.9654 380.544 20.7495C381.116 19.9379 380.025 19.0303 379.354 19.5851C379.055 18.8145 378.163 18.4206 377.67 19.0542C353.717 45.2944 322.182 62.6505 291.019 78.6812C259.857 94.712 227.803 110.349 201.17 133.49C186.6 146.209 173.798 161.199 165.117 178.436C148.812 185.918 132.984 194.251 118.089 203.847C109.457 209.398 100.845 215.384 92.59 221.528C93.0043 221.073 93.4186 220.617 93.9117 219.984C107.301 209.936 120.591 199.631 132.769 187.983C139.441 181.565 145.656 174.733 151.236 167.408C157.231 159.627 162.235 151.195 166.605 142.27C171.231 133.246 175.323 123.985 180.028 114.783C184.418 106.293 189.264 98.2175 195.002 90.5358C205.828 76.1622 218.935 63.8607 231.228 50.9872C241.036 40.8466 250.545 29.9355 257.993 17.901C258.072 17.7229 258.15 17.5448 258.329 17.6236C258.329 17.6236 258.329 17.6236 258.407 17.4455C261.565 14.1577 264.166 10.1988 265.876 5.8459C266.369 5.21232 266.862 4.57875 267.355 3.94517C267.513 3.589 267.314 3.07527 266.878 3.09581C267.036 2.73964 267.114 2.56156 267.093 2.12661C267.387 0.979314 265.882 0.527207 265.132 1.26009C264.797 1.53749 264.639 1.89367 264.304 2.17107C263.868 2.19161 263.433 2.21215 263.197 2.74642C262.961 3.28068 262.725 3.81494 262.489 4.3492C260.26 6.98281 257.852 9.53764 255.524 11.9144C253.945 13.5582 252.188 15.1233 250.431 16.6884C248.496 18.1747 246.561 19.6611 244.625 21.1474C244.368 21.2467 244.468 21.5035 244.389 21.6816C243.797 22.0583 243.204 22.4351 242.69 22.6337C233.601 27.7707 223.936 31.8014 214.428 35.476C204.484 39.1712 194.541 42.8663 184.896 47.332C175.687 51.7772 166.876 57.2498 159.098 64.243C143.878 77.9521 132.706 96.0039 124.444 114.703C115.16 135.717 109.342 158.05 102.81 180.068C99.4369 191.561 95.964 202.798 91.6206 214.076C90.54 217.004 89.1237 220.21 87.4295 223.079C83.6377 225.874 80.0241 228.747 76.5101 231.878C81.8129 224.216 85.6683 215.49 88.2966 206.647C91.649 194.719 92.8827 182.28 93.0677 169.804C93.153 157.07 92.1895 144.299 91.226 131.528C90.655 125.103 89.9058 118.6 89.3349 112.175C88.6854 105.928 87.7788 99.7805 87.1292 93.5337C86.5792 87.5437 86.2862 81.4545 86.7851 75.5022C87.2681 71.0329 88.4433 66.4437 89.9751 62.0121C90.9402 60.31 91.8057 58.351 92.9491 56.7277C93.5208 55.916 93.9929 54.8475 94.5646 54.0358C95.0576 53.4023 95.472 52.9468 95.965 52.3132C96.0437 52.1351 96.1223 51.957 95.9441 51.8782C96.0018 51.2652 95.2886 50.9501 94.8743 51.4056C94.3813 52.0392 94.0456 52.3166 93.8096 52.8508L93.6313 52.7721C93.0596 53.5837 92.4879 54.3954 91.8375 55.3851C88.208 59.7414 84.4999 64.2757 81.227 68.7895C76.7898 74.4917 72.6305 80.5295 68.9274 86.9817C62.1506 98.4614 57.0991 111.342 55.7289 124.572C54.3587 137.802 57.4198 150.648 61.3515 163.453C65.2833 176.259 69.472 188.965 71.2483 202.308C72.8463 215.572 71.8745 229.829 65.4753 241.902C65.2392 242.436 65.0819 242.792 64.6675 243.248C63.9962 243.802 63.5032 244.436 62.8319 244.991C62.4962 245.268 62.1606 245.545 61.9245 246.08C61.1745 246.813 60.5032 247.367 59.5749 248.022L59.3179 248.121L59.2392 248.299C55.2113 251.628 51.3617 255.035 47.4334 258.621C43.3059 261.693 39.535 264.922 36.042 268.488C35.2133 269.399 34.3059 270.488 33.4773 271.399C32.3916 272.409 31.2273 273.597 29.9633 274.529C9.49317 293.368 -10.2429 312.957 -29.2448 333.297C-29.3235 333.475 -29.5018 333.396 -29.5804 333.574C-24.0308 321.978 -19.7292 309.83 -16.9327 297.231C-15.6528 294.816 -14.116 292.302 -12.8362 289.888C-11.142 287.018 -9.44779 284.148 -7.7536 281.278C-7.1819 280.467 -6.53151 279.477 -6.1381 278.586C-5.64508 277.953 -4.97377 277.398 -4.48074 276.764C-4.40206 276.586 -4.14508 276.487 -4.0664 276.309C-2.90206 275.121 -1.8164 274.11 -0.65206 272.922C0.0192565 272.367 0.512285 271.734 1.08399 270.922C1.49833 270.466 1.91267 270.011 2.32701 269.555C3.74832 268.268 5.07003 266.723 6.49134 265.435C15.6278 255.85 23.3169 245.199 29.3805 233.404C35.3654 221.787 40.0026 209.362 42.6996 196.506C44.048 190.077 45.0399 183.492 45.4182 176.847C45.7966 170.203 45.6609 163.758 45.347 157.234C44.8866 147.665 43.9699 137.682 45.4289 128.109C45.8801 126.606 46.5882 125.003 47.0394 123.5C48.1987 120.393 49.101 117.386 50.2603 114.28C50.575 113.568 49.6836 113.174 49.2483 113.195C48.8917 113.037 48.2782 112.979 47.8638 113.434C47.7851 113.612 47.6278 113.969 47.5491 114.147C47.1347 114.602 46.7204 115.058 46.4844 115.592C45.6557 116.503 45.0053 117.493 44.3549 118.482C43.7045 119.472 42.8758 120.383 42.2254 121.373C41.575 122.363 40.846 123.53 40.1956 124.52C39.7812 124.976 39.3669 125.431 38.9526 125.887C38.7743 125.808 38.4386 126.085 38.7952 126.243C33.9227 131.965 30.0623 138.774 27.2506 145.62C22.5715 157.175 20.6455 169.734 19.2335 182.094C17.685 195.245 16.75 208.454 13.7961 221.41C10.9209 234.188 6.89723 246.671 1.6255 258.603C-1.28575 265.192 -4.55359 271.624 -8.09933 277.72C-8.43499 277.997 -8.84933 278.453 -9.36328 278.651C-8.99079 277.326 -8.87529 276.1 -8.6811 274.696C-8.54969 271.987 -8.85355 269.298 -9.41439 266.709C-9.53493 266.017 -9.65548 265.326 -9.69733 264.456C-9.71826 264.021 -9.66051 263.408 -9.68144 262.973C-9.78105 262.716 -9.88066 262.459 -10.1376 262.558C-10.3787 261.175 -10.5202 260.048 -10.4047 258.822C-5.22169 243.232 -1.46506 227.013 0.886151 210.598C3.13775 193.926 4.24091 176.96 3.52431 160.254C2.986 143.626 0.627929 127.259 -2.50107 111.19C-5.53045 95.3777 -9.25208 79.6853 -12.1032 63.9518C-14.1105 53.0609 -15.4256 42.0502 -15.7914 30.8204C-15.7127 30.6423 -15.5344 30.721 -15.634 30.4642C-15.3193 29.7518 -15.6181 28.9813 -15.66 28.1114C-15.7019 27.2415 -15.7437 26.3716 -15.8643 25.6798C-15.948 23.94 -15.8534 22.279 -15.7588 20.6179C-15.6065 18.3439 -15.2759 16.1486 -14.7669 14.0321C-14.6883 13.854 -14.6096 13.6759 -14.4522 13.3198C-14.3735 13.1417 -14.4731 12.8848 -14.3944 12.7067C-14.258 11.9156 -14.022 11.3813 -13.8855 10.5902C-13.8487 9.54223 -14.5619 9.22713 -15.2541 9.34699C-15.2541 9.34699 -15.4324 9.26821 -15.3537 9.09013C-15.532 9.01135 -15.9673 9.0319 -16.2243 9.13121L-16.4812 9.23053C-16.8378 9.07298 -17.1735 9.35038 -17.1526 9.78533C-17.2103 10.3984 -17.1894 10.8333 -17.2471 11.4463C-18.4064 14.5526 -19.3088 17.5595 -20.2111 20.5665C-27.0825 33.7072 -32.0712 47.8925 -35.5759 62.095C-39.8047 79.3833 -41.9935 97.3599 -41.5707 115.213C-41.2056 133.68 -37.7937 152.002 -33.5321 169.849C-28.9927 188.031 -23.6823 205.916 -20.1708 224.495C-16.8794 242.126 -15.1298 260.353 -17.4183 278.072C-17.5915 279.912 -18.0218 281.85 -18.195 283.689C-18.5516 283.531 -18.9869 283.552 -18.966 283.987C-19.3962 285.925 -19.7478 287.686 -20.178 289.624C-20.5296 291.384 -20.7815 293.402 -21.1331 295.162C-21.9148 298.861 -22.6966 302.559 -23.7354 306.358C-25.7343 313.776 -28.0897 321.036 -30.8017 328.139C-32.3545 332.136 -34.2638 335.975 -35.9948 339.893C-36.0735 340.071 -36.0735 340.071 -36.0735 340.071C-41.7169 346.091 -47.182 352.191 -52.7258 358.468C-56.0405 362.112 -59.1769 365.835 -62.392 369.736C-62.8851 370.369 -62.151 371.119 -61.6579 370.486C-52.5424 360.465 -43.5056 350.622 -34.2119 340.68C-33.9549 340.581 -33.6979 340.482 -33.5405 340.126C-33.4618 339.948 -33.3045 339.591 -33.2258 339.413C-31.1541 337.136 -29.1611 335.037 -26.9111 332.838L-26.6541 332.739C-26.5545 332.995 -26.3762 333.074 -26.1192 332.975C-11.4825 330.715 3.35856 330.886 18.0631 331.849C32.7677 332.812 47.5719 334.031 62.2715 333.076C69.4928 332.648 76.5935 331.528 83.5737 329.717C90.5539 327.905 97.4136 325.402 104.095 322.82C117.536 317.477 130.558 310.673 144.079 305.152C149.297 302.988 154.693 300.902 160.189 299.073C160.368 299.152 160.546 299.231 160.803 299.132C163.116 298.238 165.607 297.423 168.119 297.043C168.218 297.3 168.397 297.378 168.654 297.279C171.244 296.721 173.935 296.42 176.468 296.474C176.824 296.632 177.438 296.69 177.794 296.848L177.873 296.67L177.952 296.492C178.13 296.57 178.387 296.471 178.565 296.55C178.744 296.629 178.744 296.629 179.001 296.529C179.614 296.587 179.971 296.745 180.584 296.803C180.763 296.882 181.02 296.783 181.277 296.683C181.455 296.762 181.712 296.663 181.89 296.742C182.682 296.879 183.295 296.937 184.087 297.074C184.701 297.132 185.592 297.526 186.185 297.149C186.264 296.971 186.442 297.05 186.521 296.872C187.47 296.653 187.743 295.07 186.594 294.776C183.763 293.95 181.109 293.204 178.199 292.557C178.02 292.478 177.664 292.32 177.407 292.419C177.407 292.419 177.228 292.341 177.15 292.519C176.793 292.361 176.536 292.461 176.18 292.303C175.209 292.087 174.239 291.871 173.369 291.913C164.438 289.457 154.799 288.604 145.559 288.778C131.174 289.021 117.093 291.952 103.112 295.141C88.7951 298.606 74.5777 302.329 59.8623 304.767C45.1468 307.205 30.3108 308.951 15.8155 312.338C3.16093 315.9 -9.55142 320.074 -20.9898 327.153C-7.19597 312.814 6.79703 298.988 21.3249 285.399C24.9176 282.091 28.5102 278.782 31.8458 275.573C32.0241 275.652 32.2024 275.731 32.4594 275.632C32.7164 275.532 32.7951 275.354 33.052 275.255C42.3811 278.738 51.9461 281.687 61.6476 283.845C71.5274 286.081 81.8006 287.428 91.9901 287.034C101.823 286.483 111.294 283.856 120.367 280.202C129.519 276.37 138.015 271.61 146.988 267.699C156.119 263.432 165.469 260.113 175.538 259.028C185.607 257.942 195.938 258.675 205.897 260.734C225.714 264.594 244.493 272.252 264.016 277.26C282.213 281.894 301.71 284.549 319.94 278.98C322.174 278.264 324.23 277.47 326.186 276.419C327.036 275.943 326.616 274.48 325.667 274.699C325.567 274.442 325.389 274.364 325.211 274.285C324.419 274.148 323.648 274.446 322.956 274.566C322.264 274.686 321.393 274.727 320.701 274.846C319.395 274.908 318.168 274.792 316.941 274.675C307.329 268.938 297.895 263.281 288.204 257.722C278.058 251.749 267.732 245.697 257.25 240.001C238.702 229.891 217.627 221.644 196.167 225.359C186.733 226.938 177.76 230.849 169.122 234.482C159.971 238.314 150.62 241.633 140.63 242.54C130.461 243.369 120.188 242.023 109.956 241.546C100.596 241.029 91.0984 241.303 81.8632 243.395C74.7834 244.95 68.0024 247.275 61.4415 250.549C62.1129 249.994 62.6846 249.183 63.3559 248.628C63.5342 248.707 63.6129 248.529 63.6915 248.35C64.1059 247.895 64.5202 247.439 64.7563 246.905C64.835 246.727 65.1706 246.45 65.2493 246.272C81.4915 237.484 97.8124 228.518 114.532 220.58C125.797 215.34 137.261 210.614 149.103 206.481C156.523 206.567 163.766 206.574 171.107 206.837C178.806 207.259 186.683 207.759 194.224 208.537C209.741 210.071 225.101 211.962 240.697 213.319C256.036 214.774 271.611 215.696 287.024 215.056C302.001 214.436 316.816 212.255 331.212 208.611C342.938 205.704 354.266 201.769 365.374 196.886C366.066 196.766 366.659 196.389 367.351 196.269C369.328 195.653 371.285 194.602 373.162 193.728C373.419 193.629 373.676 193.53 374.033 193.687L374.211 193.766C374.646 193.745 374.725 193.567 374.625 193.31L374.882 193.211C376.424 192.615 378.045 191.841 379.586 191.245C382.057 189.995 381.003 188.04 379.639 188.714ZM310.551 101.998C296.889 113.628 282.293 123.994 266.665 132.84C250.7 141.964 233.96 149.467 217.199 156.535C208.818 160.069 200.181 163.703 191.622 167.158C199.704 162.854 207.686 158.292 215.49 153.652C230.09 145.203 244.413 136.419 258.636 127.378C272.267 118.713 285.62 109.713 298.695 100.377C311.512 91.141 324.131 81.3909 335.837 70.812C344.543 63.1647 352.615 55.0241 360.23 46.4692C346.394 67.1751 329.485 85.672 310.551 101.998ZM365.213 37.6025C364.899 38.3149 364.406 38.9485 363.991 39.404C356.061 48.6712 347.675 57.5241 338.654 65.8838C327.126 76.5415 314.864 86.4491 302.224 95.7643C289.249 105.357 275.975 114.179 262.523 122.922C248.478 132.042 234.412 140.727 219.99 149.254C207.859 156.453 195.55 163.573 183.142 170.436C179.465 172.004 175.789 173.573 172.291 175.22C172.627 174.943 173.041 174.487 173.377 174.21C186.651 165.388 199.925 156.566 213.02 147.665C227.558 137.912 242.096 128.158 256.634 118.405C270.323 109.127 284.11 100.107 297.521 90.4934C310.774 81.2365 323.749 71.644 336.446 61.7158C345.687 54.3048 354.829 46.6369 363.514 38.5546C364.028 38.356 364.621 37.9793 365.213 37.6025ZM356.754 41.3148C356.497 41.4141 356.419 41.5922 356.162 41.6915C356.24 41.5135 356.497 41.4141 356.754 41.3148ZM354.562 42.9005C354.483 43.0786 354.483 43.0785 354.583 43.3354C353.99 43.7121 353.141 44.1881 352.548 44.5649C353.219 44.0101 353.891 43.4553 354.562 42.9005ZM355.139 44.0067C350.203 48.4245 345.268 52.8424 340.055 56.9246C327.457 67.1097 314.403 76.8803 301.072 86.3153C287.74 95.7503 274.387 104.75 260.956 113.928C246.418 123.682 232.058 133.514 217.62 143.525C203.675 152.901 189.829 162.535 175.884 171.912C184.884 163.117 194.161 154.658 203.717 146.535C215.623 136.469 228.084 127.076 240.566 118.117C253.305 109.058 266.065 100.435 279.182 91.9692C292.12 83.4246 305.336 75.2157 318.553 67.0067C330.919 59.2738 343.029 51.6403 355.139 44.0067ZM241.884 107.418C263.774 94.5271 286.719 83.5923 309.008 71.7293C300.454 77.1026 291.9 82.4759 283.346 87.8492C270.308 96.1369 257.37 104.681 244.452 113.661C231.792 122.541 219.409 131.757 207.404 141.565C195.399 151.374 183.594 161.696 172.779 172.668C171.358 173.956 170.115 175.323 168.872 176.689C168.793 176.867 168.714 177.045 168.714 177.045C168.457 177.145 168.457 177.145 168.2 177.244C184.445 146.747 212.446 124.849 241.884 107.418ZM232.897 45.7645C220.781 58.7167 207.674 71.0183 196.471 84.7994C190.791 91.868 185.567 99.351 180.978 107.327C175.995 116.194 171.982 125.276 167.534 134.379C163.164 143.304 158.795 152.229 153.177 160.603C148.053 168.342 141.859 175.61 135.465 182.363C123.507 194.959 109.981 205.798 96.2772 216.559C96.7702 215.925 97.3419 215.114 97.8349 214.48C109.363 203.822 119.957 191.901 128.748 178.757C139.175 163.356 146.472 146.359 154.481 129.677C158.615 121.286 162.827 112.717 167.773 104.899C172.483 97.6144 177.828 90.8232 183.807 84.5251C195.015 72.6619 208.147 62.7132 220.824 52.3501C229.137 45.5931 237.528 38.6581 245.285 31.2299C241.676 36.0211 237.376 40.9322 232.897 45.7645ZM253.981 19.7468C253.824 20.103 253.488 20.3804 253.331 20.7366C252.838 21.3702 252.345 22.0037 251.673 22.5585C248.852 25.5689 246.109 28.4011 243.187 31.1545C237.266 36.8396 231.145 42.0109 224.768 47.2815C212.092 57.6446 199.137 67.6721 187.394 79.299C181.651 85.0628 176.186 91.1622 171.534 97.8336C166.053 105.416 161.563 113.649 157.43 122.04C148.985 138.742 142.045 155.897 132.252 171.791C127.563 179.51 122.16 186.915 116.48 193.983C111.372 200.24 106.164 206.24 100.321 211.747C102.372 209.035 104.323 206.066 106.195 203.274C117.074 186.37 125.178 168.027 133.461 149.763C142.058 130.786 151.169 111.611 163.532 94.7237C169.841 86.2304 176.707 78.4083 184.763 71.7507C192.897 64.915 202.044 59.165 211.012 53.3362C226.163 43.6409 242.185 33.9046 253.981 19.7468ZM243.566 24.5105C246.114 23.0824 248.564 21.3975 250.934 19.8906C240.754 31.3566 227.994 39.9799 214.956 48.2676C206.066 53.9183 197.256 59.3909 188.922 65.7129C180.588 72.0349 173.167 79.1857 166.658 87.1653C153.561 103.303 144.073 121.885 135.376 140.605C126.915 158.79 119.167 177.291 109.28 194.846C105.655 201.12 101.674 207.237 97.4156 213.018C105.435 200.171 111.295 185.945 116.362 171.582C122.746 153.756 127.982 135.635 135.258 118.203C142.061 101.84 150.627 85.8293 162.821 72.6989C168.543 66.5002 175.177 61.1302 182.467 56.6885C189.243 52.4453 196.496 49.0515 203.749 45.6577C217.327 39.5242 231.618 33.7058 243.566 24.5105ZM100.512 193.952C107.615 171.123 113.213 147.841 121.921 125.721C129.448 106.271 139.53 87.312 154.152 72.0617C161.374 64.3972 169.787 57.8971 179.054 52.8389C188.578 47.6814 198.857 43.7089 208.879 39.8357C218.051 36.4385 227.302 32.8632 236.076 28.4385C233.963 29.8461 231.671 31.1749 229.458 32.3255C222.404 36.2331 215.051 39.37 207.798 42.7638C192.935 49.3939 178.094 56.4589 166.073 67.7502C153.302 79.7743 144.181 95.1137 136.921 111.063C129.268 127.902 123.932 145.766 117.706 163.235C111.185 181.852 103.972 200.589 92.538 216.823C92.3807 217.179 92.045 217.456 91.8877 217.812C92.9105 215.497 93.6764 213.281 94.521 210.887C96.8815 205.545 98.7858 199.788 100.512 193.952ZM43.0559 151.326C43.3699 157.85 43.8621 164.453 43.7408 170.998C43.6194 177.543 42.9841 184.286 41.8139 190.793C39.6519 203.886 35.5495 216.547 29.8425 228.5C24.1355 240.452 16.6456 251.617 7.7871 261.538C5.7154 263.816 3.72236 265.915 1.47236 268.114C0.701436 268.411 0.20842 269.045 -0.284603 269.679C-0.620262 269.956 -0.698946 270.134 -1.0346 270.412C0.266173 268.432 1.64563 266.274 2.94641 264.295C10.3577 253.308 17.8476 242.144 23.6333 230.013C26.4081 224.215 28.648 218.181 30.4527 212.167C32.1787 206.331 33.1915 200.18 34.2043 194.029C35.9729 181.827 36.871 169.666 38.2831 157.306C39.2908 149.237 40.5556 141.069 42.7905 133.116C42.4699 139.147 42.7629 145.237 43.0559 151.326ZM40.6351 133.654C39.0874 139.569 38.1533 145.541 37.2191 151.514C35.4505 163.717 34.652 176.135 33.24 188.495C31.6496 200.776 29.1887 213.098 24.5096 224.654C19.6522 236.13 13.0119 246.819 6.01502 257.35C6.0937 257.171 6.17239 256.993 6.25107 256.815C8.8317 252.421 11.0557 247.87 13.1015 243.24C17.193 233.979 20.5713 224.403 22.9794 214.612C25.6446 204.721 27.2609 194.793 28.5206 184.707C29.859 174.443 30.4842 163.864 32.2579 153.579C33.2917 147.863 34.682 142.305 36.8642 136.884C38.3382 133.065 40.2684 129.661 42.5553 126.414C41.889 128.887 41.2227 131.359 40.6351 133.654ZM13.8322 227.599C17.064 214.978 18.5338 202.005 19.7466 189.132C21.0591 176.515 22.4502 163.72 26.3952 151.415C29.5165 141.938 34.2216 132.736 41.108 125.349C41.5223 124.893 42.0363 124.695 42.4506 124.239C43.1219 123.685 43.6936 122.873 44.365 122.318C44.2076 122.674 43.9716 123.209 43.8142 123.565C41.0921 126.832 39.0045 130.592 37.3522 134.332C35.3064 138.962 33.7956 143.829 32.72 148.675C30.4114 158.723 29.6866 169.045 28.5264 179.388C27.445 189.553 25.4931 199.759 23.0849 209.55C20.6767 219.342 17.655 229.075 13.8414 238.671C11.6592 244.092 9.19915 249.178 6.30379 254.284C4.94526 256.877 3.48712 259.213 1.9503 261.726L1.87161 261.904C6.82861 250.685 10.8155 239.25 13.8322 227.599ZM-22.014 57.4445C-21.2974 74.1506 -18.504 90.4971 -16.2246 107.042C-13.9452 123.587 -12.7147 140.095 -12.1764 156.722C-11.5594 173.171 -11.8129 189.662 -12.2448 206.073C-12.4549 208.96 -12.408 211.748 -12.6181 214.635C-12.639 214.2 -12.6599 213.765 -12.6022 213.152C-14.3618 191.09 -17.6055 169.01 -20.4139 146.91C-23.2014 125.245 -25.475 103.381 -25.7505 81.3357C-25.9004 61.9 -24.1309 42.461 -19.6293 23.5906C-22.153 34.608 -22.4585 46.3927 -22.014 57.4445ZM-29.1962 178.363C-33.9926 160.28 -38.0968 142.077 -39.432 123.395C-40.6466 105.405 -39.2497 87.2911 -35.5558 69.7666C-33.9922 62.3691 -32.1507 55.3072 -29.874 48.2248C-31.5162 55.8004 -32.7232 63.3554 -33.5736 71.068C-35.0962 86.572 -35.035 102.35 -34.2816 118.008C-33.4495 133.488 -31.9251 148.848 -29.7872 164.267C-28.2151 175.178 -26.4648 186.168 -24.4575 197.059C-25.9776 190.853 -27.4977 184.648 -29.1962 178.363ZM-14.7081 240.105C-16.2332 231.982 -17.6588 224.115 -19.1839 215.991C-22.0141 200.693 -24.7446 185.651 -27.0609 170.154C-29.4558 154.835 -31.4154 139.495 -32.4258 123.936C-33.4362 108.378 -33.833 92.877 -32.9241 77.3148C-32.0678 64.2836 -29.9844 51.3688 -26.396 38.906C-25.0794 35.4436 -23.684 31.8031 -22.189 28.4195C-23.0495 32.2963 -23.8104 36.43 -24.4926 40.3856C-26.1666 50.927 -27.1484 61.3486 -27.5167 71.8284C-28.1327 93.4799 -26.4727 115.286 -24.0418 136.793C-21.4116 158.815 -18.1679 180.894 -16.1513 202.857C-14.8103 216.221 -14.0828 229.526 -14.0476 242.951C-14.0267 243.386 -14.1841 243.742 -14.1631 244.177C-14.2259 242.873 -14.467 241.489 -14.7081 240.105ZM-11.6705 228.889C-11.4076 223.471 -11.0661 217.875 -10.9816 212.378C-10.3715 196.046 -10.1179 179.555 -10.478 163.007C-10.9167 146.636 -11.8693 130.464 -14.0491 114.176C-16.0715 97.5317 -19.3997 80.9488 -20.7299 64.1845C-21.7771 49.6737 -21.3612 34.745 -17.8565 20.5425C-17.8355 20.9775 -17.9929 21.3337 -17.972 21.7686C-18.0875 22.9947 -18.1243 24.0427 -18.0615 25.3475C-18.1402 25.5256 -18.0406 25.7825 -18.1193 25.9605C-18.0523 36.4198 -17.0151 47.0949 -15.3853 57.3933C-13.0482 73.3254 -9.50483 88.939 -6.29715 104.83C-2.98986 120.978 -0.374815 137.246 0.499151 153.596C1.57234 170.459 0.983139 187.227 -0.911876 204.056C-2.80689 220.886 -6.3643 237.619 -11.3481 253.722C-11.5054 254.079 -11.6628 254.435 -11.7205 255.048C-11.3682 246.051 -11.4302 237.509 -11.6705 228.889ZM-13.0757 274.031C-13.0547 274.466 -13.1125 275.079 -13.0915 275.514C-13.1284 276.562 -13.3435 277.531 -13.6373 278.679C-13.5427 277.018 -13.2698 275.435 -13.0757 274.031ZM150.498 300.751C136.8 306.193 123.678 312.741 110.079 318.44C96.6586 324.217 82.5826 329.066 68.0036 330.713C53.1676 332.459 38.2848 331.418 23.5802 330.455C20.0771 330.185 16.4953 330.092 12.9922 329.821C13.6845 329.702 14.4763 329.839 15.1686 329.719C28.0693 329.459 40.8127 329.555 53.7711 328.682C66.4726 327.908 79.1323 326.265 91.2729 322.902C104.877 319.121 117.741 312.672 130.648 307.094C139.107 303.381 147.844 300.005 156.823 298.012C154.688 298.984 152.632 299.779 150.498 300.751ZM146.67 297.357C132.017 301.1 118.004 307.254 103.671 312.203C96.3764 314.727 88.8823 316.737 81.1679 317.799C73.4536 318.86 65.7971 319.309 58.1196 319.322C43.1212 319.507 27.8818 318.308 13.0248 319.619C7.72292 320.044 2.52062 320.725 -2.48246 321.92C8.86634 318.42 20.5767 316.996 32.2294 316.184C45.0096 315.233 57.8107 314.716 70.5281 312.459C83.9377 310.083 97.185 306.144 110.374 302.819C123.386 299.415 136.418 296.446 149.812 295.553C152.502 295.251 155.292 295.207 158.003 295.34C154.264 295.604 150.467 296.481 146.67 297.357ZM11.8086 316.102C26.026 312.379 40.5054 310.475 54.7069 308.236C62.0646 307.017 69.244 305.719 76.4025 303.986C83.4823 302.432 90.4625 300.62 97.621 298.887C111.503 295.442 125.484 292.254 139.827 291.141C148.611 290.552 157.259 290.755 165.791 292.183C165.712 292.361 165.891 292.44 166.069 292.519C166.247 292.597 166.525 292.933 166.96 292.912C163.279 292.563 159.44 292.57 155.601 292.577C142.187 293.035 128.877 295.669 115.866 299.073C102.419 302.497 89.2715 306.692 75.8041 309.682C69.2382 311.038 62.5727 312.137 55.8863 312.801C49.3782 313.544 43.0274 313.931 36.6767 314.318C24.1535 315.171 11.2946 316.3 -0.825098 320.098C-2.28827 320.516 -3.83013 321.112 -5.37199 321.708C-5.62896 321.807 -5.78633 322.163 -5.60804 322.242C-6.81423 322.561 -8.02043 322.879 -9.22662 323.197C-2.20959 320.338 4.82837 317.913 11.8086 316.102ZM-22.3064 330.615C-12.6828 325.715 -1.90572 323.026 8.93416 321.643C23.5132 319.996 38.4747 320.859 53.1374 320.952C60.8149 320.939 68.4924 320.925 76.128 320.042C83.685 319.336 91.2001 317.761 98.5159 315.672C113.148 311.494 126.983 305.261 141.515 300.827C142.286 300.529 142.978 300.409 143.67 300.289C141.1 301.282 138.531 302.275 135.961 303.268C122.619 308.868 109.854 315.573 96.1923 319.967C83.9939 323.943 71.0982 326.121 58.318 327.072C45.4592 328.202 32.6371 328.284 19.7364 328.544C11.545 328.756 3.35353 328.969 -4.91658 329.359C-10.1398 329.605 -15.1848 329.931 -20.4658 330.79C-20.7227 330.889 -20.901 330.811 -20.9797 330.989C-21.6719 331.108 -22.5425 331.15 -23.2347 331.269C-23.2347 331.269 -22.7208 331.071 -22.3064 330.615ZM318.33 276.353C318.152 276.275 318.073 276.453 317.895 276.374C317.895 276.374 317.895 276.374 317.717 276.295C317.895 276.374 318.152 276.275 318.33 276.353ZM85.4751 66.4094C85.5537 66.2313 85.8894 65.9539 85.9681 65.7758C82.2491 73.7109 79.9564 82.2763 78.6339 91.0574C76.5346 105.455 77.0679 120.165 78.5504 134.655C79.9542 149.323 81.872 163.793 82.227 178.424C82.5192 191.749 81.5056 205.137 77.5815 217.877C78.1641 213.665 78.3901 209.295 78.616 204.925C78.9215 193.14 77.6642 181.516 76.2286 169.814C74.6934 157.854 72.5446 145.837 71.4446 133.857C70.4443 122.134 70.2149 110.113 72.361 98.5027C74.5072 86.8928 78.5937 75.7144 85.4751 66.4094ZM65.5829 169.793C61.4938 157.344 57.1268 144.559 57.2699 131.213C57.4917 117.688 61.5731 104.592 67.7154 92.6189C68.3448 91.1942 69.0739 90.0263 69.8816 88.6804C68.9584 91.2524 67.9564 94.0025 67.3898 96.732C64.5095 107.592 64.1044 119.12 64.7272 130.25C65.4497 141.638 67.0427 152.984 68.8926 164.231C70.7426 175.478 72.5925 186.725 73.3149 198.113C73.4773 199.674 73.561 201.414 73.5452 202.897C72.3088 191.708 69.0743 180.701 65.5829 169.793ZM298.57 279.117C288.973 279.134 279.57 277.746 270.225 275.746C250.822 271.431 232.222 263.851 212.898 259.357C203.196 257.2 193.18 255.754 183.248 256.048C173.315 256.343 163.645 258.456 154.572 262.11C136.505 269.24 119.874 280.836 100.392 283.935C79.9599 287.253 59.1883 281.694 39.8799 275.717C38.1966 275.186 36.6916 274.734 35.1865 274.282C35.3648 274.361 35.4435 274.183 35.6218 274.262C35.9575 273.984 36.2144 273.885 36.5501 273.608C54.2907 277.827 73.1019 275.283 90.7018 271.139C109.508 266.677 127.853 259.883 146.837 255.5C156.329 253.308 166.021 251.63 175.854 251.079C185.608 250.706 195.226 251.124 204.807 252.59C224.226 255.423 243.078 260.985 261.615 267.259C270.488 270.328 279.282 273.575 288.134 276.209C292.828 277.644 297.5 278.644 302.33 279.288C300.924 279.093 299.697 278.976 298.57 279.117ZM313.5 275.709C314.214 276.025 314.848 276.518 315.561 276.833C299.126 279.788 282.387 272.818 267.038 267.527C248.679 261.331 230.241 255.313 211.058 251.946C201.734 250.381 192.174 249.35 182.755 249.445C173.158 249.462 163.782 250.428 154.368 252.442C135.263 256.133 117.097 263.006 98.2328 268.081C80.1398 272.859 61.3705 276.273 42.5861 273.933C40.5671 273.68 38.8051 273.327 36.7861 273.073L36.8648 272.895C51.109 264.289 67.5814 260.286 84.1585 258.457C104.553 256.187 125.173 256.784 145.327 253.13C164.097 249.716 182.462 243.356 201.714 242.709C221.322 242.22 239.959 248.751 258.024 256.094C276.011 263.616 294.061 272.442 313.322 275.631L313.5 275.709ZM292.168 267.561C282.76 264.256 273.667 260.239 264.496 256.399C246.509 248.878 227.83 241.477 208.159 240.661C188.845 240.003 170.28 245.849 151.531 249.698C141.426 251.832 131.278 253.095 121.01 253.667C110.663 254.417 100.295 254.732 89.8697 255.659C74.3992 256.913 58.2206 259.769 44.071 266.714C56.1229 259.693 70.162 255.892 83.8496 253.851C102.996 251.029 122.447 250.896 141.473 247.383C150.986 245.626 160.358 242.743 169.829 240.116C179.044 237.589 188.457 235.575 198.212 235.202C217.106 234.398 235.796 238.398 253.306 245.07C271.964 252.036 289.62 261.753 306.683 271.846C301.911 270.589 296.961 269.253 292.168 267.561ZM77.3791 246.31C86.1581 243.803 95.1782 242.68 104.439 242.94C114.571 243.16 124.587 244.605 134.698 244.389C139.586 244.42 144.631 244.095 149.377 242.999C154.044 242.082 158.512 240.65 162.881 238.962C171.875 235.486 180.392 231.16 189.685 228.455C210.584 222.151 231.733 228.302 250.595 237.7C260.879 242.882 270.847 248.776 280.816 254.67C289.615 259.835 298.592 265.079 307.47 270.065C307.213 270.165 306.956 270.264 306.977 270.699C305.986 270.048 304.817 269.319 303.747 268.846C298.991 266.106 294.413 263.445 289.578 260.883C280.344 255.739 270.873 251.129 260.988 246.974C243.358 239.611 224.448 234.662 205.234 234.26C195.715 234.099 186.26 235.243 176.946 237.513C167.454 239.705 158.004 242.767 148.433 245.136C128.934 249.718 109.048 249.872 89.267 252.2C75.5585 253.806 61.4776 256.738 49.0272 262.731C49.3629 262.453 49.7772 261.998 50.1129 261.72C52.2842 259.7 54.5342 257.501 56.7055 255.481C63.4815 251.238 70.3202 248.299 77.3791 246.31ZM73.4741 228.62C75.2528 220.254 75.6261 211.692 75.3858 203.072C75.02 191.842 73.3483 180.674 71.4197 169.605C69.5697 158.358 67.4628 147.21 66.3051 135.843C65.3257 124.555 65.0385 113.147 67.2056 101.972C68.5332 95.1087 70.7522 88.6393 73.6844 82.4851C75.7929 79.1596 78.0797 75.913 80.3665 72.6663C79.5588 74.0123 78.8506 75.6151 78.2212 77.0397C75.6824 82.3036 73.9355 87.7044 72.5452 93.2628C69.8641 104.636 69.3017 116.52 69.8668 128.264C70.5314 140.264 72.1453 152.046 73.8589 164.084C75.4728 175.865 77.008 187.825 77.0591 199.767C77.0843 209.356 76.0606 218.908 73.8885 228.165C73.8885 228.165 73.5528 228.442 73.4741 228.62ZM75.8497 229.031C76.3218 227.963 76.7152 227.073 77.1873 226.004C82.3385 213.38 84.4796 199.853 84.7014 186.328C85.0386 171.578 83.1995 156.93 81.7957 142.261C80.3919 127.593 79.0668 112.747 80.3742 98.2118C80.9886 91.0335 82.2952 83.7353 84.3149 76.7522C84.6088 75.6049 85.1595 74.3583 85.4533 73.211C84.6347 77.9577 84.5293 83.0196 84.6808 87.9821C84.9738 94.0713 85.8804 100.219 86.6086 106.288C87.3578 112.791 88.107 119.295 88.6779 125.72C89.8984 138.392 90.6836 151.084 90.9549 163.975C91.2052 176.431 90.5851 188.928 87.7676 201.092C85.1811 210.805 81.3675 220.401 75.8497 229.031ZM189.91 185.984C203.294 181.255 217.197 178.245 231.262 176.797C245.762 175.328 260.524 175.677 274.935 177.787C290.83 179.914 306.452 183.624 322.053 186.898C334.922 189.604 348.127 192.032 361.169 192.899C358.043 193.221 354.918 193.543 351.692 193.608C344.114 193.878 336.615 193.971 329.095 193.628C313.976 193.121 298.637 191.665 283.555 190.11C269.008 188.791 254.718 187.373 240.212 186.924C226.32 186.533 212.292 186.934 198.505 188.718C186.024 190.44 173.862 193.368 162.141 198.193C171.072 193.412 180.381 189.224 189.91 185.984ZM336.09 204.807C321.972 208.786 307.435 211.303 292.735 212.258C277.343 213.333 261.868 212.668 246.628 211.469C231.211 210.192 215.851 208.301 200.512 206.845C185.173 205.389 169.655 203.854 154.242 204.495C154.678 204.474 155.013 204.197 155.449 204.176C162.591 203.926 169.813 203.498 176.955 203.248C184.711 203.057 192.488 203.3 200.444 203.622C216.176 204.188 231.93 205.188 247.583 205.932C262.367 206.716 277.486 207.223 292.306 206.96C306.512 206.638 320.777 205.704 334.978 203.464C339.824 202.625 344.926 201.687 349.673 200.591C345.126 202.201 340.658 203.632 336.09 204.807ZM160.253 202.467C164.642 201.214 169.21 200.039 173.699 199.043C183.883 196.731 193.931 195.211 204.457 194.54C216.031 193.906 227.568 194.321 239.126 195.171C261.55 196.99 283.9 200.905 306.382 202.111C313.031 202.494 319.838 202.522 326.645 202.549C316.676 203.892 306.586 204.542 296.653 204.837C281.933 205.357 267.171 205.007 252.566 204.301C236.912 203.558 221.337 202.636 205.783 202.15C190.585 201.821 175.309 201.67 160.253 202.467ZM359.653 195.848C358.704 196.067 357.754 196.286 356.726 196.683C342.31 199.892 327.175 200.868 312.491 200.34C290.031 199.569 267.78 195.911 245.513 193.736C234.113 192.53 222.476 191.859 211.059 192.136C200.513 192.372 190.187 193.557 179.903 195.611C172.645 197.087 165.487 198.82 158.349 200.988C163.389 198.745 168.785 196.659 174.203 195.008C180.826 193.039 187.471 191.505 194.315 190.485C208.081 188.266 222.109 187.865 236.001 188.256C250.328 188.626 264.697 189.866 278.987 191.284C294.069 192.84 309.073 194.573 324.113 195.258C337.234 195.947 350.57 195.666 363.686 194.437C362.579 195.012 361.116 195.43 359.653 195.848Z" fill="#C3D64B"/>
</svg>
