<svg width="100" height="20" viewBox="0 0 100 20" fill="none" xmlns="http://www.w3.org/2000/svg">
<path d="M97.9513 3.47672C98.4129 3.17354 99.0329 3.302 99.3361 3.76363C99.6392 4.22527 99.5108 4.84526 99.0491 5.14843L97.9513 3.47672ZM0.0582375 4.64772C-0.126797 4.12736 0.145041 3.55552 0.665406 3.37048L9.14525 0.355143C9.66561 0.170107 10.2375 0.441945 10.4225 0.962311C10.6075 1.48268 10.3357 2.05452 9.81532 2.23955L2.27769 4.91985L4.95798 12.4575C5.14302 12.9779 4.87118 13.5497 4.35082 13.7347C3.83045 13.9198 3.25861 13.6479 3.07357 13.1276L0.0582375 4.64772ZM99.0491 5.14843C67.1334 26.1088 33.7248 20.9762 0.571111 5.21583L1.42978 3.40954C34.2756 19.0236 66.8665 23.8913 97.9513 3.47672L99.0491 5.14843Z" fill="#113624"/>
</svg>
