<svg width="100" height="26" viewBox="0 0 100 26" fill="none" xmlns="http://www.w3.org/2000/svg">
<path d="M97.7929 0.292858C98.1834 -0.0976658 98.8166 -0.0976658 99.2071 0.292858C99.5976 0.683384 99.5976 1.31655 99.2071 1.70707L97.7929 0.292858ZM0.0791383 14.058C-0.136192 13.5494 0.101533 12.9626 0.61011 12.7473L8.89787 9.23826C9.40644 9.02293 9.99329 9.26065 10.2086 9.76923C10.4239 10.2778 10.1862 10.8647 9.67764 11.08L2.31075 14.1991L5.42987 21.566C5.6452 22.0746 5.40747 22.6614 4.8989 22.8767C4.39032 23.0921 3.80347 22.8543 3.58814 22.3458L0.0791383 14.058ZM99.2071 1.70707C85.072 15.8422 70.3674 23.1343 54.1665 24.829C37.9983 26.5203 20.4473 22.625 0.624546 14.595L1.37545 12.7413C21.0527 20.7123 38.2517 24.4829 53.9585 22.8399C69.6326 21.2002 83.928 14.1577 97.7929 0.292858L99.2071 1.70707Z" fill="#113624"/>
</svg>
