<svg width="56" height="64" viewBox="0 0 56 64" fill="none" xmlns="http://www.w3.org/2000/svg">
<path d="M27.7128 0L55.4256 16V48L27.7128 64L0 48V16L27.7128 0Z" fill="#113624"/>
<path d="M26.64 25C27.8533 25 28.9067 25.2 29.8 25.6C30.7067 26 31.4 26.5733 31.88 27.32C32.36 28.0667 32.6 28.9533 32.6 29.98C32.6 30.9933 32.36 31.88 31.88 32.64C31.4 33.3867 30.7067 33.96 29.8 34.36C28.9067 34.76 27.8533 34.96 26.64 34.96H23.48V39H20.88V25H26.64ZM26.52 32.76C27.6533 32.76 28.5133 32.52 29.1 32.04C29.6867 31.56 29.98 30.8733 29.98 29.98C29.98 29.0867 29.6867 28.4 29.1 27.92C28.5133 27.44 27.6533 27.2 26.52 27.2H23.48V32.76H26.52Z" fill="white"/>
</svg>
