<svg width="108" height="46" viewBox="0 0 108 46" fill="none" xmlns="http://www.w3.org/2000/svg">
<path d="M106.625 8.42698C107.137 8.6342 107.72 8.38717 107.927 7.87523C108.134 7.36329 107.887 6.7803 107.375 6.57309L106.625 8.42698ZM3.02958 44.4102C3.16291 44.9462 3.70547 45.2725 4.24142 45.1392L12.9752 42.9664C13.5112 42.8331 13.8375 42.2905 13.7042 41.7546C13.5709 41.2186 13.0283 40.8922 12.4924 41.0256L4.729 42.9569L2.79763 35.1936C2.66429 34.6576 2.12173 34.3312 1.58578 34.4646C1.04984 34.5979 0.723451 35.1405 0.856785 35.6764L3.02958 44.4102ZM107.375 6.57309C96.7238 2.26181 78.4751 -1.40732 58.9801 2.46608C39.4439 6.34766 18.6962 17.7989 3.1431 43.6533L4.8569 44.6843C20.1038 19.3387 40.3561 8.20553 59.3699 4.42774C78.4249 0.641771 96.2762 4.23827 106.625 8.42698L107.375 6.57309Z" fill="#113624"/>
</svg>
