<svg width="44" height="54" fill="none" xmlns="http://www.w3.org/2000/svg"><path stroke="#C3D64B" stroke-width="2" stroke-linejoin="round" d="M4 1h36v8H4z"/><path stroke="#C3D64B" stroke-width="2" stroke-linejoin="round" d="M4 1h36v8H4z"/><mask id="path-3-outside-1_108_2384" maskUnits="userSpaceOnUse" x="0" y="8" width="44" height="38" fill="#000"><path fill="#fff" d="M0 8h44v38H0z"/><path d="M5 10h34s3 8 3 17-3 17-3 17H5s-3-8-3-17 3-17 3-17z"/></mask><path d="M5 10V8a2 2 0 00-1.873 1.298L5 10zm34 0l1.873-.702A2 2 0 0039 8v2zm0 34v2a2 2 0 001.873-1.298L39 44zM5 44l-1.873.702A2 2 0 005 46v-2zm0-32h34V8H5v4zm34 30H5v4h34v-4zm0-32l-1.873.702V10.7v.002l.005.011a10.17 10.17 0 01.108.303c.076.22.187.55.322.976.269.853.63 2.088.993 3.599C39.283 18.623 40 22.708 40 27h4c0-4.708-.783-9.123-1.555-12.342a57.612 57.612 0 00-1.07-3.87 40.671 40.671 0 00-.49-1.456l-.008-.023a.645.645 0 01-.004-.01L39 10zm1 17c0 4.292-.717 8.377-1.445 11.408a53.586 53.586 0 01-.993 3.6 36.753 36.753 0 01-.43 1.277l-.005.012v.002L39 44l1.873.702V44.7l.001-.002a.353.353 0 01.011-.03 18.874 18.874 0 00.133-.373c.088-.253.211-.619.358-1.083.293-.929.681-2.256 1.069-3.87C43.217 36.123 44 31.708 44 27h-4zM5 44l1.873-.702v-.001l-.005-.011a9.073 9.073 0 01-.107-.303c-.077-.22-.188-.55-.323-.976a53.605 53.605 0 01-.993-3.599C4.717 35.377 4 31.292 4 27H0c0 4.708.783 9.123 1.555 12.342a57.592 57.592 0 001.07 3.87 40.77 40.77 0 00.49 1.456l.008.023a.84.84 0 01.004.01L5 44zM4 27c0-4.292.717-8.377 1.445-11.408.362-1.51.724-2.746.993-3.6a36.649 36.649 0 01.43-1.278l.005-.011V10.7L5 10a466.67 466.67 0 00-1.873-.7l-.001.002-.003.007-.008.023a13.935 13.935 0 00-.133.373c-.088.253-.211.619-.358 1.083a57.592 57.592 0 00-1.069 3.87C.783 17.877 0 22.292 0 27h4z" fill="#C3D64B" mask="url(#path-3-outside-1_108_2384)"/><path d="M9 4a1 1 0 00-2 0h2zM7 6a1 1 0 002 0H7zm0-2v2h2V4H7zm6 0a1 1 0 10-2 0h2zm-2 2a1 1 0 102 0h-2zm0-2v2h2V4h-2zm6 0a1 1 0 10-2 0h2zm-2 2a1 1 0 102 0h-2zm0-2v2h2V4h-2zm6 0a1 1 0 10-2 0h2zm-2 2a1 1 0 102 0h-2zm0-2v2h2V4h-2zm6 0a1 1 0 10-2 0h2zm-2 2a1 1 0 102 0h-2zm0-2v2h2V4h-2zm6 0a1 1 0 10-2 0h2zm-2 2a1 1 0 102 0h-2zm0-2v2h2V4h-2zm6 0a1 1 0 10-2 0h2zm-2 2a1 1 0 102 0h-2zm0-2v2h2V4h-2zm6 0a1 1 0 10-2 0h2zm-2 2a1 1 0 102 0h-2zm0-2v2h2V4h-2z" fill="#C3D64B"/><path stroke="#C3D64B" stroke-width="2" stroke-linejoin="round" d="M4 45h36v8H4z"/><path stroke="#C3D64B" stroke-width="2" stroke-linejoin="round" d="M4 45h36v8H4z"/><path d="M9 48a1 1 0 10-2 0h2zm-2 2a1 1 0 102 0H7zm0-2v2h2v-2H7zm6 0a1 1 0 10-2 0h2zm-2 2a1 1 0 102 0h-2zm0-2v2h2v-2h-2zm6 0a1 1 0 10-2 0h2zm-2 2a1 1 0 102 0h-2zm0-2v2h2v-2h-2zm6 0a1 1 0 10-2 0h2zm-2 2a1 1 0 102 0h-2zm0-2v2h2v-2h-2zm6 0a1 1 0 10-2 0h2zm-2 2a1 1 0 102 0h-2zm0-2v2h2v-2h-2zm6 0a1 1 0 10-2 0h2zm-2 2a1 1 0 102 0h-2zm0-2v2h2v-2h-2zm6 0a1 1 0 10-2 0h2zm-2 2a1 1 0 102 0h-2zm0-2v2h2v-2h-2zm6 0a1 1 0 10-2 0h2zm-2 2a1 1 0 102 0h-2zm0-2v2h2v-2h-2z" fill="#C3D64B"/><path fill-rule="evenodd" clip-rule="evenodd" d="M22 14a3 3 0 013 2.998c.187-.233.368-.436.536-.605a4.998 4.998 0 011.232-.903A5 5 0 0017 17c0 1.66.81 4.941 2.056 7.292a4 4 0 004.194 6.509c.147.289.293.604.435.941.84 2.003 1.308 4.232 1.308 5.262a3 3 0 01-6 0v-.001c1.12-1.392 2.498-3.827 3.167-6.006a4.003 4.003 0 01-1.964-.421c-.1.308-.22.633-.358.972-.821 2.01-2.067 3.917-2.795 4.645a3 3 0 01-4.243-4.241 7.604 7.604 0 01-.807.049 4.996 4.996 0 01-1.51-.232 5.002 5.002 0 006.742 6.743 5.002 5.002 0 009.536.003 5.002 5.002 0 006.745-6.74 5.002 5.002 0 00.004-9.537 5.002 5.002 0 00-7.974-5.841c-1.174 1.173-2.92 4.064-3.702 6.606a4.01 4.01 0 00-1.091.198 13.984 13.984 0 01-.434-.94C19.467 20.26 19 18.03 19 17a3 3 0 013-3zm1.798 9.426c.334.168.641.382.913.633 2.014-1.066 4.707-1.813 6.481-2.005a3 3 0 00-4.242-4.243c-.728.728-1.974 2.635-2.795 4.645a13.94 13.94 0 00-.357.97zm2.002 2.321c.114.346.182.713.197 1.093 2.177.67 4.61 2.047 6 3.165h.002a3 3 0 000-6c-1.03 0-3.26.468-5.261 1.309-.337.141-.65.286-.938.433zm-.229 3.056c-.168.333-.382.64-.633.911 1.067 2.014 1.814 4.709 2.006 6.483l.001.001a3 3 0 104.243-4.242c-.729-.729-2.635-1.974-4.646-2.796a13.94 13.94 0 00-.97-.357zM12.805 17.806a3 3 0 014.242-.001 7.606 7.606 0 01-.05-.807 5 5 0 01.233-1.51 5.002 5.002 0 00-5.839 7.975c1.174 1.174 4.066 2.921 6.61 3.702a4.004 4.004 0 01.422-1.964c-.308-.1-.634-.22-.972-.357-2.01-.822-3.918-2.067-4.646-2.795a3 3 0 010-4.243zm-3.81 9.192a3 3 0 012.999-3 7.612 7.612 0 01-.605-.535 5 5 0 01-.904-1.232 5.002 5.002 0 001.51 9.767c1.66 0 4.941-.81 7.292-2.055a4.004 4.004 0 01-1.09-1.688 13.7 13.7 0 01-.94.435c-2.003.84-4.232 1.308-5.262 1.308a3 3 0 01-3-3zM24 27a2 2 0 11-4 0 2 2 0 014 0z" fill="#C3D64B"/></svg>