<svg width="53" height="53" fill="none" xmlns="http://www.w3.org/2000/svg"><path fill-rule="evenodd" clip-rule="evenodd" d="M43.834 45.248l-5.667-5.667A13.946 13.946 0 0129 43c-7.732 0-14-6.268-14-14 0-1.855.36-3.625 1.016-5.244A5.489 5.489 0 0114 19.5c0-1.157.358-2.232.969-3.118L2.349 3.764c.431 4.23 1.284 11.334 2.73 18.59.923 4.64 2.08 9.293 3.505 13.275 1.444 4.037 3.084 7.152 4.86 8.927 8.354 8.355 21.757 8.585 30.39.692zm1.415 1.415c-9.415 8.674-24.084 8.443-33.22-.692C3.64 37.58.631 7.373.093 1.133a.948.948 0 011.04-1.04C7.373.63 37.58 3.638 45.971 12.028c9.135 9.136 9.366 23.804.692 33.22l6.044 6.044a1 1 0 01-1.414 1.414l-6.044-6.044zm-.001-2.83c7.893-8.633 7.663-22.035-.692-30.39-1.775-1.775-4.89-3.415-8.927-4.86-3.982-1.424-8.634-2.581-13.274-3.505C15.099 3.633 7.993 2.78 3.765 2.35l12.618 12.618A5.475 5.475 0 0119.5 14c1.715 0 3.247.785 4.256 2.015A13.96 13.96 0 0129 15c7.732 0 14 6.268 14 14 0 3.506-1.289 6.711-3.418 9.167l5.666 5.666zm-7.305-6.831a11.3 11.3 0 00.269-.311 5.378 5.378 0 01-1.547-.026c.084.513.092 1.034.026 1.547.105-.088.209-.178.31-.27a.996.996 0 01.942-.94zM21.887 16.939a3.5 3.5 0 00-4.947 4.947 14.07 14.07 0 014.947-4.947zm18.247 16.547c.207-.514.38-1.045.515-1.59a3.501 3.501 0 01-.269-6.713c-1.497-4.466-5.55-7.76-10.42-8.145a3.5 3.5 0 01-6.447 1.287c-.812.418-1.57.927-2.262 1.512l13.456 13.456.465.464a3.336 3.336 0 004.962-.271zM19.837 21.25l13.454 13.454.002.002.465.465a3.337 3.337 0 01-.272 4.961 11.93 11.93 0 01-1.59.515 3.501 3.501 0 00-6.713-.268c-4.466-1.497-7.76-5.55-8.145-10.421a3.501 3.501 0 001.287-6.446c.419-.812.927-1.57 1.512-2.262zm10.066 19.716a1.5 1.5 0 00-2.758-.11 12.09 12.09 0 002.758.11zM17.05 27.896a11.96 11.96 0 01.493-2.474 1.5 1.5 0 01-.492 2.474zm8.372-10.353a1.5 1.5 0 002.474-.492c-.854.077-1.681.244-2.474.492zM40 28.5a1.5 1.5 0 00.967 1.402 12.195 12.195 0 00-.11-2.758A1.5 1.5 0 0040 28.5zm-6-5a1.5 1.5 0 11-3 0 1.5 1.5 0 013 0zm2 0a3.5 3.5 0 11-7 0 3.5 3.5 0 017 0zM19 11a1 1 0 100-2 1 1 0 000 2zm0 2a3 3 0 100-6 3 3 0 000 6zm-9 7a1 1 0 100-2 1 1 0 000 2zm0 2a3 3 0 100-6 3 3 0 000 6zm15 10.5a1.5 1.5 0 11-3 0 1.5 1.5 0 013 0zm2 0a3.5 3.5 0 11-7 0 3.5 3.5 0 017 0z" fill="#C3D64B"/></svg>