<svg width="56" height="56" fill="none" xmlns="http://www.w3.org/2000/svg"><path fill-rule="evenodd" clip-rule="evenodd" d="M29.092 8.073C29.718 7.221 30 6.506 30 6s-.282-1.221-.908-2.074c-.342-.465-.73-.894-1.092-1.258-.363.364-.751.793-1.093 1.258C26.28 4.78 26 5.494 26 6c0 .506.28 1.221.907 2.073.342.466.73.895 1.093 1.258.362-.363.75-.792 1.092-1.258zm-.515 3.452C29.685 10.564 32 8.282 32 6c0-2.282-2.314-4.564-3.422-5.525a.873.873 0 00-1.155 0C26.314 1.436 24 3.718 24 6c0 2.282 2.314 4.564 3.422 5.525a.873.873 0 001.155 0zM6 8a2 2 0 100-4 2 2 0 000 4zm0 2a4 4 0 100-8 4 4 0 000 8zm44-2a2 2 0 100-4 2 2 0 000 4zm0 2a4 4 0 100-8 4 4 0 000 8zm-35.538 3.048c1.14.287 2.373.621 3.572.991 1.309.404 2.539.838 3.549 1.286 1.061.47 1.685.873 1.952 1.14a5.002 5.002 0 01.636 6.293l-2.172-2.172V17a1 1 0 10-2 0v1.586l-5.537-5.538zm9.73 12.559a7.002 7.002 0 01-9.142-.657c-2.156-2.156-4.052-10.207-4.758-13.516a.956.956 0 011.142-1.141c3.309.706 11.36 2.602 13.515 4.757a7.001 7.001 0 01.657 9.142l1.1 1.1a1 1 0 11-1.414 1.415l-1.1-1.1zm-1.435-1.435L20.584 22H17a1 1 0 110-2h1.585l-5.537-5.538c.287 1.141.62 2.374.99 3.573.404 1.308.839 2.538 1.287 3.548.47 1.062.872 1.686 1.139 1.952a5.002 5.002 0 006.293.637zm-4.721 17.792c-1.2.37-2.432.704-3.573.99L20 37.418v1.586a1 1 0 102 0v-3.586l2.171-2.172a5.002 5.002 0 01-.636 6.293c-.267.267-.89.669-1.952 1.14-1.01.447-2.24.882-3.548 1.286zM15.05 31.053a7.002 7.002 0 019.142-.657l1.1-1.1a1 1 0 011.415 1.414l-1.1 1.1a7.002 7.002 0 01-.658 9.142c-2.155 2.156-10.206 4.052-13.515 4.758a.956.956 0 01-1.142-1.142c.706-3.309 2.602-11.36 4.758-13.515zm5.535 2.95l2.172-2.172a5.002 5.002 0 00-6.293.636c-.267.267-.669.89-1.14 1.952-.447 1.01-.882 2.24-1.285 3.549a71.115 71.115 0 00-.991 3.572l5.537-5.537H17a1 1 0 110-2h3.585zm17.38 7.96c1.198.37 2.431.705 3.572.992L36 37.416v1.586a1 1 0 11-2 0v-3.586l-2.171-2.172a5.002 5.002 0 00.636 6.293c.267.267.89.669 1.952 1.14 1.01.447 2.24.882 3.549 1.286zm2.984-10.91a7.002 7.002 0 00-9.142-.657l-1.1-1.1a1 1 0 00-1.415 1.414l1.1 1.1a7.002 7.002 0 00.658 9.142c2.155 2.156 10.206 4.052 13.515 4.758a.956.956 0 001.142-1.142c-.706-3.309-2.602-11.36-4.758-13.515zm-5.535 2.95l-2.172-2.172a5.002 5.002 0 016.293.636c.267.267.669.89 1.14 1.952.447 1.01.882 2.24 1.286 3.549.37 1.199.703 2.431.99 3.572l-5.537-5.537h1.585a1 1 0 100-2h-3.585zm2.55-19.964a71.006 71.006 0 013.573-.99L36 18.585V17a1 1 0 10-2 0v3.586l-2.171 2.172a5.002 5.002 0 01.636-6.294c.267-.266.89-.668 1.952-1.139 1.01-.448 2.24-.882 3.549-1.286zm2.985 10.91a7.002 7.002 0 01-9.142.658l-1.1 1.1a1 1 0 01-1.415-1.414l1.1-1.1a7.002 7.002 0 01.658-9.143c2.155-2.155 10.206-4.052 13.515-4.757a.956.956 0 011.142 1.141c-.706 3.31-2.602 11.36-4.758 13.516zM35.414 22l-2.172 2.173a5.002 5.002 0 006.293-.637c.267-.266.669-.89 1.14-1.952.447-1.01.882-2.24 1.286-3.548.37-1.2.703-2.432.99-3.573L37.414 20h1.585a1 1 0 110 2h-3.585zm16.585 28A2 2 0 1148 50a2 2 0 014 0zm2 0a4 4 0 11-8 0 4 4 0 018 0zM8 50a2 2 0 11-4 0 2 2 0 014 0zm2 0a4 4 0 11-8 0 4 4 0 018 0zM8.073 26.908C7.221 26.281 6.505 26 6 26c-.505 0-1.22.281-2.073.907-.465.342-.895.73-1.258 1.093.363.363.793.75 1.258 1.093C4.778 29.719 5.494 30 6 30c.505 0 1.22-.281 2.073-.907.465-.342.895-.73 1.258-1.093-.363-.363-.793-.75-1.258-1.093zm3.452.515C10.563 26.314 8.28 24 5.999 24c-2.281 0-4.563 2.314-5.525 3.422a.874.874 0 000 1.156C1.436 29.686 3.718 32 6 32c2.281 0 4.563-2.314 5.525-3.422a.874.874 0 000-1.156zM49.999 26c.506 0 1.222.281 2.074.907.465.342.895.73 1.258 1.093-.363.363-.793.75-1.258 1.093-.852.626-1.568.907-2.074.907-.505 0-1.22-.281-2.073-.907-.465-.342-.895-.73-1.258-1.093.363-.363.793-.75 1.258-1.093.852-.626 1.568-.907 2.073-.907zm0-2c2.282 0 4.564 2.314 5.526 3.422a.874.874 0 010 1.156C54.563 29.686 52.28 32 49.999 32c-2.281 0-4.563-2.314-5.525-3.422a.874.874 0 010-1.156C45.436 26.314 47.718 24 50 24zM30 50c0 .506-.28 1.221-.907 2.074-.342.465-.73.894-1.092 1.258a11.283 11.283 0 01-1.093-1.258C26.28 51.22 26 50.506 26 50c0-.506.28-1.221.907-2.074.342-.465.73-.895 1.093-1.258.362.364.75.793 1.092 1.258.626.853.908 1.568.908 2.074zm2 0c0 2.282-2.314 4.564-3.422 5.525a.873.873 0 01-1.155 0C26.314 54.564 24 52.282 24 50c0-2.282 2.314-4.564 3.422-5.526a.874.874 0 011.155 0C29.685 45.437 32 47.718 32 50z" fill="#C3D64B"/></svg>