<svg width="62" height="62" fill="none" xmlns="http://www.w3.org/2000/svg"><path fill-rule="evenodd" clip-rule="evenodd" d="M19.8 29c1.8-3.8 6.4-5.4 15-5.4C47.2 23.6 51 25.8 51 33c0 9.2-6.8 23-16.2 23-2.8 0-5.4-1.2-8-3.2l-3.2 3.6c3.4 3 7.2 4.4 11 4.4 12.8 0 21-16.4 21-27.8 0-10.6-7-13.4-15-14 2.6-.6 5.2-2 7.6-3.8l-2.8-3.8c-2.6 2-5 3-7.6 3.4.4-4.4 2.6-7.8 6.6-10.8L42 0c-5.2 3.8-8 8.6-8.6 14.4-2.2-.6-4.2-1.8-6.4-3.6l-3.2 3.8c2.6 2.2 5.2 3.6 7.8 4.4-6.4.4-13.2 2-16 8-.8 1.8-1.4 3.8-1.4 6l4.8.2c0-1.6.4-3 .8-4.2zM6 49h7.6v7.6h4.8V49h7.4v-4.8h-7.4v-7.4h-4.8v7.4H6V49zm39.6-18.2h4.8v5.4h-4.8v-5.4zm-5.6 0h-4.8v5.4H40v-5.4zm-15 0h4.8v5.4H25v-5.4zm9.6 11.4h-4.8v5.4h4.8v-5.4zm5.2 0h4.8v5.4h-4.8v-5.4z" fill="#C3D64B"/></svg>