<svg width="62" height="62" fill="none" xmlns="http://www.w3.org/2000/svg"><path fill-rule="evenodd" clip-rule="evenodd" d="M31.4 11.6l5.8 5.6-2.8 2.8-10.2-10 10.2-9L37 4l-4.2 3.8c7.4.6 14 4.8 18 11.2l-3.4 2c-3.6-5.6-9.6-9.2-16-9.4zm-1.6 39.6L25 45.4l3-2.6 8.6 10.4-10 8.8-2.6-3 4.6-3.8c-8.2-.8-15.8-5.8-19.4-13.4l3.6-1.8c3 6.6 9.8 11 17 11.2zM44.4 37l6-5c-.4 7-4.4 13.6-11 17l1.8 3.6c7.4-3.8 12-10.8 12.8-18.8l3.8 4.2 3-2.6-8.8-10L41.8 34l2.6 3zM9 37.8L0 27.6 2.8 25l4 4.4c.8-7.8 5.2-15 12.2-18.6l2 3.4c-6 3.4-9.8 9.6-10.2 16.2l5.4-5.6 2.8 2.8L9 37.8z" fill="#C3D64B"/></svg>