<svg width="31" height="31" fill="none" xmlns="http://www.w3.org/2000/svg"><path fill-rule="evenodd" clip-rule="evenodd" d="M15.191 2.107a.5.5 0 01.618 0l14 11a.5.5 0 11-.618.786L27 12.172V26.5a2.5 2.5 0 01-2.5 2.5h-18A2.5 2.5 0 014 26.5V12.172l-2.191 1.721a.5.5 0 01-.618-.786l14-11zm.309 1.029l10.511 8.259A.508.508 0 0026 11.5v15a1.5 1.5 0 01-1.5 1.5h-18A1.5 1.5 0 015 26.5V12a.5.5 0 00-.238-.427L15.5 3.136zM16 16.5a.5.5 0 10-1 0v8a.5.5 0 001 0v-8z" fill="#fff"/><path d="M19.5 17.5a4 4 0 01-8 0c0-.363.126-.856.368-1.448.24-.583.575-1.224.957-1.87.763-1.294 1.687-2.575 2.322-3.416a.436.436 0 01.706 0c.635.84 1.56 2.122 2.322 3.415.382.647.718 1.288.957 1.871.242.592.368 1.085.368 1.448z" stroke="#fff"/></svg>