<svg width="40" height="40" fill="none" xmlns="http://www.w3.org/2000/svg"><circle cx="20" cy="20" r="19.5" stroke="#C3D64B"/><mask id="path-2-inside-1_108_1124" fill="#fff"><path d="M27.142 18.285l-9.113-5.468c-1.333-.8-3.029.16-3.029 1.715v10.936c0 1.554 1.696 2.514 3.029 1.715l9.113-5.468c1.294-.777 1.294-2.653 0-3.43z"/></mask><path d="M18.029 12.817l.515-.857-.515.857zm9.113 5.468l.514-.858-.514.858zm0 3.43l-.515-.857.515.857zm-9.113 5.468l-.514-.858.514.858zm.515-15.223l9.112 5.467-1.029 1.715-9.112-5.467 1.029-1.715zm9.112 10.613l-9.112 5.467-1.03-1.715 9.113-5.467 1.03 1.715zM16 14.533v10.935h-2V14.532h2zm2.544 13.507c-2 1.2-4.544-.24-4.544-2.572h2a1 1 0 001.515.857l1.029 1.715zm9.112-10.613c1.942 1.166 1.942 3.98 0 5.146l-1.029-1.715a1 1 0 000-1.716l1.03-1.715zm-10.141-3.752a1 1 0 00-1.515.857h-2c0-2.332 2.544-3.772 4.544-2.572l-1.03 1.715z" fill="#C3D64B" mask="url(#path-2-inside-1_108_1124)"/></svg>