<svg width="48" height="48" fill="none" xmlns="http://www.w3.org/2000/svg"><path d="M3 33a1 1 0 100 2v-2zm10 1l.996-.09A1 1 0 0013 33v1zm23 0v-1a1 1 0 00-1 1h1zm9 1a1 1 0 100-2v2zM3 35h10v-2H3v2zm10-1c-.996.09-.996.091-.996.092v.004a.36.36 0 00.005.042l.012.109a15.115 15.115 0 00.338 1.721 15.73 15.73 0 001.655 4.04C15.784 43.006 19.084 46 25 46v-2c-5.083 0-7.785-2.505-9.264-5.009a13.733 13.733 0 01-1.44-3.522 13.133 13.133 0 01-.29-1.469 5.108 5.108 0 01-.008-.075l-.002-.015a.034.034 0 000-.002c0 .001 0 .002-.996.092zm12 12c2.925 0 5.185-.734 6.914-1.887 1.723-1.148 2.859-2.672 3.605-4.166.745-1.49 1.113-2.967 1.296-4.064a14.498 14.498 0 00.182-1.726 6.39 6.39 0 00.002-.11v-.031l.001-.01v-.004C37 34 37 34 36 34h-1v-.002.017a5.712 5.712 0 01-.019.386c-.02.275-.06.673-.14 1.153-.16.966-.48 2.238-1.11 3.499-.629 1.256-1.555 2.482-2.926 3.396C29.44 43.36 27.575 44 25 44v2zm11-11h9v-2h-9v2z" fill="#C3D64B"/><path d="M19 34v1m12 1v1m-4-5v1m-5-5v1m3 10v1" stroke="#C3D64B" stroke-width="2" stroke-linecap="round" stroke-linejoin="round"/><path fill-rule="evenodd" clip-rule="evenodd" d="M10 9H3a1 1 0 010-2h7.29c.86-2.891 3.539-5 6.71-5h13a2 2 0 012 2c0 .729-.195 1.412-.535 2H39a3 3 0 012.79 4.105 3.001 3.001 0 010 5.79A3 3 0 0139 20h-1.17A3 3 0 0135 24H16a6.003 6.003 0 01-5.659-4H3a1 1 0 110-2h7v-1a1 1 0 112 0v1a4 4 0 004 4h19a1 1 0 100-2h-8a1 1 0 110-2h12a1 1 0 100-2H29a1 1 0 110-2h12a1 1 0 100-2H29a1 1 0 110-2h10a1 1 0 100-2H25a6 6 0 01-6 6h-1a1 1 0 110-2h1a4 4 0 004-4V7a1 1 0 011-1h4a2 2 0 002-2H17a5 5 0 00-5 5v1a1 1 0 11-2 0V9z" fill="#C3D64B"/></svg>