<svg width="48" height="48" fill="none" xmlns="http://www.w3.org/2000/svg"><path fill-rule="evenodd" clip-rule="evenodd" d="M24 44c11.046 0 20-8.954 20-20S35.046 4 24 4 4 12.954 4 24s8.954 20 20 20zm0 2c12.15 0 22-9.85 22-22S36.15 2 24 2 2 11.85 2 24s9.85 22 22 22zm0-7c8.284 0 15-6.716 15-15 0-8.284-6.716-15-15-15-8.284 0-15 6.716-15 15 0 8.284 6.716 15 15 15zm0 2c9.389 0 17-7.611 17-17S33.389 7 24 7 7 14.611 7 24s7.611 17 17 17zm7.778-26.192a1 1 0 011.415 1.414l-.708.707a1 1 0 01-1.414-1.414l.707-.707zM15.515 31.07a1 1 0 011.414 1.414l-.707.708a1 1 0 01-1.414-1.415l.707-.707zm.707-16.263a1 1 0 00-1.414 1.414l.707.707a1 1 0 001.414-1.414l-.707-.707zM32.485 31.07a1 1 0 10-1.414 1.414l.707.707a1 1 0 001.415-1.414l-.708-.707zM11 24a1 1 0 011-1h1a1 1 0 110 2h-1a1 1 0 01-1-1zm23 0a1 1 0 011-1h1a1 1 0 110 2h-1a1 1 0 01-1-1zm-9-12a1 1 0 10-2 0v1a1 1 0 102 0v-1zm-2 23v1a1 1 0 102 0v-1a1 1 0 10-2 0zm1-9a2 2 0 001.932-2.518l3.775-3.775a1 1 0 00-1.414-1.414l-3.775 3.775a2.006 2.006 0 00-1.036 0l-1.775-1.775a1 1 0 00-1.414 1.414l1.775 1.775A2 2 0 0024 26z" fill="#C3D64B"/></svg>