<svg width="48" height="48" fill="none" xmlns="http://www.w3.org/2000/svg"><path fill-rule="evenodd" clip-rule="evenodd" d="M3 9h7v1a1 1 0 102 0V9a5 5 0 015-5h13a2 2 0 01-2 2h-4a1 1 0 00-1 1v1a4 4 0 01-4 4h-1a1 1 0 100 2h1a6 6 0 006-6h14a1 1 0 110 2H29a1 1 0 100 2h12a1 1 0 110 2H29a1 1 0 100 2h10a1 1 0 110 2H27a1 1 0 100 2h8a1 1 0 110 2H16a4 4 0 01-4-4v-1a1 1 0 10-2 0v1H3a1 1 0 100 2h7.341c.824 2.33 3.047 4 5.659 4h19a3 3 0 002.83-4H39a3 3 0 002.79-4.105 3.001 3.001 0 000-5.79A3 3 0 0039 6h-7.535c.34-.588.535-1.271.535-2a2 2 0 00-2-2H17a7.003 7.003 0 00-6.71 5H3a1 1 0 000 2zm20 19a1 1 0 10-2 0v1a1 1 0 102 0v-1zm4 3a1 1 0 011 1v1a1 1 0 11-2 0v-1a1 1 0 011-1zm-8 2a1 1 0 011 1v1a1 1 0 11-2 0v-1a1 1 0 011-1zM2 45a1 1 0 011-1h42a1 1 0 110 2H3a1 1 0 01-1-1zm30-9a1 1 0 10-2 0v1a1 1 0 102 0v-1zm-7 2a1 1 0 011 1v1a1 1 0 11-2 0v-1a1 1 0 011-1z" fill="#C3D64B"/></svg>