<svg width="48" height="48" fill="none" xmlns="http://www.w3.org/2000/svg"><path fill-rule="evenodd" clip-rule="evenodd" d="M29.793 6.207a6.778 6.778 0 00-9.373-.203l9.576 9.577a6.778 6.778 0 00-.203-9.374zm1.414-1.414a8.778 8.778 0 00-12.203-.204l-.296-.296a1 1 0 00-1.414 0L14.32 7.267a1.098 1.098 0 00-.053.053L2.294 19.293a1 1 0 000 1.414l12.999 13a1 1 0 001.414 0L19.414 31H30a4.992 4.992 0 004.001 2h1a1 1 0 001-1V22a1 1 0 00-1-1h-1a4.992 4.992 0 00-4 2h-2.587l1.293-1.293 3-3a1 1 0 000-1.414l-.296-.296a8.778 8.778 0 00-.204-12.204zM34.001 23a3 3 0 00-3 3v2a3 3 0 003 3v-8zm-8.587 2l-4 4H29v-4h-3.586zm-7.12 4.292L26.586 21 15 9.415 4.415 20 16 31.586l2.292-2.292.002-.002zm10.999-11.585l-.007-.007L18 6.414l-1.586 1.587L28 19.586 29.586 18l-.286-.286-.007-.007zM36 35a1 1 0 10-2 0v1a1 1 0 102 0v-1zm2 5a1 1 0 10-2 0v1a1 1 0 102 0v-1z" fill="#C3D64B"/><path d="M45 45H3m39 0V30" stroke="#C3D64B" stroke-width="2" stroke-linecap="round" stroke-linejoin="round"/><path d="M45 30a3 3 0 11-6 0c0-.226.082-.662.28-1.307.19-.618.46-1.344.773-2.114A77.992 77.992 0 0142 22.253c.58 1.2 1.334 2.82 1.947 4.326.312.77.582 1.496.773 2.114.198.645.28 1.08.28 1.307z" stroke="#C3D64B" stroke-width="2"/></svg>