<svg width="48" height="48" fill="none" xmlns="http://www.w3.org/2000/svg"><path d="M3 45h42M14 9v1m12-2v1m-4-4v1m-5-3v1m3 6v1" stroke="#C3D64B" stroke-width="2" stroke-linecap="round" stroke-linejoin="round"/><path fill-rule="evenodd" clip-rule="evenodd" d="M13 22a6 6 0 016-6h1a6 6 0 016 6H13zm-2 0a8 8 0 018-8h1a8 8 0 018 8 2 2 0 012 2v5.586l3.416-3.417a4 4 0 01.998-3.997l.879-.88a1 1 0 011.414 0l7 7a1 1 0 010 1.415l-.879.879a4 4 0 01-3.997.998L30 40.413V44a2 2 0 01-2 2H11a2 2 0 01-2-2V24a2 2 0 012-2zm26.086 8.5L34.5 27.914l-4.5 4.5v5.172l7.086-7.086zm1.501-1.327a2 2 0 002.827-.001l.172-.172L36 23.414l-.172.172a2 2 0 000 2.828l2.758 2.758h.001zM28 31.999V44H11V29h17v2.999zM27 24H11v3h17v-3h-1z" fill="#C3D64B"/></svg>