<svg width="48" height="48" fill="none" xmlns="http://www.w3.org/2000/svg"><path fill-rule="evenodd" clip-rule="evenodd" d="M33 3a1 1 0 10-2 0v4a1 1 0 102 0V3zm0 22a1 1 0 10-2 0v4a1 1 0 102 0v-4zM23.515 6.1A1 1 0 1022.1 7.516l2.828 2.828a1 1 0 001.414-1.414L23.515 6.1zM39.07 21.658a1 1 0 00-1.414 1.414l2.829 2.828a1 1 0 101.414-1.414l-2.828-2.828zM41.9 6.1a1 1 0 010 1.414l-2.829 2.828a1 1 0 01-1.414-1.414L40.485 6.1a1 1 0 011.415 0zM26.343 21.657a1 1 0 010 1.414L23.515 25.9a1 1 0 01-1.415-1.415l2.829-2.828a1 1 0 011.414 0zM36 16a4 4 0 11-8 0 4 4 0 018 0zm2 0a6 6 0 11-12 0 6 6 0 0112 0zm-20 0a1 1 0 011-1h4a1 1 0 110 2h-4a1 1 0 01-1-1zm22 0a1 1 0 011-1h4a1 1 0 110 2h-4a1 1 0 01-1-1zM2 36a1 1 0 011-1h42a1 1 0 110 2H3a1 1 0 01-1-1zm2 8.5a2.5 2.5 0 015 0v.5a1 1 0 102 0v-.5a2.5 2.5 0 015 0v.5a1 1 0 102 0v-.5a2.5 2.5 0 015 0v.5a1 1 0 102 0v-.5a2.5 2.5 0 015 0v.5a1 1 0 102 0v-.5a2.5 2.5 0 015 0v.5a1 1 0 102 0v-.5a2.5 2.5 0 015 0v.5a1 1 0 102 0v-.5a4.5 4.5 0 00-8-2.829A4.491 4.491 0 0034.5 40a4.491 4.491 0 00-3.5 1.671A4.491 4.491 0 0027.5 40a4.491 4.491 0 00-3.5 1.671A4.491 4.491 0 0020.5 40a4.491 4.491 0 00-3.5 1.671A4.491 4.491 0 0013.5 40a4.491 4.491 0 00-3.5 1.671A4.5 4.5 0 002 44.5v.5a1 1 0 102 0v-.5z" fill="#C3D64B"/></svg>