<svg width="48" height="48" fill="none" xmlns="http://www.w3.org/2000/svg"><path d="M3 45h42" stroke="#C3D64B" stroke-width="2" stroke-linecap="round" stroke-linejoin="round"/><path fill-rule="evenodd" clip-rule="evenodd" d="M13 22a6 6 0 016-6h1a6 6 0 016 6H13zm-2 0a8 8 0 018-8h1a8 8 0 018 8 2 2 0 012 2v5.586l3.416-3.417a4 4 0 01.998-3.997l.879-.88a1 1 0 011.414 0l7 7a1 1 0 010 1.415l-.879.879a4 4 0 01-3.997.998L30 40.413V44a2 2 0 01-2 2H11a2 2 0 01-2-2V29.043a.998.998 0 010-.084V24a2 2 0 012-2zm26.086 8.5L34.5 27.914l-4.5 4.5v5.172l7.086-7.086zm1.5-1.328a2 2 0 002.828 0l.172-.172L36 23.414l-.172.172a2 2 0 000 2.828l2.758 2.758zM28 31.999V44H11V29.648a14.506 14.506 0 012.57-.793c1.804-.36 3.598-.273 4.722.852.954.954 2.188 1.391 3.406 1.55 1.215.159 2.481.05 3.6-.147A20.393 20.393 0 0028 30.428v1.571zM27 24H11v3.506c.6-.215 1.352-.447 2.178-.612 1.946-.389 4.653-.476 6.528 1.399.546.546 1.312.859 2.25.981.942.123 1.988.044 2.995-.134A18.578 18.578 0 0028 28.314V24h-1z" fill="#C3D64B"/><path d="M14 8l10 32" stroke="#C3D64B" stroke-width="2" stroke-linecap="round" stroke-linejoin="round"/><path d="M19 9a1 1 0 100 2V9zM9 7a1 1 0 102 0H9zm10 4c2.065 0 4.648-.256 6.742-.78 1.04-.26 2.025-.601 2.773-1.05C29.217 8.748 30 8.05 30 7h-2c0-.05.033.126-.515.455-.502.301-1.267.585-2.227.825C23.352 8.756 20.934 9 19 9v2zm11-4c0-1.05-.783-1.748-1.485-2.17-.748-.449-1.733-.79-2.773-1.05C23.648 3.256 21.066 3 19 3v2c1.935 0 4.352.244 6.258.72.96.24 1.725.524 2.227.825.548.328.515.506.515.455h2zM19 3c-2.066 0-4.413.257-6.275.788-.924.265-1.795.615-2.458 1.082C9.613 5.332 9 6.033 9 7h2c0-.033.012-.207.42-.496.4-.282 1.03-.557 1.855-.792C14.913 5.242 17.066 5 19 5V3z" fill="#C3D64B"/><path d="M21 12l-2-2 2-2" stroke="#C3D64B" stroke-width="2" stroke-linecap="round" stroke-linejoin="round"/></svg>