<svg width="48" height="48" fill="none" xmlns="http://www.w3.org/2000/svg"><path fill-rule="evenodd" clip-rule="evenodd" d="M4 44.5a2.5 2.5 0 015 0v.5a1 1 0 102 0v-.5a2.5 2.5 0 015 0v.5a1 1 0 102 0v-.5a2.5 2.5 0 015 0v.5a1 1 0 102 0v-.5a2.5 2.5 0 015 0v.5a1 1 0 102 0v-.5a2.5 2.5 0 015 0v.5a1 1 0 102 0v-.5a2.5 2.5 0 015 0v.5a1 1 0 102 0v-.5a4.5 4.5 0 00-8-2.829A4.491 4.491 0 0034.5 40a4.491 4.491 0 00-3.5 1.671A4.491 4.491 0 0027.5 40a4.491 4.491 0 00-3.5 1.671A4.491 4.491 0 0020.5 40a4.491 4.491 0 00-3.5 1.671A4.491 4.491 0 0013.5 40a4.491 4.491 0 00-3.5 1.671A4.5 4.5 0 002 44.5v.5a1 1 0 102 0v-.5zM29.793 6.207a6.778 6.778 0 00-9.373-.203l9.576 9.577a6.778 6.778 0 00-.203-9.374zm1.414-1.414a8.778 8.778 0 00-12.203-.204l-.296-.296a1 1 0 00-1.414 0L14.32 7.267a1.098 1.098 0 00-.053.053L2.294 19.293a1 1 0 000 1.414l12.999 13a1 1 0 001.414 0L19.414 31h12.587a4.992 4.992 0 004 2h1a1 1 0 001-1V22a1 1 0 00-1-1h-1a4.993 4.993 0 00-4 2h-4.587l1.293-1.293 3-3a1 1 0 000-1.414l-.296-.296a8.778 8.778 0 00-.204-12.204zM36.001 23a3 3 0 00-3 3v2a3 3 0 003 3v-8zm-5 3v3h-9.587l4-4h5.587v1zm-12.707 3.292L26.586 21 15 9.415 4.415 20 16 31.586l2.292-2.292.002-.002zm10.999-11.585l-.007-.007L18 6.414l-1.586 1.587L28 19.586 29.586 18l-.286-.286-.007-.007zM41 28a1 1 0 011 1v1a1 1 0 11-2 0v-1a1 1 0 011-1zm-2 7a1 1 0 011 1v1a1 1 0 11-2 0v-1a1 1 0 011-1zm7-2a1 1 0 10-2 0v1a1 1 0 102 0v-1z" fill="#C3D64B"/></svg>