<svg width="48" height="48" fill="none" xmlns="http://www.w3.org/2000/svg"><path fill-rule="evenodd" clip-rule="evenodd" d="M4 44.5a2.5 2.5 0 015 0v.5a1 1 0 102 0v-.5a2.5 2.5 0 015 0v.5a1 1 0 102 0v-.5a2.5 2.5 0 015 0v.5a1 1 0 102 0v-.5a2.5 2.5 0 015 0v.5a1 1 0 102 0v-.5a2.5 2.5 0 015 0v.5a1 1 0 102 0v-.5a2.5 2.5 0 015 0v.5a1 1 0 102 0v-.5a4.5 4.5 0 00-8-2.829A4.491 4.491 0 0034.5 40a4.491 4.491 0 00-3.5 1.671A4.491 4.491 0 0027.5 40a4.491 4.491 0 00-3.5 1.671A4.491 4.491 0 0020.5 40a4.491 4.491 0 00-3.5 1.671A4.491 4.491 0 0013.5 40a4.491 4.491 0 00-3.5 1.671A4.5 4.5 0 002 44.5v.5a1 1 0 102 0v-.5zM14.366 4.557a5 5 0 00-7.134-.644l-.376.322a5 5 0 00-.038 7.56l11.72 10.254-2.245 2.244a1 1 0 000 1.414l4 4h.001l8 8a1 1 0 001.413-1.414L22.416 29l2.085-2.086 7.793 7.793a1 1 0 001.415-1.414L25.915 25.5 28 23.414l7.293 7.293a1 1 0 001.415-1.414L29.415 22 31 20.414l7.293 7.293a1 1 0 001.415-1.414l-7.991-7.99a.829.829 0 00-.01-.01l-4-4a1 1 0 00-1.414 0l-2.216 2.216-9.71-11.952zm10.33 14.162l.025-.026 2.28-2.279L29.585 19 21 27.586 18.415 25l2.28-2.281a.958.958 0 00.023-.023l3.977-3.977zm-2.04-.788l-2.319-2.854-3.14 3.141 2.758 2.413 2.7-2.7zm-3.587-4.414l-3.38 3.381-7.554-6.61a3 3 0 01.023-4.535l.375-.321a3 3 0 014.28.386l6.256 7.699z" fill="#C3D64B"/></svg>