<svg width="53" height="53" viewBox="0 0 53 53" fill="none" xmlns="http://www.w3.org/2000/svg">
<path fill-rule="evenodd" clip-rule="evenodd" d="M43.8336 45.2475L38.1675 39.5814C35.7114 41.7111 32.5063 43 29.0003 43C21.2683 43 15.0003 36.7319 15.0003 29C15.0003 27.1455 15.3608 25.3752 16.0157 23.7555C14.7853 22.7468 14.0003 21.2151 14.0003 19.5C14.0003 18.3425 14.3578 17.2685 14.9685 16.3824L2.34992 3.76382C2.78032 7.99307 3.63294 15.0983 5.07806 22.3548C6.00202 26.9943 7.15882 31.647 8.5835 35.6288C10.0278 39.6655 11.6684 42.7811 13.4436 44.5563C21.7983 52.9109 35.2006 53.1413 43.8336 45.2475ZM45.2491 46.663C35.8338 55.3371 21.1652 55.1063 12.0294 45.9705C3.63926 37.5804 0.630968 7.37306 0.0925042 1.13273C0.0400842 0.525216 0.525531 0.0397748 1.13305 0.0921999C7.37335 0.630714 37.5804 3.63923 45.9706 12.0294C55.1062 21.1651 55.3372 35.8334 46.6633 45.2488L52.7074 51.2928C53.0979 51.6834 53.0979 52.3165 52.7074 52.7071C52.3168 53.0976 51.6837 53.0976 51.2932 52.7071L45.2491 46.663ZM45.2478 43.8333C53.1413 35.2003 52.9109 21.7981 44.5563 13.4436C42.7811 11.6684 39.6655 10.0278 35.6289 8.58343C31.6471 7.15873 26.9945 6.0019 22.355 5.07791C15.0986 3.63274 7.99341 2.78007 3.76417 2.34964L16.3827 14.9682C17.2688 14.3575 18.3428 14 19.5003 14C21.2154 14 22.7471 14.785 23.7558 16.0154C25.3755 15.3605 27.1458 15 29.0003 15C36.7323 15 43.0003 21.268 43.0003 29C43.0003 32.506 41.7114 35.7111 39.5817 38.1672L45.2478 43.8333ZM37.9432 37.0016C38.0345 36.8996 38.1241 36.7961 38.2119 36.691C37.6992 36.7567 37.1778 36.7484 36.6653 36.665C36.7487 37.1775 36.757 37.6989 36.6913 38.2116C36.7964 38.1238 36.8999 38.0342 37.0019 37.9429C37.0153 37.7063 37.1124 37.4736 37.2932 37.2928C37.4739 37.1121 37.7066 37.015 37.9432 37.0016ZM21.8865 16.9395C21.2613 16.3566 20.4224 16 19.5003 16C17.5673 16 16.0003 17.567 16.0003 19.5C16.0003 20.4221 16.3569 21.261 16.9398 21.8861C18.1439 19.8491 19.8494 18.1436 21.8865 16.9395ZM40.1337 33.4859C40.3408 32.9724 40.5133 32.4414 40.6486 31.8956C39.1272 31.5152 38.0003 30.1392 38.0003 28.5C38.0003 26.9586 38.9966 25.6499 40.3805 25.1829C38.8831 20.7169 34.8304 17.4229 29.9592 17.0377C29.7005 18.7154 28.2504 20 26.5003 20C25.236 20 24.1284 19.3297 23.5132 18.3251C22.701 18.7434 21.9427 19.2518 21.2514 19.8369L34.7074 33.2928L35.1718 33.7573L35.1723 33.7577C36.5823 35.1673 38.8974 35.0297 40.1337 33.4859ZM19.8372 21.2511L33.2915 34.7054L33.2932 34.7071L33.7576 35.1715C35.1676 36.5815 35.0301 38.8969 33.4862 40.1334C32.9727 40.3404 32.4417 40.513 31.8959 40.6483C31.5155 39.1269 30.1395 38 28.5003 38C26.9589 38 25.6502 38.9963 25.1832 40.3801C20.7172 38.8828 17.4232 34.8301 17.038 29.9589C18.7157 29.7001 20.0003 28.25 20.0003 26.4999C20.0003 25.2357 19.33 24.128 18.3254 23.5129C18.7438 22.7007 19.2521 21.9423 19.8372 21.2511ZM29.9027 40.9665C29.6876 40.4015 29.1408 40 28.5003 40C27.9018 40 27.3852 40.3504 27.1445 40.8573C27.7493 40.9512 28.3691 41 29.0003 41C29.3038 41 29.6048 40.9887 29.9027 40.9665ZM17.0504 27.8958C17.1283 27.042 17.2956 26.2141 17.5429 25.4215C17.8249 25.6942 18.0003 26.0766 18.0003 26.4999C18.0003 27.1341 17.6067 27.6764 17.0504 27.8958ZM25.4219 17.5426C25.6946 17.8246 26.0769 18 26.5003 18C27.1345 18 27.6768 17.6063 27.8962 17.0501C27.0424 17.128 26.2145 17.2953 25.4219 17.5426ZM40.0003 28.5C40.0003 29.1405 40.4018 29.6873 40.9669 29.9023C40.989 29.6044 41.0003 29.3035 41.0003 29C41.0003 28.3688 40.9515 27.749 40.8576 27.1442C40.3507 27.3849 40.0003 27.9015 40.0003 28.5ZM34.0003 23.5C34.0003 24.3284 33.3287 25 32.5003 25C31.6718 25 31.0003 24.3284 31.0003 23.5C31.0003 22.6715 31.6718 22 32.5003 22C33.3287 22 34.0003 22.6715 34.0003 23.5ZM36.0003 23.5C36.0003 25.433 34.4333 27 32.5003 27C30.5673 27 29.0003 25.433 29.0003 23.5C29.0003 21.567 30.5673 20 32.5003 20C34.4333 20 36.0003 21.567 36.0003 23.5ZM19.0003 11C19.5526 11 20.0003 10.5522 20.0003 9.99995C20.0003 9.44767 19.5526 8.99995 19.0003 8.99995C18.448 8.99995 18.0003 9.44767 18.0003 9.99995C18.0003 10.5522 18.448 11 19.0003 11ZM19.0003 13C20.6571 13 22.0003 11.6568 22.0003 9.99995C22.0003 8.3431 20.6571 6.99995 19.0003 6.99995C17.3434 6.99995 16.0003 8.3431 16.0003 9.99995C16.0003 11.6568 17.3434 13 19.0003 13ZM10.0003 20C10.5526 20 11.0003 19.5522 11.0003 19C11.0003 18.4477 10.5526 18 10.0003 18C9.44798 18 9.00027 18.4477 9.00027 19C9.00027 19.5522 9.44798 20 10.0003 20ZM10.0003 22C11.6571 22 13.0003 20.6568 13.0003 19C13.0003 17.3431 11.6571 16 10.0003 16C8.34341 16 7.00027 17.3431 7.00027 19C7.00027 20.6568 8.34341 22 10.0003 22ZM25.0003 32.5C25.0003 33.3284 24.3287 34 23.5003 34C22.6718 34 22.0003 33.3284 22.0003 32.5C22.0003 31.6715 22.6718 31 23.5003 31C24.3287 31 25.0003 31.6715 25.0003 32.5ZM27.0003 32.5C27.0003 34.433 25.4333 36 23.5003 36C21.5673 36 20.0003 34.433 20.0003 32.5C20.0003 30.567 21.5673 29 23.5003 29C25.4333 29 27.0003 30.567 27.0003 32.5Z" fill="#C3D64B"/>
</svg>
