<svg width="56" height="56" viewBox="0 0 56 56" fill="none" xmlns="http://www.w3.org/2000/svg">
<path fill-rule="evenodd" clip-rule="evenodd" d="M29.0922 8.07347C29.7183 7.22131 29.9995 6.50555 29.9995 5.99993C29.9995 5.49431 29.7183 4.77856 29.0922 3.92639C28.7503 3.46106 28.3622 3.03153 27.9995 2.66838C27.6368 3.03153 27.2487 3.46106 26.9068 3.92639C26.2807 4.77856 25.9995 5.49431 25.9995 5.99993C25.9995 6.50555 26.2807 7.22131 26.9068 8.07347C27.2487 8.5388 27.6368 8.96833 27.9995 9.33148C28.3622 8.96833 28.7503 8.5388 29.0922 8.07347ZM28.5774 11.5253C29.6854 10.5636 31.9995 8.28176 31.9995 5.99993C31.9995 3.71811 29.6854 1.43628 28.5774 0.474548C28.2418 0.183207 27.7572 0.183207 27.4216 0.474548C26.3136 1.43628 23.9995 3.71811 23.9995 5.99993C23.9995 8.28176 26.3136 10.5636 27.4216 11.5253C27.7572 11.8167 28.2418 11.8167 28.5774 11.5253ZM5.9995 7.99993C7.10407 7.99993 7.9995 7.1045 7.9995 5.99993C7.9995 4.89536 7.10407 3.99993 5.9995 3.99993C4.89493 3.99993 3.9995 4.89536 3.9995 5.99993C3.9995 7.1045 4.89493 7.99993 5.9995 7.99993ZM5.9995 9.99993C8.20864 9.99993 9.9995 8.20907 9.9995 5.99993C9.9995 3.79079 8.20864 1.99993 5.9995 1.99993C3.79037 1.99993 1.9995 3.79079 1.9995 5.99993C1.9995 8.20907 3.79037 9.99993 5.9995 9.99993ZM49.9995 7.99993C51.1041 7.99993 51.9995 7.1045 51.9995 5.99993C51.9995 4.89536 51.1041 3.99993 49.9995 3.99993C48.8949 3.99993 47.9995 4.89536 47.9995 5.99993C47.9995 7.1045 48.8949 7.99993 49.9995 7.99993ZM49.9995 9.99993C52.2086 9.99993 53.9995 8.20907 53.9995 5.99993C53.9995 3.79079 52.2086 1.99993 49.9995 1.99993C47.7904 1.99993 45.9995 3.79079 45.9995 5.99993C45.9995 8.20907 47.7904 9.99993 49.9995 9.99993ZM14.4609 13.0481C15.6017 13.3349 16.8345 13.6691 18.0335 14.039C19.3417 14.4425 20.5717 14.8773 21.5819 15.3251C22.6434 15.7957 23.2673 16.1977 23.534 16.4644C25.2444 18.1748 25.4566 20.8162 24.1704 22.7576L21.9985 20.5857V16.9999C21.9985 16.4476 21.5508 15.9999 20.9985 15.9999C20.4462 15.9999 19.9985 16.4476 19.9985 16.9999V18.5857L14.4609 13.0481ZM24.191 25.6066C21.4492 27.6622 17.5423 27.4433 15.0487 24.9497C12.8932 22.7942 10.9971 14.7434 10.2915 11.4341C10.1444 10.7446 10.7432 10.1458 11.4327 10.2929C14.742 10.9985 22.7927 12.8947 24.9482 15.0502C27.4418 17.5437 27.6608 21.4506 25.6052 24.1924L26.7056 25.2928C27.0962 25.6833 27.0962 26.3165 26.7056 26.707C26.3151 27.0975 25.6819 27.0975 25.2914 26.707L24.191 25.6066ZM22.7562 24.1718L20.5843 21.9999H16.9985C16.4462 21.9999 15.9985 21.5522 15.9985 20.9999C15.9985 20.4476 16.4462 19.9999 16.9985 19.9999H18.5843L13.0466 14.4622C13.3335 15.603 13.6676 16.8359 14.0375 18.035C14.4411 19.3431 14.8758 20.5731 15.3237 21.5833C15.7943 22.6449 16.1962 23.2688 16.4629 23.5354C18.1734 25.2459 20.8148 25.458 22.7562 24.1718ZM18.0345 41.9636C16.8355 42.3335 15.6027 42.6676 14.4619 42.9545L19.9995 37.4169V39.0026C19.9995 39.5549 20.4472 40.0026 20.9995 40.0026C21.5518 40.0026 21.9995 39.5549 21.9995 39.0026V35.4169L24.1714 33.245C25.4575 35.1863 25.2454 37.8277 23.535 39.5382C23.2683 39.8049 22.6444 40.2068 21.5828 40.6774C20.5727 41.1253 19.3427 41.56 18.0345 41.9636ZM15.0497 31.0529C17.5433 28.5593 21.4502 28.3403 24.192 30.3959L25.2924 29.2955C25.6829 28.905 26.3161 28.905 26.7066 29.2955C27.0971 29.6861 27.0971 30.3192 26.7066 30.7097L25.6062 31.8102C27.6618 34.552 27.4427 38.4588 24.9492 40.9524C22.7937 43.1078 14.743 45.004 11.4337 45.7097C10.7442 45.8567 10.1454 45.2579 10.2924 44.5684C10.9981 41.2592 12.8942 33.2084 15.0497 31.0529ZM20.5853 34.0026L22.7572 31.8308C20.8158 30.5445 18.1744 30.7566 16.4639 32.4671C16.1972 32.7338 15.7952 33.3577 15.3246 34.4192C14.8768 35.4294 14.4421 36.6594 14.0385 37.9676C13.6686 39.1666 13.3345 40.3995 13.0476 41.5403L18.5853 36.0026H16.9995C16.4472 36.0026 15.9995 35.5549 15.9995 35.0026C15.9995 34.4504 16.4472 34.0026 16.9995 34.0026H20.5853ZM37.9645 41.9636C39.1635 42.3335 40.3963 42.6676 41.5371 42.9545L35.9995 37.4169V39.0026C35.9995 39.5549 35.5518 40.0026 34.9995 40.0026C34.4472 40.0026 33.9995 39.5549 33.9995 39.0026V35.4169L31.8276 33.245C30.5415 35.1863 30.7536 37.8277 32.4641 39.5382C32.7308 39.8049 33.3546 40.2068 34.4162 40.6774C35.4264 41.1253 36.6563 41.56 37.9645 41.9636ZM40.9493 31.0529C38.4557 28.5593 34.5489 28.3403 31.807 30.3959L30.7066 29.2955C30.3161 28.905 29.6829 28.905 29.2924 29.2955C28.9019 29.6861 28.9019 30.3192 29.2924 30.7097L30.3928 31.8102C28.3373 34.552 28.5563 38.4588 31.0498 40.9524C33.2053 43.1078 41.2561 45.004 44.5653 45.7097C45.2548 45.8567 45.8536 45.2579 45.7066 44.5684C45.0009 41.2592 43.1048 33.2084 40.9493 31.0529ZM35.4137 34.0026L33.2418 31.8308C35.1832 30.5445 37.8246 30.7566 39.5351 32.4671C39.8018 32.7338 40.2038 33.3577 40.6744 34.4192C41.1222 35.4294 41.5569 36.6594 41.9605 37.9676C42.3304 39.1666 42.6645 40.3995 42.9514 41.5403L37.4137 36.0026H38.9995C39.5518 36.0026 39.9995 35.5549 39.9995 35.0026C39.9995 34.4504 39.5518 34.0026 38.9995 34.0026H35.4137ZM37.9645 14.039C39.1635 13.6691 40.3963 13.3349 41.5371 13.0481L35.9995 18.5857V16.9999C35.9995 16.4476 35.5518 15.9999 34.9995 15.9999C34.4472 15.9999 33.9995 16.4476 33.9995 16.9999V20.5857L31.8276 22.7576C30.5415 20.8162 30.7536 18.1748 32.4641 16.4644C32.7308 16.1977 33.3546 15.7957 34.4162 15.3251C35.4264 14.8773 36.6563 14.4425 37.9645 14.039ZM40.9493 24.9497C38.4557 27.4433 34.5489 27.6622 31.807 25.6066L30.7066 26.707C30.3161 27.0975 29.6829 27.0975 29.2924 26.707C28.9019 26.3165 28.9019 25.6833 29.2924 25.2928L30.3928 24.1924C28.3373 21.4506 28.5563 17.5437 31.0498 15.0502C33.2053 12.8947 41.2561 10.9985 44.5653 10.2929C45.2548 10.1458 45.8536 10.7446 45.7066 11.4341C45.0009 14.7434 43.1048 22.7942 40.9493 24.9497ZM35.4137 21.9999L33.2418 24.1718C35.1832 25.458 37.8246 25.2459 39.5351 23.5354C39.8018 23.2688 40.2038 22.6449 40.6744 21.5833C41.1222 20.5731 41.5569 19.3431 41.9605 18.035C42.3304 16.8359 42.6645 15.603 42.9514 14.4622L37.4137 19.9999H38.9995C39.5518 19.9999 39.9995 20.4476 39.9995 20.9999C39.9995 21.5522 39.5518 21.9999 38.9995 21.9999H35.4137ZM51.9995 49.9999C51.9995 51.1045 51.1041 51.9999 49.9995 51.9999C48.8949 51.9999 47.9995 51.1045 47.9995 49.9999C47.9995 48.8954 48.8949 47.9999 49.9995 47.9999C51.1041 47.9999 51.9995 48.8954 51.9995 49.9999ZM53.9995 49.9999C53.9995 52.2091 52.2086 53.9999 49.9995 53.9999C47.7904 53.9999 45.9995 52.2091 45.9995 49.9999C45.9995 47.7908 47.7904 45.9999 49.9995 45.9999C52.2086 45.9999 53.9995 47.7908 53.9995 49.9999ZM7.9995 49.9999C7.9995 51.1045 7.10407 51.9999 5.9995 51.9999C4.89493 51.9999 3.9995 51.1045 3.9995 49.9999C3.9995 48.8954 4.89493 47.9999 5.9995 47.9999C7.10407 47.9999 7.9995 48.8954 7.9995 49.9999ZM9.9995 49.9999C9.9995 52.2091 8.20864 53.9999 5.9995 53.9999C3.79037 53.9999 1.9995 52.2091 1.9995 49.9999C1.9995 47.7908 3.79037 45.9999 5.9995 45.9999C8.20864 45.9999 9.9995 47.7908 9.9995 49.9999ZM8.07305 26.9072C7.22088 26.2811 6.50512 25.9999 5.9995 25.9999C5.49389 25.9999 4.77813 26.2811 3.92596 26.9072C3.46064 27.2491 3.0311 27.6372 2.66796 27.9999C3.0311 28.3626 3.46064 28.7508 3.92596 29.0926C4.77813 29.7188 5.49389 29.9999 5.9995 29.9999C6.50512 29.9999 7.22088 29.7188 8.07304 29.0926C8.53837 28.7508 8.96791 28.3626 9.33105 27.9999C8.96791 27.6372 8.53837 27.2491 8.07305 26.9072ZM11.5249 27.422C10.5632 26.314 8.28133 23.9999 5.9995 23.9999C3.71768 23.9999 1.43585 26.314 0.474121 27.422C0.18278 27.7576 0.18278 28.2422 0.474121 28.5779C1.43585 29.6858 3.71768 31.9999 5.9995 31.9999C8.28133 31.9999 10.5632 29.6858 11.5249 28.5779C11.8162 28.2422 11.8162 27.7576 11.5249 27.422ZM49.9995 25.9999C50.5051 25.9999 51.2209 26.2811 52.073 26.9072C52.5384 27.2491 52.9679 27.6372 53.3311 27.9999C52.9679 28.3626 52.5384 28.7508 52.073 29.0926C51.2209 29.7188 50.5051 29.9999 49.9995 29.9999C49.4939 29.9999 48.7781 29.7188 47.926 29.0926C47.4606 28.7508 47.0311 28.3626 46.668 27.9999C47.0311 27.6372 47.4606 27.2491 47.926 26.9072C48.7781 26.2811 49.4939 25.9999 49.9995 25.9999ZM49.9995 23.9999C52.2813 23.9999 54.5632 26.314 55.5249 27.422C55.8162 27.7576 55.8162 28.2422 55.5249 28.5779C54.5632 29.6858 52.2813 31.9999 49.9995 31.9999C47.7177 31.9999 45.4359 29.6858 44.4741 28.5779C44.1828 28.2422 44.1828 27.7576 44.4741 27.422C45.4359 26.314 47.7177 23.9999 49.9995 23.9999ZM29.9995 49.9999C29.9995 50.5056 29.7183 51.2213 29.0922 52.0735C28.7503 52.5388 28.3622 52.9683 27.9995 53.3315C27.6368 52.9683 27.2487 52.5388 26.9068 52.0735C26.2807 51.2213 25.9995 50.5056 25.9995 49.9999C25.9995 49.4943 26.2807 48.7786 26.9068 47.9264C27.2487 47.4611 27.6368 47.0315 27.9995 46.6684C28.3622 47.0315 28.7503 47.4611 29.0922 47.9264C29.7183 48.7786 29.9995 49.4943 29.9995 49.9999ZM31.9995 49.9999C31.9995 52.2818 29.6854 54.5636 28.5774 55.5253C28.2418 55.8167 27.7572 55.8167 27.4216 55.5253C26.3136 54.5636 23.9995 52.2818 23.9995 49.9999C23.9995 47.7181 26.3136 45.4363 27.4216 44.4745C27.7572 44.1832 28.2418 44.1832 28.5774 44.4745C29.6854 45.4363 31.9995 47.7181 31.9995 49.9999Z" fill="#C3D64B"/>
</svg>
