<svg width="44" height="54" viewBox="0 0 44 54" fill="none" xmlns="http://www.w3.org/2000/svg">
<rect x="4" y="1" width="36" height="8" stroke="#C3D64B" stroke-width="2" stroke-linejoin="round"/>
<rect x="4" y="1" width="36" height="8" stroke="#C3D64B" stroke-width="2" stroke-linejoin="round"/>
<mask id="path-3-outside-1_108_2384" maskUnits="userSpaceOnUse" x="0" y="8" width="44" height="38" fill="black">
<rect fill="white" y="8" width="44" height="38"/>
<path d="M5 10H39C39 10 42 18 42 27C42 36 39 44 39 44H5C5 44 2 36 2 27C2 18 5 10 5 10Z"/>
</mask>
<path d="M5 10V8C4.16631 8 3.42007 8.51715 3.12734 9.29775L5 10ZM39 10L40.8727 9.29775C40.5799 8.51715 39.8337 8 39 8V10ZM39 44V46C39.8337 46 40.5799 45.4829 40.8727 44.7022L39 44ZM5 44L3.12734 44.7022C3.42007 45.4829 4.16631 46 5 46V44ZM5 12H39V8H5V12ZM39 42H5V46H39V42ZM39 10C37.1273 10.7022 37.1272 10.7019 37.1271 10.7017C37.1271 10.7016 37.127 10.7014 37.127 10.7013C37.1269 10.701 37.1269 10.701 37.1269 10.701C37.1269 10.7011 37.1271 10.7016 37.1275 10.7026C37.1282 10.7047 37.1297 10.7086 37.1319 10.7145C37.1362 10.7261 37.1432 10.7454 37.1528 10.7719C37.172 10.825 37.2014 10.9073 37.2395 11.0172C37.3158 11.237 37.427 11.5667 37.5616 11.9929C37.8309 12.8458 38.1928 14.0814 38.5552 15.5917C39.2828 18.6232 40 22.7083 40 27H44C44 22.2917 43.2172 17.8768 42.4448 14.6583C42.0572 13.0436 41.6691 11.7167 41.3759 10.7884C41.2292 10.3239 41.1061 9.95835 41.0183 9.7055C40.9744 9.57905 40.9394 9.48071 40.9146 9.4122C40.9022 9.37794 40.8924 9.35113 40.8854 9.33199C40.8818 9.32241 40.879 9.31476 40.8769 9.30904C40.8758 9.30619 40.8749 9.30381 40.8742 9.30193C40.8739 9.30099 40.8736 9.30017 40.8733 9.29947C40.8732 9.29913 40.873 9.2987 40.8729 9.29852C40.8728 9.29812 40.8727 9.29775 39 10ZM40 27C40 31.2917 39.2828 35.3768 38.5552 38.4083C38.1928 39.9186 37.8309 41.1542 37.5616 42.0071C37.427 42.4333 37.3158 42.763 37.2395 42.9828C37.2014 43.0927 37.172 43.175 37.1528 43.2281C37.1432 43.2546 37.1362 43.2739 37.1319 43.2855C37.1297 43.2914 37.1282 43.2953 37.1275 43.2974C37.1271 43.2984 37.1269 43.2989 37.1269 43.299C37.1269 43.299 37.1269 43.299 37.127 43.2987C37.127 43.2986 37.1271 43.2984 37.1271 43.2983C37.1272 43.2981 37.1273 43.2978 39 44C40.8727 44.7022 40.8728 44.7019 40.8729 44.7015C40.873 44.7013 40.8732 44.7009 40.8733 44.7005C40.8736 44.6998 40.8739 44.699 40.8742 44.6981C40.8749 44.6962 40.8758 44.6938 40.8769 44.691C40.879 44.6852 40.8818 44.6776 40.8854 44.668C40.8924 44.6489 40.9022 44.6221 40.9146 44.5878C40.9394 44.5193 40.9744 44.421 41.0183 44.2945C41.1061 44.0416 41.2292 43.6761 41.3759 43.2116C41.6691 42.2833 42.0572 40.9564 42.4448 39.3417C43.2172 36.1232 44 31.7083 44 27H40ZM5 44C6.87266 43.2978 6.87277 43.2981 6.87288 43.2983C6.8729 43.2984 6.87299 43.2986 6.87303 43.2987C6.87311 43.299 6.87314 43.299 6.87313 43.299C6.8731 43.2989 6.8729 43.2984 6.87252 43.2974C6.87176 43.2953 6.87029 43.2914 6.86814 43.2855C6.86384 43.2739 6.85681 43.2546 6.84722 43.2281C6.82803 43.175 6.79865 43.0927 6.76051 42.9828C6.68421 42.763 6.57299 42.4333 6.43842 42.0071C6.16908 41.1542 5.80725 39.9186 5.44477 38.4083C4.71723 35.3768 4 31.2917 4 27H0C0 31.7083 0.782765 36.1232 1.55523 39.3417C1.94275 40.9564 2.33092 42.2833 2.62408 43.2116C2.77076 43.6761 2.89391 44.0416 2.98168 44.2945C3.02557 44.421 3.06064 44.5193 3.0854 44.5878C3.09778 44.6221 3.10759 44.6489 3.11464 44.668C3.11817 44.6776 3.12101 44.6852 3.12313 44.691C3.12419 44.6938 3.12508 44.6962 3.12578 44.6981C3.12613 44.699 3.12644 44.6998 3.1267 44.7005C3.12683 44.7009 3.12699 44.7013 3.12705 44.7015C3.1272 44.7019 3.12734 44.7022 5 44ZM4 27C4 22.7083 4.71723 18.6232 5.44477 15.5917C5.80725 14.0814 6.16908 12.8458 6.43842 11.9929C6.57299 11.5667 6.68421 11.237 6.76051 11.0172C6.79865 10.9073 6.82803 10.825 6.84722 10.7719C6.85681 10.7454 6.86384 10.7261 6.86814 10.7145C6.87029 10.7086 6.87176 10.7047 6.87252 10.7026C6.8729 10.7016 6.8731 10.7011 6.87313 10.701C6.87314 10.701 6.87311 10.701 6.87303 10.7013C6.87299 10.7014 6.8729 10.7016 6.87288 10.7017C6.87277 10.7019 6.87266 10.7022 5 10C3.12734 9.29775 3.1272 9.29812 3.12705 9.29852C3.12699 9.2987 3.12683 9.29913 3.1267 9.29947C3.12644 9.30017 3.12613 9.30099 3.12578 9.30193C3.12508 9.30381 3.12419 9.30619 3.12313 9.30904C3.12101 9.31476 3.11817 9.32241 3.11464 9.33199C3.10759 9.35113 3.09778 9.37794 3.0854 9.4122C3.06064 9.48071 3.02557 9.57905 2.98168 9.7055C2.89391 9.95835 2.77076 10.3239 2.62408 10.7884C2.33092 11.7167 1.94275 13.0436 1.55523 14.6583C0.782765 17.8768 0 22.2917 0 27H4Z" fill="#C3D64B" mask="url(#path-3-outside-1_108_2384)"/>
<path d="M9 4C9 3.44772 8.55228 3 8 3C7.44772 3 7 3.44772 7 4H9ZM7 6C7 6.55228 7.44772 7 8 7C8.55228 7 9 6.55228 9 6H7ZM7 4V6H9V4H7Z" fill="#C3D64B"/>
<path d="M13 4C13 3.44772 12.5523 3 12 3C11.4477 3 11 3.44772 11 4H13ZM11 6C11 6.55228 11.4477 7 12 7C12.5523 7 13 6.55228 13 6H11ZM11 4V6H13V4H11Z" fill="#C3D64B"/>
<path d="M17 4C17 3.44772 16.5523 3 16 3C15.4477 3 15 3.44772 15 4H17ZM15 6C15 6.55228 15.4477 7 16 7C16.5523 7 17 6.55228 17 6H15ZM15 4V6H17V4H15Z" fill="#C3D64B"/>
<path d="M21 4C21 3.44772 20.5523 3 20 3C19.4477 3 19 3.44772 19 4H21ZM19 6C19 6.55228 19.4477 7 20 7C20.5523 7 21 6.55228 21 6H19ZM19 4V6H21V4H19Z" fill="#C3D64B"/>
<path d="M25 4C25 3.44772 24.5523 3 24 3C23.4477 3 23 3.44772 23 4H25ZM23 6C23 6.55228 23.4477 7 24 7C24.5523 7 25 6.55228 25 6H23ZM23 4V6H25V4H23Z" fill="#C3D64B"/>
<path d="M29 4C29 3.44772 28.5523 3 28 3C27.4477 3 27 3.44772 27 4H29ZM27 6C27 6.55228 27.4477 7 28 7C28.5523 7 29 6.55228 29 6H27ZM27 4V6H29V4H27Z" fill="#C3D64B"/>
<path d="M33 4C33 3.44772 32.5523 3 32 3C31.4477 3 31 3.44772 31 4H33ZM31 6C31 6.55228 31.4477 7 32 7C32.5523 7 33 6.55228 33 6H31ZM31 4V6H33V4H31Z" fill="#C3D64B"/>
<path d="M37 4C37 3.44772 36.5523 3 36 3C35.4477 3 35 3.44772 35 4H37ZM35 6C35 6.55228 35.4477 7 36 7C36.5523 7 37 6.55228 37 6H35ZM35 4V6H37V4H35Z" fill="#C3D64B"/>
<rect x="4" y="45" width="36" height="8" stroke="#C3D64B" stroke-width="2" stroke-linejoin="round"/>
<rect x="4" y="45" width="36" height="8" stroke="#C3D64B" stroke-width="2" stroke-linejoin="round"/>
<path d="M9 48C9 47.4477 8.55228 47 8 47C7.44772 47 7 47.4477 7 48H9ZM7 50C7 50.5523 7.44772 51 8 51C8.55228 51 9 50.5523 9 50H7ZM7 48V50H9V48H7Z" fill="#C3D64B"/>
<path d="M13 48C13 47.4477 12.5523 47 12 47C11.4477 47 11 47.4477 11 48H13ZM11 50C11 50.5523 11.4477 51 12 51C12.5523 51 13 50.5523 13 50H11ZM11 48V50H13V48H11Z" fill="#C3D64B"/>
<path d="M17 48C17 47.4477 16.5523 47 16 47C15.4477 47 15 47.4477 15 48H17ZM15 50C15 50.5523 15.4477 51 16 51C16.5523 51 17 50.5523 17 50H15ZM15 48V50H17V48H15Z" fill="#C3D64B"/>
<path d="M21 48C21 47.4477 20.5523 47 20 47C19.4477 47 19 47.4477 19 48H21ZM19 50C19 50.5523 19.4477 51 20 51C20.5523 51 21 50.5523 21 50H19ZM19 48V50H21V48H19Z" fill="#C3D64B"/>
<path d="M25 48C25 47.4477 24.5523 47 24 47C23.4477 47 23 47.4477 23 48H25ZM23 50C23 50.5523 23.4477 51 24 51C24.5523 51 25 50.5523 25 50H23ZM23 48V50H25V48H23Z" fill="#C3D64B"/>
<path d="M29 48C29 47.4477 28.5523 47 28 47C27.4477 47 27 47.4477 27 48H29ZM27 50C27 50.5523 27.4477 51 28 51C28.5523 51 29 50.5523 29 50H27ZM27 48V50H29V48H27Z" fill="#C3D64B"/>
<path d="M33 48C33 47.4477 32.5523 47 32 47C31.4477 47 31 47.4477 31 48H33ZM31 50C31 50.5523 31.4477 51 32 51C32.5523 51 33 50.5523 33 50H31ZM31 48V50H33V48H31Z" fill="#C3D64B"/>
<path d="M37 48C37 47.4477 36.5523 47 36 47C35.4477 47 35 47.4477 35 48H37ZM35 50C35 50.5523 35.4477 51 36 51C36.5523 51 37 50.5523 37 50H35ZM35 48V50H37V48H35Z" fill="#C3D64B"/>
<path fill-rule="evenodd" clip-rule="evenodd" d="M22 14C23.6563 14 24.9992 15.3423 25 16.9985C25.1874 16.7655 25.3676 16.5618 25.536 16.3934C25.9081 16.0213 26.3244 15.72 26.7679 15.4897C26.1276 13.4665 24.235 12 22 12C19.2386 12 17 14.2386 17 17C17 18.6608 17.8097 21.9411 19.056 24.2921C18.4003 25.0045 18 25.9555 18 27C18 29.2091 19.7909 31 22 31C22.4364 31 22.8564 30.9301 23.2495 30.801C23.3971 31.0898 23.5429 31.4048 23.6847 31.7424C24.5254 33.7447 24.9932 35.9737 24.9932 37.0037C24.9932 38.6605 23.65 40.0037 21.9932 40.0037C20.3363 40.0037 18.9932 38.6605 18.9932 37.0037L18.9932 37.0027C20.1127 35.6112 21.4907 33.1765 22.1599 30.9975C21.488 31.0254 20.8104 30.8848 20.1958 30.5757C20.096 30.8839 19.9765 31.2093 19.8382 31.5478C19.0169 33.5582 17.7715 35.465 17.0432 36.1933C15.8716 37.3649 13.9721 37.3649 12.8006 36.1933C11.6293 35.0221 11.629 33.1234 12.7995 31.9518C12.5022 31.984 12.2308 32.0006 11.9926 32.0006C11.4663 32.0006 10.959 31.9193 10.4826 31.7685C9.50467 33.6519 9.80593 36.0271 11.3863 37.6075C12.9665 39.1877 15.3413 39.4891 17.2246 38.5117C17.8642 40.5361 19.7573 42.0037 21.9932 42.0037C24.2278 42.0037 26.1201 40.5377 26.7607 38.5149C28.6445 39.4942 31.0209 39.1934 32.602 37.6123C34.1821 36.0322 34.4835 33.6574 33.5062 31.7741C35.5309 31.1347 36.9988 29.2415 36.9988 27.0054C36.9988 24.7705 35.5326 22.8782 33.5096 22.2377C34.4889 20.354 34.188 17.9776 32.607 16.3966C30.6543 14.444 27.4885 14.444 25.5359 16.3966C24.362 17.5704 22.6161 20.4605 21.8344 23.0034C21.4546 23.0188 21.0884 23.0873 20.743 23.2015C20.5957 22.913 20.4501 22.5983 20.3085 22.2612C19.4677 20.2589 19 18.03 19 17C19 15.3431 20.3431 14 22 14ZM23.7983 23.426C24.1321 23.5943 24.4391 23.808 24.7112 24.059C26.7246 22.9927 29.4177 22.2464 31.192 22.0542L31.1928 22.0534C32.3643 20.8819 32.3643 18.9824 31.1928 17.8108C30.0212 16.6392 28.1217 16.6392 26.9501 17.8108C26.2218 18.5391 24.9764 20.4459 24.1551 22.4563C24.0172 22.7939 23.8979 23.1186 23.7983 23.426ZM25.7998 25.7471C25.9138 26.093 25.9819 26.4598 25.9969 26.8403C28.1745 27.5101 30.6065 28.8867 31.997 30.0054L31.9988 30.0054C33.6556 30.0054 34.9988 28.6622 34.9988 27.0054C34.9988 25.3485 33.6556 24.0054 31.9988 24.0054C30.9688 24.0054 28.7399 24.4731 26.7376 25.3139C26.4014 25.455 26.0877 25.6002 25.7998 25.7471ZM25.5714 28.8033C25.4029 29.1363 25.1893 29.4425 24.9385 29.714C26.0054 31.7278 26.7522 34.4225 26.9444 36.1974L26.9451 36.1981C28.1167 37.3697 30.0162 37.3697 31.1877 36.1981C32.3593 35.0266 32.3593 33.1271 31.1877 31.9555C30.4594 31.2272 28.5526 29.9818 26.5423 29.1605C26.2042 29.0224 25.8792 28.903 25.5714 28.8033ZM12.8052 17.8059C13.9764 16.6347 15.8751 16.6344 17.0468 17.8049C17.0146 17.5076 16.9979 17.2362 16.9979 16.998C16.9979 16.4717 17.0793 15.9644 17.23 15.4879C15.3466 14.51 12.9714 14.8113 11.391 16.3917C9.43838 18.3443 9.43838 21.5102 11.391 23.4628C12.5654 24.6371 15.4575 26.3841 18.0011 27.1653C17.9732 26.4934 18.1138 25.8157 18.4228 25.2012C18.1147 25.1013 17.7892 24.9819 17.4507 24.8436C15.4403 24.0222 13.5335 22.7769 12.8052 22.0486C11.6336 20.877 11.6336 18.9775 12.8052 17.8059ZM8.99512 26.9985C8.99512 25.3422 10.3374 23.9994 11.9936 23.9985C11.7607 23.8111 11.5569 23.631 11.3885 23.4626C11.0164 23.0904 10.7152 22.6742 10.4849 22.2307C8.4616 22.871 6.99512 24.7635 6.99512 26.9985C6.99512 29.76 9.23369 31.9985 11.9951 31.9985C13.6559 31.9985 16.9362 31.1888 19.2872 29.9426C18.7924 29.4872 18.4126 28.9086 18.1966 28.2555C17.9081 28.4028 17.5935 28.5485 17.2563 28.69C15.254 29.5308 13.0251 29.9985 11.9951 29.9985C10.3383 29.9985 8.99512 28.6554 8.99512 26.9985ZM24 27C24 28.1046 23.1046 29 22 29C20.8954 29 20 28.1046 20 27C20 25.8954 20.8954 25 22 25C23.1046 25 24 25.8954 24 27Z" fill="#C3D64B"/>
</svg>
