<svg width="62" height="62" viewBox="0 0 62 62" fill="none" xmlns="http://www.w3.org/2000/svg">
<path fill-rule="evenodd" clip-rule="evenodd" d="M19.8002 29C21.6002 25.2 26.2002 23.6 34.8002 23.6C47.2002 23.6 51.0002 25.8 51.0002 33C51.0002 42.2 44.2002 56 34.8002 56C32.0002 56 29.4002 54.8 26.8002 52.8L23.6002 56.4C27.0002 59.4 30.8002 60.8 34.6002 60.8C47.4002 60.8 55.6002 44.4 55.6002 33C55.6002 22.4 48.6002 19.6 40.6002 19C43.2002 18.4 45.8002 17 48.2002 15.2L45.4002 11.4C42.8002 13.4 40.4002 14.4 37.8002 14.8C38.2002 10.4 40.4002 7 44.4002 4L42.0002 0C36.8002 3.8 34.0002 8.6 33.4002 14.4C31.2002 13.8 29.2002 12.6 27.0002 10.8L23.8002 14.6C26.4002 16.8 29.0002 18.2 31.6002 19C25.2002 19.4 18.4002 21 15.6002 27C14.8002 28.8 14.2002 30.8 14.2002 33L19.0002 33.2C19.0002 31.6 19.4002 30.2 19.8002 29ZM6 49H13.6V56.6H18.4V49H25.8V44.2H18.4V36.8H13.6V44.2H6V49ZM45.5996 30.8H50.3996V36.2H45.5996V30.8ZM40.0002 30.8H35.2002V36.2H40.0002V30.8ZM25 30.8H29.8V36.2H25V30.8ZM34.5998 42.2H29.7998V47.6H34.5998V42.2ZM39.7998 42.2H44.5998V47.6H39.7998V42.2Z" fill="#C3D64B"/>
</svg>
