<svg width="62" height="62" viewBox="0 0 62 62" fill="none" xmlns="http://www.w3.org/2000/svg">
<path fill-rule="evenodd" clip-rule="evenodd" d="M31.4002 11.6L37.2002 17.2L34.4002 20L24.2002 10L34.4002 1L37.0002 4L32.8002 7.8C40.2002 8.4 46.8002 12.6 50.8002 19L47.4002 21C43.8002 15.4 37.8002 11.8 31.4002 11.6ZM29.8002 51.2L25.0002 45.4L28.0002 42.8L36.6002 53.2L26.6002 62L24.0002 59L28.6002 55.2C20.4002 54.4 12.8002 49.4 9.2002 41.8L12.8002 40C15.8002 46.6 22.6002 51 29.8002 51.2ZM44.4004 37L50.4004 32C50.0004 39 46.0004 45.6 39.4004 49L41.2004 52.6C48.6004 48.8 53.2004 41.8 54.0004 33.8L57.8004 38L60.8004 35.4L52.0004 25.4L41.8004 34L44.4004 37ZM9 37.8L0 27.6L2.8 25L6.8 29.4C7.6 21.6 12 14.4 19 10.8L21 14.2C15 17.6 11.2 23.8 10.8 30.4L16.2 24.8L19 27.6L9 37.8Z" fill="#C3D64B"/>
</svg>
