<svg width="62" height="62" viewBox="0 0 62 62" fill="none" xmlns="http://www.w3.org/2000/svg">
<path fill-rule="evenodd" clip-rule="evenodd" d="M53.4 8.4C53.4 44.2 33.2 56 32.4 56.4C31.6 56.8 30.8 56.8 30 56.4C29.2 56 9 44.2 9 8.4C9 7.6 9.4 7 9.8 6.6C10.2 6.2 10.8 6 11.4 6H11.8C24.6 8.2 37.8 8.2 50.6 6C51.4 6 52 6.2 52.6 6.6C53 7 53.4 7.6 53.4 8.4ZM31.2 51.4C35.2 48.6 47.8 37.6 48.6 11.2C37 13 25.4 13 13.8 11.2C14.6 37.4 27.2 48.6 31.2 51.4ZM34.2 30.2V38.4H28.2V30.2H20V24.2H28.2V16H34.2V24.2H42.4V30.2H34.2Z" fill="#C3D64B"/>
</svg>
