<svg width="31" height="31" viewBox="0 0 31 31" fill="none" xmlns="http://www.w3.org/2000/svg">
<path fill-rule="evenodd" clip-rule="evenodd" d="M15.1911 2.10684C15.3724 1.96439 15.6276 1.96439 15.8089 2.10684L29.8089 13.1068C30.0261 13.2774 30.0638 13.5918 29.8932 13.8089C29.7226 14.026 29.4082 14.0638 29.1911 13.8932L27 12.1716V26.4995C27 27.8802 25.8807 28.9995 24.5 28.9995H6.50002C5.11931 28.9995 4.00002 27.8802 4.00002 26.4995V12.1716L1.80893 13.8932C1.5918 14.0638 1.27747 14.026 1.10686 13.8089C0.936255 13.5918 0.973975 13.2774 1.19111 13.1068L15.1911 2.10684ZM15.5 3.13587L26.0111 11.3946C26.0039 11.4286 26 11.4638 26 11.5V26.4995C26 27.3279 25.3284 27.9995 24.5 27.9995H6.50002C5.67159 27.9995 5.00002 27.3279 5.00002 26.4995V11.9995C5.00002 11.8192 4.90461 11.6612 4.76152 11.5733L15.5 3.13587ZM16 16.5C16 16.2239 15.7762 16 15.5 16C15.2239 16 15 16.2239 15 16.5V24.5C15 24.7761 15.2239 25 15.5 25C15.7762 25 16 24.7761 16 24.5V16.5Z" fill="white"/>
<path d="M19.5 17.5C19.5 19.7091 17.7091 21.5 15.5 21.5C13.2909 21.5 11.5 19.7091 11.5 17.5C11.5 17.1369 11.6255 16.6444 11.8683 16.052C12.1072 15.4687 12.4429 14.8281 12.8245 14.1813C13.5875 12.8879 14.5116 11.6065 15.147 10.7663C15.3287 10.526 15.6713 10.526 15.853 10.7663C16.4884 11.6065 17.4125 12.8879 18.1755 14.1813C18.5571 14.8281 18.8928 15.4687 19.1317 16.052C19.3745 16.6444 19.5 17.1369 19.5 17.5Z" stroke="white"/>
</svg>
