<svg width="43" height="9" viewBox="0 0 43 9" fill="none" xmlns="http://www.w3.org/2000/svg">
<path d="M0.5 4C0.223858 4 0 4.22386 0 4.5C0 4.77614 0.223858 5 0.5 5V4ZM42.8536 4.85355C43.0488 4.65829 43.0488 4.34171 42.8536 4.14645L39.6716 0.964466C39.4763 0.769204 39.1597 0.769204 38.9645 0.964466C38.7692 1.15973 38.7692 1.47631 38.9645 1.67157L41.7929 4.5L38.9645 7.32843C38.7692 7.52369 38.7692 7.84027 38.9645 8.03553C39.1597 8.2308 39.4763 8.2308 39.6716 8.03553L42.8536 4.85355ZM0.5 5H42.5V4H0.5V5Z" fill="white"/>
</svg>
