<svg width="40" height="40" viewBox="0 0 40 40" fill="none" xmlns="http://www.w3.org/2000/svg">
<circle cx="20" cy="20" r="19.5" stroke="#C3D64B"/>
<mask id="path-2-inside-1_108_1124" fill="white">
<path d="M27.1417 18.285L18.029 12.8174C16.6959 12.0176 15 12.9778 15 14.5324V25.4676C15 27.0222 16.6959 27.9824 18.029 27.1826L27.1417 21.715C28.4364 20.9382 28.4364 19.0618 27.1417 18.285Z"/>
</mask>
<path d="M18.029 12.8174L18.5435 11.9599V11.9599L18.029 12.8174ZM27.1417 18.285L27.6562 17.4275L27.1417 18.285ZM27.1417 21.715L26.6272 20.8575L27.1417 21.715ZM18.029 27.1826L17.5145 26.3251L18.029 27.1826ZM18.5435 11.9599L27.6562 17.4275L26.6272 19.1425L17.5145 13.6749L18.5435 11.9599ZM27.6562 22.5725L18.5435 28.0401L17.5145 26.3251L26.6272 20.8575L27.6562 22.5725ZM16 14.5324V25.4676H14V14.5324H16ZM18.5435 28.0401C16.5439 29.2398 14 27.7995 14 25.4676H16C16 26.2449 16.848 26.725 17.5145 26.3251L18.5435 28.0401ZM27.6562 17.4275C29.5982 18.5927 29.5982 21.4073 27.6562 22.5725L26.6272 20.8575C27.2745 20.4691 27.2745 19.5309 26.6272 19.1425L27.6562 17.4275ZM17.5145 13.6749C16.848 13.275 16 13.7551 16 14.5324H14C14 12.2005 16.5439 10.7602 18.5435 11.9599L17.5145 13.6749Z" fill="#C3D64B" mask="url(#path-2-inside-1_108_1124)"/>
</svg>
