<svg width="48" height="48" viewBox="0 0 48 48" fill="none" xmlns="http://www.w3.org/2000/svg">
<path d="M3 45H45" stroke="#C3D64B" stroke-width="2" stroke-linecap="round" stroke-linejoin="round"/>
<path fill-rule="evenodd" clip-rule="evenodd" d="M13 22C13 18.6863 15.6863 16 19 16H20C23.3137 16 26 18.6863 26 22H13ZM11 22C11 17.5817 14.5817 14 19 14H20C24.4183 14 28 17.5817 28 22C29.1046 22 30 22.8954 30 24V29.5858L33.4165 26.1693C32.9997 24.8011 33.3323 23.2535 34.4142 22.1716L35.2929 21.2929C35.6834 20.9024 36.3166 20.9024 36.7071 21.2929L43.7071 28.2929C44.0976 28.6834 44.0976 29.3166 43.7071 29.7071L42.8284 30.5858C41.7465 31.6677 40.1989 32.0003 38.8307 31.5835L30 40.4142V44C30 45.1046 29.1046 46 28 46H11C9.89543 46 9 45.1046 9 44V29.0426C8.99883 29.0146 8.99883 28.9867 9 28.9589V24C9 22.8954 9.89543 22 11 22ZM37.0858 30.5L34.5 27.9142L30 32.4142V37.5858L37.0858 30.5ZM38.5858 29.1716C39.3668 29.9526 40.6332 29.9526 41.4142 29.1716L41.5858 29L36 23.4142L35.8284 23.5858C35.0474 24.3668 35.0474 25.6332 35.8284 26.4142L38.5858 29.1716ZM28 31.999V32.001V39.999V40.001V42V44H26H13H11V42V29.6482C11.1024 29.6058 11.2171 29.5597 11.3427 29.5114C11.9169 29.2906 12.7044 29.0287 13.5705 28.8555C15.3743 28.4948 17.1676 28.5824 18.2922 29.7071C19.2465 30.6614 20.4805 31.0984 21.6981 31.2572C22.9134 31.4157 24.1794 31.3072 25.2981 31.1098C26.3362 30.9266 27.2833 30.6603 28 30.428V31.999ZM27 24H26H13H12H11V26V27.5055C11.5995 27.291 12.3524 27.0595 13.1782 26.8944C15.1244 26.5051 17.8311 26.4175 19.7065 28.2929C20.2521 28.8386 21.0182 29.1516 21.9568 29.274C22.8978 29.3967 23.9443 29.3178 24.9506 29.1402C25.9507 28.9637 26.87 28.6973 27.5425 28.4732C27.7125 28.4165 27.866 28.3628 28 28.3143V26V24H27Z" fill="#C3D64B"/>
<path d="M14 8L24 40" stroke="#C3D64B" stroke-width="2" stroke-linecap="round" stroke-linejoin="round"/>
<path d="M19 8.99997C18.4477 8.99997 18 9.44769 18 9.99997C18 10.5523 18.4477 11 19 11V8.99997ZM9 6.99984C8.99993 7.55213 9.44759 7.9999 9.99987 7.99997C10.5522 8.00004 10.9999 7.55238 11 7.0001L9 6.99984ZM19 11C21.0651 11 23.6485 10.7436 25.7425 10.2201C26.7822 9.96018 27.7666 9.61869 28.5145 9.16995C29.217 8.74844 30 8.05068 30 6.99997H28C28 6.94925 28.033 7.12648 27.4855 7.45497C26.9834 7.75622 26.2178 8.03974 25.2575 8.27982C23.3515 8.75632 20.9349 8.99997 19 8.99997V11ZM30 6.99997C30 5.94926 29.217 5.2515 28.5145 4.82999C27.7666 4.38126 26.7822 4.03978 25.7425 3.77985C23.6485 3.25636 21.0651 3 19 3V5C20.9349 5 23.3515 5.24364 25.2575 5.72014C26.2178 5.96021 26.9834 6.24373 27.4855 6.54498C28.033 6.87347 28 7.0507 28 6.99997H30ZM19 3C16.9337 3 14.5871 3.25654 12.7254 3.78845C11.8009 4.05258 10.9295 4.403 10.2672 4.87049C9.61328 5.33206 9.00012 6.0326 9 6.99984L11 7.0001C11 6.96733 11.0119 6.79287 11.4205 6.50444C11.8208 6.22193 12.4493 5.94736 13.2748 5.7115C14.913 5.24344 17.0663 5 19 5V3Z" fill="#C3D64B"/>
<path d="M21 12L19 10L21 8" stroke="#C3D64B" stroke-width="2" stroke-linecap="round" stroke-linejoin="round"/>
</svg>
