<svg width="48" height="48" viewBox="0 0 48 48" fill="none" xmlns="http://www.w3.org/2000/svg">
<path fill-rule="evenodd" clip-rule="evenodd" d="M29.7931 6.20736C27.2156 3.62987 23.0788 3.56228 20.4195 6.00445L29.9957 15.5814C32.4382 12.9221 32.3707 8.78494 29.7931 6.20736ZM31.2073 4.79314C27.8487 1.43454 22.4456 1.36661 19.0043 4.58918L18.7081 4.29295C18.5206 4.1054 18.2662 4.00003 18.001 4.00003C17.7358 4.00002 17.4814 4.10538 17.2939 4.29292L14.3199 7.2669C14.3108 7.27537 14.3018 7.28405 14.2929 7.29292C14.284 7.30179 14.2753 7.31079 14.2669 7.31991L2.29387 19.2929C1.90336 19.6834 1.90334 20.3166 2.29384 20.7071L15.2929 33.7071C15.4804 33.8947 15.7348 34 16 34C16.2652 34 16.5196 33.8947 16.7071 33.7071L19.4142 31H30H30.0006C30.9128 32.2145 32.3652 33 34.001 33H35.001C35.5533 33 36.001 32.5523 36.001 32V22C36.001 21.4477 35.5533 21 35.001 21H34.001C32.3651 21 30.9128 21.7856 30.0006 23H30H27.4142L28.7067 21.7075L28.7071 21.7071L28.7075 21.7068L31.7071 18.7071C32.0976 18.3166 32.0976 17.6835 31.7071 17.2929L31.4108 16.9966C34.6339 13.5553 34.5661 8.15187 31.2073 4.79314ZM34.001 23C32.3441 23 31.001 24.3431 31.001 26V28C31.001 29.6569 32.3441 31 34.001 31V23ZM25.4142 25L21.4142 29H29V25H25.4142ZM18.2939 29.2919L26.5858 21L15.0005 9.41473L4.41516 20.0001L16 31.5858L18.2919 29.294L18.2939 29.2919ZM29.2929 17.7071L29.2856 17.6997L18.0009 6.41427L16.4147 8.00051L28 19.5858L29.5858 18L29.3002 17.7144L29.2929 17.7071ZM36 35C36 34.4477 35.5523 34 35 34C34.4477 34 34 34.4477 34 35V36C34 36.5523 34.4477 37 35 37C35.5523 37 36 36.5523 36 36V35ZM38 40C38 39.4477 37.5523 39 37 39C36.4477 39 36 39.4477 36 40V41C36 41.5523 36.4477 42 37 42C37.5523 42 38 41.5523 38 41V40Z" fill="#C3D64B"/>
<path d="M45 45H3" stroke="#C3D64B" stroke-width="2" stroke-linecap="round" stroke-linejoin="round"/>
<path d="M42 45V30" stroke="#C3D64B" stroke-width="2" stroke-linecap="round" stroke-linejoin="round"/>
<path d="M45 30C45 31.6569 43.6569 33 42 33C40.3431 33 39 31.6569 39 30C39 29.7736 39.0818 29.3385 39.2804 28.6931C39.4706 28.0751 39.7406 27.3488 40.0534 26.5789C40.6658 25.0723 41.4202 23.453 42 22.2528C42.5798 23.453 43.3342 25.0723 43.9466 26.5789C44.2594 27.3488 44.5294 28.0751 44.7196 28.6931C44.9182 29.3385 45 29.7736 45 30Z" stroke="#C3D64B" stroke-width="2"/>
</svg>
