<svg width="48" height="48" viewBox="0 0 48 48" fill="none" xmlns="http://www.w3.org/2000/svg">
<path fill-rule="evenodd" clip-rule="evenodd" d="M3 9H10V10C10 10.5523 10.4477 11 11 11C11.5523 11 12 10.5523 12 10V9C12 6.23858 14.2386 4 17 4H30C30 5.10457 29.1046 6 28 6H25H24C23.4477 6 23 6.44772 23 7V8C23 10.2091 21.2091 12 19 12H18C17.4477 12 17 12.4477 17 13C17 13.5523 17.4477 14 18 14H19C22.3137 14 25 11.3137 25 8H28H39C39.5523 8 40 8.44772 40 9C40 9.55228 39.5523 10 39 10H29C28.4477 10 28 10.4477 28 11C28 11.5523 28.4477 12 29 12H39H41C41.5523 12 42 12.4477 42 13C42 13.5523 41.5523 14 41 14H39H29C28.4477 14 28 14.4477 28 15C28 15.5523 28.4477 16 29 16H39C39.5523 16 40 16.4477 40 17C40 17.5523 39.5523 18 39 18H35H27C26.4477 18 26 18.4477 26 19C26 19.5523 26.4477 20 27 20H35C35.5523 20 36 20.4477 36 21C36 21.5523 35.5523 22 35 22H16C13.7909 22 12 20.2091 12 18V17C12 16.4477 11.5523 16 11 16C10.4477 16 10 16.4477 10 17V18H3C2.44772 18 2 18.4477 2 19C2 19.5523 2.44772 20 3 20H10.3414C11.1651 22.3304 13.3876 24 16 24H35C36.6569 24 38 22.6569 38 21C38 20.6494 37.9398 20.3128 37.8293 20H39C40.6569 20 42 18.6569 42 17C42 16.6098 41.9255 16.2369 41.7899 15.8949C43.0635 15.5482 44 14.3835 44 13C44 11.6165 43.0635 10.4518 41.7899 10.1051C41.9255 9.76309 42 9.39025 42 9C42 7.34315 40.6569 6 39 6H31.4649C31.8052 5.41165 32 4.72857 32 4C32 2.89543 31.1046 2 30 2H17C13.829 2 11.1504 4.10851 10.2899 7H3C2.44772 7 2 7.44772 2 8C2 8.55228 2.44772 9 3 9ZM23 28C23 27.4477 22.5523 27 22 27C21.4477 27 21 27.4477 21 28V29C21 29.5523 21.4477 30 22 30C22.5523 30 23 29.5523 23 29V28ZM27 31C27.5523 31 28 31.4477 28 32V33C28 33.5523 27.5523 34 27 34C26.4477 34 26 33.5523 26 33V32C26 31.4477 26.4477 31 27 31ZM19 33C19.5523 33 20 33.4477 20 34V35C20 35.5523 19.5523 36 19 36C18.4477 36 18 35.5523 18 35V34C18 33.4477 18.4477 33 19 33ZM2 45C2 44.4477 2.44772 44 3 44H14H14.0001H14.0001H14.0002H14.0002H14.0003H14.0004H14.0005H14.0006H14.0008H14.001H14.0011H14.0013H14.0015H14.0018H14.002H14.0023H14.0026H14.0029H14.0032H14.0036H14.0039H14.0043H14.0047H14.0052H14.0056H14.0061H14.0066H14.0072H14.0077H14.0083H14.0089H14.0095H14.0102H14.0109H14.0116H14.0124H14.0131H14.0139H14.0148H14.0156H14.0165H14.0174H14.0184H14.0194H14.0204H14.0214H14.0225H14.0236H14.0248H14.0259H14.0272H14.0284H14.0297H14.031H14.0324H14.0338H14.0352H14.0367H14.0382H14.0398H14.0413H14.043H14.0446H14.0463H14.0481H14.0499H14.0517H14.0536H14.0555H14.0575H14.0595H14.0615H14.0636H14.0658H14.0679H14.0702H14.0724H14.0748H14.0771H14.0796H14.082H14.0845H14.0871H14.0897H14.0924H14.0951H14.0978H14.1007H14.1035H14.1064H14.1094H14.1124H14.1155H14.1187H14.1218H14.1251H14.1284H14.1317H14.1351H14.1386H14.1421H14.1457H14.1493H14.153H14.1568H14.1606H14.1645H14.1684H14.1724H14.1765H14.1806H14.1847H14.189H14.1933H14.1977H14.2021H14.2066H14.2111H14.2158H14.2205H14.2252H14.23H14.2349H14.2399H14.2449H14.25H14.2552H14.2604H14.2657H14.2711H14.2765H14.282H14.2876H14.2933H14.299H14.3048H14.3106H14.3166H14.3226H14.3287H14.3349H14.3411H14.3474H14.3538H14.3603H14.3669H14.3735H14.3802H14.387H14.3939H14.4008H14.4078H14.4149H14.4221H14.4294H14.4367H14.4441H14.4517H14.4593H14.4669H14.4747H14.4825H14.4905H14.4985H14.5066H14.5148H14.5231H14.5314H14.5399H14.5484H14.557H14.5657H14.5745H14.5834H14.5924H14.6015H14.6107H14.6199H14.6293H14.6387H14.6482H14.6579H14.6676H14.6774H14.6873H14.6973H14.7074H14.7176H14.7279H14.7383H14.7488H14.7594H14.77H14.7808H14.7917H14.8027H14.8137H14.8249H14.8362H14.8476H14.8591H14.8707H14.8823H14.8941H14.906H14.918H14.9301H14.9423H14.9547H14.9671H14.9796H14.9922H15.005H15.0178H15.0308H15.0438H15.057H15.0703H15.0837H15.0972H15.1108H15.1245H15.1383H15.1523H15.1664H15.1805H15.1948H15.2092H15.2237H15.2383H15.2531H15.268H15.2829H15.298H15.3132H15.3286H15.344H15.3596H15.3752H15.391H15.407H15.423H15.4392H15.4554H15.4718H15.4884H15.505H15.5218H15.5387H15.5557H15.5728H15.5901H15.6075H15.625H15.6426H15.6604H15.6783H15.6963H15.7145H15.7328H15.7512H15.7697H15.7884H15.8071H15.8261H15.8451H15.8643H15.8836H15.9031H15.9227H15.9424H15.9622H15.9822H16.0023H16.0226H16.043H16.0635H16.0842H16.105H16.1259H16.147H16.1682H16.1895H16.211H16.2326H16.2544H16.2763H16.2983H16.3205H16.3429H16.3653H16.3879H16.4107H16.4336H16.4566H16.4798H16.5032H16.5266H16.5503H16.574H16.5979H16.622H16.6462H16.6706H16.6951H16.7197H16.7445H16.7695H16.7946H16.8198H16.8453H16.8708H16.8965H16.9224H16.9484H16.9746H17.0009H17.0273H17.054H17.0808H17.1077H17.1348H17.162H17.1894H17.217H17.2447H17.2726H17.3006H17.3288H17.3572H17.3857H17.4144H17.4432H17.4722H17.5014H17.5307H17.5602H17.5898H17.6197H17.6496H17.6798H17.7101H17.7405H17.7712H17.802H17.8329H17.8641H17.8954H17.9269H17.9585H17.9903H18.0223H18.0544H18.0867H18.1192H18.1519H18.1847H18.2177H18.2509H18.2842H18.3178H18.3515H18.3853H18.4194H18.4536H18.488H18.5225H18.5573H18.5922H18.6273H18.6626H18.698H18.7337H18.7695H18.8055H18.8417H18.878H18.9145H18.9513H18.9882H19.0252H19.0625H19.0999H19.1376H19.1754H19.2134H19.2516H19.2899H19.3285H19.3672H19.4062H19.4453H19.4846H19.5241H19.5637H19.6036H19.6437H19.6839H19.7243H19.765H19.8058H19.8468H19.888H19.9294H19.971H20.0127H20.0547H20.0969H20.1393H20.1818H20.2246H20.2675H20.3107H20.354H20.3975H20.4413H20.4852H20.5294H20.5737H20.6182H20.663H20.7079H20.753H20.7984H20.8439H20.8896H20.9356H20.9817H21.0281H21.0746H21.1214H21.1684H21.2155H21.2629H21.3105H21.3583H21.4063H21.4545H21.5029H21.5515H21.6004H21.6494H21.6986H21.7481H21.7978H21.8477H21.8978H21.9481H21.9986H22.0493H22.1003H22.1514H22.2028H22.2544H22.3062H22.3582H22.4104H22.4629H22.5156H22.5684H22.6215H22.6749H22.7284H22.7822H22.8361H22.8904H22.9448H22.9994H23.0543H23.1094H23.1647H23.2202H23.276H23.3319H23.3881H23.4446H23.5012H23.5581H23.6152H23.6725H23.7301H23.7879H23.8459H23.9041H23.9626H24.0213H24.0802H24.1394H24.1988H24.2584H24.3183H24.3783H24.4387H24.4992H24.56H24.621H24.6823H24.7437H24.8055H24.8674H24.9296H24.992H25.0547H25.1176H25.1807H25.2441H25.3077H25.3716H25.4357H25.5H25.5643H25.6285H25.6924H25.7561H25.8196H25.8828H25.9459H26.0087H26.0713H26.1337H26.1959H26.2579H26.3196H26.3812H26.4425H26.5037H26.5646H26.6253H26.6858H26.7461H26.8061H26.866H26.9256H26.9851H27.0443H27.1033H27.1622H27.2208H27.2792H27.3374H27.3953H27.4531H27.5107H27.5681H27.6252H27.6822H27.7389H27.7955H27.8518H27.908H27.9639H28.0197H28.0752H28.1305H28.1857H28.2406H28.2953H28.3499H28.4042H28.4583H28.5122H28.566H28.6195H28.6728H28.726H28.7789H28.8316H28.8842H28.9365H28.9887H29.0406H29.0924H29.1439H29.1953H29.2465H29.2975H29.3482H29.3988H29.4492H29.4994H29.5495H29.5993H29.6489H29.6983H29.7476H29.7966H29.8455H29.8942H29.9427H29.991H30.0391H30.087H30.1347H30.1823H30.2296H30.2768H30.3238H30.3706H30.4172H30.4636H30.5098H30.5559H30.6018H30.6475H30.693H30.7383H30.7834H30.8284H30.8731H30.9177H30.9621H31.0064H31.0504H31.0943H31.138H31.1815H31.2248H31.2679H31.3109H31.3537H31.3963H31.4387H31.481H31.5231H31.565H31.6067H31.6482H31.6896H31.7308H31.7718H31.8127H31.8533H31.8938H31.9342H31.9743H32.0143H32.0541H32.0938H32.1332H32.1725H32.2116H32.2506H32.2894H32.328H32.3664H32.4047H32.4428H32.4807H32.5185H32.5561H32.5935H32.6308H32.6679H32.7048H32.7416H32.7782H32.8146H32.8509H32.887H32.923H32.9587H32.9944H33.0298H33.0651H33.1002H33.1352H33.17H33.2046H33.2391H33.2734H33.3076H33.3416H33.3754H33.4091H33.4426H33.476H33.5092H33.5423H33.5752H33.6079H33.6405H33.6729H33.7052H33.7373H33.7692H33.801H33.8327H33.8642H33.8955H33.9267H33.9577H33.9886H34.0193H34.0499H34.0803H34.1106H34.1407H34.1707H34.2005H34.2302H34.2597H34.2891H34.3183H34.3474H34.3763H34.4051H34.4337H34.4622H34.4905H34.5187H34.5468H34.5747H34.6024H34.63H34.6575H34.6848H34.712H34.739H34.7659H34.7927H34.8193H34.8457H34.872H34.8982H34.9243H34.9502H34.9759H35.0015H35.027H35.0524H35.0776H35.1026H35.1276H35.1523H35.177H35.2015H35.2259H35.2501H35.2742H35.2982H35.322H35.3457H35.3693H35.3927H35.416H35.4392H35.4622H35.4851H35.5079H35.5305H35.553H35.5754H35.5976H35.6197H35.6417H35.6636H35.6853H35.7069H35.7283H35.7497H35.7709H35.792H35.8129H35.8337H35.8544H35.875H35.8954H35.9158H35.936H35.956H35.976H35.9958H36.0155H36.0351H36.0545H36.0738H36.093H36.1121H36.1311H36.1499H36.1687H36.1873H36.2057H36.2241H36.2423H36.2605H36.2785H36.2963H36.3141H36.3318H36.3493H36.3667H36.384H36.4012H36.4182H36.4352H36.452H36.4688H36.4854H36.5018H36.5182H36.5345H36.5506H36.5667H36.5826H36.5984H36.6141H36.6297H36.6452H36.6606H36.6758H36.691H36.706H36.7209H36.7358H36.7505H36.7651H36.7796H36.794H36.8083H36.8224H36.8365H36.8505H36.8643H36.8781H36.8918H36.9053H36.9187H36.9321H36.9453H36.9584H36.9715H36.9844H36.9972H37.0099H37.0226H37.0351H37.0475H37.0598H37.0721H37.0842H37.0962H37.1081H37.12H37.1317H37.1433H37.1548H37.1663H37.1776H37.1889H37.2H37.2111H37.222H37.2329H37.2436H37.2543H37.2649H37.2754H37.2858H37.2961H37.3063H37.3164H37.3264H37.3364H37.3462H37.356H37.3656H37.3752H37.3847H37.3941H37.4034H37.4126H37.4217H37.4308H37.4397H37.4486H37.4574H37.4661H37.4747H37.4832H37.4916H37.5H37.5083H37.5164H37.5245H37.5326H37.5405H37.5484H37.5561H37.5638H37.5714H37.5789H37.5864H37.5938H37.601H37.6082H37.6154H37.6224H37.6294H37.6363H37.6431H37.6498H37.6565H37.663H37.6695H37.676H37.6823H37.6886H37.6948H37.7009H37.707H37.713H37.7189H37.7247H37.7304H37.7361H37.7417H37.7473H37.7528H37.7582H37.7635H37.7687H37.7739H37.779H37.7841H37.7891H37.794H37.7988H37.8036H37.8083H37.8129H37.8175H37.822H37.8264H37.8308H37.8351H37.8394H37.8435H37.8477H37.8517H37.8557H37.8596H37.8635H37.8673H37.871H37.8747H37.8783H37.8818H37.8853H37.8888H37.8921H37.8954H37.8987H37.9019H37.905H37.9081H37.9111H37.9141H37.917H37.9198H37.9226H37.9253H37.928H37.9306H37.9332H37.9357H37.9382H37.9406H37.9429H37.9452H37.9474H37.9496H37.9518H37.9539H37.9559H37.9579H37.9598H37.9617H37.9635H37.9653H37.967H37.9687H37.9704H37.9719H37.9735H37.975H37.9764H37.9778H37.9792H37.9805H37.9817H37.9829H37.9841H37.9852H37.9863H37.9873H37.9883H37.9893H37.9902H37.9911H37.9919H37.9927H37.9934H37.9941H37.9947H37.9954H37.9959H37.9965H37.997H37.9974H37.9978H37.9982H37.9986H37.9989H37.9991H37.9994H37.9996H37.9997H37.9998H37.9999H38H45C45.5523 44 46 44.4477 46 45C46 45.5523 45.5523 46 45 46H38H37.9999H37.9998H37.9997H37.9996H37.9994H37.9991H37.9989H37.9986H37.9982H37.9978H37.9974H37.997H37.9965H37.9959H37.9954H37.9947H37.9941H37.9934H37.9927H37.9919H37.9911H37.9902H37.9893H37.9883H37.9873H37.9863H37.9852H37.9841H37.9829H37.9817H37.9805H37.9792H37.9778H37.9764H37.975H37.9735H37.9719H37.9704H37.9687H37.967H37.9653H37.9635H37.9617H37.9598H37.9579H37.9559H37.9539H37.9518H37.9496H37.9474H37.9452H37.9429H37.9406H37.9382H37.9357H37.9332H37.9306H37.928H37.9253H37.9226H37.9198H37.917H37.9141H37.9111H37.9081H37.905H37.9019H37.8987H37.8954H37.8921H37.8888H37.8853H37.8818H37.8783H37.8747H37.871H37.8673H37.8635H37.8596H37.8557H37.8517H37.8477H37.8435H37.8394H37.8351H37.8308H37.8264H37.822H37.8175H37.8129H37.8083H37.8036H37.7988H37.794H37.7891H37.7841H37.779H37.7739H37.7687H37.7635H37.7582H37.7528H37.7473H37.7417H37.7361H37.7304H37.7247H37.7189H37.713H37.707H37.7009H37.6948H37.6886H37.6823H37.676H37.6695H37.663H37.6565H37.6498H37.6431H37.6363H37.6294H37.6224H37.6154H37.6082H37.601H37.5938H37.5864H37.5789H37.5714H37.5638H37.5561H37.5484H37.5405H37.5326H37.5245H37.5164H37.5083H37.5H37.4916H37.4832H37.4747H37.4661H37.4574H37.4486H37.4397H37.4308H37.4217H37.4126H37.4034H37.3941H37.3847H37.3752H37.3656H37.356H37.3462H37.3364H37.3264H37.3164H37.3063H37.2961H37.2858H37.2754H37.2649H37.2543H37.2436H37.2329H37.222H37.2111H37.2H37.1889H37.1776H37.1663H37.1548H37.1433H37.1317H37.12H37.1081H37.0962H37.0842H37.0721H37.0598H37.0475H37.0351H37.0226H37.0099H36.9972H36.9844H36.9715H36.9584H36.9453H36.9321H36.9187H36.9053H36.8918H36.8781H36.8643H36.8505H36.8365H36.8224H36.8083H36.794H36.7796H36.7651H36.7505H36.7358H36.7209H36.706H36.691H36.6758H36.6606H36.6452H36.6297H36.6141H36.5984H36.5826H36.5667H36.5506H36.5345H36.5182H36.5018H36.4854H36.4688H36.452H36.4352H36.4182H36.4012H36.384H36.3667H36.3493H36.3318H36.3141H36.2963H36.2785H36.2605H36.2423H36.2241H36.2057H36.1873H36.1687H36.1499H36.1311H36.1121H36.093H36.0738H36.0545H36.0351H36.0155H35.9958H35.976H35.956H35.936H35.9158H35.8954H35.875H35.8544H35.8337H35.8129H35.792H35.7709H35.7497H35.7283H35.7069H35.6853H35.6636H35.6417H35.6197H35.5976H35.5754H35.553H35.5305H35.5079H35.4851H35.4622H35.4392H35.416H35.3927H35.3693H35.3457H35.322H35.2982H35.2742H35.2501H35.2259H35.2015H35.177H35.1523H35.1276H35.1026H35.0776H35.0524H35.027H35.0015H34.9759H34.9502H34.9243H34.8982H34.872H34.8457H34.8193H34.7927H34.7659H34.739H34.712H34.6848H34.6575H34.63H34.6024H34.5747H34.5468H34.5187H34.4905H34.4622H34.4337H34.4051H34.3763H34.3474H34.3183H34.2891H34.2597H34.2302H34.2005H34.1707H34.1407H34.1106H34.0803H34.0499H34.0193H33.9886H33.9577H33.9267H33.8955H33.8642H33.8327H33.801H33.7692H33.7373H33.7052H33.6729H33.6405H33.6079H33.5752H33.5423H33.5092H33.476H33.4426H33.4091H33.3754H33.3416H33.3076H33.2734H33.2391H33.2046H33.17H33.1352H33.1002H33.0651H33.0298H32.9944H32.9587H32.923H32.887H32.8509H32.8146H32.7782H32.7416H32.7048H32.6679H32.6308H32.5935H32.5561H32.5185H32.4807H32.4428H32.4047H32.3664H32.328H32.2894H32.2506H32.2116H32.1725H32.1332H32.0938H32.0541H32.0143H31.9743H31.9342H31.8938H31.8533H31.8127H31.7718H31.7308H31.6896H31.6482H31.6067H31.565H31.5231H31.481H31.4387H31.3963H31.3537H31.3109H31.2679H31.2248H31.1815H31.138H31.0943H31.0504H31.0064H30.9621H30.9177H30.8731H30.8284H30.7834H30.7383H30.693H30.6475H30.6018H30.5559H30.5098H30.4636H30.4172H30.3706H30.3238H30.2768H30.2296H30.1823H30.1347H30.087H30.0391H29.991H29.9427H29.8942H29.8455H29.7966H29.7476H29.6983H29.6489H29.5993H29.5495H29.4994H29.4492H29.3988H29.3482H29.2975H29.2465H29.1953H29.1439H29.0924H29.0406H28.9887H28.9365H28.8842H28.8316H28.7789H28.726H28.6728H28.6195H28.566H28.5122H28.4583H28.4042H28.3499H28.2953H28.2406H28.1857H28.1305H28.0752H28.0197H27.9639H27.908H27.8518H27.7955H27.7389H27.6822H27.6252H27.5681H27.5107H27.4531H27.3953H27.3374H27.2792H27.2208H27.1622H27.1033H27.0443H26.9851H26.9256H26.866H26.8061H26.7461H26.6858H26.6253H26.5646H26.5037H26.4425H26.3812H26.3196H26.2579H26.1959H26.1337H26.0713H26.0087H25.9459H25.8828H25.8196H25.7561H25.6924H25.6285H25.5643H25.5H25.4357H25.3716H25.3077H25.2441H25.1807H25.1176H25.0547H24.992H24.9296H24.8674H24.8055H24.7437H24.6823H24.621H24.56H24.4992H24.4387H24.3783H24.3183H24.2584H24.1988H24.1394H24.0802H24.0213H23.9626H23.9041H23.8459H23.7879H23.7301H23.6725H23.6152H23.5581H23.5012H23.4446H23.3881H23.3319H23.276H23.2202H23.1647H23.1094H23.0543H22.9994H22.9448H22.8904H22.8361H22.7822H22.7284H22.6749H22.6215H22.5684H22.5156H22.4629H22.4104H22.3582H22.3062H22.2544H22.2028H22.1514H22.1003H22.0493H21.9986H21.9481H21.8978H21.8477H21.7978H21.7481H21.6986H21.6494H21.6004H21.5515H21.5029H21.4545H21.4063H21.3583H21.3105H21.2629H21.2155H21.1684H21.1214H21.0746H21.0281H20.9817H20.9356H20.8896H20.8439H20.7984H20.753H20.7079H20.663H20.6182H20.5737H20.5294H20.4852H20.4413H20.3975H20.354H20.3107H20.2675H20.2246H20.1818H20.1393H20.0969H20.0547H20.0127H19.971H19.9294H19.888H19.8468H19.8058H19.765H19.7243H19.6839H19.6437H19.6036H19.5637H19.5241H19.4846H19.4453H19.4062H19.3672H19.3285H19.2899H19.2516H19.2134H19.1754H19.1376H19.0999H19.0625H19.0252H18.9882H18.9513H18.9145H18.878H18.8417H18.8055H18.7695H18.7337H18.698H18.6626H18.6273H18.5922H18.5573H18.5225H18.488H18.4536H18.4194H18.3853H18.3515H18.3178H18.2842H18.2509H18.2177H18.1847H18.1519H18.1192H18.0867H18.0544H18.0223H17.9903H17.9585H17.9269H17.8954H17.8641H17.8329H17.802H17.7712H17.7405H17.7101H17.6798H17.6496H17.6197H17.5898H17.5602H17.5307H17.5014H17.4722H17.4432H17.4144H17.3857H17.3572H17.3288H17.3006H17.2726H17.2447H17.217H17.1894H17.162H17.1348H17.1077H17.0808H17.054H17.0273H17.0009H16.9746H16.9484H16.9224H16.8965H16.8708H16.8453H16.8198H16.7946H16.7695H16.7445H16.7197H16.6951H16.6706H16.6462H16.622H16.5979H16.574H16.5503H16.5266H16.5032H16.4798H16.4566H16.4336H16.4107H16.3879H16.3653H16.3429H16.3205H16.2983H16.2763H16.2544H16.2326H16.211H16.1895H16.1682H16.147H16.1259H16.105H16.0842H16.0635H16.043H16.0226H16.0023H15.9822H15.9622H15.9424H15.9227H15.9031H15.8836H15.8643H15.8451H15.8261H15.8071H15.7884H15.7697H15.7512H15.7328H15.7145H15.6963H15.6783H15.6604H15.6426H15.625H15.6075H15.5901H15.5728H15.5557H15.5387H15.5218H15.505H15.4884H15.4718H15.4554H15.4392H15.423H15.407H15.391H15.3752H15.3596H15.344H15.3286H15.3132H15.298H15.2829H15.268H15.2531H15.2383H15.2237H15.2092H15.1948H15.1805H15.1664H15.1523H15.1383H15.1245H15.1108H15.0972H15.0837H15.0703H15.057H15.0438H15.0308H15.0178H15.005H14.9922H14.9796H14.9671H14.9547H14.9423H14.9301H14.918H14.906H14.8941H14.8823H14.8707H14.8591H14.8476H14.8362H14.8249H14.8137H14.8027H14.7917H14.7808H14.77H14.7594H14.7488H14.7383H14.7279H14.7176H14.7074H14.6973H14.6873H14.6774H14.6676H14.6579H14.6482H14.6387H14.6293H14.6199H14.6107H14.6015H14.5924H14.5834H14.5745H14.5657H14.557H14.5484H14.5399H14.5314H14.5231H14.5148H14.5066H14.4985H14.4905H14.4825H14.4747H14.4669H14.4593H14.4517H14.4441H14.4367H14.4294H14.4221H14.4149H14.4078H14.4008H14.3939H14.387H14.3802H14.3735H14.3669H14.3603H14.3538H14.3474H14.3411H14.3349H14.3287H14.3226H14.3166H14.3106H14.3048H14.299H14.2933H14.2876H14.282H14.2765H14.2711H14.2657H14.2604H14.2552H14.25H14.2449H14.2399H14.2349H14.23H14.2252H14.2205H14.2158H14.2111H14.2066H14.2021H14.1977H14.1933H14.189H14.1847H14.1806H14.1765H14.1724H14.1684H14.1645H14.1606H14.1568H14.153H14.1493H14.1457H14.1421H14.1386H14.1351H14.1317H14.1284H14.1251H14.1218H14.1187H14.1155H14.1124H14.1094H14.1064H14.1035H14.1007H14.0978H14.0951H14.0924H14.0897H14.0871H14.0845H14.082H14.0796H14.0771H14.0748H14.0724H14.0702H14.0679H14.0658H14.0636H14.0615H14.0595H14.0575H14.0555H14.0536H14.0517H14.0499H14.0481H14.0463H14.0446H14.043H14.0413H14.0398H14.0382H14.0367H14.0352H14.0338H14.0324H14.031H14.0297H14.0284H14.0272H14.0259H14.0248H14.0236H14.0225H14.0214H14.0204H14.0194H14.0184H14.0174H14.0165H14.0156H14.0148H14.0139H14.0131H14.0124H14.0116H14.0109H14.0102H14.0095H14.0089H14.0083H14.0077H14.0072H14.0066H14.0061H14.0056H14.0052H14.0047H14.0043H14.0039H14.0036H14.0032H14.0029H14.0026H14.0023H14.002H14.0018H14.0015H14.0013H14.0011H14.001H14.0008H14.0006H14.0005H14.0004H14.0003H14.0002H14.0002H14.0001H14.0001H14H3C2.44772 46 2 45.5523 2 45ZM32 36C32 35.4477 31.5523 35 31 35C30.4477 35 30 35.4477 30 36V37C30 37.5523 30.4477 38 31 38C31.5523 38 32 37.5523 32 37V36ZM25 38C25.5523 38 26 38.4477 26 39V40C26 40.5523 25.5523 41 25 41C24.4477 41 24 40.5523 24 40V39C24 38.4477 24.4477 38 25 38Z" fill="#C3D64B"/>
</svg>
