<svg width="48" height="48" viewBox="0 0 48 48" fill="none" xmlns="http://www.w3.org/2000/svg">
<path d="M3 33C2.44772 33 2 33.4477 2 34C2 34.5523 2.44772 35 3 35V33ZM13 34L13.9959 33.9095C13.9491 33.3944 13.5172 33 13 33V34ZM36 34V33C35.4477 33 35 33.4477 35 34H36ZM45 35C45.5523 35 46 34.5523 46 34C46 33.4477 45.5523 33 45 33V35ZM3 35H13V33H3V35ZM13 34C12.0041 34.0905 12.0042 34.0911 12.0042 34.0916C12.0042 34.0919 12.0043 34.0925 12.0043 34.093C12.0044 34.094 12.0045 34.0951 12.0047 34.0964C12.0049 34.0991 12.0052 34.1024 12.0056 34.1063C12.0064 34.1143 12.0075 34.1249 12.0089 34.138C12.0117 34.1643 12.0158 34.2008 12.0215 34.2468C12.033 34.3389 12.0508 34.4695 12.0774 34.6329C12.1304 34.9595 12.2184 35.4193 12.3597 35.9682C12.6415 37.0622 13.1409 38.531 14.0141 40.0087C15.7845 43.0048 19.0834 46 25 46V44C19.9166 44 17.2155 41.4952 15.7359 38.9913C14.9841 37.719 14.546 36.4378 14.2965 35.4693C14.1723 34.987 14.0962 34.5874 14.0515 34.3124C14.0292 34.1751 14.0149 34.0693 14.0063 34.0002C14.002 33.9657 13.9992 33.9405 13.9975 33.9251C13.9967 33.9174 13.9962 33.9122 13.9959 33.9096C13.9958 33.9083 13.9957 33.9076 13.9957 33.9076C13.9957 33.9076 13.9957 33.9077 13.9958 33.908C13.9958 33.9082 13.9958 33.9085 13.9958 33.9086C13.9959 33.909 13.9959 33.9095 13 34ZM25 46C27.925 46 30.1852 45.2659 31.9141 44.1133C33.6367 42.9649 34.7726 41.4408 35.5194 39.9472C36.2643 38.4575 36.6317 36.9799 36.8145 35.8831C36.9063 35.3324 36.9526 34.8713 36.976 34.5439C36.9877 34.3801 36.9937 34.2492 36.9968 34.1568C36.9983 34.1107 36.9991 34.074 36.9995 34.0477C36.9997 34.0345 36.9999 34.0239 36.9999 34.0159C37 34.0119 37 34.0086 37 34.0059C37 34.0046 37 34.0035 37 34.0025C37 34.002 37 34.0014 37 34.0011C37 34.0005 37 34 36 34C35 34 35 33.9996 35 33.9991C35 33.9991 35 33.9987 35 33.9985C35 33.9982 35 33.9981 35 33.9981C35 33.9981 35 33.9987 35 34C35 34.0026 34.9999 34.0078 34.9998 34.0154C34.9995 34.0307 34.999 34.0558 34.9979 34.0902C34.9956 34.159 34.9908 34.2645 34.9811 34.4014C34.9615 34.6756 34.9218 35.0738 34.8417 35.5544C34.6808 36.5201 34.3607 37.7925 33.7306 39.0528C33.1024 40.3092 32.1758 41.5351 30.8047 42.4492C29.4398 43.3591 27.575 44 25 44V46ZM36 35H45V33H36V35Z" fill="#C3D64B"/>
<path d="M19 34V35" stroke="#C3D64B" stroke-width="2" stroke-linecap="round" stroke-linejoin="round"/>
<path d="M31 36V37" stroke="#C3D64B" stroke-width="2" stroke-linecap="round" stroke-linejoin="round"/>
<path d="M27 32V33" stroke="#C3D64B" stroke-width="2" stroke-linecap="round" stroke-linejoin="round"/>
<path d="M22 28V29" stroke="#C3D64B" stroke-width="2" stroke-linecap="round" stroke-linejoin="round"/>
<path d="M25 39V40" stroke="#C3D64B" stroke-width="2" stroke-linecap="round" stroke-linejoin="round"/>
<path fill-rule="evenodd" clip-rule="evenodd" d="M10 9H3C2.44772 9 2 8.55228 2 8C2 7.44772 2.44772 7 3 7H10.2899C11.1504 4.10851 13.829 2 17 2H30C31.1046 2 32 2.89543 32 4C32 4.72857 31.8052 5.41165 31.4649 6H39C40.6569 6 42 7.34315 42 9C42 9.39025 41.9255 9.76309 41.7899 10.1051C43.0635 10.4518 44 11.6165 44 13C44 14.3835 43.0635 15.5482 41.7899 15.8949C41.9255 16.2369 42 16.6098 42 17C42 18.6569 40.6569 20 39 20H37.8293C37.9398 20.3128 38 20.6494 38 21C38 22.6569 36.6569 24 35 24H16C13.3876 24 11.1651 22.3304 10.3414 20H3C2.44772 20 2 19.5523 2 19C2 18.4477 2.44772 18 3 18H10V17C10 16.4477 10.4477 16 11 16C11.5523 16 12 16.4477 12 17V18C12 20.2091 13.7909 22 16 22H35C35.5523 22 36 21.5523 36 21C36 20.4477 35.5523 20 35 20H27C26.4477 20 26 19.5523 26 19C26 18.4477 26.4477 18 27 18H35H39C39.5523 18 40 17.5523 40 17C40 16.4477 39.5523 16 39 16H29C28.4477 16 28 15.5523 28 15C28 14.4477 28.4477 14 29 14H39H41C41.5523 14 42 13.5523 42 13C42 12.4477 41.5523 12 41 12H39H29C28.4477 12 28 11.5523 28 11C28 10.4477 28.4477 10 29 10H39C39.5523 10 40 9.55228 40 9C40 8.44772 39.5523 8 39 8H28H25C25 11.3137 22.3137 14 19 14H18C17.4477 14 17 13.5523 17 13C17 12.4477 17.4477 12 18 12H19C21.2091 12 23 10.2091 23 8V7C23 6.44772 23.4477 6 24 6H25H28C29.1046 6 30 5.10457 30 4H17C14.2386 4 12 6.23858 12 9V10C12 10.5523 11.5523 11 11 11C10.4477 11 10 10.5523 10 10V9Z" fill="#C3D64B"/>
</svg>
