<svg width="48" height="48" viewBox="0 0 48 48" fill="none" xmlns="http://www.w3.org/2000/svg">
<path fill-rule="evenodd" clip-rule="evenodd" d="M24 44C35.0457 44 44 35.0457 44 24C44 12.9543 35.0457 4 24 4C12.9543 4 4 12.9543 4 24C4 35.0457 12.9543 44 24 44ZM24 46C36.1503 46 46 36.1503 46 24C46 11.8497 36.1503 2 24 2C11.8497 2 2 11.8497 2 24C2 36.1503 11.8497 46 24 46ZM24 39C32.2843 39 39 32.2843 39 24C39 15.7157 32.2843 9 24 9C15.7157 9 9 15.7157 9 24C9 32.2843 15.7157 39 24 39ZM24 41C33.3888 41 41 33.3888 41 24C41 14.6112 33.3888 7 24 7C14.6112 7 7 14.6112 7 24C7 33.3888 14.6112 41 24 41ZM31.7782 14.8077C32.1688 14.4172 32.8019 14.4172 33.1925 14.8077C33.583 15.1982 33.583 15.8314 33.1925 16.2219L32.4854 16.929C32.0948 17.3195 31.4617 17.3195 31.0711 16.929C30.6806 16.5385 30.6806 15.9053 31.0711 15.5148L31.7782 14.8077ZM15.5148 31.0711C15.9053 30.6806 16.5385 30.6806 16.929 31.0711C17.3195 31.4617 17.3195 32.0948 16.929 32.4854L16.2219 33.1925C15.8314 33.583 15.1982 33.583 14.8077 33.1925C14.4172 32.8019 14.4172 32.1688 14.8077 31.7783L15.5148 31.0711ZM16.2219 14.8076C15.8314 14.4171 15.1982 14.4171 14.8077 14.8076C14.4172 15.1981 14.4172 15.8313 14.8077 16.2218L15.5148 16.9289C15.9053 17.3194 16.5385 17.3194 16.929 16.9289C17.3195 16.5384 17.3195 15.9052 16.929 15.5147L16.2219 14.8076ZM32.4854 31.0711C32.0948 30.6805 31.4617 30.6805 31.0711 31.0711C30.6806 31.4616 30.6806 32.0947 31.0711 32.4853L31.7783 33.1924C32.1688 33.5829 32.8019 33.5829 33.1925 33.1924C33.583 32.8019 33.583 32.1687 33.1925 31.7782L32.4854 31.0711ZM11 24C11 23.4477 11.4477 23 12 23H13C13.5523 23 14 23.4477 14 24C14 24.5523 13.5523 25 13 25H12C11.4477 25 11 24.5523 11 24ZM34 24C34 23.4477 34.4477 23 35 23H36C36.5523 23 37 23.4477 37 24C37 24.5523 36.5523 25 36 25H35C34.4477 25 34 24.5523 34 24ZM25 12C25 11.4477 24.5523 11 24 11C23.4477 11 23 11.4477 23 12V13C23 13.5523 23.4477 14 24 14C24.5523 14 25 13.5523 25 13V12ZM23 35V36C23 36.5523 23.4477 37 24 37C24.5523 37 25 36.5523 25 36V35C25 34.4477 24.5523 34 24 34C23.4477 34 23 34.4477 23 35ZM24 26C25.1046 26 26 25.1046 26 24C26 23.8208 25.9764 23.6472 25.9323 23.482L29.7071 19.7071C30.0976 19.3166 30.0976 18.6834 29.7071 18.2929C29.3166 17.9024 28.6834 17.9024 28.2929 18.2929L24.518 22.0677C24.3528 22.0236 24.1792 22 24 22C23.8208 22 23.6472 22.0236 23.482 22.0677L21.7071 20.2929C21.3166 19.9024 20.6834 19.9024 20.2929 20.2929C19.9024 20.6834 19.9024 21.3166 20.2929 21.7071L22.0677 23.482C22.0236 23.6472 22 23.8208 22 24C22 25.1046 22.8954 26 24 26Z" fill="#C3D64B"/>
</svg>
