<svg width="48" height="48" viewBox="0 0 48 48" fill="none" xmlns="http://www.w3.org/2000/svg">
<path fill-rule="evenodd" clip-rule="evenodd" d="M4 44.5C4 43.1193 5.11929 42 6.5 42C7.88071 42 9 43.1193 9 44.5V45C9 45.5523 9.44771 46 10 46C10.5523 46 11 45.5523 11 45V44.5C11 43.1193 12.1193 42 13.5 42C14.8807 42 16 43.1193 16 44.5V45C16 45.5523 16.4477 46 17 46C17.5523 46 18 45.5523 18 45V44.5C18 43.1193 19.1193 42 20.5 42C21.8807 42 23 43.1193 23 44.5V45C23 45.5523 23.4477 46 24 46C24.5523 46 25 45.5523 25 45V44.5C25 43.1193 26.1193 42 27.5 42C28.8807 42 30 43.1193 30 44.5V45C30 45.5523 30.4477 46 31 46C31.5523 46 32 45.5523 32 45V44.5C32 43.1193 33.1193 42 34.5 42C35.8807 42 37 43.1193 37 44.5V45C37 45.5523 37.4477 46 38 46C38.5523 46 39 45.5523 39 45V44.5C39 43.1193 40.1193 42 41.5 42C42.8807 42 44 43.1193 44 44.5V45C44 45.5523 44.4477 46 45 46C45.5523 46 46 45.5523 46 45V44.5C46 42.0147 43.9853 40 41.5 40C40.0864 40 38.825 40.6518 38 41.6713C37.175 40.6518 35.9136 40 34.5 40C33.0864 40 31.825 40.6518 31 41.6713C30.175 40.6518 28.9136 40 27.5 40C26.0864 40 24.825 40.6518 24 41.6713C23.175 40.6518 21.9136 40 20.5 40C19.0864 40 17.825 40.6518 17 41.6713C16.175 40.6518 14.9136 40 13.5 40C12.0864 40 10.825 40.6518 10 41.6713C9.17502 40.6518 7.91363 40 6.5 40C4.01472 40 2 42.0147 2 44.5V45C2 45.5523 2.44772 46 3 46C3.55228 46 4 45.5523 4 45V44.5Z" fill="#C3D64B"/>
<path fill-rule="evenodd" clip-rule="evenodd" d="M29.7931 6.20736C27.2156 3.62987 23.0788 3.56228 20.4195 6.00445L29.9957 15.5814C32.4382 12.9221 32.3707 8.78494 29.7931 6.20736ZM31.2073 4.79314C27.8487 1.43454 22.4456 1.36661 19.0043 4.58918L18.7081 4.29295C18.5206 4.1054 18.2662 4.00003 18.001 4.00003C17.7358 4.00002 17.4814 4.10538 17.2939 4.29292L14.3199 7.2669C14.3108 7.27537 14.3018 7.28405 14.2929 7.29292C14.284 7.30179 14.2753 7.31079 14.2669 7.31991L2.29387 19.2929C1.90336 19.6834 1.90334 20.3166 2.29384 20.7071L15.2929 33.7071C15.4804 33.8947 15.7348 34 16 34C16.2652 34 16.5196 33.8947 16.7071 33.7071L19.4142 31H32.0006C32.9128 32.2145 34.3652 33 36.001 33H37.001C37.5533 33 38.001 32.5523 38.001 32V22C38.001 21.4477 37.5533 21 37.001 21H36.001C34.3652 21 32.9128 21.7856 32.0006 23H27.4142L28.7067 21.7075L28.7071 21.7071L28.7075 21.7068L31.7071 18.7071C32.0976 18.3166 32.0976 17.6835 31.7071 17.2929L31.4108 16.9966C34.6339 13.5553 34.5661 8.15187 31.2073 4.79314ZM36.001 23C34.3441 23 33.001 24.3432 33.001 26V28C33.001 29.6569 34.3441 31 36.001 31V23ZM31.001 26V28V29H21.4142L25.4142 25H31.001V26ZM18.2939 29.2919L26.5858 21L15.0005 9.41473L4.41516 20.0001L16 31.5858L18.2919 29.294L18.2939 29.2919ZM29.2929 17.7071L29.2856 17.6997L18.0009 6.41427L16.4147 8.00051L28 19.5858L29.5858 18L29.3002 17.7144L29.2929 17.7071ZM41 28C41.5523 28 42 28.4477 42 29V30C42 30.5523 41.5523 31 41 31C40.4477 31 40 30.5523 40 30V29C40 28.4477 40.4477 28 41 28ZM39 35C39.5523 35 40 35.4477 40 36V37C40 37.5523 39.5523 38 39 38C38.4477 38 38 37.5523 38 37V36C38 35.4477 38.4477 35 39 35ZM46 33C46 32.4477 45.5523 32 45 32C44.4477 32 44 32.4477 44 33V34C44 34.5523 44.4477 35 45 35C45.5523 35 46 34.5523 46 34V33Z" fill="#C3D64B"/>
</svg>
