<svg width="48" height="48" viewBox="0 0 48 48" fill="none" xmlns="http://www.w3.org/2000/svg">
<path fill-rule="evenodd" clip-rule="evenodd" d="M33 3C33 2.44772 32.5523 2 32 2C31.4477 2 31 2.44772 31 3V7C31 7.55228 31.4477 8 32 8C32.5523 8 33 7.55228 33 7V3ZM33 25C33 24.4477 32.5523 24 32 24C31.4477 24 31 24.4477 31 25V29C31 29.5523 31.4477 30 32 30C32.5523 30 33 29.5523 33 29V25ZM23.5149 6.10051C23.1244 5.70999 22.4912 5.70999 22.1007 6.10051C21.7101 6.49103 21.7101 7.1242 22.1007 7.51472L24.9291 10.3432C25.3196 10.7337 25.9528 10.7337 26.3433 10.3432C26.7338 9.95263 26.7338 9.31946 26.3433 8.92894L23.5149 6.10051ZM39.0715 21.6569C38.681 21.2664 38.0478 21.2664 37.6573 21.6569C37.2668 22.0474 37.2668 22.6806 37.6573 23.0711L40.4857 25.8995C40.8763 26.2901 41.5094 26.2901 41.8999 25.8995C42.2905 25.509 42.2905 24.8759 41.8999 24.4853L39.0715 21.6569ZM41.8996 6.10054C42.2901 6.49106 42.2901 7.12423 41.8996 7.51475L39.0712 10.3432C38.6807 10.7337 38.0475 10.7337 37.657 10.3432C37.2664 9.95266 37.2664 9.31949 37.657 8.92897L40.4854 6.10054C40.8759 5.71002 41.5091 5.71002 41.8996 6.10054ZM26.343 21.6569C26.7335 22.0475 26.7335 22.6806 26.343 23.0711L23.5145 25.8996C23.124 26.2901 22.4909 26.2901 22.1003 25.8996C21.7098 25.5091 21.7098 24.8759 22.1003 24.4854L24.9288 21.6569C25.3193 21.2664 25.9524 21.2664 26.343 21.6569ZM36 16C36 18.2091 34.2091 20 32 20C29.7909 20 28 18.2091 28 16C28 13.7909 29.7909 12 32 12C34.2091 12 36 13.7909 36 16ZM38 16C38 19.3137 35.3137 22 32 22C28.6863 22 26 19.3137 26 16C26 12.6863 28.6863 10 32 10C35.3137 10 38 12.6863 38 16ZM18 16C18 15.4477 18.4477 15 19 15H23C23.5523 15 24 15.4477 24 16C24 16.5523 23.5523 17 23 17H19C18.4477 17 18 16.5523 18 16ZM40 16C40 15.4477 40.4477 15 41 15H45C45.5523 15 46 15.4477 46 16C46 16.5523 45.5523 17 45 17H41C40.4477 17 40 16.5523 40 16ZM2 36C2 35.4477 2.44772 35 3 35H45C45.5523 35 46 35.4477 46 36C46 36.5523 45.5523 37 45 37H3C2.44772 37 2 36.5523 2 36ZM4 44.5C4 43.1193 5.11929 42 6.5 42C7.88071 42 9 43.1193 9 44.5V45C9 45.5523 9.44771 46 10 46C10.5523 46 11 45.5523 11 45V44.5C11 43.1193 12.1193 42 13.5 42C14.8807 42 16 43.1193 16 44.5V45C16 45.5523 16.4477 46 17 46C17.5523 46 18 45.5523 18 45V44.5C18 43.1193 19.1193 42 20.5 42C21.8807 42 23 43.1193 23 44.5V45C23 45.5523 23.4477 46 24 46C24.5523 46 25 45.5523 25 45V44.5C25 43.1193 26.1193 42 27.5 42C28.8807 42 30 43.1193 30 44.5V45C30 45.5523 30.4477 46 31 46C31.5523 46 32 45.5523 32 45V44.5C32 43.1193 33.1193 42 34.5 42C35.8807 42 37 43.1193 37 44.5V45C37 45.5523 37.4477 46 38 46C38.5523 46 39 45.5523 39 45V44.5C39 43.1193 40.1193 42 41.5 42C42.8807 42 44 43.1193 44 44.5V45C44 45.5523 44.4477 46 45 46C45.5523 46 46 45.5523 46 45V44.5C46 42.0147 43.9853 40 41.5 40C40.0864 40 38.825 40.6518 38 41.6713C37.175 40.6518 35.9136 40 34.5 40C33.0864 40 31.825 40.6518 31 41.6713C30.175 40.6518 28.9136 40 27.5 40C26.0864 40 24.825 40.6518 24 41.6713C23.175 40.6518 21.9136 40 20.5 40C19.0864 40 17.825 40.6518 17 41.6713C16.175 40.6518 14.9136 40 13.5 40C12.0864 40 10.825 40.6518 10 41.6713C9.17502 40.6518 7.91363 40 6.5 40C4.01472 40 2 42.0147 2 44.5V45C2 45.5523 2.44772 46 3 46C3.55228 46 4 45.5523 4 45V44.5Z" fill="#C3D64B"/>
</svg>
