<svg width="48" height="48" viewBox="0 0 48 48" fill="none" xmlns="http://www.w3.org/2000/svg">
<path fill-rule="evenodd" clip-rule="evenodd" d="M4 44.5C4 43.1193 5.11929 42 6.5 42C7.88071 42 9 43.1193 9 44.5V45C9 45.5523 9.44771 46 10 46C10.5523 46 11 45.5523 11 45V44.5C11 43.1193 12.1193 42 13.5 42C14.8807 42 16 43.1193 16 44.5V45C16 45.5523 16.4477 46 17 46C17.5523 46 18 45.5523 18 45V44.5C18 43.1193 19.1193 42 20.5 42C21.8807 42 23 43.1193 23 44.5V45C23 45.5523 23.4477 46 24 46C24.5523 46 25 45.5523 25 45V44.5C25 43.1193 26.1193 42 27.5 42C28.8807 42 30 43.1193 30 44.5V45C30 45.5523 30.4477 46 31 46C31.5523 46 32 45.5523 32 45V44.5C32 43.1193 33.1193 42 34.5 42C35.8807 42 37 43.1193 37 44.5V45C37 45.5523 37.4477 46 38 46C38.5523 46 39 45.5523 39 45V44.5C39 43.1193 40.1193 42 41.5 42C42.8807 42 44 43.1193 44 44.5V45C44 45.5523 44.4477 46 45 46C45.5523 46 46 45.5523 46 45V44.5C46 42.0147 43.9853 40 41.5 40C40.0864 40 38.825 40.6518 38 41.6713C37.175 40.6518 35.9136 40 34.5 40C33.0864 40 31.825 40.6518 31 41.6713C30.175 40.6518 28.9136 40 27.5 40C26.0864 40 24.825 40.6518 24 41.6713C23.175 40.6518 21.9136 40 20.5 40C19.0864 40 17.825 40.6518 17 41.6713C16.175 40.6518 14.9136 40 13.5 40C12.0864 40 10.825 40.6518 10 41.6713C9.17502 40.6518 7.91363 40 6.5 40C4.01472 40 2 42.0147 2 44.5V45C2 45.5523 2.44772 46 3 46C3.55228 46 4 45.5523 4 45V44.5Z" fill="#C3D64B"/>
<path fill-rule="evenodd" clip-rule="evenodd" d="M14.3661 4.55664C12.5923 2.37348 9.36731 2.08269 7.23157 3.91332L6.8564 4.2349C4.54396 6.21698 4.52574 9.78849 6.81783 11.7941L18.5374 22.0487L16.2933 24.2928C15.9027 24.6833 15.9027 25.3165 16.2932 25.707L20.2933 29.7071C20.2935 29.7074 20.2938 29.7077 20.2941 29.7079L28.2932 37.7071C28.6838 38.0976 29.3169 38.0976 29.7075 37.7071C30.098 37.3166 30.098 36.6834 29.7075 36.2929L22.4146 29L24.5003 26.9142L32.2932 34.7071C32.6838 35.0976 33.3169 35.0976 33.7075 34.7071C34.098 34.3166 34.098 33.6834 33.7075 33.2929L25.9145 25.5L28.0003 23.4142L35.2932 30.7071C35.6838 31.0976 36.3169 31.0976 36.7075 30.7071C37.098 30.3166 37.098 29.6834 36.7075 29.2929L29.4145 22L31.0003 20.4142L38.2933 27.7071C38.6838 28.0976 39.3169 28.0976 39.7075 27.7071C40.098 27.3166 40.098 26.6834 39.7075 26.2929L31.7168 18.3022C31.7137 18.299 31.7106 18.2959 31.7075 18.2928L27.7075 14.2928C27.3169 13.9023 26.6838 13.9023 26.2932 14.2928L24.0772 16.5088L14.3661 4.55664ZM24.6954 18.719C24.7042 18.7106 24.7127 18.702 24.7211 18.6934L27.0004 16.4141L29.5861 18.9999L21.0004 27.5858L18.4146 24.9999L20.6954 22.719C20.703 22.7117 20.7106 22.7041 20.718 22.6965L24.6954 18.719ZM22.6555 17.9306L20.3372 15.0774L17.1966 18.218L19.9547 20.6313L22.6555 17.9306ZM19.0693 13.5168L15.6881 16.898L8.13484 10.2889C6.75959 9.08557 6.77052 6.94266 8.15798 5.75341L8.53315 5.43184C9.81459 4.33345 11.7496 4.50793 12.8139 5.81783L19.0693 13.5168Z" fill="#C3D64B"/>
</svg>
