<svg width="100" height="100" fill="none" xmlns="http://www.w3.org/2000/svg"><circle cx="50" cy="50" r="50" fill="#113624"/><path fill-rule="evenodd" clip-rule="evenodd" d="M51.092 30.073c.626-.852.907-1.567.907-2.073s-.28-1.221-.907-2.074c-.342-.465-.73-.894-1.093-1.258-.362.364-.75.793-1.092 1.258C48.28 26.78 48 27.494 48 28c0 .506.28 1.221.907 2.073.342.466.73.895 1.093 1.258.362-.363.75-.792 1.092-1.258zm-.515 3.452C51.685 32.564 54 30.282 54 28c0-2.282-2.314-4.564-3.422-5.526a.874.874 0 00-1.155 0C48.314 23.436 46 25.718 46 28c0 2.282 2.314 4.564 3.422 5.525a.873.873 0 001.155 0zM28 30a2 2 0 100-4 2 2 0 000 4zm0 2a4 4 0 100-8 4 4 0 000 8zm44-2a2 2 0 100-4 2 2 0 000 4zm0 2a4 4 0 100-8 4 4 0 000 8zm-35.54 3.048c1.142.287 2.374.621 3.573.991 1.309.404 2.539.838 3.549 1.286 1.061.47 1.685.873 1.952 1.14a5.002 5.002 0 01.636 6.293l-2.172-2.172V39a1 1 0 10-2 0v1.586l-5.537-5.538zm9.731 12.559a7.002 7.002 0 01-9.142-.657c-2.156-2.156-4.052-10.207-4.758-13.516a.956.956 0 011.142-1.141c3.309.706 11.36 2.602 13.515 4.757a7.001 7.001 0 01.657 9.142l1.1 1.1a1 1 0 11-1.414 1.415l-1.1-1.1zm-1.435-1.435L42.584 44h-3.586a1 1 0 110-2h1.586l-5.537-5.538c.287 1.141.62 2.374.99 3.573.404 1.308.839 2.538 1.287 3.548.47 1.062.872 1.686 1.139 1.952a5.002 5.002 0 006.293.637zm-4.721 17.792c-1.2.37-2.432.704-3.573.99l5.537-5.537v1.586a1 1 0 102 0v-3.586l2.172-2.172a5.002 5.002 0 01-.636 6.293c-.267.267-.89.669-1.952 1.14-1.01.447-2.24.882-3.548 1.286zM37.05 53.053a7.002 7.002 0 019.142-.657l1.1-1.1a1 1 0 011.415 1.414l-1.1 1.1a7.002 7.002 0 01-.658 9.142c-2.155 2.156-10.206 4.052-13.515 4.758a.956.956 0 01-1.142-1.142c.706-3.309 2.602-11.36 4.758-13.515zm5.535 2.95l2.172-2.172a5.002 5.002 0 00-6.293.636c-.267.267-.669.89-1.14 1.952-.447 1.01-.882 2.24-1.285 3.549a71.115 71.115 0 00-.991 3.572l5.537-5.537H39a1 1 0 110-2h3.586zm17.38 7.96c1.198.37 2.431.705 3.572.991L58 59.417v1.586a1 1 0 11-2 0v-3.586l-2.171-2.172a5.002 5.002 0 00.636 6.293c.267.267.89.669 1.952 1.14 1.01.447 2.24.882 3.549 1.286zm2.984-10.91a7.002 7.002 0 00-9.142-.657l-1.1-1.1a1 1 0 00-1.415 1.414l1.1 1.1a7.002 7.002 0 00.658 9.142c2.155 2.156 10.206 4.052 13.515 4.758a.956.956 0 001.142-1.142c-.706-3.309-2.602-11.36-4.758-13.515zm-5.535 2.95l-2.172-2.172a5.002 5.002 0 016.293.636c.267.267.669.89 1.14 1.952.447 1.01.882 2.24 1.286 3.549a69.96 69.96 0 01.99 3.572l-5.537-5.537h1.585a1 1 0 100-2h-3.585zm2.55-19.964a71.006 71.006 0 013.573-.99L58 40.585V39a1 1 0 10-2 0v3.586l-2.171 2.172a5.002 5.002 0 01.636-6.294c.267-.266.89-.668 1.952-1.139 1.01-.448 2.24-.883 3.549-1.286zm2.985 10.91a7.002 7.002 0 01-9.142.658l-1.1 1.1a1 1 0 01-1.415-1.414l1.1-1.1a7.002 7.002 0 01.658-9.143c2.155-2.155 10.206-4.051 13.515-4.757a.956.956 0 011.142 1.141c-.706 3.31-2.602 11.36-4.758 13.516zM57.414 44l-2.172 2.173a5.002 5.002 0 006.293-.637c.267-.266.669-.89 1.14-1.952.447-1.01.882-2.24 1.286-3.548.37-1.2.704-2.432.99-3.573L59.414 42h1.585a1 1 0 110 2h-3.585zm16.585 28A2 2 0 1170 72a2 2 0 014 0zm2 0a4 4 0 11-8 0 4 4 0 018 0zm-46 0A2 2 0 1126 72a2 2 0 014 0zm2 0a4 4 0 11-8 0 4 4 0 018 0zm-1.926-23.092C29.221 48.281 28.505 48 28 48c-.506 0-1.222.281-2.074.907-.465.342-.895.73-1.258 1.093.363.363.793.75 1.258 1.093.852.626 1.568.907 2.074.907.505 0 1.22-.281 2.073-.907.465-.342.895-.73 1.258-1.093-.363-.363-.793-.75-1.258-1.093zm3.452.515C32.563 48.314 30.28 46 28 46c-2.282 0-4.564 2.314-5.526 3.422a.874.874 0 000 1.156C23.436 51.686 25.718 54 28 54c2.281 0 4.563-2.314 5.525-3.422a.874.874 0 000-1.156zM71.999 48c.506 0 1.222.281 2.074.907.465.342.895.73 1.258 1.093-.363.363-.793.75-1.258 1.093-.852.626-1.568.907-2.073.907-.506 0-1.222-.281-2.074-.907-.465-.342-.895-.73-1.258-1.093.363-.363.793-.75 1.258-1.093.852-.626 1.568-.907 2.073-.907zm0-2c2.282 0 4.564 2.314 5.526 3.422a.874.874 0 010 1.156C76.563 51.686 74.28 54 71.999 54c-2.281 0-4.563-2.314-5.525-3.422a.874.874 0 010-1.156C67.436 48.314 69.718 46 72 46zM52 72c0 .506-.28 1.221-.907 2.073-.342.466-.73.895-1.093 1.259-.362-.364-.75-.793-1.092-1.258C48.28 73.22 48 72.505 48 72c0-.506.28-1.221.907-2.074.342-.465.73-.895 1.093-1.258.362.363.75.793 1.092 1.258.626.853.907 1.568.907 2.074zm2 0c0 2.282-2.314 4.564-3.422 5.525a.873.873 0 01-1.155 0C48.314 76.564 46 74.282 46 72c0-2.282 2.314-4.564 3.422-5.525a.874.874 0 011.155 0C51.685 67.436 54 69.718 54 72z" fill="#C3D64B"/></svg>