<svg width="226" height="48" fill="none" xmlns="http://www.w3.org/2000/svg"><path d="M6.859 36.684L0 11.316h4.51l5.26 19.449 5.638-19.45h4.228l5.731 19.544 5.356-19.543h4.51l-6.86 25.368h-5.26l-5.544-18.98-5.544 18.98H6.86zm31.475-25.368h4.322v25.368h-4.322V11.316zM51.77 32.644H62.2v3.946H47.541V11.222h4.228v21.422zm23.677-21.328c3.57 0 6.483 1.221 8.738 3.664 2.349 2.443 3.57 5.45 3.57 9.02 0 3.57-1.221 6.577-3.57 9.02-2.35 2.443-5.262 3.664-8.738 3.664H65.394V11.316h10.053zm0 21.422c2.443 0 4.416-.846 5.92-2.443 1.502-1.597 2.348-3.758 2.348-6.201 0-2.537-.752-4.604-2.349-6.201-1.503-1.597-3.476-2.443-5.92-2.443h-5.824v17.382h5.825v-.094zm35.045-3.288c0 2.067-.751 3.758-2.255 5.167-1.503 1.41-3.288 2.067-5.449 2.067H91.701V11.316h10.241c2.067 0 3.853.658 5.356 1.973 1.503 1.315 2.161 3.007 2.161 4.98 0 2.255-.846 3.946-2.631 5.167 2.255 1.222 3.664 3.383 3.664 6.013zM95.929 15.261v6.671h6.013a3.268 3.268 0 003.289-3.288c0-1.88-1.409-3.289-3.289-3.289h-6.013v-.094zm6.859 17.476c1.973 0 3.476-1.503 3.476-3.57 0-1.973-1.503-3.57-3.476-3.57h-6.765v7.14h6.765zm15.878.001h11.369v3.946h-15.597V11.316h15.409v3.946h-11.181v6.577h10.242v3.946h-10.242v6.953zm29.784 3.946l-5.449-9.208h-4.98v9.208h-4.228V11.316h10.241c2.349 0 4.228.752 5.825 2.443 1.598 1.503 2.443 3.476 2.443 5.731 0 3.195-2.067 6.201-5.073 7.329l5.825 9.865h-4.604zm-10.429-21.422v8.456h6.013c2.255 0 4.04-1.879 4.04-4.228 0-2.349-1.785-4.228-4.04-4.228h-6.013zM171 36.684l-5.45-9.208h-4.979v9.208h-4.228V11.316h10.241c2.349 0 4.228.752 5.825 2.443 1.598 1.597 2.443 3.476 2.443 5.731 0 3.195-2.067 6.201-5.074 7.329l5.826 9.865H171zm-10.429-21.422v8.456h6.013c2.255 0 4.04-1.879 4.04-4.228 0-2.349-1.785-4.228-4.04-4.228h-6.013zm18.134-3.946h4.228v25.368h-4.228V11.316zm13.435 21.422h11.369v3.946h-15.597V11.316h15.409v3.946H192.14v6.577h10.241v3.946H192.14v6.953zm14.281-1.879l3.664-2.067c1.034 2.818 3.101 4.228 6.389 4.228 3.195 0 4.792-1.316 4.792-3.289 0-1.033-.47-1.785-1.315-2.349-.846-.563-2.349-1.127-4.604-1.785-2.443-.751-3.665-1.221-5.356-2.349-1.691-1.127-2.443-2.818-2.443-5.073 0-2.255.846-4.04 2.443-5.356 1.597-1.315 3.571-1.973 5.826-1.973 4.134 0 7.328 2.067 8.925 5.544l-3.57 1.973c-1.034-2.35-2.913-3.57-5.355-3.57-2.443 0-4.041 1.22-4.041 3.194 0 1.879 1.222 2.725 5.168 3.946.94.282 1.691.564 2.161.752.47.188 1.127.376 1.879.751.846.282 1.503.658 1.879 1.034 1.41 1.033 2.819 2.819 2.631 5.167 0 2.255-.846 4.135-2.537 5.45-1.691 1.315-3.852 1.973-6.577 1.973-4.979.094-8.55-2.255-9.959-6.201z" fill="#481173"/></svg>