<svg width="188" height="48" fill="none" xmlns="http://www.w3.org/2000/svg"><path fill-rule="evenodd" clip-rule="evenodd" d="M129.033 22.194c0 1.135.929 1.96 2.064 1.96 1.136 0 2.065-.928 2.065-1.96v-4.542h6.709v4.542c0 1.135.929 1.96 2.065 1.96 1.135 0 2.064-.928 2.064-1.96V9.084c0-1.136-.929-1.961-2.064-1.961-1.136 0-2.065.929-2.065 1.961v4.542h-6.709V9.084c0-1.136-.929-1.961-2.065-1.961-1.135 0-2.064.929-2.064 1.961v13.11zM80.517 11.252v10.942c0 1.135.929 1.96 2.064 1.96 1.136 0 2.065-.928 2.065-1.96V11.252h3.096c1.136 0 2.065-.93 2.065-1.962a2.07 2.07 0 00-2.065-2.064H77.523c-1.135 0-2.064.929-2.064 1.961 0 1.136.929 1.962 2.064 1.962h2.994v.103zM66.27 16.207l-4.748-8.155c-.62-.93-1.755-1.239-2.684-.826-1.032.62-1.342 1.755-.722 2.787l5.677 9.6c-.722.413-1.445.62-2.27.723-1.136.103-1.859.929-1.859 1.96 0 1.24 1.032 1.962 2.065 1.962 2.27 0 4.335-1.135 5.78-2.787 1.342-1.445 2.374-3.406 3.303-5.161l3.304-6.297c.516-.929.206-2.271-.826-2.787-.93-.413-2.168-.103-2.684.929l-4.336 8.052zm80.826-.62c0 4.955 3.613 8.568 8.568 8.568s8.568-3.613 8.568-8.568-3.716-8.568-8.568-8.568c-4.852 0-8.568 3.717-8.568 8.568zm13.11 0c0 2.58-1.858 4.542-4.439 4.542-2.684 0-4.438-1.961-4.438-4.542 0-2.58 1.858-4.645 4.438-4.645 2.581.103 4.439 2.065 4.439 4.645zm18.064-4.335a1.96 1.96 0 001.962-1.962c0-1.032-.929-1.96-1.962-1.96h-3.096c-5.058 0-8.568 3.612-8.568 8.36 0 4.749 3.51 8.362 8.568 8.362h3.096a1.96 1.96 0 001.962-1.962c0-1.032-.929-1.96-1.962-1.96h-3.2c-2.683 0-4.438-1.859-4.438-4.44 0-2.58 1.755-4.438 4.438-4.438h3.2zm-74.632 12.284c.723.825 2.065.825 2.787 0 .723-.723.826-2.065.104-2.788l-5.162-5.367 4.955-5.162c.723-.825.723-2.064-.103-2.787-.723-.825-2.065-.722-2.787 0l-5.162 5.265c-.412.413-.722.516-1.135.516-.516 0-.93-.31-.93-.929v-3.2c0-1.136-.928-1.961-2.064-1.961-1.135 0-2.064.929-2.064 1.961v13.11c0 1.135.929 1.96 2.064 1.96 1.136 0 2.065-.928 2.065-1.96v-3.716c0-.517.413-.826.929-.826.31 0 .62.103 1.136.516l5.367 5.368zm5.058-7.949c0 4.955 3.613 8.568 8.568 8.568s8.568-3.613 8.568-8.568-3.716-8.568-8.568-8.568c-4.955 0-8.568 3.717-8.568 8.568zm13.007 0c0 2.58-1.858 4.542-4.439 4.542-2.684 0-4.439-1.961-4.439-4.542 0-2.58 1.858-4.645 4.439-4.645s4.439 2.065 4.439 4.645zm63.587-1.548a2.07 2.07 0 002.064-2.065 2.07 2.07 0 00-2.064-2.064 2.07 2.07 0 00-2.065 2.064 2.07 2.07 0 002.065 2.065zm0 7.226a2.07 2.07 0 002.064-2.065 2.07 2.07 0 00-2.064-2.064 2.07 2.07 0 00-2.065 2.064 2.07 2.07 0 002.065 2.065z" fill="#13A538"/><path d="M61.213 32.929c1.961 0 3.097 1.445 3.097 3.303 0 1.858-1.032 3.303-3.097 3.303-1.961 0-3.097-1.445-3.097-3.303 0-1.858 1.032-3.303 3.097-3.303zm0 5.884c1.445 0 2.271-1.033 2.271-2.581s-.826-2.58-2.271-2.58c-1.445 0-2.271 1.032-2.271 2.58s.826 2.58 2.271 2.58zm9.6-5.781c.206 0 .31.207.31.413v5.471c0 .207-.104.413-.31.413-.207 0-.31-.206-.31-.413V36.44h-3.82v2.477c0 .207-.102.413-.309.413-.206 0-.31-.206-.31-.413v-5.47c0-.207.104-.414.31-.414.207 0 .31.207.31.413v2.271h3.82v-2.27c0-.207.102-.414.309-.414zm2.787 4.955c.31-.929.517-2.787.62-4.645 0-.206.103-.31.31-.31h3.096c.31 0 .413.207.413.413v5.471c0 .207-.103.413-.31.413-.206 0-.31-.206-.31-.413v-5.161h-2.477c-.103 1.445-.206 3.51-.722 4.645-.31.723-.723 1.032-1.239 1.032-.31 0-.516-.103-.516-.413s.206-.31.413-.31c.31 0 .516-.309.722-.722zm6.71-4.129c-.104-.206 0-.413.206-.516.516-.207 1.238-.516 2.064-.516 1.652 0 2.374.825 2.374 2.27v3.717c0 .206-.103.413-.31.413-.206 0-.31-.207-.31-.413v-.93c-.309.723-1.031 1.55-2.477 1.55-1.238 0-2.064-.62-2.064-1.859 0-1.651 1.445-2.064 2.89-2.064.723 0 1.239.103 1.652.103v-.31c0-1.032-.516-1.651-1.755-1.651-.62 0-1.135.206-1.651.31-.31.102-.62.102-.62-.104zm3.922 2.58v-.206c-.62-.103-.93-.103-1.652-.103-1.239 0-2.168.413-2.168 1.445 0 .723.516 1.239 1.445 1.239 1.549 0 2.375-1.342 2.375-2.374zm3.201 2.684c-.104.104-.207.207-.413.207-.207 0-.31-.207-.31-.413v-5.471c0-.206.103-.413.31-.413.206 0 .31.207.31.413v4.748l3.819-4.954c.103-.104.206-.207.31-.207.206 0 .309.207.309.413v5.471c0 .206-.103.413-.31.413-.206 0-.31-.207-.31-.413v-4.645l-3.715 4.851zm.206-8.051c-.103-.207-.103-.413.103-.516.207-.104.413 0 .516.206.207.413.62.723 1.136.723.516 0 .929-.31 1.135-.723.103-.206.31-.31.516-.206.207.103.207.31.104.516-.207.413-.723 1.032-1.755 1.032-.93 0-1.549-.62-1.755-1.032zm11.045 1.961c.206 0 .31.207.31.413v5.471c0 .207-.104.413-.31.413-.206 0-.31-.206-.31-.413V36.44h-3.82v2.477c0 .207-.102.413-.309.413-.206 0-.31-.206-.31-.413v-5.47c0-.207.104-.414.31-.414.207 0 .31.207.31.413v2.271h3.82v-2.27c0-.207.103-.414.309-.414zm2.477 2.89c0-.206.103-.31.31-.31h3.406c.207 0 .31.104.31.31 0 .207-.103.31-.31.31h-3.406c-.207 0-.31-.103-.31-.31zm6.813 2.994c0 .207-.103.413-.31.413-.206 0-.31-.206-.31-.413v-5.47c0-.207.104-.414.31-.414h3.097c.206 0 .31.104.31.31 0 .206-.104.31-.31.31h-2.787v5.264zm5.265.207c-.103.103-.206.206-.413.206-.206 0-.309-.206-.309-.413v-5.47c0-.207.103-.414.309-.414.207 0 .31.207.31.413v4.748l3.819-4.954c.104-.103.207-.207.31-.207.206 0 .31.207.31.413v5.471c0 .207-.104.413-.31.413-.206 0-.31-.206-.31-.413v-4.645l-3.716 4.852zm7.432-5.368v5.161c0 .207-.103.413-.31.413-.206 0-.309-.206-.309-.413v-5.47c0-.207.103-.414.309-.414h4.336c.206 0 .413.207.413.413v5.471c0 .207-.103.413-.31.413-.206 0-.31-.206-.31-.413v-5.161h-3.819zm10.426 4.645c.207-.103.413-.103.516.103.104.207 0 .413-.206.516-.516.31-1.239.516-1.961.516-1.962 0-2.994-1.238-2.994-3.2 0-1.858 1.032-3.303 2.89-3.303 1.652 0 2.478 1.239 2.478 2.478v.516c-.103.413-.207.62-.723.62h-3.922c.103 1.444.929 2.27 2.271 2.27.619-.103 1.135-.31 1.651-.516zm-3.819-2.477h3.923v-.517c0-1.032-.62-1.858-1.859-1.858-1.238 0-1.961.826-2.064 2.374zm11.87.103c0 1.857-.929 3.51-2.993 3.51-.723 0-1.342-.104-1.755-.414v2.374c0 .207-.103.413-.413.413s-.413-.206-.413-.413v-8.051c0-.207.103-.413.413-.413s.413.206.413.413v1.032c.413-1.032 1.239-1.548 2.374-1.548 1.549 0 2.374 1.238 2.374 3.096zm-4.851 1.032v1.238c.516.31 1.135.413 1.755.413 1.651 0 2.271-1.342 2.271-2.787 0-1.342-.517-2.374-1.858-2.374-1.755 0-2.168 1.961-2.168 3.51zm6.709-4.026c.207 0 .31.104.413.31l2.168 3.097 2.271-3.097a.568.568 0 01.516-.31c.207 0 .31.207.31.413v5.471c0 .207-.103.413-.413.413s-.413-.206-.413-.413v-4.645l-2.065 2.787c-.206.31-.516.31-.722 0l-1.961-2.684v4.542c0 .207-.104.413-.31.413-.207 0-.31-.206-.31-.413v-5.47c.207-.207.31-.414.516-.414zm8.052.826c-.104-.206 0-.413.206-.516.516-.207 1.239-.516 2.065-.516 1.651 0 2.374.825 2.374 2.27v3.717c0 .206-.104.413-.413.413-.31 0-.413-.207-.413-.413v-.93c-.31.723-1.032 1.55-2.478 1.55-1.238 0-2.064-.62-2.064-1.859 0-1.651 1.445-2.064 2.89-2.064.723 0 1.239.103 1.652.103v-.31c0-1.032-.516-1.651-1.755-1.651-.619 0-1.135.206-1.652.31-.103.102-.412.102-.412-.104zm3.819 2.58v-.206c-.516-.103-.929-.103-1.548-.103-1.239 0-2.168.413-2.168 1.445 0 .723.516 1.239 1.445 1.239 1.548 0 2.271-1.342 2.271-2.374zm8.052-.412c0 1.857-.929 3.51-2.994 3.51-.722 0-1.342-.104-1.755-.414v2.374c0 .207-.103.413-.413.413-.309 0-.413-.206-.413-.413v-8.051c0-.207.104-.413.413-.413.31 0 .413.206.413.413v1.032c.413-1.032 1.239-1.548 2.375-1.548 1.651 0 2.374 1.238 2.374 3.096zm-4.749 1.032v1.238c.516.31 1.136.413 1.755.413 1.652 0 2.271-1.342 2.271-2.787 0-1.342-.516-2.374-1.858-2.374-1.858 0-2.168 1.961-2.168 3.51zm6.917-4.026c.207 0 .413.207.413.413v2.477l2.787-2.787c.207-.206.413-.206.516-.103.104.103.104.31-.103.516l-2.581 2.58 2.891 2.582c.206.206.206.413.103.516-.103.206-.413.103-.619 0l-3.097-2.787v2.477c0 .207-.103.413-.413.413s-.413-.206-.413-.413v-5.47c.207-.207.31-.414.516-.414zm9.91 5.368c.206-.103.413-.103.516.103.103.207 0 .413-.103.516-.516.31-1.239.516-1.962.516-1.961 0-2.993-1.238-2.993-3.2 0-1.858 1.032-3.303 2.89-3.303 1.652 0 2.478 1.239 2.478 2.478v.516c-.104.413-.207.62-.723.62h-3.923c.104 1.444.929 2.27 2.271 2.27.517-.103 1.033-.31 1.549-.516zm-3.82-2.477h3.923v-.517c0-1.032-.619-1.858-1.858-1.858s-1.961.826-2.065 2.374zm8.774 2.993c0 .206-.104.413-.413.413-.31 0-.413-.207-.413-.413v-5.161h-2.065c-.206 0-.309-.104-.309-.31 0-.206.103-.31.309-.31h4.852c.206 0 .31.104.31.31 0 .206-.104.31-.31.31h-2.064l.103 5.16z" fill="#000"/><path fill-rule="evenodd" clip-rule="evenodd" d="M43.871 5.161C43.871 2.271 41.497 0 38.71 0H5.16C2.374 0 0 2.374 0 5.161v20.852C0 38.193 9.806 48 21.884 48 33.96 48 43.87 38.194 43.87 26.013V5.16z" fill="#FEC800"/><path fill-rule="evenodd" clip-rule="evenodd" d="M20.439 31.896a2.07 2.07 0 00-2.065-2.064 2.07 2.07 0 00-2.064 2.064 2.07 2.07 0 002.064 2.065 2.07 2.07 0 002.065-2.064zm7.329 0a2.07 2.07 0 00-2.065-2.064 2.07 2.07 0 00-2.064 2.064 2.07 2.07 0 002.064 2.065 2.07 2.07 0 002.065-2.064z" fill="#000"/></svg>