<svg width="133" height="48" fill="none" xmlns="http://www.w3.org/2000/svg"><path d="M55.519 31.096H44.054L58.69 11.682a.987.987 0 00-.195-1.368.966.966 0 00-.585-.195H36.735a3.4 3.4 0 00-3.385 3.392 3.4 3.4 0 003.385 3.393h9.516l-14.69 19.432c-.337.426-.248 1.03.177 1.367a.85.85 0 00.602.196h23.161c1.861-.089 3.296-1.688 3.208-3.57a3.384 3.384 0 00-3.208-3.215l.018-.018zm74.002-20.977a3.4 3.4 0 00-3.385 3.392v11.386L107.848 10.35a.961.961 0 00-1.364.142.978.978 0 00-.213.621v23.393a3.4 3.4 0 003.385 3.393c1.86 0 3.384-1.51 3.384-3.393V23.121l18.288 14.565a.983.983 0 001.595-.764v-23.41a3.404 3.404 0 00-3.402-3.393zM81.125 31.735c-7.743 0-13.52-4.085-13.52-7.744s5.794-7.744 13.52-7.744c7.744 0 13.521 4.085 13.521 7.744s-5.759 7.744-13.52 7.744zm0-22.274c-11.2 0-20.29 6.501-20.29 14.53s9.09 14.53 20.29 14.53 20.291-6.501 20.291-14.53-9.091-14.53-20.29-14.53zM14.513 31.753A7.746 7.746 0 016.77 24.01c0-4.281 3.456-7.762 7.726-7.762a7.746 7.746 0 017.745 7.744v.018c0 4.263-3.456 7.726-7.727 7.744zm0-22.292C6.503 9.461.018 15.962 0 23.991c0 8.029 6.486 14.53 14.495 14.547 8.01 0 14.496-6.5 14.514-14.53v-.017c-.018-8.029-6.504-14.53-14.496-14.53z" fill="#005BFF"/></svg>