<svg width="180" height="48" fill="none" xmlns="http://www.w3.org/2000/svg"><path d="M84.508 35.528h3.571l4.977-18.51v18.51h4.004V11.065h-5.519l-4.977 17.968-4.977-17.968H75.96v24.463h3.463v-18.51l5.085 18.51zm29.324-12.123c0-4.33-2.164-5.954-6.601-5.954-2.813 0-4.977.866-6.276 1.624v3.464c1.082-.866 3.571-1.732 5.735-1.732 2.056 0 2.922.758 2.922 2.598v.974h-.649c-6.385 0-9.306 2.165-9.306 5.737s2.164 5.629 5.41 5.629c2.489 0 3.571-.758 4.328-1.624h.217c0 .433.216 1.082.324 1.407h4.112c-.108-1.407-.216-2.923-.216-4.33v-7.793zm-4.22 7.901c-.541.758-1.515 1.408-3.03 1.408-1.731 0-2.597-1.083-2.597-2.598 0-2.057 1.407-2.814 5.086-2.814h.649l-.108 4.005zm11.47-13.53h-3.896v22.84h4.22V33.47c1.082 1.624 2.597 2.382 4.437 2.382 4.111 0 6.925-3.248 6.925-9.201s-2.705-9.2-6.709-9.2c-1.948 0-3.571.865-4.761 2.597l-.216-2.273zm3.57 14.83c-2.164 0-3.354-1.84-3.354-5.846 0-4.113 1.19-5.953 3.571-5.953 2.272 0 3.462 1.84 3.462 5.845 0 4.113-1.19 5.953-3.679 5.953zm21.209 2.922h4.761l-6.709-9.525 5.951-8.227h-4.22l-5.951 8.227v-8.227h-4.22v17.752h4.22v-8.66l6.168 8.66zm18.827-1.19v-3.465c-1.298.866-3.462 1.624-5.518 1.624-3.03 0-4.22-1.407-4.437-4.438h10.063v-2.273c0-6.17-2.705-8.443-6.925-8.443-5.085 0-7.574 3.897-7.574 9.309 0 6.17 3.03 9.2 8.332 9.2 2.921 0 4.869-.649 6.059-1.515zm-6.817-13.531c2.056 0 2.705 1.732 2.705 3.897v.324h-5.843c.109-2.814 1.191-4.221 3.138-4.221zm21.966.325v-3.356H165.77v3.356h4.978v14.396h4.22V21.132h4.869z" fill="#000"/><path d="M50.965 39.858c8.98 0 16.23-7.252 16.23-16.237 0-8.984-7.25-16.236-16.23-16.236-8.981 0-16.231 7.252-16.231 16.236-.108 8.985 7.25 16.237 16.23 16.237z" fill="#FED42B"/><path d="M16.23 39.858c8.965 0 16.232-7.27 16.232-16.237 0-8.967-7.267-16.236-16.231-16.236C7.267 7.385 0 14.655 0 23.62c0 8.968 7.267 16.237 16.23 16.237z" fill="#FC3F1D"/><path d="M18.611 16.477h-1.623c-2.813 0-4.22 1.407-4.22 3.572 0 2.382.974 3.572 3.03 4.98l1.623 1.19-4.653 7.252H8.981l4.436-6.602c-2.597-1.84-4.003-3.572-4.003-6.603 0-3.789 2.597-6.387 7.574-6.387h4.978v19.484h-3.247l-.108-16.886z" fill="#fff"/><path d="M66.871 20.482c-2.272 3.464-4.544 5.953-5.735 5.629-2.056-.541-.216-7.144.974-11.366v-.108l-6.6-2.273-7.9 12.88 1.083-7.035-5.735-1.948-8.007 10.39c.432 2.166 1.298 4.222 2.488 6.063l5.627-7.47-1.082 7.686 5.951 2.057 7.25-11.582c-.325 2.165-.866 7.144 3.895 8.66 2.381.757 4.653-.11 6.71-1.841.865-2.057 1.406-4.221 1.406-6.603 0-1.082-.108-2.165-.325-3.139z" fill="#000"/></svg>