<svg width="144" height="48" fill="none" xmlns="http://www.w3.org/2000/svg"><path d="M143.668 40.333a1.78 1.78 0 01-1.787 1.787h-32.004a1.78 1.78 0 01-1.787-1.787V8.098a1.78 1.78 0 011.787-1.787h31.987a1.78 1.78 0 011.787 1.787l.017 32.235z" fill="#F47624"/><path d="M112.806 16.735h7.546c1.638 0 2.879.38 3.69 1.159.811.777 1.225 1.87 1.225 3.293 0 1.456-.447 2.598-1.341 3.425-.893.828-2.25 1.241-4.087 1.241h-2.482v5.345h-4.551V16.735zm4.551 6.19h1.125c.877 0 1.506-.15 1.854-.448.347-.28.529-.695.529-1.141.017-.43-.149-.86-.463-1.159-.315-.314-.894-.48-1.738-.48h-1.307v3.227zm8.903-6.19h4.931l2.035 5.957 2.003-5.957h4.616l-4.815 11.17a17.739 17.739 0 01-1.026 2.019c-.331.48-.778.86-1.307 1.092-.579.281-1.374.43-2.383.43-.53 0-1.456-.082-2.764-.231v-2.979c.778.083 1.324.116 1.688.116 1.043 0 1.688-.38 1.92-1.159l-4.898-10.458z" fill="#fff"/><path d="M93.23 38.777V27.673H81.514v3.21c0 2.93-.397 5.56-1.208 7.877h-1.44v6.47h3.475v-3.144h8.92v3.145h3.475v-6.47H93.23v.016zm-4.32 0h-4.45c.661-2.913.976-5.378.976-7.364v-.182h3.475v7.546zM74.002 24.132a3.118 3.118 0 01-1.159 2.003 3.823 3.823 0 01-4.567 0 3.041 3.041 0 01-1.158-1.986h1.638c.265.827.86 1.224 1.754 1.224.96 0 1.572-.413 1.837-1.224l1.655-.017zm3.16 3.541v14.43h-4.055v-7.926l-5.195 7.926h-4.104v-14.43h4.087v7.976l5.229-7.976h4.038zm-27.485 0h11.567v3.078h-7.232v2.3h6.702v2.946h-6.702v2.83h7.447v3.276H49.677v-14.43zm-3.41 1.159c-.777-.762-1.952-1.159-3.524-1.159H35.56v14.43h4.336v-5.345h2.366c1.737 0 3.045-.414 3.889-1.225.843-.81 1.274-1.952 1.274-3.425 0-1.423-.38-2.515-1.159-3.276zm-3.54 4.55c-.332.298-.927.447-1.771.447h-1.06v-3.227h1.242c.81 0 1.373.166 1.654.48.298.315.464.728.447 1.158 0 .43-.182.861-.513 1.142zm-22.241-5.709h13.155v3.558h-4.418v10.872h-4.319V31.231h-4.418v-3.558zm59.639-21.38h4.319v5.031h4.7v-5.03h4.335v14.38h-4.336v-5.825h-4.7v5.825h-4.318V6.293zm-6.057-3.524c-.1.794-.53 1.506-1.158 1.986a3.463 3.463 0 01-2.284.761 3.554 3.554 0 01-2.284-.761 2.956 2.956 0 01-1.141-1.986h1.638c.265.81.844 1.225 1.754 1.225.96 0 1.572-.414 1.837-1.225h1.638zm3.161 3.524v14.38h-4.055V12.78l-5.179 7.894h-4.087V6.293h4.07v7.959l5.23-7.96h4.02zm-19.925 0h-4.716l-5.245 14.38h4.401l.696-2.366h4.881l.695 2.367h4.518l-5.23-14.38zm-3.954 8.903l1.522-5.163 1.522 5.163H53.35zm-7.463 5.478h-4.303V9.834h-3.376v4.419c0 1.82-.099 3.16-.28 4.005a2.763 2.763 0 01-1.308 1.886c-.695.397-1.804.596-3.326.596-.546 0-1.092-.05-1.622-.15v-2.928h.646c.579 0 .992-.133 1.224-.397.232-.265.364-.745.364-1.457V6.293h11.98v14.38zM16.879 6.293h4.302v5.031h4.716v-5.03h4.32v14.38h-4.32v-5.825h-4.716v5.825H16.88V6.293zm-4.22 1.689c-1.258-1.275-3.045-1.92-5.361-1.92-2.267 0-4.038.645-5.296 1.97C.712 9.321 0 11.604 0 13.938c0 1.688.414 2.63 1.06 3.74a5.944 5.944 0 002.498 2.449c1.026.513 2.333.777 3.905.777 1.572 0 2.846-.297 3.872-.893a5.925 5.925 0 002.383-2.515c.546-1.076.828-2.45.828-4.137-.017-2.284-.63-4.088-1.887-5.378zm-3.194 8.67c-.513.613-1.224.927-2.15.927-.928 0-1.623-.314-2.136-.943-.513-.629-.777-1.671-.777-3.127 0-1.457.264-2.516.794-3.145a2.573 2.573 0 012.102-.943c.91 0 1.621.315 2.15.943.53.63.795 1.606.795 2.962-.017 1.59-.265 2.714-.778 3.327z" fill="#0987C9"/><path fill-rule="evenodd" clip-rule="evenodd" d="M100.776 21.815c1.29 0 2.349 1.06 2.349 2.35s-1.059 2.35-2.349 2.35a2.359 2.359 0 01-2.35-2.35c0-1.29 1.042-2.35 2.35-2.35zm0-2.515c.463 0 .927.1 1.34.298V7.038c0-.678-.546-.727-1.224-.727h-.248c-.679 0-1.225.05-1.225.728v12.56c.43-.2.894-.299 1.357-.299zm0 9.813c-.464 0-.927-.099-1.34-.298v12.527c0 .678.545.761 1.224.761h.248c.679 0 1.225-.099 1.225-.76V28.814a3.241 3.241 0 01-1.357.298z" fill="#0987C9"/></svg>