<svg width="178" height="628" fill="none" xmlns="http://www.w3.org/2000/svg"><path d="M487.478 472.91c-22.679 5.143-42.826 19.823-54.693 39.811l-1.311 2.132c4.865-18.84 9.239-37.562 10.861-56.928 1.051-11.951 1.059-23.913-.713-35.711-.293-1.23-1.639-1.429-2.505-.703-8.99 9.162-14.455 21.124-17.472 33.543-3.404 14.071-3.072 28.552-1.019 42.623 1.256 8.541 3.061 17.211 5.054 25.576.059.246.118.492.422.68-.257 1.101-.515 2.202-.83 3.058-.258 1.101-.82 2.015-1.077 3.116-.187.305-.07.797-.011 1.043-.515 2.202-.971 4.651-1.731 6.912.058.246-.187.305-.375.61l.118.492c-.901 3.854-1.556 7.65-2.152 11.692-.923 5.94-1.354 11.763-.685 17.844.34 2.519.68 5.038 1.512 7.44-1.628-2.473-3.256-4.945-4.697-7.721l-.059-.246c-.352-1.477-1.441-2.777-2.53-4.078-8.002-13.954-15.137-28.634-21.475-43.244-.293-1.23-.832-2.402-1.371-3.574-.059-.246-.118-.492-.422-.679a2069.655 2069.655 0 01-21.361-53.672c8.881-21.616 14.038-44.685 17.111-67.777.14-1.593.339-2.941.479-4.534.304.187.796.07 1.042.012 11.134-3.433 21.202-10.252 30.415-17.387 4.577-3.69 9.096-7.627 13.368-11.505 3.84-3.514 7.984-6.842 11.215-10.731 3.23-3.89 5.735-8.647 5.241-13.989-.234-.984-1.148-1.547-2.131-1.312l-.984.234c-.304-.188-.854-.316-1.229.293l-.246.058c-19.318 6.163-37.112 18.722-49.004 35.335-2.926 4.077-5.548 8.342-7.373 12.677 2.195-21.323 2.248-42.916.028-64.228-1.502-13.942-3.801-27.954-7.084-41.732-.293-1.231-1.944-1.617-2.693-.399-6.94 12.314-11.198 26.068-12.459 40.409-1.33 15.137.712 30.251 6.137 44.298 2.976 8.131 7.124 15.723 12.196 22.835l.913.563c-1.436 13.602-3.669 27.134-6.756 40.35-2.76 11.317-6.071 22.506-9.381 33.695-1.91-4.745-3.879-9.736-5.543-14.54l-29.88-76.342c-2.859-7.639-5.905-14.973-8.765-22.612-.775-7.616-1.245-15.044-1.224-22.589.021-7.545.347-14.903 1.165-22.378.55.129 1.346.2 1.721-.41 17.418-17.41 29.015-40.713 32.287-65.152 1.063-7.534.721-15.512-3.625-21.757-.422-.68-1.768-.879-2.33.035-.62.668-.936 1.523-1.498 2.437-4.203 3.081-7.984 6.842-11.46 10.79-3.851 4.558-7.398 9.303-10.031 14.61-5.945 11.036-9.266 23.268-9.649 35.839a79.637 79.637 0 00.249 10.861c.164 1.781.329 3.562.798 5.53.351 1.476.516 3.257 1.113 4.675-.876 7.229-1.26 14.34-1.34 21.639-.01 6.503.226 12.947.954 19.273-4.945-13.122-10.077-25.939-15.514-38.944l-.117-.492c.187-.305.07-.797-.293-1.23l-.059-.246c-.703-2.953-1.102-5.718-1.501-8.483-.798-5.53-1.291-10.872-1.293-16.332-.062-11.165 1.223-22.132 3.304-33.028 4.537-22.401 13.289-43.466 23.201-64.028 4.774-10.497 10.099-20.866 14.932-31.117 2.387-5.249 5.02-10.556 7.407-15.805 1.51-3.48 4.822-9.209 1.917-12.677-3.631-4.335-9.519 1.488-12.364 3.726-3.957 3.022-7.55 6.478-11.085 10.181-6.825 7.346-12.618 15.746-17.007 24.591-9.408 19.402-12.411 41.698-8.412 62.845a43.28 43.28 0 001.876 7.874c.058.246.117.492.421.679-.83 3.058-1.719 5.87-2.304 8.869-4.058 17.867-5.551 36.683-2.502 54.937-.539-1.172-1.019-2.097-1.312-3.328-.845-6.818-2.919-13.344-5.24-19.812-2.554-7.451-5.659-15.031-8.893-22.061-6.643-14.798-14.212-29.115-20.117-44.088-3.703-8.998-6.422-18.23-8.649-27.58 8.356-12.911 14.581-27.134 18.605-41.873 2.105-7.521 3.415-15.113 4.361-23.139.7-7.967 1.155-15.875.321-23.737-1.01-8.6-3.916-17.527-10.1-23.854-.668-.62-1.768-.879-2.33.035-8.767 11.19-13.517 25.06-16.124 39.202-2.28 12.243-2.967 24.627-2.308 37.21a76.758 76.758 0 00-3.937-9.982c-5.683-12.946-13.461-24.873-22.726-35.406-5.329-6.01-11.033-11.412-17.416-16.391-.972-.809-2.33.035-2.283 1.324.176.738.352 1.476.341 2.519l.058.246c4.785 27.72 19.288 52.605 36.027 74.878 4.592 6.186 9.184 12.372 14.454 18.136-.316.856-.14 1.594.469 1.969 1.641 6.889 3.529 13.719 6.153 20.374 5.473 15.336 13.1 29.9 19.989 44.639 6.174 12.829 11.611 25.834 15.877 39.378-8.319-18.559-17.621-36.883-28.281-54.363-20.782-33.79-48.893-64.533-83.756-83.268.187-.305.375-.609.07-.797-5.365-8.342-10.672-16.437-15.358-25.201-1.019-2.097-2.343-4.382-3.362-6.479.246-.059.187-.305.374-.609.246-.059.679-.422.562-.914 2.345-29.42-.274-58.956-7.074-87.496-1.7-7.135-3.704-14.458-8.67-20.035-.668-.62-2.014-.82-2.272.282-7.184 17.831-5.808 37.784-2.454 56.225 2.193 12.478 5.557 24.416 9.963 36.367-2.835-4.265-6.161-8.413-9.734-12.501-7.449-8.366-15.952-15.7-25.696-21.699-2.436-1.5-4.813-2.753-7.19-4.007-2.378-1.254-5.001-2.449-7.529-1.066-2.529 1.382-2.927 4.077-1.544 6.608 1.324 2.284 2.952 4.756 4.709 6.678 6.524 8.846 14.161 16.906 22.851 23.936 9.358 7.65 19.956 13.966 30.941 18.629.597 1.418 1.195 2.835 1.98 3.948 4.92 9.748 10.579 19.32 17.536 27.803a116.12 116.12 0 00-10.001-4.897c-11.652-5.285-23.69-8.917-35.926-11.202-.059-.246-.118-.492-.422-.679-6.582-3.632-13.784-6.597-20.365-10.229-2.073-1.066-3.9-2.191-5.973-3.257-13.529-18.617-19.86-45.189-42.555-55.382-5.246-2.39-10.995-3.62-16.885-3.258-1.042-.011-1.545 1.148-1.124 1.828C54.9 68.441 63.661 80.134 74.343 90.07c9.404 8.94 20.483 16.18 31.574 22.378.421.68.784 1.113 1.452 1.734.363.434.855.317 1.042.012.246-.058.551.129.796.07.914.563 1.769.879 2.682 1.442 6.219 3.198 12.437 6.397 19.03 8.986-30.597-5.191-62.492-3.832-93.427-.622-5.83.609-11.357 1.405-17.13 2.261-.737.175-.503 1.16.048 1.288 23.125-1.089 46.144-3.713 69.62-3.326 13.853.34 27.881 1.418 41.464 3.902-2.705.645-5.164 1.23-7.927 1.629-4.976.925-9.952 1.851-15.045 2.284-9.824 1.3-19.823 1.863-29.705 2.917-18.044 1.698-36.215 3.948-53.028 10.813-8.991 3.702-17.444 8.576-24.69 15.242-.866.727-.702 2.507.586 2.461 23.958 1.312 48.416-3.995 69.747-14.797 6.041-2.999 11.965-6.49 17.28-10.356.679-.422.749-1.219.327-1.898 5.585-.551 11.416-1.16 17.001-1.711 5.527-.796 10.807-1.534 16.275-2.577 4.484-.808 8.91-1.863 13.16-3.655 7.646 1.558 15.41 3.609 23.045 6.21 31.946 10.849 58.695 31.517 80.551 56.73-8.501-1.875-17.623-3.081-26.135-3.913-9.309-.903-18.501-1.313-27.763-.926-3.864.14-7.728.281-11.72.972-.363-.434-.668-.621-1.16-.504-3.831-8.447-9.816-16.121-16.492-22.331-7.344-6.831-15.624-12.138-24.84-15.923-5.188-2.144-10.75-3.679-16.195-4.721-1.101-.258-2.096 1.019-1.615 1.944 9.559 17.223 24.059 31.189 41.742 39.976 2.378 1.254 4.942 2.203 7.565 3.398-9.214 1.675-18.136 4.581-26.823 8.47-14.295 6.526-27.582 16.192-36.734 29.032-1.183 1.582-2.365 3.164-3.242 4.933-.937 1.523-2.06 3.35-1.837 5.377.164 1.781 1.254 3.082 2.963 3.714 1.897.328 3.747-.632 5.655-1.347 8.992-3.702 17.679-7.592 26.19-12.219 15.723-8.166 30.614-18.734 41.862-32.594.434-.363.562-.914.995-1.277.867-.726 1.733-1.453 2.412-1.874.246-.059.492-.118.433-.364.246-.058.433-.363.433-.363.246-.058.433-.363.375-.609l6.076-.668c17.915-1.148 35.737.587 53.301 3.422 2.143.27 4.344.785 6.487 1.055l.492-.117c6.536 7.803 12.885 15.91 18.554 24.44 14.9 22.19 26.839 46.126 37.606 70.601-2.483-2.788-5.212-5.518-7.695-8.307-6.125-6.08-12.438-11.856-19.184-17.269-13.188-10.639-27.803-19.637-43.296-26.866-8.783-4.148-17.636-7.499-27.11-10.182-.55-.129-1.053 1.031-.257 1.102.059.246-.129.55.234.984l.528 2.214c.598 1.418 1.254 3.081 1.851 4.499 1.195 2.835 2.941 5.8 4.569 8.272 1.265 2.038 2.835 4.264 4.592 6.186l.059.246c.058.246.304.187.609.375 2.178 2.601 4.603 5.143 7.519 7.569 4.919 4.288 10.154 7.721 16.009 10.486 6.406 2.894 13.01 4.44 20.048 5.624 8.384 1.382 17.084 1.91 25.211 4.394.855.316 1.592.14 1.967-.469.972.808 1.698 1.675 2.67 2.484 5.821 5.893 10.905 11.962 16.293 18.219 8.424 20.093 16.17 40.608 24.103 60.818.656 1.664 1.371 3.574 2.027 5.237a9120.117 9120.117 0 01-3.092-3.163c-4.065-3.972-8.936-6.971-13.75-9.725-.117-.492-.539-1.171-1.522-.937l-.246.059c-.913-.563-2.073-1.067-2.986-1.629-6.523-3.386-13.292-6.713-20.061-10.041-6.464-3.14-13.116-5.975-20.142-8.202-7.576-2.355-15.34-4.405-23.372-4.311-.492.117-.621.667-.316.855-.012 1.043.715 1.91 1.441 2.777.785 1.113 1.757 1.921 2.483 2.788 1.757 1.922 3.701 3.538 5.645 5.155 3.83 2.988 7.847 5.671 12.297 7.991 8.9 4.64 18.62 7.264 28.666 7.991 5.515.246 10.972.246 16.439-.797 3.654 2.25 7.308 4.499 10.833 7.299 2.975 2.672 5.95 5.343 8.246 8.436 1.148 1.547 2.296 3.093 3.257 4.944l.058.246c11.566 30.006 23.19 60.257 35.001 90.203l-.374.609c-.258 1.102-.211 2.39-.163 3.679-7.52-7.569-16.783-12.642-26.046-17.715-19.136-10.521-37.523-22.261-57.033-32.173a283.092 283.092 0 00-16.652-7.733c-5.493-2.332-11.172-4.359-17.167-5.53l-.246.058c-.363-.433-1.288.047-1.171.539 1.817 7.627 5.788 14.481 10.38 20.667 4.838 6.128 10.542 11.529 16.866 16.263 13.503 9.783 29.815 14.997 46.103 16.836 4.778.422 9.555.844 14.461.715l6.991-.105c2.33-.035 4.66-.07 7.118-.656 4.263 2.624 8.034 5.366 11.677 8.658 4.31 3.914 8.058 8.741 11.127 13.989 1.383 2.531 2.824 5.308 3.773 8.202.715 1.91 1.125 3.632 1.84 5.542-.304-.188-.738.175-.679.421 1.734 4.007 4.147 7.592 6.314 11.236 6.152 14.915 12.608 30.017 19.989 44.639-.668-.621-1.031-1.055-1.698-1.676-2.729-2.73-5.646-5.155-8.808-7.522-2.19-1.558-4.193-3.421-6.57-4.674-.117-.493-.176-.739-.726-.867-.55-.129-.914-.563-1.464-.692-1.675-3.761-3.843-7.404-5.705-10.861-3.07-5.248-6.139-10.497-9.641-15.383-7.064-10.017-14.806-19.613-23.356-28.236-4.791-4.839-9.827-9.619-15.296-14.036-.972-.809-2.272.281-1.733 1.453 10.615 21.651 21.838 43.677 40.484 59.776-2.741-1.688-5.668-3.07-8.596-4.453-10.551-5.026-21.606-8.892-32.859-11.412-12.412-3.022-25.024-4.698-37.635-6.374-14.203-1.816-28.29-3.14-42.236-6.058l-.059-.246c.012-1.042-1.335-1.241-1.592-.14-.397 2.695.985 5.225 2.8 7.393 1.757 1.921 3.76 3.784 5.704 5.401 4.193 3.421 8.573 6.538 13.328 9.045 9.568 5.261 19.767 8.811 30.411 10.955 12.05 2.589 24.427 3.281 36.686 3.48 11.768.317 24.039-.527 35.725 1.629 5.995 1.172 11.979 3.386 17.155 6.573 2.191 1.558 4.193 3.421 6.442 5.226 1.757 1.921 3.514 3.843 4.896 6.373.422.68 1.593.141 1.358-.843a211.35 211.35 0 0111.455 12.091c.305.187.363.433.609.375 10.836 18.219 23.405 34.984 39.439 48.845a114.204 114.204 0 0012.707 9.713c1.827 1.124 3.816-1.43 1.989-2.554-15.997-11.529-29.268-25.788-40.314-41.617-2.039-4.194-3.211-9.115-3.774-13.661-.494-5.342-.249-10.86.358-15.945.795-5.39 1.894-10.591 3.239-15.852 1.182-1.582 2.364-3.163 3.851-4.557 2.107-2.062 4.273-3.878 6.743-5.507 4.881-3.503 10.185-6.326 15.067-9.829a110.814 110.814 0 0026.759-25.096c4.109-5.659 7.912-11.505 10.803-17.914-1.031-1.054-1.874-2.413-2.858-2.179zM385.22 382.871c-.058-.246-.058-.246-.363-.434-6.283-25.283-9.616-51.27-8.347-77.572.174-4.722.653-9.256 1.132-13.79.117.492.047 1.289.164 1.781.212 3.069.236 6.444.448 9.513.236 6.444.776 13.075 1.258 19.461.777 13.075 1.799 26.091 3.313 38.991.658 7.123 1.503 13.942 2.653 20.948-.188.305-.375.609-.258 1.102zm55.972-33.355c-2.985 3.831-6.942 6.854-10.594 10.064-8.358 7.451-17.021 14.715-26.527 20.62-4.999 3.011-10.115 5.529-15.348 7.556l.936-1.523c16.894-8.705 32.229-20.678 45.316-34.456 3.535-3.702 6.766-7.592 9.75-11.423l.984-.234c-.28 3.186-2.34 6.537-4.517 9.396zm-.342-7.979c-5.22 6.444-10.558 12.396-16.505 17.972-7.187 6.913-15.101 12.958-23.377 18.57-2.225 1.57-4.753 2.952-6.978 4.522 1.112-.785 2.225-1.57 3.524-2.659 3.091-2.297 6.122-4.839 8.909-7.323 5.817-5.026 11.331-10.239 16.236-15.828 2.856-3.28 5.712-6.561 8.509-10.087.187-.305.375-.609.012-1.043 3.266-1.558 6.286-3.058 9.67-4.124zm-34.453 22.248c6.262-6.432 13.555-11.809 21.329-16.261-8.767 11.189-18.869 21.135-30.002 30.028-1.732 1.452-3.524 2.659-5.502 4.17 4.424-6.514 8.72-12.477 14.175-17.937zm-20.686 13.509c-.858-11.236-1.962-22.413-3.066-33.59-.964-12.771-1.986-25.787-2.458-38.675-.083-3.62-.166-7.241-.554-11.048-.164-1.781-.083-3.621-.189-5.155.07-.797-.047-1.289.023-2.086 4.667 21.769 6.933 44.369 7.056 66.7.096 8.037-.358 15.945-.812 23.854zm-16.368-33.801a97.602 97.602 0 012.236-41.874c.901-3.854 2.41-7.334 3.861-11.06-1.156 10.416-1.27 20.843-1.08 31.458.285 13.192 1.671 26.642 4.227 39.554a224.772 224.772 0 004.279 17.96c-6.806-11.118-11.517-23.256-13.523-36.038zm-44.074-45.401c7.336-20.468 14.367-41.123 22.194-61.708 1.135-2.871 2.212-5.987 3.347-8.857.503-1.16.947-2.566 1.392-3.972-.479 4.534-1.262 8.881-2.291 13.286-1.287 5.506-2.573 11.013-4.164 16.332-3.123 10.884-7.652 21.323-12.789 31.387a206.136 206.136 0 01-7.314 12.923c.058.246-.188.304-.375.609zm30.414-62.106c-.677 5.881-2.151 11.692-3.929 17.316a115.563 115.563 0 01-15.611 31.539 101.87 101.87 0 01-6.344 8.272c4.12-6.702 7.572-14.024 10.532-21.23a191.367 191.367 0 0010.716-32.453c1.415-6.057 2.221-12.489 3.578-18.792 1.91 4.745 1.666 10.263 1.058 15.348zm-4.324-13.79c-.445 1.406-1.135 2.87-1.58 4.276l-2.843 7.698c-1.895 5.131-3.732 10.509-5.628 15.64-3.732 10.51-7.71 21.077-11.196 31.528-1.521 4.523-3.229 9.35-4.75 13.872 2.524-17.762 7.495-35.066 14.785-51.363 3.207-7.264 6.905-14.645 11.212-21.651zm-28.457 68.14a56.91 56.91 0 01-.635-9.209c-.178-6.198.628-12.63 2.043-18.687 2.702-11.564 8.214-22.237 15.67-31.293 2.61-3.222 5.583-6.011 8.557-8.799-8.181 13.649-14.593 28.177-18.992 43.525-2.608 8.682-4.608 17.738-6.116 26.677-.48-.925-.597-1.417-.527-2.214zm28.932-167.575c-.456 2.449-1.767 4.581-2.773 6.901-2.2 4.944-4.646 9.947-7.092 14.95-4.833 10.251-9.724 20.257-14.557 30.508-7.22 15.5-14.077 31.434-18.979 47.942l-.234-.984c1.356-6.303 2.408-12.794 4.069-18.91 1.918-7.217 4.141-14.246 6.364-21.276 4.75-13.872 10.659-27.24 17.423-40.291 3.944-7.44 8.251-14.446 12.804-21.511.187-.304.187-.305.128-.551 2.834-1.195 3.174 1.324 2.847 3.222zm-14.038 5.425c1.674-1.699 3.652-3.21 5.385-4.663.679-.422 1.112-.785 1.732-1.453-7.174 11.329-13.435 23.221-18.841 35.429-5.851 13.614-10.847 27.545-14.379 42.166-.9 3.855-1.988 8.014-2.584 12.056-.514 2.203-.97 4.651-1.426 7.1-2.322-11.927-2.185-24.44.153-36.437l5.056-8.225c2.247-3.655 4.19-7.498 6.133-11.341 3.885-7.686 7.465-15.559 10.437-23.807.129-.55.012-1.042-.539-1.171 2.552-3.468 5.712-6.561 8.873-9.654zM326.5 140.757a234.743 234.743 0 01-9.244 21.182c-1.942 3.843-3.885 7.686-5.886 11.283-.937 1.523-1.627 2.988-2.563 4.511 1.216-4.71 2.491-9.174 4.258-13.755 3.463-8.365 7.84-16.168 13.435-23.221zm-48.497-33.427c-1.389 14.891-5.108 29.818-11.146 43.736-2.644 6.35-5.839 12.571-9.643 18.418 8.985-25.541 13.755-52.418 14.544-79.646.104-3.925.267-7.604.125-11.47-.083-3.62.08-7.3-.249-10.86 7.907 11.376 7.736 27.017 6.369 39.822zm-10.057-38.944c.374-.61.995-1.277 1.557-2.191-.163 3.679.411 7.182.436 10.556.024 3.374.107 6.995.132 10.369-.139 7.053-.336 13.86-1.025 20.784-1.378 13.849-3.551 27.627-6.826 41.147-1.415 6.057-3.076 12.173-5.042 18.101-.234-.984-.223-2.027-.457-3.011.959-3.608 1.614-7.404 2.268-11.2.795-5.39 1.59-10.779 2.08-16.356.793-10.849.79-21.768-.01-32.758-.552-5.589-1.045-10.931-1.843-16.461 1.849-6.42 4.739-12.83 8.73-18.98zm-13.372 39.846c.795-5.389 1.648-10.533 3.051-15.547a199.574 199.574 0 01-.147 58.276c-.526 3.245-1.11 6.244-1.695 9.243-.516-3.257-1.278-6.455-1.981-9.408-1.316-14.246-1.098-28.599.772-42.564zm-22.142.855c1.57 2.226 2.952 4.757 4.522 6.983-.363-.434-.668-.621-1.031-1.055-1.698-1.675-3.15-3.409-4.849-5.085-2.846-3.222-5.751-6.69-8.656-10.158-3.689-4.58-6.887-9.279-10.085-13.977 7.706 7.264 14.488 15.009 20.099 23.292zm-25.323-27.768c.668.621 1.581 1.184 2.308 2.05 3.795 6.117 7.836 12.174 12.311 17.868 2.659 3.527 5.564 6.995 8.41 10.216 1.452 1.735 2.846 3.222 4.544 4.898 1.394 1.488 2.847 3.222 4.732 4.593 3.726 6.912 6.714 14 9.21 21.206-13.517-14.2-24.996-29.666-34.989-46.525-1.862-3.456-3.667-6.667-5.529-10.123l-.997-4.183zm30.341 51.013c3.69 4.581 7.567 8.857 11.69 13.075.058.246.304.187.609.375l.234.984.997 4.183a175.123 175.123 0 002.276 16.098c-10.04-18.149-21.005-35.817-32.836-52.758-2.354-3.339-4.404-6.491-6.7-9.584-.539-1.172-.774-2.156-1.312-3.328a78.604 78.604 0 01-3.259-10.403c7.932 14.75 17.713 28.54 28.301 41.358zm-5.653 6.807c-6.209-9.701-11.926-19.52-16.284-30.181 9.956 14.528 19.48 29.419 28.266 44.486 1.863 3.456 3.972 6.854 5.776 10.064l-5.623-7.24c-4.111-5.261-8.094-11.072-12.135-17.129zm-70.47-98.393c2.358 14.258 3.427 28.564 3.759 43.045.166 7.24-.218 14.352-.603 21.464l-.304-.188c.246-.058.492-.117.433-.363.699-13.427.109-26.806-1.276-40.256-1.081-13.263-3.204-26.537-6.065-39.636a40529.837 40529.837 0 01-3.81-15.993l-.117-.492c1.921 3.703 3.105 7.58 4.043 11.517 1.336 6.702 2.79 13.896 3.94 20.902zM150.252 5.164l.762 3.199c.41 1.722 1.066 3.386 1.418 4.862l2.344 9.841a257.172 257.172 0 013.835 19.367c2.369 13.216 3.696 26.42 4.285 39.8.471 7.428.449 14.973.674 22.459l.059.246c-1.02-2.097-1.735-4.007-2.754-6.104.093-2.882-.06-5.706-.213-8.53-.153-2.823-.365-5.892-.518-8.716-.364-5.893-.975-11.728-1.644-17.808-1.28-11.916-3.239-23.41-5.502-35.09-.762-3.199-1.278-6.456-1.981-9.408l-1.173-4.92c-.351-1.477-.457-3.012-1.301-4.371.878-1.77 1.323-3.175 1.709-4.827zm-3.611 27.38c-.177-6.197.137-12.512 1.552-18.57l1.055 4.43 1.993 8.364 3.307 17.153a408.771 408.771 0 014.401 34.832l.811 9.947c.164 1.78.142 3.866.306 5.647-.656-1.664-1.312-3.327-2.027-5.237-6.855-17.867-10.935-37.175-11.398-56.566zm-38.024 23.62c1.229-.293 2.693.398 3.911 1.148 2.378 1.253 4.509 2.566 6.945 4.065a130.496 130.496 0 0124.243 19.965c3.877 4.276 7.813 8.799 11.069 13.743 1.148 1.547 2.05 3.152 3.198 4.698-5.645-5.155-11.232-10.064-16.877-15.22-6.922-6.15-13.785-12.055-20.648-17.96-3.947-3.48-7.894-6.96-12.215-9.83l-.305-.188c.187-.304.433-.363.679-.422zm-1.171.538c.059.246-.187.305.118.492 3.338 3.105 7.109 5.847 10.447 8.952 3.583 3.046 6.863 5.905 10.447 8.95 6.863 5.906 13.785 12.057 20.215 18.325 2.67 2.484 5.341 4.968 7.765 7.51-14.135-8.072-26.959-18.277-38.11-30.18-3.818-4.031-7.449-8.366-10.834-12.76-.305-.187-.551-.129-.738.176.07-.797.257-1.101.69-1.465zm8.669 14.575c-1.757-1.921-3.326-4.147-4.837-6.127-.785-1.113-1.57-2.226-2.296-3.093-.785-1.113-1.511-1.98-2.05-3.152 11.901 16.145 26.892 29.994 44.061 40.983 3.045 1.875 6.394 3.937 9.626 5.507-17.015-8.166-32.463-19.566-44.504-34.118zm-62.671-15.49c3.77 2.742 7.483 5.238 11.009 8.038 4.192 3.421 8.14 6.901 12.145 10.627 7.765 7.51 15.156 15.63 21.13 24.346 1.57 2.226 2.835 4.265 4.405 6.491l-5.095-5.026c-3.76-3.785-7.461-7.323-11.22-11.107-7.462-7.323-14.676-14.704-22.137-22.027-3.092-3.163-6.184-6.327-9.522-9.432-.176-.738-.54-1.171-.715-1.91zm24.896 10.71c8.433 8.13 13.893 19.05 19.176 29.231.06.247.422.68.48.926-2.658-3.526-5.317-7.053-8.163-10.275C82.688 78.2 74.98 70.937 66.596 64.095c-3.889-3.234-8.023-6.41-12.286-9.034 9.192.41 17.6 5.167 24.03 11.436zm18.36 36.706c-12.297-7.99-23.353-17.316-32.36-28.95-3.386-4.394-6.28-8.905-8.74-13.779 5.517 5.706 11.28 11.353 16.738 16.813 7.215 7.381 14.734 14.95 21.949 22.331 1.698 1.676 3.397 3.351 4.849 5.085-.914-.562-1.768-.879-2.436-1.5zm-47.26 38.299c12.107-2.624 24.32-3.713 36.777-4.861-.433.363-1.112.785-1.545 1.148l-6.077.668-8.29 1.195c-5.28.738-10.748 1.78-15.911 3.01-10.631 2.273-21.087 5.284-31.425 8.787-2.646.89-5.292 1.781-7.88 2.917 10.373-6.631 22.186-10.485 34.351-12.864zM5.7 160.763c.188-.305.434-.363.621-.668l.246-.058c19.774-8.611 40.568-15.125 62.065-18.687 3.009-.456 6.018-.913 8.781-1.312.738-.175 1.288-.046 2.026-.222-18.897 6.842-38.274 12.758-57.698 17.386l-9.343 2.225c-2.271.282-4.543.563-6.697 1.336zm16.499-.55c-3.314.269-6.627.538-10 .562l8.114-1.933c5.41-1.289 10.819-2.578 16.17-4.112 11.005-2.882 21.952-6.01 32.782-9.63 2.4-.832 5.046-1.723 7.446-2.554-16.905 9.747-35.486 15.734-54.512 17.667zm139.799 15.315c2.542 3.034 4.65 6.432 6.759 9.83-12.263-11.119-25.392-21.512-38.836-31.049-3.163-2.366-6.512-4.428-9.92-6.737 16.5 4.91 31.291 14.646 41.997 27.956zm2.73 8.189a173.001 173.001 0 01-36.68-26.361c-2.729-2.73-5.517-5.706-8.246-8.436 14.241 9.607 28.166 20.07 40.979 31.318 1.277.995 2.612 2.237 3.947 3.479zm-6.99.106c-4.391-2.074-8.291-4.265-12.308-6.948-7.73-5.179-15.015-11.763-20.883-18.945-2.659-3.527-5.318-7.054-7.485-10.697 5.564 6.994 12.24 13.204 19.044 18.863 7.168 6.092 14.769 11.822 22.931 16.637 3.045 1.875 6.032 3.503 9.018 5.132-1.405-.445-2.565-.949-3.97-1.394-2.26-.762-4.274-1.582-6.347-2.648zm-16.213 13.742c-2.786 2.484-5.326 4.909-8.112 7.393-3.465 2.906-6.989 5.565-10.513 8.225-6.427 4.651-13.03 8.564-19.937 12.289 8.451-10.333 19.209-18.616 31.35-24.369 2.283-1.323 4.87-2.46 7.212-3.538zm-41.734 32.043c.562-.914 1.182-1.582 1.803-2.249a135.04 135.04 0 0021.845-13.005c3.77-2.718 7.293-5.377 10.758-8.283 3.466-2.905 6.931-5.811 9.787-9.091l.187-.305c2.646-.89 5.538-1.839 8.43-2.788-.867.726-1.487 1.394-2.353 2.12-1.979 1.512-3.653 3.21-5.631 4.722-3.711 2.964-7.668 5.986-11.379 8.951-7.726 5.74-15.757 11.294-23.905 16.355-3.828 2.472-7.715 4.698-11.789 7.229.445-1.406 1.44-2.683 2.247-3.656zm-3.183 5.179c8.382-4.077 16.226-9.326 23.824-14.516a314.143 314.143 0 0023.483-17.035c2.166-1.816 4.39-3.386 6.31-5.143 1.112-.785 2.166-1.816 3.032-2.543.866-.726 1.978-1.511 2.786-2.483 3.688-.879 7.13-1.699 10.877-2.332.304.188.855.317 1.101.258-8.839 6.526-17.677 13.051-27.125 19.202-9.201 6.092-18.766 11.751-28.331 17.41-5.49 3.128-11.04 6.01-16.472 9.384-.246.059-.187.305-.187.305.07-.797.386-1.652.702-2.507zm12.774-2.004c-2.096 1.02-4.25 1.793-6.1 2.753-1.171.539-2.095 1.02-3.325 1.313-.679.421-1.604.902-2.646.89-.492.117-1.042-.012-1.16-.504l.305.188c10.104-4.487 19.61-10.392 28.929-15.992 9.565-5.659 19.012-11.81 28.214-17.902 3.149-2.05 6.239-4.347 9.389-6.397-8.44 9.291-18.578 16.906-29.255 23.35-7.773 4.452-15.91 8.47-24.351 12.301zm135.806 16.007a222.429 222.429 0 0118.012 12.349c-3.349-2.062-6.944-4.066-10.54-6.069-10.422-5.577-20.973-10.604-31.338-15.935-6.218-3.198-12.378-6.151-18.596-9.35l-.492.118c-.422-.68-.656-1.664-1.078-2.344 15.446 5.941 30.33 12.795 44.032 21.231zm-40.435-13.767c-.598-1.418-1.441-2.777-1.98-3.949 10.669 5.519 21.337 11.037 31.76 16.614 9.813 5.202 19.814 10.1 29.008 15.97l6.57 4.674c-14.217-6.233-29.826-8.494-44.487-13.321-2.564-.95-5.07-1.653-7.448-2.906-.854-.317-1.463-.691-2.318-1.008-2.12-2.355-4.182-4.464-6.114-7.123-1.441-2.777-3.433-5.683-4.991-8.951zm34.785 31.493a65.423 65.423 0 01-20.096-12.373c1.405.446 2.869 1.137 4.274 1.582 4.274 1.582 8.736 2.859 13.197 4.136 8.923 2.554 17.975 4.558 26.828 7.909 4.028 1.64 8.057 3.281 11.956 5.472-12.236-2.285-24.742-2.426-36.159-6.726zm42.361 73.109c6.406 2.894 12.683 6.338 18.901 9.537.913.562 1.768.879 2.682 1.441-.551-.129-1.405-.445-1.956-.574-13.9-7.088-28.609-13.204-43.329-18.278-3.115-1.078-5.925-1.968-8.981-2.8 4.59.727 8.993 1.758 13.454 3.035 6.476 2.097 13.069 4.686 19.229 7.639zm-1.765 10.041c-9.357-2.191-18.444-6.527-26.045-12.256-2.19-1.558-4.134-3.175-6.137-5.038a23.053 23.053 0 01-2.729-2.73c-.667-.621-1.089-1.3-1.698-1.675.246-.059.304.187.55.129.059.246.059.246.305.187 16.312 5.214 32.554 11.225 47.86 18.758.305.188.55.129.609.375-3.665-1.207-7.085-2.472-10.504-3.737-7.94-2.789-15.692-5.882-23.198-9.034-4.333-1.828-8.725-3.901-13.058-5.729-.55-.129-.679.422-.374.609 15.247 7.288 30.998 13.415 47.123 18.934 2.81.89 5.433 2.086 8.244 2.976l.304.187c-2.271.282-4.356.258-6.44.235-5.269-.305-10.105-.973-14.812-2.191zm-30.439 58.732c10.623 9.689 21.995 18.16 34.362 25.354 12.425 7.44 25.541 13.415 39.16 18.231 3.42 1.265 7.026 2.226 10.387 3.245-10.351-.914-20.562-3.421-30.516-7.03-13.432-5.12-26.103-12.501-36.972-22.132-5.949-5.343-11.22-11.107-16.058-17.235 0 0-.304-.187-.363-.433zm3.478 1.511c2.132 1.312 4.45 2.32 6.582 3.632 2.986 1.629 6.031 3.503 9.017 5.132 5.973 3.257 12.25 6.702 18.222 9.959 12.191 6.456 24.195 13.216 36.632 19.613 2.986 1.629 5.914 3.011 8.9 4.64-8.923-2.554-17.717-5.659-26.137-9.373-13.057-5.73-25.612-12.619-37.475-20.973-5.352-3.925-10.763-8.096-15.741-12.63zm24.908 9.666c9.451 4.769 18.773 10.088 27.907 15.712 7.249 4.253 14.557 8.752 21.806 13.005-18.842-9.291-37.743-18.828-56.27-28.974l-9.872-5.449c-3.537-1.757-6.945-4.065-10.423-5.577-.304-.187-.609-.375-.668-.621 9.158 3.539 18.62 7.265 27.52 11.904zm-28.374-12.22c-.246.059-.246.059-.188.305l-.117-.492.305.187zm75.104 50.228c-8.208-.644-16.346-2.086-24.227-4.628-14.907-4.769-28.551-12.959-38.6-24.605-3.994-4.768-7.31-9.958-10.192-15.512 3.386 4.394 7.508 8.612 11.514 12.337 5.341 4.968 11.36 9.514 17.509 13.509 12.297 7.991 26.092 13.544 40.588 16.591 6.546 1.3 12.974 2.109 19.836 2.554-1.288.047-2.576.094-4.11.199-4.168-.047-8.091-.152-12.318-.445zm51.06 68.177c1.265 2.038 2.284 4.135 3.549 6.174l-.058-.246c-1.757-1.921-3.327-4.147-5.084-6.069-3.326-4.147-6.899-8.236-10.284-12.63-6.712-8.541-13.365-16.836-19.644-25.741-1.874-2.413-3.502-4.885-5.317-7.053-.422-.679-1.148-1.546-1.57-2.226 14.863 14.399 27.747 30.31 38.408 47.791zm-15.728-8.214c-7.871-9.044-14.197-19.238-20.031-29.548-2.343-4.382-4.745-9.01-6.842-13.45.961 1.851 2.413 3.585 3.62 5.378l4.709 6.678c3.139 4.452 6.524 8.846 9.663 13.298 6.466 8.6 13.237 17.387 19.89 25.682 1.874 2.413 3.748 4.827 5.868 7.182.059.246.305.187.363.433-6.265-4.487-11.969-9.888-17.24-15.653zm-38.594-2.765a158.978 158.978 0 0145.729 17.446c-.305-.188-.855-.317-1.159-.504-4.029-1.64-8.244-2.976-12.46-4.312-8.373-2.425-16.874-4.3-25.563-5.87-17.377-3.14-35.07-5.425-52.377-9.362-4.953-1.16-9.661-2.378-14.485-4.089-2.26-.762-4.52-1.523-6.839-2.531-2.319-1.007-4.637-2.015-6.898-2.777l-.058-.246c24.708 5.554 49.707 6.879 74.11 12.245zm-73.032-9.901c-.363-.434-.422-.68-.539-1.172 3.595 2.004 7.565 3.398 11.476 4.546 3.97 1.394 8.185 2.73 12.342 3.82 8.619 2.366 17.12 4.241 25.809 5.811 17.377 3.14 34.883 5.73 51.874 10.522 3.607.961 7.026 2.226 10.691 3.433-3.302-.773-6.545-1.301-9.847-2.074-8.994-1.757-18.174-3.21-27.483-4.113-17.822-1.734-36.216-1.512-53.313-7.838-7.694-2.848-14.697-7.159-21.01-12.935zm26.889 19.074c-5.492-2.332-10.856-5.214-15.599-8.764-.609-.375-1.276-.996-1.885-1.371 2.436 1.5 5.363 2.882 7.986 4.077 7.811 3.34 15.821 5.332 24.205 6.714 9.18 1.453 18.677 2.051 27.927 2.707 9.309.902 18.676 2.051 27.915 3.75 5.141.855 10.399 2.202 15.352 3.362 1.101.258 2.506.703 3.607.961-6.921-.691-13.911-.586-20.96-.727-23.113.047-47.071-1.266-68.548-10.709zm152.279 6.622c-.188.304-.434.363-.375.609.187-.305.129-.551.375-.609zm51.27-51.995c-15.581 12.032-29.71 25.798-42.258 40.747-2.61 3.222-4.974 6.386-7.584 9.608 8.46-16.836 20.821-31.481 36.204-42.166 4.202-3.081 9.014-5.788 13.638-8.189zm-15.465 7.064c-11.063 8.096-20.615 18.172-27.976 29.805-2.435 3.96-4.81 8.166-6.694 12.255 6.259-17.351 18.807-32.301 34.67-42.06zm-28.031 1.218c-1.941 9.303-4.128 18.664-6.374 27.779.36-10.486.661-21.218 1.572-31.575 1.296-12.009 3.143-23.889 5.481-35.886 1.228-5.753 2.514-11.259 3.801-16.766 1.691 19.097-.844 37.902-4.48 56.448zm4.034-60.502c-.246.059-.433.364-.621.668-6.082 23.55-9.599 48.048-10.845 72.265-.21 2.39-.174 4.721-.384 7.112-1.985-20.328-.41-40.983 4.771-60.678 1.603-6.362 3.509-12.536 5.967-18.582.374-.609.807-.972 1.182-1.581-.129.55-.129.55-.07.796zm-9.785 14.552c1.943-3.843 3.885-7.686 6.437-11.154-8.389 21.499-11.837 45.201-10.741 68.34.294 6.69 1.139 13.508 2.172 20.023-5.979-25.096-9.172-52.676 2.132-77.209zm35.18 62.599c-4.401 4.429-9.47 8.237-14.598 11.798-4.94 3.257-9.939 6.268-14.575 9.712-1.791 1.207-3.523 2.66-5.502 4.171 11.998-15.078 25.576-28.973 40.49-41.626 4.519-3.937 9.342-7.686 14.223-11.189 0 0 .246-.058.188-.305-5.325 10.369-11.985 19.496-20.226 27.439z" fill="#C3D64B"/></svg>