<svg width="262" height="371" fill="none" xmlns="http://www.w3.org/2000/svg"><path d="M259.639 188.714l-1.028.398c-.278-.336-.734-.75-1.505-.452-1.956 1.051-4.09 2.024-5.968 2.897-.692.12-1.127.14-1.82.26-6.036-.325-12.072-.651-18.05-1.589-8.076-1.014-15.916-2.562-23.934-4.189-15.601-3.275-31.223-6.984-47.139-9.546-14.767-2.268-29.65-3.309-44.428-2.176-14.086 1.014-28.089 3.767-41.672 7.982-13.582 4.216-26.646 10.151-38.856 17.528-1.442.852-2.963 1.883-4.405 2.736-.257.099-.414.455-.493.633-9.786 3.339-19.373 7.192-28.939 11.48-16.819 7.681-33.417 16.311-49.382 25.435 2.528-1.863 4.878-3.805 7.227-5.747 1.778-1.13 3.456-2.517 4.956-3.983 8.156-6.401 16.668-12.644 25.38-18.373C4.87 201.521 21.09 192.299 37.81 184.36c16.54-8.017 33.58-14.749 50.52-21.739 16.939-6.99 33.779-14.236 50.121-22.767a303.358 303.358 0 0044.426-28.688c27.409-21.521 51.005-47.919 69.111-77.807.179.08.614.059.771-.298 2.78-3.88 5.282-8.096 7.784-12.311.572-.812-.519-1.72-1.19-1.165-.299-.77-1.191-1.164-1.684-.53-23.953 26.24-55.488 43.596-86.651 59.626-31.162 16.031-63.216 31.668-89.849 54.809-14.57 12.719-27.372 27.709-36.053 44.946-16.305 7.482-32.133 15.815-47.028 25.411a457.027 457.027 0 00-25.499 17.681 24.53 24.53 0 001.322-1.544c13.39-10.048 26.68-20.353 38.857-32.001 6.672-6.418 12.887-13.25 18.467-20.575 5.995-7.781 11-16.213 15.369-25.138 4.626-9.024 8.718-18.285 13.423-27.487 4.39-8.49 9.236-16.566 14.974-24.247 10.826-14.374 23.933-26.675 36.226-39.549 9.808-10.14 19.317-21.052 26.765-33.086.079-.178.157-.356.336-.277l.078-.178c3.158-3.288 5.759-7.247 7.469-11.6l1.479-1.9c.158-.357-.041-.87-.477-.85.158-.356.236-.534.215-.97.294-1.147-1.211-1.599-1.961-.866-.335.277-.493.634-.828.911-.436.02-.871.041-1.107.575l-.708 1.603c-2.229 2.634-4.637 5.189-6.965 7.565-1.579 1.644-3.336 3.21-5.093 4.774l-5.806 4.46c-.257.099-.157.355-.236.534-.592.376-1.185.753-1.699.952-9.089 5.137-18.754 9.167-28.262 12.842-9.944 3.695-19.887 7.39-29.532 11.856-9.209 4.445-18.02 9.918-25.798 16.911-15.22 13.71-26.392 31.76-34.654 50.46-9.284 21.014-15.102 43.347-21.634 65.365-3.373 11.493-6.846 22.73-11.19 34.008-1.08 2.928-2.496 6.134-4.19 9.003-3.792 2.795-7.406 5.668-10.92 8.798 5.303-7.661 9.158-16.387 11.787-25.23 3.352-11.928 4.586-24.367 4.77-36.843.086-12.734-.878-25.505-1.841-38.276-.571-6.425-1.32-12.928-1.891-19.353-.65-6.247-1.556-12.394-2.206-18.641-.55-5.99-.843-12.08-.344-18.032.483-4.47 1.658-9.058 3.19-13.49.965-1.702 1.83-3.661 2.974-5.284.572-.812 1.044-1.88 1.616-2.692.493-.634.907-1.09 1.4-1.723.079-.178.157-.356-.02-.435a.61.61 0 00-1.07-.472c-.494.633-.83.91-1.065 1.445l-.179-.079a93.048 93.048 0 00-1.794 2.613c-3.629 4.356-7.337 8.89-10.61 13.405-4.437 5.702-8.596 11.74-12.3 18.192-6.776 11.48-11.828 24.36-13.198 37.59-1.37 13.23 1.69 26.076 5.623 38.881 3.931 12.806 8.12 25.512 9.896 38.855 1.598 13.264.627 27.521-5.773 39.594-.236.534-.393.89-.808 1.346-.67.554-1.164 1.188-1.835 1.743-.336.277-.672.554-.907 1.089a17.854 17.854 0 01-2.35 1.942l-.257.099-.079.178c-4.028 3.329-7.877 6.736-11.806 10.322-4.127 3.072-7.898 6.301-11.391 9.867-.829.911-1.736 2-2.565 2.911-1.085 1.01-2.25 2.198-3.514 3.13a1105.21 1105.21 0 00-59.208 58.768c-.078.178-.257.099-.335.277 5.549-11.596 9.851-23.744 12.647-36.343 1.28-2.415 2.817-4.929 4.097-7.343l5.082-8.61c.572-.811 1.222-1.801 1.616-2.692.493-.633 1.164-1.188 1.657-1.822.079-.178.336-.277.415-.455 1.164-1.188 2.25-2.199 3.414-3.387.671-.555 1.164-1.188 1.736-2l1.243-1.367c1.421-1.287 2.743-2.832 4.164-4.12 9.137-9.585 16.826-20.236 22.89-32.031 5.984-11.617 10.622-24.042 13.319-36.898 1.348-6.429 2.34-13.014 2.718-19.659.379-6.644.243-13.089-.071-19.613-.46-9.569-1.377-19.552.082-29.125.451-1.503 1.16-3.106 1.61-4.609 1.16-3.107 2.062-6.113 3.221-9.22.315-.712-.576-1.106-1.012-1.085-.356-.158-.97-.216-1.384.239l-.315.713c-.414.455-.829.911-1.065 1.445-.828.911-1.479 1.901-2.13 2.89-.65.99-1.478 1.901-2.129 2.891-.65.99-1.379 2.157-2.03 3.147l-1.242 1.367c-.179-.079-.514.198-.158.356-4.872 5.722-8.733 12.531-11.544 19.377-4.68 11.555-6.606 24.114-8.018 36.474-1.548 13.151-2.483 26.36-5.437 39.316-2.875 12.778-6.899 25.261-12.17 37.193a194.81 194.81 0 01-9.725 19.117c-.336.277-.75.733-1.264.931.372-1.325.488-2.551.682-3.955.131-2.709-.173-5.398-.733-7.987-.121-.692-.241-1.383-.283-2.253-.021-.435.036-1.048.016-1.483-.1-.257-.2-.514-.457-.415-.241-1.383-.382-2.51-.267-3.736 5.183-15.59 8.94-31.809 11.291-48.224 2.252-16.672 3.355-33.638 2.638-50.344-.538-16.628-2.896-32.995-6.025-49.064-3.029-15.812-6.751-31.505-9.602-47.238-2.007-10.891-3.323-21.902-3.688-33.132.078-.178.257-.099.157-.356.315-.712.016-1.483-.026-2.353-.042-.87-.084-1.74-.204-2.431-.084-1.74.011-3.401.105-5.062.153-2.274.483-4.47.992-6.586l.315-.712c.078-.178-.021-.435.058-.613.136-.791.372-1.326.508-2.117.037-1.048-.676-1.363-1.368-1.243 0 0-.178-.079-.1-.257-.178-.079-.613-.058-.87.041l-.257.1c-.357-.158-.692.12-.672.554-.057.613-.036 1.048-.094 1.661-1.159 3.107-2.062 6.114-2.964 9.12-6.871 13.141-11.86 27.326-15.365 41.529-4.229 17.288-6.417 35.265-5.995 53.118.365 18.467 3.777 36.789 8.039 54.636 4.539 18.182 9.85 36.067 13.361 54.646 3.292 17.631 5.041 35.858 2.753 53.577-.174 1.84-.604 3.778-.777 5.617-.357-.158-.792-.137-.771.298-.43 1.938-.782 3.699-1.212 5.637-.352 1.76-.603 3.778-.955 5.538-.782 3.699-1.564 7.398-2.602 11.196a225.553 225.553 0 01-7.067 21.781c-1.552 3.997-3.462 7.836-5.193 11.754l-.078.178c-5.644 6.02-11.109 12.12-16.653 18.397-3.315 3.644-6.451 7.367-9.666 11.268-.493.633.241 1.383.734.75 9.116-10.021 18.152-19.864 27.446-29.806.257-.099.514-.198.671-.554l.315-.713a151.905 151.905 0 016.315-6.575l.257-.099c.1.256.278.335.535.236 14.637-2.26 29.478-2.089 44.182-1.126 14.705.963 29.509 2.182 44.209 1.227a110.703 110.703 0 0021.302-3.359c6.98-1.812 13.84-4.315 20.521-6.897 13.441-5.343 26.463-12.147 39.983-17.668 5.219-2.164 10.615-4.25 16.111-6.079.179.079.357.158.614.059 2.313-.894 4.804-1.709 7.316-2.089.1.257.278.335.535.236 2.59-.558 5.28-.859 7.814-.805.356.158.97.216 1.326.374l.079-.178.079-.178c.178.078.435-.021.613.058s.178.079.436-.021c.613.059.97.216 1.583.274.178.079.435-.02.692-.12.179.079.436-.02.614.059.792.137 1.405.195 2.197.332.614.058 1.505.452 2.098.075.079-.178.257-.099.336-.277.949-.219 1.222-1.802.073-2.096-2.831-.826-5.485-1.572-8.395-2.219-.179-.079-.535-.237-.792-.138 0 0-.178-.078-.257.1-.357-.158-.614-.058-.97-.216-.97-.216-1.94-.432-2.811-.39-8.93-2.456-18.57-3.309-27.81-3.135-14.385.243-28.466 3.174-42.447 6.363-14.317 3.465-28.534 7.188-43.25 9.626-14.715 2.438-29.551 4.184-44.046 7.571-12.655 3.562-25.367 7.736-36.806 14.815a1122.803 1122.803 0 0142.315-41.754c3.593-3.308 7.185-6.617 10.52-9.826.18.079.357.158.614.059.257-.1.336-.278.593-.377 9.33 3.483 18.894 6.432 28.596 8.59 9.88 2.236 20.153 3.583 30.342 3.189 9.833-.551 19.304-3.178 28.377-6.832 9.152-3.832 17.648-8.592 26.621-12.503 9.13-4.267 18.481-7.586 28.55-8.671 10.07-1.086 20.4-.353 30.359 1.706 19.817 3.86 38.596 11.518 58.119 16.526 18.197 4.634 37.694 7.289 55.924 1.72 2.234-.716 4.29-1.51 6.246-2.561.85-.476.43-1.939-.519-1.72-.1-.257-.278-.335-.456-.414-.792-.137-1.563.161-2.255.281-.692.12-1.563.161-2.255.281-1.306.061-2.533-.055-3.76-.172-9.612-5.737-19.046-11.394-28.737-16.953-10.146-5.973-20.472-12.025-30.954-17.721-18.548-10.11-39.623-18.357-61.083-14.642-9.434 1.579-18.407 5.49-27.045 9.123-9.151 3.832-18.502 7.151-28.492 8.058-10.169.829-20.442-.517-30.673-.994-9.361-.517-18.859-.243-28.094 1.849-7.08 1.555-13.86 3.88-20.422 7.154.672-.555 1.244-1.366 1.915-1.921.178.079.257-.099.335-.278.415-.455.83-.911 1.065-1.445.079-.178.415-.455.493-.633 16.242-8.788 32.563-17.754 49.283-25.692 11.265-5.24 22.73-9.966 34.57-14.099 7.421.086 14.664.093 22.006.356 7.698.422 15.575.922 23.116 1.7 15.517 1.534 30.877 3.425 46.473 4.782 15.339 1.455 30.914 2.377 46.327 1.737a216.646 216.646 0 0044.188-6.445c11.726-2.907 23.054-6.842 34.162-11.725.692-.12 1.285-.497 1.977-.617 1.977-.616 3.934-1.667 5.811-2.541.257-.099.514-.198.871-.041l.178.079c.435-.021.514-.199.414-.456l.257-.099c1.542-.596 3.163-1.37 4.704-1.966 2.471-1.25 1.417-3.205.053-2.531zm-69.088-86.716c-13.662 11.63-28.258 21.996-43.886 30.842-15.965 9.124-32.705 16.627-49.466 23.695-8.38 3.534-17.018 7.168-25.577 10.623 8.082-4.304 16.064-8.866 23.868-13.506 14.6-8.449 28.923-17.233 43.146-26.274a897.25 897.25 0 0040.059-27.001c12.817-9.236 25.436-18.986 37.142-29.565 8.706-7.647 16.778-15.788 24.393-24.343-13.836 20.706-30.745 39.203-49.679 55.529zm54.662-64.395c-.314.712-.807 1.346-1.222 1.801-7.93 9.267-16.316 18.12-25.337 26.48-11.528 10.657-23.79 20.565-36.43 29.88-12.975 9.593-26.249 18.415-39.701 27.158-14.045 9.12-28.111 17.805-42.533 26.332-12.13 7.199-24.44 14.319-36.848 21.182-3.677 1.568-7.353 3.137-10.851 4.784.336-.277.75-.733 1.086-1.01 13.274-8.822 26.548-17.644 39.643-26.545l43.614-29.26c13.689-9.278 27.476-18.298 40.887-27.912a897.64 897.64 0 0038.925-28.777c9.241-7.411 18.383-15.08 27.068-23.161.514-.199 1.107-.576 1.699-.953zm-8.459 3.712c-.257.1-.335.277-.592.377.078-.178.335-.278.592-.377zm-2.192 1.586c-.079.178-.079.177.021.434-.593.377-1.442.853-2.035 1.23l2.014-1.664zm.577 1.106c-4.936 4.418-9.871 8.835-15.084 12.918-12.598 10.185-25.652 19.955-38.983 29.39-13.332 9.435-26.685 18.435-40.116 27.613-14.538 9.754-28.898 19.586-43.336 29.597-13.945 9.376-27.791 19.01-41.736 28.387a543.07 543.07 0 0127.833-25.377c11.906-10.066 24.367-19.459 36.849-28.418a1031.195 1031.195 0 0138.616-26.148c12.938-8.544 26.154-16.753 39.371-24.962a11929.558 11929.558 0 0036.586-23zm-113.255 63.411c21.89-12.89 44.835-23.826 67.124-35.689l-25.662 16.12c-13.038 8.288-25.976 16.832-38.894 25.812-12.66 8.88-25.043 18.096-37.047 27.904-12.006 9.809-23.811 20.131-34.626 31.103-1.421 1.288-2.664 2.655-3.907 4.021l-.158.356-.514.199c16.245-30.497 44.246-52.395 73.684-69.826zm-8.987-61.654C100.781 58.718 87.674 71.019 76.471 84.8c-5.68 7.069-10.904 14.552-15.493 22.528-4.983 8.867-8.996 17.949-13.444 27.052-4.37 8.925-8.739 17.85-14.356 26.224-5.125 7.739-11.32 15.007-17.712 21.76-11.959 12.596-25.485 23.435-39.189 34.196.493-.634 1.065-1.445 1.558-2.079 11.528-10.658 22.122-22.579 30.913-35.723 10.427-15.401 17.724-32.398 25.733-49.08 4.134-8.391 8.346-16.96 13.292-24.778a139.702 139.702 0 0116.034-20.374c11.208-11.863 24.34-21.812 37.017-32.175 8.313-6.757 16.704-13.692 24.461-21.12-3.609 4.791-7.909 9.702-12.388 14.534zm21.084-26.017c-.157.356-.493.633-.65.99-.493.633-.986 1.267-1.658 1.822-2.821 3.01-5.564 5.842-8.486 8.595-5.921 5.686-12.042 10.857-18.419 16.128-12.676 10.363-25.63 20.39-37.374 32.017-5.743 5.764-11.208 11.863-15.86 18.534-5.481 7.583-9.971 15.816-14.104 24.207-8.445 16.702-15.385 33.857-25.178 49.751-4.69 7.719-10.092 15.124-15.772 22.192-5.108 6.257-10.316 12.257-16.159 17.764 2.05-2.712 4.002-5.681 5.874-8.473 10.879-16.904 18.983-35.247 27.266-53.511 8.597-18.977 17.708-38.152 30.07-55.04 6.31-8.493 13.176-16.315 21.232-22.972 8.134-6.836 17.28-12.586 26.249-18.415 15.151-9.695 31.173-19.431 42.969-33.59zm-10.415 4.764c2.548-1.429 4.998-3.113 7.368-4.62-10.18 11.466-22.94 20.089-35.978 28.377-8.89 5.65-17.7 11.123-26.034 17.445-8.334 6.322-15.755 13.473-22.264 21.452-13.097 16.138-22.585 34.72-31.282 53.44C6.915 158.79-.833 177.291-10.72 194.846a196.194 196.194 0 01-11.864 18.172c8.02-12.847 13.879-27.073 18.946-41.436 6.384-17.826 11.62-35.947 18.896-53.379C22.06 101.84 30.627 85.829 42.82 72.699c5.722-6.199 12.356-11.569 19.646-16.01 6.776-4.244 14.03-7.638 21.282-11.031 13.578-6.134 27.869-11.952 39.817-21.148zM-19.488 193.952c7.103-22.829 12.701-46.111 21.409-68.231 7.527-19.45 17.609-38.409 32.231-53.66A100.195 100.195 0 0159.054 52.84c9.524-5.158 19.803-9.13 29.825-13.003 9.172-3.398 18.423-6.973 27.197-11.397a72.173 72.173 0 01-6.618 3.886c-7.054 3.908-14.407 7.045-21.66 10.439-14.862 6.63-29.704 13.695-41.725 24.986C33.302 79.774 24.18 95.114 16.92 111.063c-7.653 16.839-12.989 34.703-19.215 52.172-6.521 18.617-13.734 37.354-25.168 53.588-.157.356-.493.633-.65.989 1.022-2.315 1.788-4.531 2.633-6.925 2.36-5.342 4.265-11.099 5.99-16.935zm-57.456-42.626c.314 6.524.806 13.127.685 19.672-.122 6.545-.757 13.288-1.927 19.795-2.162 13.093-6.264 25.754-11.971 37.707-5.708 11.952-13.197 23.117-22.056 33.038a151.35 151.35 0 01-6.315 6.576c-.771.297-1.264.931-1.757 1.565-.335.277-.414.455-.75.733 1.301-1.98 2.681-4.138 3.981-6.117 7.412-10.987 14.902-22.151 20.687-34.282 2.775-5.798 5.015-11.832 6.82-17.846 1.726-5.836 2.739-11.987 3.751-18.138 1.769-12.202 2.667-24.363 4.08-36.723 1.007-8.069 2.272-16.237 4.506-24.19-.32 6.031-.027 12.121.266 18.21zm-2.42-17.672c-1.549 5.915-2.483 11.887-3.417 17.86-1.768 12.203-2.567 24.621-3.979 36.981-1.59 12.281-4.051 24.603-8.73 36.159-4.858 11.476-11.498 22.165-18.495 32.696l.236-.535c2.581-4.394 4.805-8.945 6.85-13.575 4.092-9.261 7.47-18.837 9.878-28.628 2.666-9.891 4.282-19.819 5.542-29.905 1.338-10.264 1.963-20.843 3.737-31.128 1.034-5.716 2.424-11.274 4.606-16.695 1.474-3.819 3.404-7.223 5.691-10.47-.666 2.473-1.332 4.945-1.92 7.24zm-26.804 93.945c3.232-12.621 4.702-25.594 5.915-38.467 1.312-12.617 2.703-25.412 6.648-37.717 3.121-9.477 7.827-18.679 14.713-26.066.414-.456.928-.654 1.343-1.11.67-.554 1.243-1.366 1.914-1.921l-.55 1.247c-2.723 3.267-4.81 7.027-6.463 10.767-2.046 4.63-3.556 9.497-4.632 14.343-2.309 10.048-3.033 20.37-4.194 30.713-1.081 10.165-3.033 20.371-5.441 30.162-2.408 9.792-5.43 19.525-9.244 29.121a128.754 128.754 0 01-7.537 15.613c-1.359 2.593-2.817 4.929-4.354 7.442l-.078.178c4.957-11.219 8.943-22.654 11.96-34.305zm-35.846-170.154c.717 16.706 3.51 33.052 5.789 49.597 2.28 16.545 3.51 33.053 4.049 49.68.617 16.449.363 32.94-.069 49.351-.21 2.887-.163 5.675-.373 8.562a9.45 9.45 0 01.016-1.483c-1.76-22.062-5.003-44.142-7.812-66.242-2.787-21.665-5.061-43.529-5.336-65.574-.15-19.436 1.619-38.875 6.121-57.745-2.524 11.017-2.829 22.802-2.385 33.853zm-7.182 120.918c-4.797-18.083-8.901-36.286-10.236-54.968-1.215-17.99.182-36.104 3.876-53.628 1.564-7.398 3.405-14.46 5.682-21.542-1.642 7.575-2.849 15.13-3.7 22.843-1.522 15.504-1.461 31.282-.708 46.94.833 15.48 2.357 30.84 4.495 46.259 1.572 10.911 3.322 21.901 5.33 32.792-1.521-6.206-3.041-12.411-4.739-18.696zm14.488 61.742c-1.525-8.123-2.951-15.99-4.476-24.114-2.83-15.298-5.561-30.34-7.877-45.837-2.395-15.319-4.354-30.659-5.365-46.218-1.01-15.558-1.407-31.059-.498-46.621.856-13.031 2.94-25.946 6.528-38.409 1.317-3.462 2.712-7.103 4.207-10.487-.861 3.877-1.621 8.011-2.304 11.967a257.446 257.446 0 00-3.024 31.442c-.616 21.652 1.044 43.458 3.475 64.965 2.63 22.022 5.874 44.101 7.891 66.064 1.341 13.364 2.068 26.669 2.103 40.094.021.435-.136.791-.115 1.226-.063-1.304-.304-2.688-.545-4.072zm3.038-11.216c.262-5.418.604-11.014.688-16.511.611-16.332.864-32.823.504-49.371-.439-16.371-1.391-32.543-3.571-48.831-2.022-16.644-5.351-33.227-6.681-49.992-1.047-14.51-.631-29.439 2.874-43.641.02.434-.137.79-.116 1.226a23.905 23.905 0 00-.09 3.579c-.078.178.021.434-.057.613.067 10.459 1.104 21.134 2.734 31.432 2.337 15.932 5.88 31.546 9.088 47.437 3.307 16.148 5.922 32.416 6.796 48.766 1.073 16.863.484 33.631-1.411 50.46-1.895 16.83-5.452 33.563-10.436 49.666-.157.357-.315.713-.373 1.326.353-8.997.291-17.539.051-26.159zm-1.406 45.142c.021.435-.036 1.048-.016 1.483-.036 1.048-.251 2.017-.545 3.165.094-1.661.367-3.244.561-4.648zm163.574 26.72c-13.699 5.442-26.82 11.99-40.419 17.689-13.42 5.777-27.496 10.626-42.075 12.273-14.836 1.746-29.72.705-44.424-.258-3.503-.27-7.085-.363-10.588-.634.692-.119 1.484.018 2.177-.102 12.9-.26 25.644-.164 38.602-1.037 12.702-.774 25.361-2.417 37.502-5.78 13.604-3.781 26.468-10.23 39.375-15.808 8.46-3.713 17.196-7.089 26.175-9.082-2.135.972-4.19 1.767-6.325 2.739zm-3.828-3.394c-14.653 3.743-28.666 9.897-42.999 14.846-7.295 2.524-14.789 4.534-22.503 5.596-7.714 1.061-15.37 1.51-23.048 1.523-14.999.185-30.238-1.014-45.095.297-5.302.425-10.504 1.106-15.507 2.301 11.348-3.5 23.059-4.924 34.711-5.736 12.78-.951 25.582-1.468 38.3-3.725 13.409-2.376 26.656-6.315 39.845-9.64 13.012-3.404 26.044-6.373 39.437-7.266 2.69-.302 5.48-.346 8.192-.213-3.74.264-7.536 1.141-11.333 2.017zm-134.861 18.745c14.217-3.723 28.696-5.626 42.898-7.866 7.358-1.219 14.537-2.517 21.696-4.25 7.08-1.554 14.06-3.366 21.218-5.099 13.882-3.445 27.863-6.633 42.206-7.746 8.784-.589 17.432-.386 25.964 1.042-.079.178.1.257.278.336.178.078.456.414.891.393-3.681-.349-7.52-.342-11.359-.335-13.414.458-26.724 3.092-39.735 6.496-13.447 3.424-26.595 7.619-40.062 10.609-6.566 1.356-13.231 2.455-19.918 3.119-6.508.743-12.858 1.13-19.21 1.517-12.523.853-25.381 1.982-37.501 5.78-1.463.418-3.005 1.014-4.547 1.61-.257.099-.414.455-.236.534l-3.619.956c7.017-2.86 14.055-5.285 21.036-7.096zm-34.115 14.513c9.623-4.9 20.4-7.589 31.24-8.972 14.58-1.647 29.54-.784 44.203-.691 7.678-.013 15.355-.027 22.991-.91 7.557-.706 15.072-2.281 22.388-4.37 14.632-4.178 28.467-10.411 42.999-14.845.77-.298 1.463-.418 2.155-.538l-7.71 2.979c-13.341 5.6-26.106 12.305-39.768 16.699-12.198 3.976-25.094 6.154-37.874 7.105-12.859 1.13-25.68 1.212-38.582 1.472-8.191.212-16.382.425-24.653.815-5.223.246-10.268.572-15.549 1.431-.257.099-.435.021-.514.199-.692.119-1.562.161-2.255.28 0 0 .514-.198.929-.654zm340.636-54.262c-.178-.078-.257.1-.435.021l-.178-.079c.178.079.435-.02.613.058zM-34.525 66.409c.079-.178.414-.455.493-.633-3.719 7.935-6.012 16.5-7.334 25.281-2.1 14.398-1.566 29.108-.084 43.598 1.404 14.668 3.322 29.138 3.677 43.769.292 13.325-.721 26.713-4.645 39.453.582-4.212.808-8.582 1.034-12.952.306-11.785-.952-23.409-2.387-35.111-1.536-11.96-3.684-23.977-4.784-35.957-1-11.723-1.23-23.744.916-35.354s6.233-22.789 13.114-32.094zm-19.892 103.384c-4.09-12.449-8.456-25.234-8.313-38.58.222-13.525 4.303-26.621 10.445-38.594.63-1.425 1.359-2.593 2.167-3.939-.924 2.572-1.926 5.322-2.492 8.052-2.88 10.86-3.286 22.388-2.663 33.518.723 11.388 2.316 22.734 4.166 33.981 1.85 11.247 3.7 22.494 4.422 33.882.162 1.561.246 3.301.23 4.784-1.236-11.189-4.47-22.196-7.962-33.104zM178.57 279.117c-9.597.017-19-1.371-28.345-3.371-19.403-4.315-38.003-11.895-57.327-16.389-9.702-2.157-19.718-3.603-29.65-3.309-9.933.295-19.603 2.408-28.676 6.062-18.067 7.13-34.698 18.726-54.18 21.825-20.432 3.318-41.204-2.241-60.512-8.218a342.18 342.18 0 00-4.694-1.435c.179.079.257-.099.436-.02.335-.278.592-.377.928-.654 17.74 4.219 36.552 1.675 54.152-2.468 18.806-4.463 37.15-11.257 56.135-15.64 9.493-2.192 19.184-3.87 29.017-4.421 9.754-.373 19.372.045 28.953 1.511 19.419 2.833 38.271 8.395 56.808 14.669 8.873 3.069 17.667 6.316 26.519 8.95a87.866 87.866 0 0014.196 3.079c-1.406-.195-2.633-.312-3.76-.171zm14.93-3.408c.714.315 1.348.809 2.061 1.124-16.435 2.955-33.174-4.015-48.523-9.306-18.359-6.196-36.797-12.214-55.98-15.581-9.324-1.565-18.884-2.596-28.303-2.501-9.597.017-18.973.983-28.387 2.997-19.105 3.691-37.271 10.564-56.135 15.639-18.093 4.778-36.862 8.192-55.647 5.852-2.019-.253-3.78-.606-5.8-.86l.079-.178c14.244-8.606 30.716-12.609 47.294-14.438 20.394-2.27 41.014-1.673 61.168-5.327 18.77-3.414 37.135-9.774 56.387-10.421 19.608-.489 38.245 6.042 56.31 13.386 17.987 7.521 36.037 16.347 55.298 19.536l.178.078zm-21.332-8.148c-9.408-3.305-18.501-7.322-27.672-11.162-17.987-7.521-36.666-14.922-56.337-15.738-19.314-.658-37.88 5.188-56.628 9.037-10.105 2.134-20.253 3.397-30.521 3.969-10.347.75-20.715 1.065-31.14 1.992-15.47 1.254-31.65 4.11-45.799 11.055 12.052-7.021 26.091-10.822 39.779-12.863 19.146-2.822 38.597-2.955 57.623-6.468 9.514-1.757 18.885-4.64 28.356-7.267 9.215-2.527 18.628-4.541 28.383-4.914 18.894-.804 37.584 3.196 55.094 9.868 18.658 6.966 36.314 16.683 53.377 26.776-4.772-1.257-9.722-2.593-14.515-4.285zM-42.621 246.31c8.78-2.507 17.8-3.63 27.06-3.37 10.132.22 20.148 1.665 30.26 1.449 4.887.031 9.932-.294 14.678-1.39 4.667-.917 9.135-2.349 13.504-4.037 8.994-3.476 17.511-7.802 26.804-10.507 20.899-6.304 42.048-.153 60.91 9.245 10.284 5.182 20.252 11.076 30.221 16.97 8.799 5.165 17.776 10.409 26.654 15.395-.257.1-.514.199-.493.634-.991-.651-2.16-1.38-3.23-1.853-4.756-2.74-9.334-5.401-14.169-7.963a287.193 287.193 0 00-28.59-13.909c-17.63-7.363-36.54-12.312-55.754-12.714-9.519-.161-18.974.983-28.288 3.253-9.492 2.192-18.942 5.254-28.513 7.623-19.499 4.582-39.385 4.736-59.166 7.064-13.708 1.606-27.79 4.538-40.24 10.531.336-.278.75-.733 1.086-1.01 2.171-2.021 4.421-4.22 6.593-6.24 6.775-4.243 13.614-7.182 20.673-9.171zm-3.905-17.69c1.779-8.366 2.152-16.928 1.912-25.548-.366-11.23-2.038-22.398-3.966-33.467-1.85-11.247-3.957-22.395-5.115-33.762-.98-11.288-1.267-22.696.9-33.871 1.328-6.863 3.547-13.333 6.48-19.487 2.108-3.325 4.395-6.572 6.681-9.819-.807 1.346-1.515 2.949-2.145 4.374-2.539 5.264-4.285 10.664-5.676 16.223-2.68 11.373-3.243 23.257-2.678 35.001.665 12 2.278 23.782 3.992 35.82 1.614 11.781 3.149 23.741 3.2 35.683.025 9.589-.998 19.141-3.17 28.398 0 0-.336.277-.415.455zm2.376.411l1.337-3.027c5.152-12.624 7.293-26.151 7.514-39.676.338-14.75-1.502-29.398-2.905-44.067-1.404-14.668-2.73-29.514-1.422-44.05.614-7.177 1.921-14.476 3.94-21.459.295-1.147.846-2.394 1.14-3.541-.82 4.747-.925 9.809-.773 14.771.293 6.09 1.2 12.237 1.928 18.306.749 6.503 1.498 13.007 2.069 19.432 1.22 12.672 2.006 25.364 2.277 38.255.25 12.456-.37 24.953-3.187 37.117-2.587 9.713-6.4 19.309-11.918 27.939zm114.06-43.047c13.384-4.729 27.287-7.739 41.352-9.187 14.5-1.469 29.262-1.12 43.673.99 15.895 2.127 31.517 5.837 47.118 9.111 12.869 2.706 26.074 5.134 39.116 6.001-3.126.322-6.251.644-9.477.709-7.578.27-15.077.363-22.597.02-15.119-.507-30.458-1.963-45.54-3.518-14.547-1.319-28.837-2.737-43.343-3.186-13.892-.391-27.92.01-41.707 1.794-12.481 1.722-24.643 4.65-36.364 9.475 8.931-4.781 18.24-8.969 27.77-12.209zm146.18 18.823a210.087 210.087 0 01-43.355 7.451c-15.392 1.075-30.867.41-46.107-.789-15.417-1.277-30.777-3.168-46.116-4.624-15.34-1.456-30.857-2.991-46.27-2.35.436-.021.771-.298 1.207-.319 7.142-.25 14.364-.678 21.506-.928 7.756-.191 15.533.052 23.489.374 15.732.566 31.486 1.566 47.139 2.31 14.784.784 29.903 1.291 44.723 1.028 14.206-.322 28.471-1.256 42.672-3.496 4.846-.839 9.948-1.777 14.695-2.873-4.547 1.61-9.016 3.041-13.583 4.216zm-175.838-2.34a234.591 234.591 0 0113.447-3.424c10.184-2.312 20.232-3.832 30.758-4.503 11.574-.634 23.111-.219 34.669.631 22.424 1.819 44.774 5.734 67.256 6.94 6.649.383 13.456.411 20.263.438-9.969 1.343-20.059 1.993-29.992 2.288-14.72.52-29.482.17-44.087-.536-15.654-.743-31.229-1.665-46.784-2.151-15.197-.329-30.473-.48-45.53.317zm199.401-6.619c-.949.219-1.899.438-2.927.835-14.416 3.209-29.551 4.185-44.235 3.657-22.46-.771-44.711-4.429-66.978-6.604-11.4-1.206-23.037-1.877-34.454-1.6-10.546.236-20.872 1.421-31.156 3.475-7.258 1.476-14.416 3.209-21.554 5.377 5.04-2.243 10.436-4.329 15.854-5.98 6.623-1.969 13.268-3.503 20.112-4.523 13.766-2.219 27.794-2.62 41.686-2.229 14.327.37 28.696 1.61 42.986 3.028 15.082 1.556 30.086 3.289 45.126 3.974 13.121.689 26.457.408 39.573-.821-1.107.575-2.57.993-4.033 1.411z" fill="#C3D64B"/></svg>