<svg width="134" height="272" fill="none" xmlns="http://www.w3.org/2000/svg"><path d="M109.146 21.277l-.326-.402c-.441-.709-1.454-.153-1.166.613.115.306.441.709.556 1.015l-.096.21.058.154c-.096.21-.038.364.019.517.418 15.056 6.577 30.053 15.412 41.947 4.906 6.55 10.71 12.238 17.26 17.12 7.507 5.573 15.76 10.341 23.707 15.224 7.372 4.749 14.401 9.977 20.684 16.01 5.804 5.688 11.054 11.759 16.266 18.194 10.271 12.927 19.433 26.621 30.105 39.223 5.308 6.224 10.806 12.027 17.012 17.389 3.313 2.777 6.78 5.497 10.38 7.641-2.699-.21-5.608-.516-8.364-.879l-1.09-.115c-.575-.134-1.149-.268-1.57-.459-1.512-.306-3.177-.555-4.785-.651l-2.182-.229c-.268-.249-.689-.44-1.148-.268l-.612.23c-.364-.038-.938-.172-1.302-.21-.268-.249-.536-.498-1.053-.479-.306.115-.669.077-.975.192l-.211-.096c-5.648-2.949-11.774-4.844-18.128-5.953-6.203-2.566-12.158-5.4-18.112-8.233a279.26 279.26 0 01-36.19-21.025c-3.236-2.107-6.377-4.424-9.518-6.741-1.494-1.187-3.141-2.317-4.635-3.504-.862-.9-1.781-1.954-2.644-2.854-.268-.249-.536-.498-.651-.804-.345-.92-.844-1.781-1.189-2.701-.729-1.475-1.247-2.854-1.976-4.329-.671-1.321-1.4-2.796-2.377-4.002-.115-.307-.421-.192-.574-.134-2.552-5.861-5.409-11.607-8.726-17.181-7.036-12.219-15.64-23.5-25.602-33.746-10.498-10.744-22.086-20.204-34.361-28.706-6.167-4.328-12.429-8.445-18.939-12.294-5.879-3.561-11.91-7.066-17.789-10.627-2.279-1.417-4.5-2.681-6.625-4.155-.537-.498-.863-.9-1.399-1.399-.268-.248-.574-.134-.67.077C18.075 19.65 10.912 13.597 5.91 5.86c-.058-.153-.115-.306-.326-.402-.729-1.475-1.61-2.892-2.34-4.367C3.014.477 2.287.4 1.675.63l-.401.327c-.306.115-.402.325-.497.536-.63 1.111-.63 2.51.444 3.505.268.25.42.192.631.288-.612.23-1.147 1.13-.553 1.781 2.012 2.566 4.177 5.075 6.036 7.7 1.86 2.623 3.47 5.515 4.928 8.465 2.915 5.899 5.275 12.181 7.578 18.31 2.36 6.283 4.51 12.47 7.024 18.694 2.84 6.628 6.233 12.871 10.086 18.943 7.859 12.085 17.534 22.963 27.802 33.094 5.21 5.037 10.574 10.016 16.033 14.785 6.053 5.419 12.354 10.571 19.439 14.553 3.484 1.839 7.065 3.466 10.931 4.461 3.503.957 7.197 1.493 10.891 2.028 7.33.918 14.851 1.415 21.628 4.114.421.192.996.326 1.474.67.173.46.499.862.614 1.169l.153-.058c.038-.364-.02-.517-.135-.823.843.383 1.896.861 2.796 1.397l.21.096c2.796 1.398 5.4 3.217 7.967 5.4.268.249.689.441.995.326 2.605 1.819 5.304 3.427 7.909 5.246 12.562 7.871 25.811 14.783 39.634 20.431-2.699-.21-5.34-.267-8.038-.477-14.659-.438-29.412.734-43.957-.796-7.483-.86-14.737-2.506-21.858-4.727-7.332-2.316-14.568-4.843-21.976-6.431-14.24-3.043-28.725-1.622-43.133-.93-14.256.635-29.547-.089-42.147-7.596-1.072-.995-2.509-2.029-3.945-3.064-.957-.689-2.736.154-1.912 1.418-.46.173-.592.747-.267 1.15.805.747 1.762 1.436 2.567 2.183 9.047 13.387 20.464 25.185 33.506 34.798 14.058 10.456 29.987 18.459 46.986 23.263 15.849 4.537 32.519 6.142 48.821 4.913a150.587 150.587 0 0047.216-11.445c7.383-3.124 14.632-7.072 21.401-11.364 4.093-2.587 8.108-5.844 12.737-7.933 1.434-.364 2.716-.671 4.151-1.035 1.282-.307 2.506-.767 3.635-1.016l.632.287a.789.789 0 001.071-.402l.153-.058c6.469 1.417 12.977 2.469 19.58 3.31-.976.192-2.162.288-3.138.48-9.662 1.706-18.882 5.52-27.392 10.292-18.742 10.539-34.245 25.981-50.803 39.546-4.665 3.852-9.54 7.607-14.589 10.903-2.524 1.648-5.048 3.296-7.63 4.79-1.874 1.054-3.901 2.166-5.776 3.219-.363-.038-.669.077-.975.192-.575-.134-1.149-.268-1.666-.248-.822.134-1.089 1.283-.4 1.724.747.593 1.991.65 2.929.823l2.641.057c.574.134 1.55-.058 2.468-.403l.612-.23c.306-.115.517-.019.881.019 2.64.057 5.434.056 8.171-.098 5.472-.307 10.983-.979 16.321-2.11 10.675-2.263 21.081-6.173 30.758-11.557 10.538-5.883 19.447-13.777 27.704-22.475 8.812-9.081 17.299-18.565 27.797-25.482l2.123-1.322c2.353-.709 4.744-1.783 7.097-2.492 3.577-1.169 7.212-2.185 11-3.258 3.634-1.016 7.231-1.668 10.828-2.321 1.091.115 2.124.077 3.368.134.364.038.612-.23.765-.288.67-.076 1.397 0 2.22-.134 1.397 0 2.794-.001 4.038.056.727.077 1.013-.555.994-1.072 2.009-.231 4.018-.461 6.122-.902l2.469-.403c1.339-.153 2.736-.154 4.075-.307.364.038.402-.326.344-.479l3.386-.748c1.129-.249 3.923-.25 4.075-1.705.189-1.82-2.47-.996-3.293-.862-.306.115-.822.134-1.128.249.765-.287 1.434-.364 2.142-.804.765-.288.362-1.361-.308-1.284-1.913.02-3.712.346-5.568.519-1.951.383-3.807.556-5.759.939-3.807.557-7.519.902-11.384 1.305-7.578.749-15.27 1.191-22.771 1.212l-4.191.001c-2.833-1.034-5.495-3.007-6.8-6.014-.057-.153-.268-.249-.421-.191-1.423-6.11-2.692-12.278-4.21-18.177-1.808-8.064-3.768-16.071-6.398-24.001-4.84-15.667-12.185-30.569-24.062-42.193-12.202-12.027-27.462-20.108-42.836-27.096-15.164-6.893-30.651-12.79-45.184-20.793-13.691-7.62-26.733-17.234-35.416-30.583-1.15-1.667-2.089-3.237-3.086-4.96-.135-.825-1.015-.843-1.512-.307zm33.872 125.938c-9.863-7.66-19.325-15.646-28.443-24.11-18.389-16.872-35.382-35.143-52.28-53.624C50.8 57.013 39.495 44.124 28 31.657c2.566 2.183 5.286 4.309 7.852 6.492.21.095.268.249.48.344.267.25.382.556.65.805 3.832 4.156 7.664 8.311 11.649 12.41 7.97 8.197 16.034 16.183 24.347 23.9C81.35 83.48 90.065 90.872 98.78 98.264c4.176 3.677 8.504 7.296 12.432 11.241 3.716 3.849 7.127 7.814 10.499 12.142 6.593 8.714 12.688 17.965 21.23 24.898-.096.21-.038.363.077.67zm-.633-1.686c-7.126-6.415-12.703-14.287-18.222-22.005-2.952-4.137-6.114-8.37-9.62-12.123-3.831-4.156-7.758-8.101-11.934-11.778-8.409-7.507-17.22-14.689-25.475-22.253-8.524-7.814-16.742-15.742-24.616-24.15-2.644-2.853-5.44-5.65-8.085-8.503 2.03 1.685 4.214 3.313 6.187 4.845 10.016 7.603 20.185 15.148 30.01 23.172 17.564 14.21 34.344 29.587 47.568 48.05 5.424 7.929 10.083 16.146 14.187 24.745zM44.505 39.794c6.51 3.85 12.867 7.755 19.13 11.873 12.523 8.234 24.302 17.272 35.202 27.69 10.363 9.92 19.579 20.971 27.285 33.114 3.853 6.071 7.094 12.373 10.181 18.732-1.495-2.586-3.143-5.114-4.734-7.489-6.038-9.097-13.185-17.428-20.733-25.434-7.969-8.197-16.436-15.857-25.304-23.191-9.825-8.024-19.995-15.57-29.973-23.536-5.497-4.404-11.147-8.751-16.644-13.156-.747-.593-1.493-1.187-2.298-1.934-.862-.9-1.514-1.705-2.376-2.605 3.543 1.992 6.932 4.04 10.264 5.936zM15.417 21.871c13.22 14.268 26.344 28.747 39.41 43.072 17.07 18.94 34.39 37.613 52.951 54.945 10.67 9.805 21.587 19.342 33.098 28.132-2.949-1.34-6.108-2.776-8.961-4.327a158.775 158.775 0 01-18.019-11.241c-11.643-8.215-22.255-17.867-32.217-28.113-9.962-10.246-18.91-21.047-27.973-32.155C44.968 61.478 36.23 50.772 27.894 39.74c-4.312-5.899-8.624-11.798-12.476-17.869zm113.727 125.136c-7.388-1.071-14.966-1.721-22.011-4.669-7.62-3.083-14.17-7.966-20.318-13.175-5.67-4.864-11.244-9.939-16.665-15.071-10.363-9.92-20.287-20.53-28.452-32.5-4.159-5.957-7.706-12.143-10.85-18.655-2.82-6.11-5.181-12.393-7.388-18.733-1.958-5.21-3.762-10.477-5.873-15.629 1.86 2.624 3.776 5.4 5.788 7.967C31.71 47.574 40.449 58.28 49.186 68.986c9.063 11.108 18.433 22.1 28.3 32.558 9.808 10.303 20.324 20.166 31.719 28.649 9.959 7.449 20.663 14.094 31.921 18.957-3.656-.9-7.924-1.569-11.982-2.143zm77.241 41.972c3.157.038 6.181.65 9.015 1.684 3.35 1.014 6.566 2.604 9.916 3.618-10.868 1.286-21.909 2.112-32.816 2.363-14.007.367-28.092.063-42.139-.604-14.199-.61-28.457-1.373-42.676-2.501-14.678-.954-29.224-2.484-43.446-6.407-6.795-1.819-13.362-4.423-19.584-7.505-3.638-1.781-6.874-3.887-10.168-6.147 10.742 6.281 24.1 6.508 36.193 6.161 7.444-.174 14.945-.195 22.428.665 7.483.861 14.891 2.449 22.203 4.248 13.839 3.369 27.507 7.676 41.708 9.684a96.437 96.437 0 0020.056.858c3.253-.173 6.543-.71 9.834-1.247 3.233-.691 6.505-1.745 9.776-2.799 3.06-1.15 6.389-2.051 9.7-2.071zm-147-13.838c14.486-.022 28.893-2.113 43.343-.373 14.966 1.721 28.943 8.71 43.891 11.312 14.585 2.564 29.242 1.603 43.881 1.523l9.473.113c-2.717.671-5.318 1.649-7.977 2.473a50.78 50.78 0 01-9.7 2.071c-6.487.863-13.261.96-19.748.425-14.067-1.184-27.504-4.879-41.037-8.362-7.159-1.857-14.414-3.502-21.648-4.631-7.235-1.129-14.546-1.529-21.836-1.413-14.429.175-30.1 1.692-43.216-5.795-.843-.383-1.59-.977-2.49-1.513 8.5 3.102 17.802 4.153 27.064 4.17zm97.879 51.354c-16.015 1.996-32.492 1.367-48.149-2.193-16.959-3.77-33.27-10.93-47.71-20.543-3.293-2.26-6.645-4.673-9.69-7.201 1.11.632 2.279 1.417 3.39 2.049 14.284 8.272 30.344 12.905 46.021 16.981 15.256 3.886 30.798 7.139 46.452 7.902 13.893.725 27.919-.523 41.157-4.798l2.601-.977a131.058 131.058 0 01-34.072 8.78zm-2.397-4.52c-15.672.118-31.195-2.618-46.488-6.139-7.829-1.78-15.62-3.924-23.41-6.067-8.06-2.393-15.927-5.207-23.356-8.711-7.697-3.753-15.07-8.502-21.448-14.324-2.26-2.298-4.578-4.749-6.743-7.258-1.303-1.609-2.453-3.275-3.603-4.941 8.311 6.319 17.311 11.681 26.54 16.257 14.072 6.778 28.908 11.87 44.087 15.085 14.967 3.119 30.393 4.667 45.664 4.875 15.06.112 30.177-1.022 45.043-3.285 7.921-1.228 15.938-2.666 23.839-4.411a108.49 108.49 0 00-3.021 2.185c-5.335 3.928-11.264 7.204-17.48 9.715-12.702 4.772-26.171 7.035-39.624 7.019zm59.229-15.26c-2.275 1.38-4.551 2.759-6.884 3.986 2.734-1.552 5.354-3.411 7.763-5.365 1.759-1.361 3.671-2.778 5.603-3.679.67-.077 1.282-.307 1.952-.384-2.831 1.763-5.603 3.679-8.434 5.442zm17.958-10.769c-11.785 3.029-23.685 5.752-35.719 7.651-14.656 2.359-29.6 3.952-44.487 4.3-15.099.252-30.141-.741-44.936-3.401-15.159-2.697-30.223-7.004-44.276-13.265-7.103-3.102-13.862-6.682-20.43-10.684-5.247-3.275-10.456-6.913-15.359-10.666-.172-.46-.498-.862-.67-1.322.478.345 1.052.479 1.531.823 8.983 7.641 19.437 13.156 30.598 16.831 13.84 4.767 28.5 6.603 42.988 7.979 14.488 1.376 28.803 2.293 43.271 3.152a594.394 594.394 0 0042.885 1.197 343.316 343.316 0 0042.422-2.824c.364.038.823-.134 1.186-.096.575.134 1.091.115 1.818.191-.363-.038-.516.019-.822.134zm-54.528-25.675c6.032 3.504 12.102 6.644 18.324 9.727-5.744-2.738-11.545-5.63-17.098-8.789-.479-.345-.958-.689-1.589-.977l.363.039zm-14.366 94.227c4.494-2.913 8.778-5.921 12.946-9.236 8.394-6.476 16.251-13.45 24.319-20.328 15.639-13.221 32.638-26.077 52.783-31.024 3.692-.862 7.289-1.514 11.001-1.86l-.765.288c-9.871 3.009-18.956 7.646-27.695 13.203-19.047 12.053-35.468 27.84-54.304 39.988-7.171 4.618-14.726 8.681-22.779 11.881 1.511-1.092 2.926-1.973 4.494-2.912zm81.137-36.431c-8.659 9.024-17.165 17.99-27.721 24.754-9.447 5.998-19.622 10.52-30.431 13.358-5.223 1.437-10.771 2.473-16.186 2.934-2.009.23-4.076.307-6.143.384 7.729-2.204 15.265-5.386 22.265-9.065 10.194-5.404 19.832-11.823 29.354-18.548 9.37-6.668 18.529-13.432 28.224-19.698 5.355-3.41 10.92-6.725 16.6-9.734-5.717 4.771-10.839 10.193-15.962 15.615zm27.607-23.662c-.554.383-1.013.555-1.568.938-8.148 3.412-15.951 7.742-23.333 12.265-9.753 6.112-18.854 13.029-28.013 19.793-9.465 6.878-18.988 13.604-29.009 19.467-9.619 5.538-19.853 9.908-30.662 12.745-.363-.038-.88-.019-1.243-.057-.422-.192-.728-.077-1.034.038l-2.641-.057c18.614-5.769 34.58-17.189 49.857-29.049 17.19-13.278 34.397-27.438 55.075-34.683 4.802-1.629 9.871-3.009 14.961-3.872.727.076 1.244.057 1.971.134-1.415.881-2.888 1.609-4.361 2.338zm-6.648-7.47c-4.154-1.761-7.869-4.212-11.336-6.931-6.397-4.941-12.048-10.686-17.451-16.7-10.653-12.085-19.757-25.626-29.606-38.362-9.908-12.889-20.771-25.069-34.062-34.414-14.669-10.226-31.249-17.636-43.147-31.176-5.786-6.569-10.368-14.115-13.725-22.121 2.915 5.899 6.691 11.3 11.174 16.26 11.131 12.43 25.799 21.257 40.141 29.682 14.61 8.674 29.527 17.234 41.137 30.008 11.169 12.065 18.82 26.851 27.676 40.66 8.032 12.545 17.46 25.09 30.137 33.267-.574-.134-.727-.077-.938-.173zm5.086-3.659c.269.249.441.708.709.957-.268-.249-.746-.593-1.015-.842a69.248 69.248 0 01-8.333-8.235c-5.403-6.014-9.849-12.736-14.048-19.727-8.186-13.886-14.804-28.711-23.238-42.328-4.141-6.838-8.836-13.292-14.392-19.248-5.824-6.205-12.585-11.184-19.937-15.416-15.032-8.865-31.706-14.666-45.858-24.911-4.788-3.447-9.021-7.277-13.006-11.376a268.266 268.266 0 0011.107 7.718c6.836 4.25 14.112 7.812 21.388 11.373 7.907 3.849 15.91 7.487 23.664 11.393 15.509 7.812 30.445 16.888 41.463 30.409 9.599 11.606 15.872 25.512 21.781 39.379 6.214 13.752 11.569 28.002 19.715 40.854zm-40.016-91.63c6.359 5.304 12.03 11.567 16.592 18.596 4.351 6.933 7.784 14.212 10.51 21.93 2.726 7.719 4.839 15.668 6.8 23.675 1.345 5.44 2.633 10.726 3.825 16.223-3.548-7.584-6.178-15.514-8.808-23.444-2.458-7.47-4.858-14.786-8.08-21.969-3.28-7.336-7.326-14.384-12.48-20.666-10.96-13.368-25.515-23.287-40.373-31.693-7.717-4.27-15.682-8.272-23.494-12.331 3.734 1.57 7.314 3.197 11.047 4.767 15.622 6.72 31.418 13.9 44.461 24.912zm-107.38-60.374c5.746 5.535 12.239 10.265 18.864 14.42.268.249.632.287.9.536.479.345 1.168.785 1.647 1.13 14.841 9.287 30.846 16.563 46.412 24.528 15.414 8.023 30.828 17.444 42.802 30.256 5.767 6.052 10.635 12.966 14.336 20.493 3.529 7.068 6.139 14.48 8.597 21.95 3.628 11.052 7.219 22.468 12.837 32.772l1.095 4.31a258.124 258.124 0 01-7.363-14.02c-3.26-6.819-6.119-13.963-9.131-21.05-5.699-13.771-11.607-27.638-20.404-39.896-4.753-6.607-10.251-12.41-16.553-17.562-6.78-5.496-14.095-10.091-21.6-14.266-7.717-4.27-15.72-7.908-23.627-11.756-7.429-3.504-14.762-7.219-21.847-11.201-10.895-6.223-21.37-13.653-29.743-22.923-.709-.958-1.36-1.762-1.916-2.777 1.36 1.762 3.027 3.409 4.694 5.056zm-9.27-7.009c1.994 3.448 4.236 6.627 6.632 9.749 5.001 6.34 10.499 12.142 16.59 17.198 6.57 5.4 13.463 9.804 20.912 13.825 7.869 4.213 16.025 7.793 23.894 12.006 7.812 4.059 15.28 8.597 21.87 14.515 5.899 5.477 10.996 11.605 15.443 18.328 9.104 13.541 15.627 28.576 23.717 42.673 4.046 7.048 8.339 13.828 13.494 20.11 3.909 4.826 8.277 9.48 13.18 13.233-.038.364.134.824.651.805.211.095.364.038.574.134.211.095.268.248.479.344-.727-.076-1.397 0-2.124-.076-12.274-7.104-21.759-18.404-29.655-30.125-8.989-13.234-16.315-27.618-26.413-40.086-5.212-6.435-11.169-12.065-17.566-17.006-6.607-5.037-13.712-9.537-20.912-13.826-14.61-8.674-29.87-16.754-42.264-28.36-10.458-9.71-18.796-22.14-21.146-36.294-.057-.154.038-.364-.019-.518.977 1.207 1.743 2.318 2.663 3.371z" fill="#C3D64B"/></svg>