<svg width="119" height="269" fill="none" xmlns="http://www.w3.org/2000/svg"><path d="M107.352 233.404c-.064-.195.131-.258.067-.453.52-.385.203-1.358-.444-1.362-1.358-.203-2.911-.343-4.269-.546-1.227-.461-2.453-.923-3.875-1.32.068-.453-.254-.779-.77-1.041-20.197-9.779-41.375-17.946-63.216-23.528-20.678-5.314-41.889-8.302-62.989-8.31-19.61-.064-39.432 2.526-58.301 8.035-9.856 2.785-19.394 6.542-28.483 11.015-9.868 4.727-19.609 9.843-29.604 14.18-2.076.893-4.153 1.786-6.293 2.484-14.525 4.308-29.622 6.864-44.567 5.924-.453-.068-.711-.199-1.164-.266l-.389.127c-1.552-.14-3.105-.28-4.721-.614-.258-.131-.711-.199-.905-.135-1.422-.398-3.101-.927-4.586-1.52a8284.7 8284.7 0 0114.013-5.217c.453.068.647.004.973-.317 0 0 .195-.064.131-.259.778-.253 1.557-.507 2.466-1.019 4.213-.944 8.172-2.666 12.067-4.583 27.185-10.376 54.754-20.231 81.816-31.644.321.326.774.394 1.163.267 2.792-1.341 5.583-2.683 8.311-4.219 5.841-2.551 11.877-5.167 17.591-8.107 8.291-.982 16.455-2.353 24.555-3.919 9.526-1.815 18.794-3.762 28.002-6.55 17.118-4.939 33.863-12.34 47.913-23.384 14.113-10.85 24.236-25.351 31.974-41.228 8.063-16.198 13.608-33.513 20.186-50.304 6.447-16.533 14.379-32.473 25.661-46.06 1.239-1.482 2.479-2.963 3.912-4.507l.195-.064c.194-.063.131-.258.325-.321l.131-.258c1.299-.64 2.661-1.084 3.959-1.723 1.493-.702.537-2.974-.956-2.272-15.832 6.242-31.092 14.235-45.388 23.206-14.49 9.034-27.952 19.24-40.58 30.683C18.634 65.717 6.97 78.136-3.275 91.6c-4.504 5.992-9.008 11.984-13.253 18.107 2.625-5.81 4.798-11.688 6.907-17.76C-4.413 76.897.215 61.388 7.166 47.06c1.966-3.872 3.932-7.744 6.415-11.353 2.156-3.288 4.702-6.703 7.116-9.86l.779-.254c.973-.317.397-1.421-.314-1.62l.195-.064c.715-.448-.055-1.49-.64-1.299-2.596 1.278-5.13 2.75-7.469 4.16C6.824 29.512.843 33.616-4.427 37.92c-3.51 2.437-6.826 4.811-10.078 7.38-10.797 8.476-20.634 18.576-28.021 30.247-7.256 11.412-12.58 24.132-16.996 36.988-4.612 12.918-8.645 26.294-13.709 39.146-4.934 12.593-11.03 24.919-19.446 35.418l-2.347 2.704c-23.102 9.69-46.522 18.407-69.879 27.318l-1.751.572c3.9-2.565 7.672-5.518 11.187-8.603 10.738-9.318 19.483-20.785 26.937-32.909 7.916-13.35 13.961-27.814 18.907-42.349 4.946-14.535 8.923-29.401 12.9-44.266 3.976-14.865 7.822-29.473 12.51-44.14.66-1.937 1.188-3.617 1.847-5.555.397-1.422-1.604-2.277-2.196-.792-.262.517-.33.97-.528 1.68-.194.064-.39.127-.52.385-1.315 3.229-2.824 6.521-4.592 9.682a131.516 131.516 0 01-5.945 8.831c-4.178 5.67-8.872 11.079-13.05 16.749-4.373 5.733-8.229 11.73-10.859 18.187-2.76 6.715-4.552 13.761-7.055 20.608-2.307 6.783-5.326 13.367-9.377 19.427-3.92 5.801-8.42 11.145-13.114 16.553-9.193 10.753-18.45 21.31-24.035 34.547-5.454 12.978-7.874 27.335-16.425 38.739-.913 1.16-1.695 2.061-2.609 3.221-.194.063-.131.258-.325.321l-.195.064c-5.579 2.035-11.095 4.265-16.674 6.3l-1.167.381-.516-.262c-.453-.068-.778.254-.846.707-12.715 4.578-25.62 8.573-39.025 9.715-3.756.364-7.381.47-11.07.381-.647-.004-.782.901-.071 1.1 14.103.999 27.973-2.018 41.267-6.14l11.091-3.618s.194-.063.258.131c1.226.462 2.711 1.054 4.133 1.452 16.576 9.237 34.395 16.346 52.615 21.386 19.836 5.374 40.594 8.294 61.174 8.687 20.58.394 41.175-1.802 61.14-6.592 22.558-5.421 44.104-14.604 66.218-21.387 14.85-4.629 30.535-8.023 46.135-8.374 4.594.224 9.446.58 14.04.804 1.358.203 2.522.47 3.88.673l6.98 1.599c.647.005 1.04-.77.981-1.612zm-197.511-45.188c.194-.064.13-.258.325-.322l.064.195-.39.127zm37.612-42.422c-3.467 5.87-7.193 11.608-10.66 17.477-1.894 2.771-3.53 5.674-5.425 8.446-1.045 1.417-1.831 2.966-2.876 4.384l-.389.127c-.846.706-1.755 1.218-2.406 1.862 2.414-3.157 4.25-6.771 6.148-10.19 6.355-12.195 11.935-24.784 17.774-37.242 5.644-12.394 11.42-25.046 17.774-37.241 5.962-11.421 12.634-22.644 20.208-33.083 5.81-7.925 12.137-15.589 19.17-22.406-2.94 4.19-5.878 8.379-8.496 12.894-6.017 9.931-11.196 20.45-16.18 30.907-10.752 21.814-22.084 43.17-34.642 64.065zM47.03 99.311c-9.02 13.926-19.456 26.807-32.017 37.796a174.71 174.71 0 01-39.194 26.354 184.872 184.872 0 01-34.642 12.593c16.04-8.247 31.502-17.599 45.683-28.901 23.807-18.75 42.143-42.392 59.835-66.685 15.08-20.426 29.775-41.372 48.137-58.992-7.76 9.208-14.491 19.588-20.576 29.972C65.03 67.38 56.836 83.836 47.03 99.311zm56.908-84.897c-7.7 10.05-13.468 21.407-18.524 32.963C78.32 63.906 72.647 80.832 65.49 97.166c-7.221 16.139-16.249 31.36-29.592 43.25-13.149 11.827-29.25 19.88-45.984 25.339-15.37 5.014-31.182 8.018-47.184 10.439 9.53-2.463 18.87-5.51 27.891-9.53 14.28-6.381 27.73-14.645 40.024-24.471 12.62-10.147 23.569-22.118 32.842-35.265 10.58-15.081 19.227-31.47 28.39-47.597 9.031-15.868 18.968-31.6 31.672-44.79.063.194.258.13.389-.127zm.223-4.596c-8.716 6.936-16.6 15.107-23.835 23.282-9.909 11.201-18.721 23.121-27.728 35.105-17.757 24.099-34.806 49.043-57.39 68.902-18.875 16.71-40.64 29.841-63.298 40.894l-.779.254-.194.063c-.584.191-1.23.186-1.62.313l.195-.063c5.908-3.005 11.563-6.788 16.96-10.702 6.631-4.748 12.683-9.952 18.608-15.546 11.981-11.447 22.807-24.455 32.728-37.598 11.029-14.366 21.414-29.383 32.7-43.618 10.374-13.076 21.39-25.5 34.015-36.294 11.651-10.478 24.91-19.326 39.638-24.992zM-5.85 99.548c10.183-13.66 21.656-26.663 33.963-38.43 11.656-11.126 24.34-21.078 37.535-30.121-11.516 9.572-21.746 20.447-31.27 32.168C22.834 77.27 12.385 92.092 1.614 106.59c-10.183 13.66-20.56 27.383-32.35 39.413-10.489 10.744-22.073 20.768-35.066 28.453 4.23-3.534 7.943-7.329 11.85-11.188 6.06-6.5 11.8-13.326 17.022-20.413 10.703-14.045 20.44-29.067 31.08-43.306zm19.967-66.816a89.973 89.973 0 00-6.41 10.706C3.973 50.47.95 57.702-1.814 65.065c-5.66 14.984-10.094 30.43-16.787 44.888-1.902 4.067-3.868 7.939-6.093 11.679-2.418 3.805-4.9 7.414-7.32 11.218l-1.762 2.514c-10.056 14.048-21.144 27.572-34.225 38.947 1.894-2.772 3.725-5.738 5.62-8.51 3.268-5.158 6.537-10.316 9.61-15.411 6.343-10.253 12.233-20.574 18.06-31.089 5.826-10.516 11.395-21.162 16.9-32.003 5.243-10.325 10.227-20.781 16.05-30.65 3.336-5.61 6.672-11.221 10.588-16.375 1.247-2.776 3.269-5.159 5.29-7.541zm-17.261 7.139C1.6 36.6 6.605 33.46 11.608 30.32c.715-.448 1.493-.702 2.208-1.151-.326.322-.457.58-.783.901-.913 1.16-1.89 2.125-2.803 3.284-2.669 2.378-5.274 4.95-7.88 7.524-4.364 4.439-8.6 9.267-12.322 14.357-7.895 10.114-14.695 20.947-20.783 31.978-6.482 11.806-12.448 23.874-18.156 36.074-5.838 12.458-11.483 24.852-17.58 37.178-2.62 5.163-4.984 10.456-8.38 15.225-2.744 4.126-6.457 7.922-10.936 10.029l-.39.127c3.98-4.959 7.96-9.919 11.295-15.53 3.468-5.869 6.677-11.869 9.433-17.937 5.84-12.458 10.646-25.44 15.905-38.355 5.064-12.851 10.518-25.83 17.13-37.893 5.827-10.516 13.075-20.633 21.673-29.253 2.542-2.767 5.08-4.887 7.617-7.007zm-56.36 79.98c4.418-12.855 9.03-25.774 15.706-37.644 6.808-12.127 15.87-22.622 26.282-31.618.326-.322.846-.707 1.172-1.028-5.345 6.05-10.048 12.754-14.234 19.719-7.26 12.06-12.777 24.843-17.778 37.889-5.065 12.851-9.808 26.028-15.52 38.875-2.887 6.326-5.838 12.458-9.242 18.522-3.404 6.063-7.324 11.865-11.243 17.666-.85 1.354-1.958 2.577-2.872 3.737l-1.75.571c6.46-8.569 11.505-18.183 15.45-27.869 5.58-12.589 9.675-25.77 14.03-38.82zM-188.06 225.322c.326-.321.394-.774.719-1.096-.131.258-.262.516-.198.711l.063.195-.584.19zm90.405-141.913c-3.845 14.607-7.691 29.215-12.379 43.881-4.556 14.408-10.018 28.681-17.159 42.425-6.748 12.97-15.108 24.958-25.592 35.055-7.033 6.817-14.837 12.593-23.473 17.133l-10.317 4.012c9.03-5.315 16.842-12.386 23.752-20.24 8.606-9.914 15.667-21.263 22.081-32.617 7.138-13.096 13.953-26.519 20.122-39.945 6.625-14.007 12.67-28.47 18.521-42.87l7.889-19.372c-1.192 4.265-2.253 8.273-3.445 12.538zm4.209-20.756l-8.485 21.505a1205.807 1205.807 0 01-17.934 42.032 793.043 793.043 0 01-19.804 40.919c-6.156 11.484-12.828 22.706-20.854 33.078-7.308 9.275-15.643 17.379-25.392 23.789 4.794-11.04 13.65-19.528 21.731-28.41 8.539-9.462 15.08-20.426 20.911-31.589 5.898-11.615 11.538-23.362 17.241-34.914 5.835-11.81 11.475-23.557 17.31-35.367 3.213-6.648 6.49-13.101 9.703-19.749 1.51-3.292 3.213-6.648 4.723-9.94l2.621-5.162c-.655 1.29-1.116 2.518-1.772 3.808zm-80.751 129.934c2.502-6.847 5.39-13.173 9.505-19.038 3.919-5.801 8.55-11.404 13.244-16.812 9.194-10.752 18.582-21.568 23.909-34.935 2.76-6.716 4.552-13.761 6.797-20.739 2.502-6.847 5.584-13.236 9.893-19.165 4.703-6.702 10.179-13.012 15.27-19.841-1.441 2.839-2.689 5.615-4.13 8.454l-8.46 17.62c-5.641 11.747-11.475 23.557-17.052 35.499-5.64 11.747-11.475 23.557-17.309 35.367-5.704 11.552-11.987 22.647-20.271 32.887-6.327 7.664-13.943 14.671-19.563 23.181 3.217-7.295 5.597-15.179 8.167-22.478zm79.31 16.769c18.747-6.546 38.509-9.978 58.318-10.625 21.04-.834 41.866 1.633 62.354 6.364 19.066 4.333 37.73 10.736 55.546 18.492-13.821-4.752-27.71-9.051-41.797-12.64-20.678-5.314-41.69-9.013-63.044-9.8-20.643-.588-41.044 1.545-60.886 7.372-15.693 4.688-30.814 11.129-46.125 16.985 11.88-5.814 23.245-11.891 35.634-16.148zm-51.733 23.553c18.028-5.45 35.099-13.173 52.936-19.207 10.054-3.495 20.556-6.275 31.182-8.019 10.042-1.553 20.338-2.327 30.63-2.454 21.1.009 41.921 3.123 62.278 8.112 5.364 1.265 10.986 2.662 16.282 4.38-5.947-1.075-11.832-1.955-17.716-2.836a314.35 314.35 0 00-51.764-2.28c-17.416.728-34.776 2.945-52.012 6.199-17.237 3.254-34.22 7.287-51.398 11.383-7 1.637-13.806 3.212-20.807 4.849l.389-.127zm-8.628 3.246c7.648-1.634 15.037-3.398 22.621-5.226 16.983-4.033 33.966-8.065 51.203-11.32 17.042-3.19 34.275-5.797 51.627-6.719 17.352-.923 34.5-.487 51.705 1.438 10.93 1.173 22.052 2.929 32.78 5.459a210.74 210.74 0 00-15.33-1.46c-18.892-1.159-37.8.271-56.585 2.738-19.822 2.59-39.394 6.606-59.093 10.232-19.051 3.631-37.972 7.003-57.206 8.755-13.21 1.079-26.674 1.38-40.067.58 6.218-.736 12.313-2.51 18.345-4.477zm199.158-.576c-22.367 6.005-43.85 15.382-66.221 22.034-20.037 5.89-40.768 8.992-61.74 9.373-20.521.448-41.283-1.824-61.318-6.487-18.419-4.329-36.242-10.791-53.211-19.254a183.03 183.03 0 0013.376 3.39c14.532 4.951 29.719 8.611 44.978 11.171 19.269 2.975 38.744 3.944 58.038 3.034 20.33-1.032 40.48-4.591 60.188-9.512 20.485-5.176 40.91-11.193 61.904-14.811 6.543-1.058 12.892-2.052 19.627-2.526-5.118.808-10.304 2.069-15.621 3.588zm-219.092 10.74c7.5 1.214 15.131 2.171 22.636 2.738 20.702 1.43 41.425-.377 61.771-3.999 20.799-3.555 41.348-8.535 62.142-11.442 21.184-3.034 42.419-3.931 63.84-3.597 5.63.102 11.26.203 16.76.563-1.23.186-2.462.372-3.887.622-20.731 3.102-40.704 9.186-60.995 14.298-19.838 5.18-39.93 9.58-60.458 11.324-19.492 1.621-39.23 1.168-58.761-1.291-14.421-1.972-28.965-4.98-43.048-9.216zm252.208-17.451l-1.942-.013c-10.546-.651-21.223-1.045-31.641-1.307-21.033-.461-42.331.241-63.253 2.759-20.921 2.518-41.339 7.24-62.01 11.184-20.477 3.88-41.077 6.724-62.173 6.068-10.224-.326-20.445-1.299-30.466-2.983-5.237-.876-10.28-1.816-15.255-3.208 2.458.275 5.047.292 7.378.178a54.386 54.386 0 002.719-.241c12.873 1.184 25.817 1.269 38.702.512 19.035-1.041 37.888-3.961 56.42-7.207 19.762-3.432 39.333-7.447 59.092-10.232 18.916-2.725 37.955-4.413 57.11-3.77 17.407.567 34.801 3.076 51.207 8.493-2.005-.208-3.947-.22-5.888-.233z" fill="#C3D64B"/></svg>