<svg width="286" height="529" fill="none" xmlns="http://www.w3.org/2000/svg"><path d="M538.118 526.647c-38.836-12.943-77.084-27.944-113.861-45.593-1.471-1.177-3.236-2.354-4.707-3.236l-5.296-3.53c-.883-.588-1.766-.882-2.648-1.471-.883-.588-2.06-.882-3.237-1.47h-.294c-1.177-.589-2.648-.883-3.825-1.471-3.53-2.648-6.178-6.177-7.649-10.295l-1.765-5.295c0-.294-.295-.588-.295-.883-1.471-6.177-1.765-12.354-2.353-18.531-2.06-15.884-5.002-31.474-9.121-46.77-4.119-15.296-9.415-30.297-15.593-45.005-6.179-14.708-13.534-28.827-21.772-42.358-7.65-12.648-15.888-24.708-25.303-36.18-.588-.883-1.471-2.059-2.059-2.942-1.177-1.765-2.354-3.235-3.825-4.706-.294-.294-.882-.294-1.177 0-.588 0-1.471.588-1.177 1.177-.294.294-.294.588 0 .882 2.06 3.824 3.531 7.942 5.002 12.06v.294c1.177 4.413 1.765 8.825 2.354 13.531.882 5.883 1.177 11.766 1.471 17.649v1.471c0 .294 0 .294.294.588 0 2.648.294 5.001.294 7.648 1.177 18.238 3.237 36.181 7.65 53.83s10.886 34.709 19.712 50.299c7.944 13.825 17.653 26.768 28.833 37.946l2.354 2.353c.588.588.883 1.177 1.471 1.765.588.588 1.177 1.471 1.765 2.059-34.129-19.12-67.081-40.593-97.385-65.301-5.001-3.824-9.709-7.942-14.416-12.061v-.294c-5.884-11.177-11.769-22.061-17.947-32.945.294 0 .294-.294.294-.588-2.059-5.295-4.413-10.589-5.884-16.178s-2.648-11.178-2.942-16.767c-.883-10.295-.295-20.296 1.471-30.297h.588c.589-.294.589-.883.589-1.471v-.294c2.059-2.647 4.707-5.295 7.061-7.648 2.942-2.647 6.178-5.295 9.709-7.648 6.473-5 12.945-9.707 18.535-15.884 10.298-11.766 17.065-27.062 18.83-42.652 1.177-8.824.588-17.649-1.177-26.179.589-.883-.588-1.765-1.471-1.177h-.294c-14.711 5.883-27.656 15.59-37.365 27.944-10.592 13.237-17.065 29.415-18.83 45.888-1.177 9.707-.588 19.708 1.471 29.415v.294c-1.471 8.825-2.059 17.649-1.471 26.768.588 9.707 2.648 19.12 6.178 27.944-.588-1.177-1.471-2.353-2.059-3.53-.883-2.647-2.354-5.294-3.825-7.942-.588-1.471-1.177-2.941-1.765-4.706-.294-.883-.589-2.059-.883-2.942v-.588c0-.294-.294-.588-.294-.882-.588-1.765-1.177-3.53-1.471-5.295-.294-.883-.294-1.471-.588-2.353 0-.295.294-.295 0-.589-.589-2.353-1.472-4.706-2.06-7.059-.588-3.236-1.471-6.177-2.059-9.413-2.648-12.943-4.708-26.179-7.65-39.122-3.236-13.825-7.944-27.062-12.357-40.593-4.413-13.237-8.826-26.768-11.769-40.593-2.647-13.825-4.119-27.944-2.059-41.769l.883-5.295c.294-.882-.589-1.47-1.471-1.47-.883.294-1.766.294-2.648.588-.589 0-.883.588-.883.882-2.354 2.942-4.413 6.177-6.179 9.413a119.464 119.464 0 00-16.77 33.533c-5.001 15.884-6.472 32.651-4.119 49.418 2.354 16.178 8.532 31.179 17.947 44.416 8.533 12.06 19.124 22.65 29.422 33.239 7.061 7.354 13.828 15.296 19.712 23.532 1.177 1.765 2.06 3.53 3.236 5.589l28.245 49.417c.588.883 1.177 2.059 1.765 2.942-30.598-26.474-58.254-55.595-82.085-87.951-20.007-27.062-37.66-56.183-51.782-87.069-2.648-9.118-4.413-18.237-5.296-27.65-.883-8.236-.883-16.472-.294-24.708h.294c3.825-3.53 7.65-7.354 11.18-11.472 3.531-4.118 6.767-8.236 10.003-12.649 6.179-8.824 11.769-17.943 16.182-27.65 4.708-9.707 8.238-19.708 11.18-30.297 2.942-10.296 4.708-20.885 5.885-31.474.882-10.59 1.176-21.473.294-32.063 0-1.47-.294-2.647-.294-4.118 0-.294-.295-.588-.295-.588v-.294c0-.589-.882-.589-1.176-.295v-.294c0-.588-.883-.882-1.177-.294-.883 2.648-1.471 5.295-2.354 7.942-.883 2.648-1.765 5-2.942 7.354-2.354 5-5.296 9.707-8.532 14.413-6.473 9.413-14.417 17.65-21.478 26.474-7.061 8.824-13.534 17.943-17.653 28.238-4.119 10.001-6.178 20.591-6.473 31.474-.294 10.884 1.177 21.473 4.708 31.769.294 1.176.883 2.059 1.177 3.235-.589 7.06-.589 13.825-.294 20.885.588 7.648 1.471 15.002 3.236 22.355-4.119-9.118-7.65-18.531-11.18-27.65 0-.294 0-.294-.294-.588v-.882c0-.589-.295-1.177-.295-1.765l-.882-3.53-.883-3.53c-.294-1.177-.883-2.059-1.471-3.236 0-.294-.294-.294-.588-.294-.295-1.176-.589-2.059-.883-3.235l-1.765-7.06c-.883-4.706-1.471-9.707-1.471-14.413-.295-10.001.294-20.297 1.176-30.298.883-10.59 1.471-21.179.589-31.768-.883-10.001-3.237-19.708-6.473-29.121-1.765-5.295-3.825-10.295-6.178-15.59-1.177-2.647-2.354-5.295-3.531-7.648-.883-1.765-1.471-3.53-2.354-5 0-.295-.294-.295-.294-.589-.294-.588-.588-.882-.882-1.47-.295-.295-.589 0-.589.294s0 .588.294.882c-.294 0-.294.294-.588.294a26.86 26.86 0 00-2.354 3.824l-.882 1.765c-4.708 7.648-8.827 15.59-12.357 24.12-4.12 10.296-7.062 20.885-7.356 32.063-.588 11.178 1.765 22.355 5.884 32.945 4.414 10.883 10.592 20.59 17.065 30.003l10.592 14.119c2.059 2.353 3.824 5.001 5.884 7.354 1.765 2.059 3.236 4.118 5.001 6.177 0 .294 0 .294.295.588l.882.883c0 .588.295.882.295 1.471.294.588.588.588.882.588l.294.294c5.59 15.59 11.769 30.886 18.83 45.888.589 1.47 1.177 3.235 1.765 4.706.589 1.765 1.471 3.236 2.354 5.001.294.294.588.294.883 0 6.178 12.648 13.239 24.708 20.595 36.768-2.354-2.941-4.414-5.589-6.767-8.53-3.825-5.883-7.356-12.06-10.886-18.237-7.65-13.237-15.005-26.474-24.126-38.828-8.826-11.766-19.124-22.65-31.775-30.298-12.357-7.648-26.185-12.648-40.307-15.59-14.417-3.235-28.833-5-43.544-6.177-.882 0-1.765 0-2.353-.294-.295.588-.589.882-.883 1.471 2.354 1.765 4.707 3.235 7.061 5.294l.588.589c2.943 2.353 5.885 4.706 8.533 7.354 5.59 5.294 11.18 11.177 16.181 16.766 10.592 11.766 20.595 23.826 32.364 34.122 6.178 5.294 12.651 10.001 20.007 14.119 7.65 4.412 15.593 7.942 23.537 11.472 7.943 3.529 15.887 7.353 23.537 11.472 7.649 4.118 14.416 9.412 20.889 15.001 12.945 11.472 23.537 25.003 33.54 38.828 1.177 1.765 2.648 3.236 3.825 5.001.294.294.589.294.883.294 22.948 30.003 49.428 57.653 78.261 82.362-5.296-2.353-10.592-5.295-15.299-8.825a193.19 193.19 0 01-16.771-14.119c-3.236-2.941-6.472-6.177-9.709-9.413 0-.294-.294-.294-.294-.588-.588-.882-1.177-2.059-1.765-2.941-1.471-1.765-3.237-3.53-4.708-5.001l-.294-.294c0-.294-.294-.588-.588-.588l-5.296-4.413c-2.354-2.941-5.002-5.883-7.944-8.53-.294-.588-.883-1.471-1.471-2.059-.294-.294-.588 0-.588.294-2.943-2.942-6.179-5.589-9.415-7.942-10.298-7.648-21.478-13.825-33.541-17.943-12.357-4.412-25.302-6.472-38.542-6.766-13.534 0-26.773 2.059-39.719 6.177-12.945 4.119-25.008 10.59-35.894 18.532-1.176.882-2.648 2.059-3.825 2.941-.882.883 0 2.354.883 2.059-.294.589 0 1.177.589 1.177.882-.294 1.765-.588 2.648-.588 8.826 6.177 18.24 11.178 28.244 14.707 11.18 4.413 22.655 6.766 34.717 7.06 12.946.294 25.597-1.471 38.248-3.236 11.769-1.765 23.831-3.235 35.894-3.235 11.18 0 22.655 1.765 33.246 6.177.883.294 1.766.882 2.943 1.176 1.765 1.765 3.53 3.236 5.295 5.001.295.588.295.882.883 1.177h.589c1.765 1.764 3.53 3.529 5.295 5 10.592 10.001 21.772 20.002 35.6 25.297 1.471.588 2.942.882 4.413 1.471 35.012 29.709 73.26 55.594 113.567 77.655-2.059-.588-4.119-1.176-6.178-2.059-9.121-2.941-18.242-5.588-27.068-8.236-12.063-3.53-24.42-6.765-36.483-9.707-6.472-2.353-12.945-4.412-19.418-6.471-14.122-4.412-28.244-8.236-42.661-10.884-13.828-2.647-27.656-4.412-41.778-4.412a185.208 185.208 0 00-40.308 3.53c-12.945 2.647-25.89 6.765-37.659 12.943-.294 0-.588.294-.883.294-2.059.588-4.413 1.176-6.472 2.059-.883.294-.589 2.059.588 1.765h.294c11.475 7.353 24.42 12.648 37.366 16.472 13.239 3.824 26.773 6.177 40.601 6.766 14.417.588 28.539-.883 42.661-3.53 12.946-2.353 25.891-5.295 38.836-7.648 5.59-.588 11.181-.883 16.771-1.177 7.061-.294 13.828-.588 20.889-.588 1.177 0 2.353 0 3.53-.294a309.856 309.856 0 0132.952 6.177c1.766.294 3.531.882 5.296 1.471 2.354.588 4.708 1.47 7.061 2.059 2.942.882 6.179 1.765 9.121 2.941a202.084 202.084 0 0123.243 9.413c3.825 2.353 7.355 4.118 11.474 6.177 1.765.883 3.531 1.765 5.59 2.353h.883l1.765.883c.294.294.883.588 1.177.882.883.589 1.471 1.471 2.648 1.471.294 0 .588 0 .883-.294 29.421 13.825 59.725 26.179 90.618 36.769 5.59 2.059 11.474 3.824 17.064 5.589-.883 1.176 0-1.177-1.471-1.471zM255.378 267.5c5.296-5.589 10.886-10.883 15.888-16.766 10.003-11.766 18.829-24.709 24.125-39.416 0-.295 0-.295.295-.589 0 .294 0 .294-.295.589-1.765 6.765-4.413 13.531-7.649 20.002-3.237 6.471-7.061 12.354-11.475 17.943-4.707 5.883-10.003 10.884-15.299 15.59a116.771 116.771 0 00-8.532 8.53c-.588.589-.883 1.177-1.471 1.765 0-.294.294-.588.294-.588.294-1.177.883-2.353 1.471-3.53.589-1.471 1.471-2.353 2.648-3.53zm-1.471-.294c.883-2.353 2.06-4.706 3.236-7.059 3.237-6.178 6.767-12.061 10.592-17.944 7.356-11.471 15.594-22.943 22.066-35.004 3.237-6.177 6.179-12.648 8.238-19.413-.294 7.059-1.471 14.119-3.53 20.884-2.354 7.354-5.59 14.414-9.709 21.179-8.238 13.237-18.83 24.709-29.716 35.886-.588.589-.883.883-1.177 1.471zm27.656-17.943c-5.001 6.177-11.474 11.178-17.653 16.178-2.648 2.059-5.59 4.118-8.238 6.472 1.766-1.765 3.531-3.236 5.002-5.001 5.296-5.001 10.592-10.001 15.299-15.59 9.121-10.884 16.182-23.826 20.301-37.651 1.177-3.824 2.059-7.648 2.942-11.766 0-.883.294-1.471.294-2.353 0 10.001-2.059 20.296-5.884 29.709a72.533 72.533 0 01-12.063 20.002zm16.182-62.948a103.409 103.409 0 01-7.944 18.531c-3.236 6.177-7.061 12.06-10.886 17.943-7.649 11.472-15.887 22.65-22.654 34.71-1.765 3.236-3.531 6.766-5.002 10.295-.294.883-.882 2.06-1.177 2.942l-.882 1.765c-.295.294-.589.588-.589.882 2.354-8.53 5.59-17.06 9.415-25.297 5.296-10.883 11.474-21.473 18.241-31.474 6.767-10.295 14.123-20.002 21.184-29.709 0-.294.294-.294.294-.588zm-48.251 48.535c5.59-14.708 15.005-27.651 27.362-37.652 5.59-4.706 12.063-8.53 18.535-11.471-2.942 3.529-5.59 7.353-8.238 11.177-3.53 5.001-7.355 10.001-10.886 15.296-6.767 10.295-13.239 20.591-18.829 31.768-5.296 10.884-9.709 22.062-12.357 33.828-.295.882-.295 1.47-.589 2.353-2.059-15.296-.294-31.18 5.002-45.299zm-57.666-56.183c.294 12.354 2.059 24.414 4.413 36.475 2.648 11.766 5.884 23.532 10.003 35.003 4.119 11.472 8.827 22.65 13.534 33.828 4.413 10.001 9.121 19.708 13.828 29.415l-2.648-3.53-.588-.588c-4.413-7.648-8.826-15.59-12.945-23.532-8.238-15.296-15.594-31.18-20.301-47.947-4.708-16.178-7.061-33.239-7.061-50.005 0-8.825.588-17.649 1.765-26.18 0 5.295-.294 11.178 0 17.061zm39.719 125.896l-7.944-16.766a813.627 813.627 0 01-14.122-33.533c-4.413-11.472-7.944-22.944-10.886-34.71-2.942-11.766-5.002-23.826-5.59-35.887-.883-12.354 0-24.414 2.059-36.474 0-.589.295-1.177.295-2.059.294-1.765.882-3.53 1.176-5.001v.294c-1.765 10.296-2.353 20.885-1.765 31.474.589 11.766 2.648 23.532 5.296 35.298 2.648 11.472 6.473 22.944 10.297 34.122 4.119 11.178 8.238 22.355 12.357 33.827 3.237 8.236 6.179 16.767 8.827 25.297.882 3.53 1.765 7.06 2.648 10.884-.883-2.942-1.766-5.001-2.648-6.766zm-22.655-93.245c4.414 13.531 9.415 27.061 12.946 40.886 3.236 11.767 5.296 23.827 7.355 35.887-1.177-3.236-2.354-6.177-3.53-9.413-4.119-11.178-8.533-22.355-12.652-33.533s-7.943-22.356-10.886-34.122c-2.942-11.471-5.295-22.943-6.472-34.709a153.999 153.999 0 010-28.533c0 7.354.588 15.002 2.059 22.061 2.648 14.12 6.767 27.945 11.18 41.476zm-11.768-80.892c-.589 2.059-1.471 3.824-2.06 5.883-.588 2.059-1.177 4.118-1.765 5.883-1.177 4.118-2.059 8.531-2.648 12.649a188.659 188.659 0 00-2.648 25.591c-.588 17.061 1.177 34.121 5.296 50.594 4.119 17.06 10.886 33.239 18.83 48.829 3.53 6.765 7.061 13.531 10.886 20.296-2.06-2.353-4.119-4.706-6.473-7.06-9.709-10.883-17.947-23.237-24.714-36.18-6.767-12.943-11.769-26.768-14.122-41.181-2.354-14.119-2.648-28.827 0-42.946 1.765-9.707 4.707-19.12 8.826-27.944 2.354-3.824 4.708-7.354 7.355-10.884.883-.882 2.06-2.353 3.237-3.53zm-1.471-.882s0 .294 0 0c0 .294 0 0 0 0zm-3.237 140.015c-4.707-5.883-8.826-11.766-12.062-18.531-3.825-7.354-6.767-15.296-8.533-23.532-3.53-16.178-3.236-33.239.883-49.417 2.06-8.531 5.296-16.473 9.121-24.415-1.471 4.412-2.942 8.825-4.119 13.237-3.237 14.119-4.119 28.532-2.354 42.946 1.765 14.413 5.884 28.827 12.063 42.063 6.178 13.531 14.122 25.886 23.243 37.357 5.001 6.178 10.886 12.061 15.887 18.238-1.471-1.765-3.236-3.53-4.707-5.295-9.709-10.883-20.301-20.885-29.422-32.651zm-14.71-202.67c-2.648 10.296-6.179 20.297-10.298 30.004-4.413 9.707-9.415 19.12-15.593 27.944-2.942 4.413-6.179 8.531-9.415 12.649-3.236 4.118-7.061 7.942-10.592 12.06l-1.765 1.765v-.588c8.826-13.825 17.359-27.651 25.302-42.064 4.119-7.354 8.238-15.002 11.769-22.65 3.825-7.647 7.355-15.295 10.297-23.237.883-2.06 1.766-4.413 2.354-6.766-.294 3.53-1.177 7.06-2.059 10.884zm4.707-26.179c0 .883-.294 2.06-.294 2.942-.294 1.47-.589 2.941-.883 4.118-1.177 4.118-2.648 7.942-4.119 12.06-2.942 7.942-5.884 15.59-9.415 23.238-7.061 15.296-15.299 29.709-24.125 44.123a830.65 830.65 0 00-12.946 21.473c0-.883.295-1.471.295-2.354.588-2.647 1.471-5.294 2.648-7.942 1.765-4.118 3.824-8.236 5.884-12.354 4.707-8.53 9.709-16.767 14.122-25.297 4.708-8.825 9.121-17.649 13.534-26.474 4.413-8.824 8.532-17.648 12.651-26.767.883-2.353 2.06-4.707 2.942-7.354-.294.294-.294.294-.294.588zm.589-21.767v.294c0 4.413 0 8.825-.295 12.943-.882 4.118-2.353 8.53-3.824 12.354-3.237 9.413-7.65 18.238-11.769 27.062-4.413 8.825-8.826 17.65-13.24 26.18-4.413 8.53-9.414 17.06-14.122 25.591-2.354 4.412-4.707 9.118-6.767 13.825-.588 1.176-1.177 2.647-1.471 4.118.294-2.353.883-5.001 1.471-7.354 3.237-15.002 8.827-28.827 16.182-42.063 7.355-13.531 15.887-26.474 22.654-40.593 5.002-10.295 9.415-21.18 11.181-32.357zm-56.784 120.602c-1.471-6.177-2.059-12.649-2.059-19.12 0-10.589 1.765-21.473 5.59-31.474 3.825-10.59 9.709-19.708 16.77-28.533 7.061-8.824 14.711-17.06 21.478-26.179 1.765-2.353 3.236-4.706 4.707-7.06-5.002 10.59-10.886 20.885-16.77 31.18-10.298 17.65-20.301 35.887-25.597 55.889-2.648 8.53-3.825 17.061-4.119 25.297zm.883 3.53c0-3.53 0-7.06.294-10.59.589-5 1.471-10.001 2.648-15.001 2.354-10.002 6.179-19.709 10.592-29.121 8.826-18.238 20.006-35.298 29.421-53.242 4.708-8.824 9.121-18.237 12.357-28.238-.588 6.177-1.177 12.06-2.942 17.943-2.06 7.354-4.707 14.708-7.944 21.767-6.473 14.12-15.005 27.062-22.654 40.593-7.356 13.237-13.534 27.062-17.359 41.769-1.471 5.883-2.648 12.061-3.236 18.238-.294-1.177-.883-2.648-1.177-4.118zM98.268 21.591a271.913 271.913 0 015.59 13.825c3.531 9.412 6.178 19.12 7.061 29.12 2.06 19.415-1.765 38.828-1.765 58.536-.294-1.176-.294-2.059-.589-3.235-.294-4.118-.588-7.942-.882-12.06-.294-7.942-.294-16.179-.589-24.12-.588-15.885-1.177-32.063-5.59-47.653-1.177-4.118-2.648-8.53-3.825-12.648-.588-2.354-1.176-4.413-1.765-6.766.883 1.765 1.766 3.236 2.354 5zm-2.648.294c1.177 3.824 2.354 7.648 3.825 11.472 2.353 7.648 4.413 15.59 5.296 23.532 2.059 16.178 1.471 32.062 2.059 48.24 0 1.765.294 3.824.294 5.589l-.882-5.295a496.588 496.588 0 01-4.414-29.12c-1.471-9.707-2.647-19.414-3.824-29.415-.589-5.59-1.177-10.884-1.766-16.473l-.882-9.707c0 .588.294.883.294 1.177zm-1.177-4.118c.294 3.53.589 7.353.883 10.883.588 5 .882 9.707 1.47 14.708 1.178 10 2.06 19.708 3.237 29.709a967.464 967.464 0 008.827 58.536c0 .588.294 1.471.294 2.059C99.739 99.54 94.737 64.536 94.149 29.238c0-3.823.294-7.647.294-11.471zm2.648 119.131c-6.767-9.119-13.24-18.826-17.947-29.416-4.707-10-7.65-20.884-7.944-32.062-.294-10.883 2.06-21.767 5.885-31.768 1.176-2.942 2.353-5.883 3.824-8.825-3.236 12.06-4.119 24.709-3.236 37.063 1.765 21.18 9.12 41.475 18.83 60.301 2.648 5.295 5.59 10.59 8.826 15.59.294.588.883 1.471 1.177 2.059-2.942-4.706-6.179-8.824-9.415-12.942zm10.886 11.471c-2.648-4.412-5.59-9.118-7.944-13.825-5.001-9.412-9.709-18.825-13.24-28.826-7.06-19.12-10.297-40.005-7.06-60.301.882-5 1.765-10.001 3.53-14.708 2.354-5.294 5.002-10.295 8.238-15.001-1.471 3.53-2.648 7.353-3.53 11.177-1.177 4.707-1.766 9.707-2.06 14.708-.883 10-.294 19.708.883 29.709a255.968 255.968 0 0014.122 58.83c2.648 7.354 5.59 14.413 9.12 21.179a59.035 59.035 0 01-2.059-2.942zm-13.534-43.828c-5.001-19.12-8.532-39.122-7.65-59.124.295-5.59.883-10.884 2.06-16.179 1.177-5.588 2.942-10.883 4.413-16.178-2.353 46.77 4.708 93.54 18.83 138.251 0 .294.294.588.294.588-7.649-15.296-13.828-31.18-17.947-47.358zM41.19 146.899c14.123 2.941 27.95 7.059 40.602 14.119 12.945 7.059 23.537 17.355 32.658 28.827 9.415 11.766 16.77 25.002 24.419 37.945 1.766 2.942 3.237 5.883 5.002 8.825-8.532-10.002-17.359-20.003-26.773-29.121-10.886-10.59-22.066-20.591-34.423-29.71-11.769-8.824-24.42-16.472-37.366-22.943a208.841 208.841 0 00-31.775-12.355c9.12 1.177 18.536 2.354 27.656 4.413zm74.731 84.421c-15.594-7.354-31.481-13.825-45.31-24.709-12.356-9.707-22.654-21.767-33.245-33.533a239.434 239.434 0 00-11.769-12.648c1.471 1.176 2.942 2.059 4.413 3.235 8.532 6.472 17.065 13.237 25.597 19.708 17.064 13.237 34.423 26.18 51.487 39.416 4.708 3.53 9.415 7.354 14.123 10.884-1.766-.882-3.531-1.471-5.296-2.353zm12.063 5.883c-1.472-1.177-2.648-2.059-4.119-3.236-4.414-3.235-8.533-6.471-12.946-9.707-8.532-6.471-17.064-13.237-25.89-19.708-17.065-12.943-34.424-26.179-51.488-39.122-4.413-3.53-9.12-6.765-13.534-10.295-5.002-4.707-10.003-9.119-15.593-12.943 10.886 6.177 22.066 12.355 32.657 18.826 11.475 6.765 22.36 13.825 33.247 21.767 10.591 7.648 20.3 16.178 29.715 25.003 9.121 8.824 17.947 18.237 27.656 26.767 2.942 2.648 5.885 5.295 9.121 7.648-2.942-1.765-5.884-3.529-8.826-5zm20.006 11.178c-5.296-3.53-10.297-7.354-15.299-11.472-9.709-8.237-18.83-17.649-27.95-26.474-9.415-9.119-18.83-17.943-29.422-25.885-10.591-7.942-21.772-15.296-33.246-22.061-11.474-6.766-22.949-13.237-34.717-19.414-.589-.294-1.471-.589-2.06-1.177a240.175 240.175 0 0134.423 12.354c13.24 6.178 25.891 13.825 37.66 22.356a321.213 321.213 0 0134.129 28.827 440.227 440.227 0 0131.775 34.415c3.236 3.824 6.178 7.648 9.414 11.472 0 .294.295.294.295.588-1.471-1.176-3.237-2.353-5.002-3.529zm-98.562 75.89c7.356-2.059 14.417-4.412 21.772-6.471 8.827-2.353 17.947-4.118 27.068-5.589 17.359-2.353 35.306-2.647 52.664.588 16.476 2.942 32.364 8.531 46.486 17.061 4.119 2.353 7.944 5.295 11.474 8.236l.295.295c-2.648-.883-5.296-1.765-8.238-2.354-5.59-1.47-10.886-2.941-16.476-4.118-10.886-2.353-22.361-4.118-33.541-5-11.18-.883-22.36-1.471-33.54-.883-10.886.294-22.066 1.471-32.952 2.059-11.769.589-23.243 0-34.423-3.824h-.589zm158.582 10.001c0 .295.294.295.294.589-.294-.294-.294-.589-.294-.589l-1.766-1.764c.295.588 1.177 1.176 1.766 1.764zm-154.168-7.353c8.238 2.647 17.064 2.941 25.596 2.941 10.886-.294 21.772-1.765 32.658-2.059 22.654-.882 45.309.883 67.375 5.589a211.64 211.64 0 0118.535 4.412c.295 0 .295 0 .589.294-4.413-.588-8.827-1.47-12.946-1.764-11.18-1.471-22.654-2.06-33.834-2.06-11.475 0-22.655.589-34.129 1.471-11.18.883-22.654 1.471-33.835.294-9.414-.882-18.83-3.235-27.361-7.059-.883-1.177-1.766-1.471-2.648-2.059zm63.55-30.004c12.945-.294 25.891 1.177 38.248 5.001 10.297 3.236 20.3 7.942 29.715 13.825-8.826-4.706-18.535-7.648-28.244-10.001-12.651-2.942-25.891-4.707-39.131-4.707a155.26 155.26 0 00-36.776 4.413c-6.767 1.765-13.534 4.412-20.007 7.353 5.59-3.235 11.474-5.883 17.653-8.236 12.063-4.412 25.302-7.059 38.542-7.648zm-70.906 25.591c1.177-.882 2.648-2.059 3.825-2.941 3.53-2.059 6.767-4.118 10.297-5.589 5.296-2.353 10.592-4.706 16.182-6.177 11.769-3.53 23.832-5.295 36.189-5.589 12.945-.294 25.89 1.471 38.247 4.118 11.769 2.648 23.832 5.883 34.423 12.06 5.002 2.942 9.415 6.472 13.829 10.296-13.24-8.237-27.951-14.12-42.956-17.355-17.064-3.824-34.717-4.118-52.37-2.353-9.12.882-18.241 2.647-27.362 4.706a196.732 196.732 0 00-26.479 7.942c-1.177.294-2.354.882-3.236 1.471-.294-.294-.294-.589-.589-.589zm108.271 17.944c-12.651 1.765-25.597 3.824-38.248 4.118-12.063.294-24.125-1.471-35.894-5.295-5.59-1.765-11.18-4.118-16.476-6.765 15.005 5 32.07 5 47.663 4.118 11.768-.589 23.243-1.471 35.011-1.471 11.475 0 22.655.882 34.129 2.353 2.06.294 4.413.588 6.473.883-10.886-.589-21.772.588-32.658 2.059zm255.672 133.544s.294.294 0 0c0 .294 0 0 0 0zm-13.24-8.236v-.589c.295.295.589.883.883 1.177-.294-.294-.588-.294-.883-.588zm-33.834-125.897c6.472 14.708 12.063 30.004 16.476 45.3 4.413 15.589 7.649 31.179 9.709 47.064.294 1.47.294 2.941.588 4.412-.588-2.353-1.177-4.707-1.765-6.766-3.236-11.766-6.473-23.826-10.003-35.592-3.531-11.766-7.061-23.532-11.18-35.004-4.119-11.766-8.238-23.238-12.946-34.71-2.648-6.765-5.59-13.236-8.826-20.002 6.472 11.472 12.357 23.238 17.947 35.298zM340.7 297.21c.294.294.294.588.589.588 3.53 7.648 7.061 15.296 10.297 22.944a484.59 484.59 0 0112.946 34.415c4.119 11.472 7.649 23.238 11.18 35.004 3.53 11.766 6.767 23.826 10.003 35.592 1.765 7.06 3.531 14.119 5.59 20.885.588 3.53 1.177 6.765 2.06 10.295.294 1.177.882 2.353 1.176 3.53 0 .294.295.882.295 1.177.294 1.176.588 2.059.882 2.941-7.061-5.295-12.651-12.648-16.77-20.59-7.355-14.708-9.709-31.475-11.474-47.653a356.843 356.843 0 00-3.531-24.708c-1.471-7.942-3.236-15.885-5.296-23.532-4.119-15.59-9.709-30.592-16.476-45.3-2.353-5.294-5.001-10.589-7.649-15.59 2.059 3.236 4.119 6.472 6.178 10.002zm-22.654-32.063c2.648 4.118 5.59 8.53 7.944 12.649 4.119 7.059 7.943 14.119 11.474 21.473 7.061 14.707 12.945 29.709 17.359 45.299 4.707 15.884 7.649 32.062 9.709 48.535 2.059 16.472 3.824 33.533 10.885 48.829.295.588.589 1.47 1.177 2.059-.294-.589-.588-.883-.882-1.471-3.531-6.177-7.061-12.354-10.298-18.532-6.178-12.648-11.474-25.885-15.593-39.416-3.825-13.237-6.473-26.767-9.121-40.298-2.648-13.531-5.001-26.768-8.532-40.005-3.236-12.06-7.355-24.12-13.534-35.298-.294-.588-.294-1.177-.588-1.765-.294-.882-.589-1.471-.883-2.353-.294-.588-.294-.882-.588-1.471.588.589.882 1.177 1.471 1.765zm1.765 8.236c4.119 8.825 7.355 17.944 10.003 27.062 3.531 13.237 6.179 26.474 8.533 40.005 2.353 13.531 5.001 27.061 8.532 40.298 3.825 13.531 8.826 26.768 14.71 39.416.589 1.471 1.472 2.942 2.06 4.413-5.002-9.707-9.415-19.708-13.24-29.71-4.707-12.06-8.532-24.414-12.062-36.768a975.431 975.431 0 01-9.71-39.711c-2.353-10.883-4.413-21.767-6.472-32.945-.294-4.118-1.177-8.236-2.354-12.06zm33.835 145.311c-9.121-15.296-16.182-32.063-20.89-49.123a269.047 269.047 0 01-8.826-52.948c-.588-7.059-.883-14.119-1.471-21.473v-2.941c1.177 7.354 2.648 14.413 4.119 21.767 2.648 13.531 5.59 27.062 9.121 40.299a386.826 386.826 0 0011.474 37.063c4.413 11.766 9.121 23.238 15.005 34.415 3.236 6.472 6.767 12.649 10.592 18.826-7.356-8.236-13.534-16.767-19.124-25.885zm33.54 42.946c-.294 0-.294-.295-.588-.295h.294s0 .295.294.295zm-1.471-.883c0 .294 0 .294 0 0zM148.579 438.99c6.472-.882 12.651-1.471 19.123-2.059a422.259 422.259 0 0138.542-1.765c12.652 0 25.597.588 38.248 1.765 12.651 1.177 25.303 2.647 37.954 5.001 11.768 2.059 23.243 4.412 34.717 7.353-2.648 0-5.002 0-7.649.294-17.065-1.176-34.129-1.764-51.194-2.059-20.3-.294-40.601 0-61.196-.294-20.301-.294-40.308-1.471-60.314-4.118-1.471-.294-2.648-.294-4.119-.588-.294 0-.294-.294-.588-.294l1.765-.883c4.707-1.176 9.709-1.765 14.711-2.353zm150.931 11.472h-10.591c-13.24 0-26.48.294-39.719.882-13.24.589-26.774 1.765-40.013 2.354-12.946.882-26.185 1.176-39.131-.589-11.768-1.471-23.243-4.118-34.129-9.118 17.653 2.647 35.6 3.824 53.547 4.118 20.007.588 40.308.294 60.608.588 17.065 0 34.129.294 50.899 1.471-.588 0-1.176 0-1.471.294zm-167.407-7.06c.588 0 .882.294 1.471.294 9.709 5.295 20.3 8.237 30.892 9.707 12.651 2.059 25.302 2.059 38.248 1.765 13.534-.588 27.068-1.47 40.307-2.353a935.308 935.308 0 0140.602-.882h4.119c-3.825.588-7.944 1.47-11.769 2.059-9.709.882-19.418 2.059-29.127 2.647a435.177 435.177 0 01-39.13 1.765c-12.357 0-24.714-.883-36.777-3.236-12.357-2.059-24.126-5.589-35.6-10.589-.883 0-2.06-.588-3.236-1.177zm185.943 3.824c2.059.589 4.119 1.471 5.884 2.059h-3.531c-10.885-3.235-22.066-5.589-33.246-7.648a412.199 412.199 0 00-38.248-5.294c-12.945-1.177-25.596-2.059-38.542-2.059-12.651-.295-25.596.294-38.247 1.176-7.356.588-14.711 1.177-21.772 2.059 10.003-2.059 20.006-3.235 30.304-4.118a343.513 343.513 0 0155.018 0c18.241 1.471 36.777 4.118 54.724 7.942 9.12 1.471 18.535 3.53 27.656 5.883zm-150.932-18.237c12.945-2.942 26.479-4.412 39.719-4.412 13.828 0 27.362 1.176 41.19 3.529 14.416 2.354 28.539 6.178 42.661 10.296 1.177.294 2.354.588 3.53 1.176-17.064-3.529-34.423-6.471-52.075-7.942-18.242-1.765-36.777-2.353-55.018-1.176-9.121.588-18.536 1.47-27.657 2.941-4.707.588-9.12 1.471-13.533 2.353 6.766-2.941 14.122-5.294 21.183-6.765zm44.426 34.71c-13.828 0-27.362-1.765-40.601-5.001-6.767-1.765-13.24-3.824-19.713-6.471-2.059-.883-4.413-1.765-6.472-2.648 7.061 2.648 14.122 4.707 21.477 6.178 12.063 2.647 24.42 3.824 36.777 4.118 12.946.294 25.597 0 38.542-.883 7.061-.588 13.828-1.176 20.889-1.765-2.648.589-5.296 1.177-7.943 1.471-14.417 2.647-28.539 5.001-42.956 5.001z" fill="#C3D64B"/></svg>